<?xml version="1.0" encoding="UTF-8"?><svg id="body" xmlns="http://www.w3.org/2000/svg" viewBox="0 0 500 500"><defs><style>.cls-1{stroke:#ec6a5c;}.cls-1,.cls-2{fill:none;stroke-linecap:round;stroke-miterlimit:10;stroke-width:10px;}.cls-2{stroke:#000;}</style></defs><path class="cls-2" d="m209,73c-50,5-140.73,61-125.37,177"/><path class="cls-2" d="m239,68c78-14,197,50,174,194"/><path class="cls-2" d="m219,69c-1-14-10-21.34-10-21.34"/><path class="cls-2" d="m228.06,66.2c-.06-13.2,6.94-24.2,14.94-31.2"/><path class="cls-2" d="m228.06,98.73c-3.06,42.27-37.06,86.27-58.06,99.27"/><path class="cls-2" d="m256,199c-20-30-29-61-29-93"/><path class="cls-2" d="m145.45,194.06c-28.45-.04-41.45,31.94-41.45,49.94s15,46,47,46,48.06-27.94,48.03-47.97-11.13-47.91-53.58-47.97Z"/><path class="cls-2" d="m288.76,194.06c-38.74-1.43-50.77,26-51.77,47.97s21,50.97,54,50.97,53.69-21.94,51.35-49.47-24.82-48.41-53.58-49.47Z"/><path class="cls-2" d="m225.5,245.5c-11-4-26.47,0-26.47,0"/><path class="cls-2" d="m361.04,262.03c31.96-18.03,50.96-7.03,59.96,14.97s-11.23,37.58-46.36,41.56c-2.84.32-5.32,2.08-6.53,4.67-18.43,39.19-51.54,58.88-92.1,61.78-41.91,2.99-134,9-177-88"/><path class="cls-2" d="m312,438c-7-18-10.19-57.44-10.19-57.44"/><path class="cls-2" d="m217,433c-6-17-4.73-49.05-4.73-49.05"/><path class="cls-2" d="m154.07,438c3.93-16,10.96-41.89-2.56-76.44"/><path class="cls-2" d="m404,418c-15-29-19.24-67.56-7.12-104.28"/><path class="cls-1" d="m307,307c7.54,1.08,14,1,19,1"/><path class="cls-1" d="m123,302c7.54,1.08,14,1,19,1"/><path class="cls-2" d="m218,272c-12,0-17,5-17,13s9,9,18,9"/><path class="cls-2" d="m193,312c13,10,38.1,14.44,56.05,1.72"/></svg>