<?xml version="1.0" encoding="UTF-8"?><svg id="body" xmlns="http://www.w3.org/2000/svg" viewBox="0 0 500 500"><defs><style>.cls-1{stroke:#ec6a5c;}.cls-1,.cls-2{fill:none;stroke-linecap:round;stroke-miterlimit:10;stroke-width:10px;}.cls-2{stroke:#000;}</style></defs><path class="cls-2" d="m206.5,86.5c-50,5-140.7,61-125.4,177"/><path class="cls-2" d="m236.5,81.5c78-14,197,50,174,194"/><path class="cls-2" d="m216.5,82.5c-1-14-10-21.3-10-21.3"/><path class="cls-2" d="m225.6,79.7c-.1-13.2,6.9-24.2,14.9-31.2"/><path class="cls-2" d="m225.6,112.2c-3.1,42.3-37.1,86.3-58.1,99.3"/><path class="cls-2" d="m253.5,212.5c-20-30-29-61-29-93"/><path class="cls-2" d="m142.9,207.6c-28.4,0-41.4,31.9-41.4,49.9s15,46,47,46,48.1-27.9,48-48-11.1-47.9-53.6-47.9Z"/><path class="cls-2" d="m286.3,207.6c-38.7-1.4-50.8,26-51.8,48s21,51,54,51,53.7-21.9,51.4-49.5-24.9-48.5-53.6-49.5Z"/><path class="cls-2" d="m223,259c-11-4-26.5,0-26.5,0"/><path class="cls-2" d="m358.5,275.5c32-18,51-7,60,15s-11.2,37.6-46.4,41.6c-2.8.3-5.3,2.1-6.5,4.7-18.4,39.2-51.5,58.9-92.1,61.8-41.9,3-134,9-177-88"/><path class="cls-2" d="m309.5,451.5c-7-18-10.2-57.4-10.2-57.4"/><path class="cls-2" d="m214.5,446.5c-6-17-4.7-49-4.7-49"/><path class="cls-2" d="m151.6,451.5c3.9-16,11-41.9-2.6-76.4"/><path class="cls-2" d="m401.5,431.5c-15-29-19.2-67.6-7.1-104.3"/><path class="cls-1" d="m304.5,320.5c7.5,1.1,14,1,19,1"/><path class="cls-1" d="m120.5,315.5c7.5,1.1,14,1,19,1"/><path class="cls-2" d="m215.5,285.5c-12,0-17,5-17,13s9,9,18,9"/><path class="cls-2" d="m190.5,325.5c13,10,38.1,14.4,56,1.7"/><path d="m154.41,271.08c-9.55.56-11.52,18.97,2.48,19.97s14.03-20.94-2.48-19.97Z"/><path d="m286.7,274.54c-12.74-.83-13.27,20.82,0,21.9s15.73-20.87,0-21.9Z"/></svg>