<?xml version="1.0" encoding="utf-8"?>
<!-- Generator: Adobe Illustrator 27.5.0, SVG Export Plug-In . SVG Version: 6.00 Build 0)  -->
<svg version="1.1" id="body" xmlns="http://www.w3.org/2000/svg" xmlns:xlink="http://www.w3.org/1999/xlink" x="0px" y="0px"
	 viewBox="0 0 500 500" style="enable-background:new 0 0 500 500;" xml:space="preserve">
<style type="text/css">
	.st0{fill:none;stroke:#000000;stroke-width:10;stroke-linecap:round;stroke-miterlimit:10;}
	.st1{fill:none;stroke:#EC6A5C;stroke-width:10;stroke-linecap:round;stroke-miterlimit:10;}
</style>
<g>
	<path class="st0" d="M206.5,86.5c-50,5-140.7,61-125.4,177"/>
	<path class="st0" d="M236.5,81.5c78-14,197,50,174,194"/>
	<path class="st0" d="M216.5,82.5c-1-14-10-21.3-10-21.3"/>
	<path class="st0" d="M225.6,79.7c-0.1-13.2,6.9-24.2,14.9-31.2"/>
	<path class="st0" d="M225.6,112.2c-3.1,42.3-37.1,86.3-58.1,99.3"/>
	<path class="st0" d="M253.5,212.5c-20-30-29-61-29-93"/>
	<path class="st0" d="M142.9,207.6c-28.4,0-41.4,31.9-41.4,49.9s15,46,47,46s48.1-27.9,48-48S185.4,207.6,142.9,207.6z"/>
	<path class="st0" d="M286.3,207.6c-38.7-1.4-50.8,26-51.8,48s21,51,54,51s53.7-21.9,51.4-49.5S315,208.6,286.3,207.6z"/>
	<path class="st0" d="M223,259c-11-4-26.5,0-26.5,0"/>
	<path class="st0" d="M358.5,275.5c32-18,51-7,60,15s-11.2,37.6-46.4,41.6c-2.8,0.3-5.3,2.1-6.5,4.7c-18.4,39.2-51.5,58.9-92.1,61.8
		c-41.9,3-134,9-177-88"/>
	<path class="st0" d="M309.5,451.5c-7-18-10.2-57.4-10.2-57.4"/>
	<path class="st0" d="M214.5,446.5c-6-17-4.7-49-4.7-49"/>
	<path class="st0" d="M151.6,451.5c3.9-16,11-41.9-2.6-76.4"/>
	<path class="st0" d="M401.5,431.5c-15-29-19.2-67.6-7.1-104.3"/>
	<path class="st1" d="M304.5,320.5c7.5,1.1,14,1,19,1"/>
	<path class="st1" d="M120.5,315.5c7.5,1.1,14,1,19,1"/>
	<path class="st0" d="M215.5,285.5c-12,0-17,5-17,13s9,9,18,9"/>
	<path class="st0" d="M190.5,325.5c13,10,38.1,14.4,56,1.7"/>
</g>
</svg>
