<?xml version="1.0" standalone="no"?>
<!DOCTYPE svg PUBLIC "-//W3C//DTD SVG 20010904//EN"
 "http://www.w3.org/TR/2001/REC-SVG-20010904/DTD/svg10.dtd">
<svg version="1.0" xmlns="http://www.w3.org/2000/svg"
 width="376.6px" height="126.3px" viewBox="0 0 2288.000000 817.000000"
 preserveAspectRatio="xMidYMid meet">

<g transform="translate(0.000000,817.000000) scale(0.100000,-0.100000)"
fill="#000000" stroke="none">
<path d="M19890 7909 c-96 -5 -247 -24 -445 -58 -165 -27 -349 -57 -410 -66
-341 -50 -734 -121 -745 -134 -3 -4 -104 -30 -225 -60 -210 -50 -326 -85 -695
-207 -91 -30 -181 -59 -200 -66 -19 -6 -37 -14 -40 -17 -6 -7 -187 -81 -295
-119 -175 -63 -496 -208 -535 -242 -12 -10 -65 -37 -118 -61 -153 -66 -208
-96 -334 -180 -131 -88 -181 -144 -224 -250 -19 -47 -45 -84 -98 -139 -52 -55
-76 -90 -90 -129 -31 -87 -25 -131 32 -243 60 -120 56 -131 -40 -98 -35 12
-65 25 -68 30 -12 18 -248 103 -337 121 -118 24 -127 24 -288 10 -170 -14
-246 -33 -326 -81 -36 -22 -71 -40 -77 -40 -7 0 -12 -4 -12 -9 0 -17 -29 -20
-44 -6 -17 17 -46 20 -46 5 0 -5 -9 -10 -20 -10 -10 0 -35 -14 -54 -31 -33
-29 -36 -29 -64 -15 -16 8 -51 37 -78 63 -27 27 -94 82 -149 121 -55 40 -129
95 -165 122 -36 27 -91 59 -122 71 -31 11 -58 25 -60 29 -5 12 -180 78 -268
100 -212 54 -541 109 -695 117 -156 7 -467 -11 -636 -37 -248 -38 -822 -162
-839 -180 -6 -7 -235 -83 -374 -125 -136 -41 -516 -207 -516 -225 0 -4 -35
-26 -77 -50 -167 -93 -231 -137 -305 -208 -42 -41 -81 -71 -87 -68 -6 4 -15
-10 -21 -31 -8 -29 -21 -45 -56 -67 -25 -16 -72 -53 -105 -83 l-59 -55 -152
-2 c-127 -2 -166 -6 -228 -25 -79 -25 -280 -117 -280 -130 0 -4 -27 -22 -60
-41 -33 -19 -60 -37 -60 -40 0 -12 -79 -43 -94 -37 -20 8 -21 51 -1 71 18 18
52 123 61 186 7 55 -26 151 -62 183 -13 11 -24 26 -24 33 0 12 -96 104 -138
132 -13 8 -39 46 -58 84 -47 94 -90 147 -153 194 -111 80 -288 175 -440 235
-86 35 -158 66 -161 70 -5 8 -55 29 -252 110 -152 62 -427 158 -626 218 -39
12 -72 26 -72 30 0 12 -166 59 -775 220 -218 58 -305 77 -525 117 -52 9 -97
20 -100 24 -5 8 -303 60 -455 79 -119 16 -413 48 -650 71 -115 11 -372 40
-570 63 -347 40 -370 42 -635 40 -256 -2 -543 -20 -700 -44 -195 -30 -360
-136 -533 -341 -75 -90 -110 -146 -104 -169 4 -14 -3 -24 -25 -35 -16 -8 -43
-27 -59 -41 -30 -27 -79 -119 -79 -147 0 -9 -4 -16 -10 -16 -6 0 -10 -33 -10
-80 0 -47 4 -80 10 -80 6 0 10 -13 10 -29 0 -16 7 -48 15 -71 14 -41 126 -242
168 -303 17 -26 157 -137 171 -137 3 0 43 -27 88 -61 45 -33 109 -75 143 -91
33 -17 62 -34 65 -37 3 -4 75 -41 160 -83 153 -75 213 -98 505 -197 187 -63
215 -74 215 -83 0 -3 46 -22 103 -40 56 -18 104 -35 107 -38 26 -27 916 -221
1170 -255 69 -10 127 -20 130 -24 9 -13 475 -73 531 -69 30 2 157 -6 283 -19
505 -50 589 -55 1416 -87 195 -7 387 -12 425 -10 508 28 792 66 984 131 l104
35 56 -25 c31 -14 103 -39 161 -57 58 -17 140 -42 183 -56 42 -13 116 -27 165
-30 l88 -7 -47 -71 c-26 -39 -51 -84 -55 -101 -4 -16 -15 -40 -25 -53 -31 -40
-62 -151 -64 -228 -1 -55 -7 -82 -27 -120 -15 -27 -37 -69 -50 -94 -12 -25
-26 -47 -29 -50 -9 -7 -35 -103 -54 -200 -9 -47 -36 -135 -61 -197 -70 -177
-69 -217 15 -327 48 -65 77 -128 86 -188 3 -27 10 -48 14 -48 5 0 14 -28 20
-62 18 -92 39 -144 64 -161 13 -8 48 -20 80 -27 31 -6 57 -15 57 -19 0 -4 37
-16 83 -25 45 -10 132 -30 192 -46 61 -16 139 -35 174 -41 47 -9 59 -14 45
-20 -10 -4 -34 -23 -53 -43 -34 -35 -34 -36 -15 -51 10 -8 35 -15 54 -15 61
-1 62 -4 49 -128 -14 -130 -11 -146 57 -286 37 -77 56 -103 121 -164 114 -106
192 -139 493 -207 85 -20 156 -39 158 -44 2 -5 49 -24 105 -41 158 -51 337
-119 392 -150 28 -15 82 -38 120 -49 72 -22 146 -51 155 -61 3 -4 35 -14 73
-24 42 -12 67 -23 67 -32 0 -8 3 -14 8 -14 4 0 57 -11 118 -25 131 -30 359
-65 419 -65 39 0 66 11 188 77 15 8 27 19 27 25 0 5 18 30 39 54 67 77 104
179 117 327 6 66 9 75 21 65 12 -10 17 -9 24 4 5 8 31 25 59 37 50 22 50 22
45 61 -3 22 -7 57 -10 78 l-5 38 203 3 c264 3 582 18 630 30 20 5 46 7 56 4
10 -2 24 2 32 10 15 14 29 17 228 42 129 17 307 56 446 100 85 26 120 31 110
15 -3 -5 -1 -10 4 -10 6 0 11 3 11 8 0 10 690 -2 938 -17 182 -11 208 -11 260
4 101 30 161 116 188 271 23 129 15 397 -14 474 l-21 55 24 25 c25 26 55 98
55 130 0 10 8 37 19 61 12 28 21 81 25 146 6 89 5 103 -8 103 -19 0 -23 -20
-30 -130 -2 -48 -11 -98 -20 -115 -9 -16 -18 -49 -22 -73 -4 -26 -13 -46 -25
-52 -10 -6 -33 -38 -50 -73 -22 -41 -62 -91 -118 -146 -47 -45 -90 -93 -96
-105 -12 -24 -150 -126 -171 -126 -9 0 -1 20 24 58 39 58 68 121 104 224 14
40 37 76 79 121 92 98 145 200 154 292 6 69 -1 58 -34 -49 -12 -37 -35 -88
-51 -111 -17 -24 -30 -45 -30 -48 0 -2 -20 -26 -45 -53 -25 -27 -45 -46 -45
-42 0 18 33 161 50 217 11 35 20 81 20 102 0 21 5 39 10 39 6 0 10 6 10 13 0
8 22 12 74 13 95 2 145 25 223 100 58 57 62 63 101 184 70 214 87 325 62 410
-6 19 -17 69 -25 110 -19 95 -71 271 -83 279 -5 3 -17 31 -25 61 -22 75 -85
201 -141 283 -25 37 -46 69 -46 72 0 13 -120 188 -120 175 0 -11 -4 -9 -12 5
-6 11 -14 22 -18 25 -4 3 -16 21 -26 40 -27 50 -67 101 -169 218 -49 57 -91
108 -93 113 -2 5 32 9 78 9 56 0 79 3 74 11 -4 8 40 10 157 9 222 -4 423 24
469 65 8 7 34 18 57 24 23 6 43 15 45 20 2 4 46 25 98 46 52 21 107 46 121 56
26 18 29 18 105 -1 46 -12 162 -27 285 -36 174 -13 252 -14 490 -5 266 10 361
18 634 55 706 97 823 115 1178 187 84 17 197 35 251 40 55 5 102 13 105 17 3
5 26 14 51 20 363 80 623 153 913 254 92 32 176 58 187 58 10 0 25 7 34 15 8
8 17 15 21 15 32 0 693 319 722 349 10 10 63 50 119 89 122 87 278 240 304
300 11 23 29 87 40 142 21 94 21 103 6 175 -18 87 -24 101 -77 172 -32 43 -49
56 -99 74 -33 12 -57 26 -54 31 8 13 -124 137 -208 195 -73 50 -150 87 -263
125 -98 33 -387 44 -705 27z m675 -39 c76 -19 258 -104 314 -148 78 -58 141
-127 151 -162 14 -48 14 -47 -25 -60 -32 -10 -40 -9 -78 13 -56 34 -119 89
-92 81 15 -4 13 -1 -5 10 -14 8 -42 18 -63 21 -21 4 -41 13 -43 20 -10 24 -91
54 -201 76 -60 11 -148 29 -198 40 -107 23 -241 34 -272 22 -12 -4 -32 -23
-45 -42 -17 -26 -39 -40 -88 -57 -36 -13 -84 -23 -107 -24 -24 0 -43 -4 -43
-9 0 -4 -28 -11 -62 -14 -35 -3 -180 -29 -323 -56 -256 -50 -262 -50 -370 -41
-60 5 -168 18 -239 30 -71 11 -136 18 -144 15 -8 -3 -65 -12 -126 -21 -61 -8
-160 -28 -221 -44 -60 -16 -137 -34 -170 -40 -132 -27 -486 -154 -506 -183 -3
-4 -73 -35 -155 -69 -152 -62 -208 -83 -444 -168 -182 -65 -304 -113 -310
-121 -3 -4 -52 -21 -110 -39 -118 -36 -337 -120 -450 -173 -48 -23 -93 -54
-125 -86 -70 -70 -95 -100 -95 -113 0 -24 -102 -216 -118 -223 -32 -12 -165
-35 -173 -29 -16 10 -9 64 11 84 12 12 20 33 20 52 0 77 83 177 230 277 88 59
213 131 230 131 16 0 240 111 240 119 0 4 26 19 58 34 109 51 402 177 410 177
5 0 88 32 185 70 97 39 183 70 191 70 8 0 16 4 18 9 2 5 143 54 313 109 280
91 563 170 780 217 44 10 82 21 85 25 6 8 166 37 445 81 110 17 364 58 565 92
295 49 397 62 530 67 252 10 541 1 625 -20z m-218 -130 c213 -41 343 -75 343
-91 0 -13 -78 -11 -82 2 -3 9 -96 13 -322 17 -272 4 -315 7 -294 18 14 7 31
27 38 43 6 16 19 32 28 34 46 12 147 4 289 -23z m230 -115 c89 -8 172 -19 185
-24 12 -5 50 -29 83 -54 112 -83 151 -92 210 -45 25 20 28 20 70 3 85 -32 155
-159 155 -282 0 -62 -27 -181 -55 -238 -34 -71 -176 -208 -320 -310 -66 -46
-125 -89 -132 -95 -7 -5 -117 -62 -245 -126 -238 -118 -408 -193 -488 -214
-25 -7 -47 -15 -50 -19 -6 -8 -257 -95 -420 -145 -154 -47 -556 -146 -595
-146 -37 0 -288 -50 -295 -59 -3 -4 -32 -12 -65 -18 -33 -5 -170 -31 -305 -56
-135 -25 -297 -53 -360 -62 -245 -33 -571 -76 -690 -91 -69 -8 -152 -20 -185
-25 -33 -6 -215 -13 -405 -16 -364 -5 -585 8 -714 42 -89 23 -244 96 -290 135
-23 19 -50 40 -60 46 -11 6 -24 19 -30 29 -6 9 -21 28 -34 42 -32 32 -74 127
-80 179 -4 34 2 56 26 106 17 35 42 76 55 93 l25 30 31 -34 c29 -31 35 -33 74
-27 29 4 38 3 27 -4 -13 -8 -13 -10 2 -10 9 0 19 -6 22 -12 5 -10 7 -10 12 0
3 6 20 12 38 12 18 0 39 6 48 13 9 6 37 58 62 115 70 156 84 175 150 197 31
11 56 22 56 26 0 10 88 36 220 65 203 45 293 75 429 138 75 36 195 84 266 107
72 23 132 45 135 49 3 4 25 13 50 20 62 16 337 103 495 156 72 24 159 50 195
59 36 8 134 37 219 65 85 27 162 50 172 50 11 0 19 4 19 9 0 5 17 12 38 16 20
3 82 18 137 31 55 14 123 29 150 34 28 5 81 18 119 29 157 47 387 93 525 107
174 16 468 66 531 89 25 9 65 20 90 25 79 14 525 11 697 -5z m-829 -10 c-7 -8
-267 -55 -293 -54 -34 2 213 52 284 58 8 0 12 -1 9 -4z m-948 -70 c52 -8 127
-19 165 -23 l70 -8 -40 -12 c-43 -12 -331 -82 -339 -82 -3 0 -8 16 -12 35 -3
20 -12 42 -19 49 -8 7 -15 21 -17 31 -3 21 32 36 72 29 14 -2 68 -11 120 -19z
m-205 -50 c10 -30 22 -55 27 -55 4 0 8 -7 8 -16 0 -9 -6 -14 -12 -11 -7 2 -30
-2 -51 -9 -31 -11 -141 -35 -277 -61 -41 -8 -125 -35 -130 -43 -3 -4 -68 -22
-145 -39 -273 -64 -397 -99 -760 -217 -159 -52 -292 -98 -295 -102 -3 -5 -63
-27 -135 -51 -71 -24 -179 -62 -240 -85 -261 -101 -523 -195 -544 -196 -3 0 6
12 20 26 47 51 305 161 581 248 80 25 148 50 150 54 4 9 182 81 317 127 164
56 560 219 571 234 8 11 177 78 280 110 167 52 530 137 595 140 17 1 25 -11
40 -54z m-15170 -354 c191 -23 442 -50 745 -81 459 -47 583 -61 750 -86 96
-14 177 -30 178 -35 2 -5 12 -9 23 -9 37 0 546 -102 659 -132 63 -17 180 -47
260 -68 80 -21 177 -47 215 -58 39 -12 124 -35 190 -52 66 -18 122 -35 125
-40 3 -4 79 -31 170 -60 146 -46 275 -91 515 -176 97 -35 289 -117 296 -126 4
-7 239 -106 334 -141 17 -6 85 -43 153 -82 181 -102 294 -216 309 -309 3 -17
18 -45 34 -64 32 -36 38 -79 13 -89 -22 -8 -183 17 -195 31 -24 27 -139 212
-139 223 0 6 -31 42 -70 81 -80 80 -189 141 -340 190 -264 85 -354 111 -452
132 -60 12 -108 27 -108 31 0 5 -7 9 -15 9 -9 0 -57 16 -108 36 -51 19 -141
49 -202 65 -257 69 -740 229 -755 249 -3 4 -14 9 -25 12 -11 4 -72 24 -135 47
-167 58 -359 109 -485 127 -60 8 -137 22 -170 31 -110 28 -219 43 -385 54
-150 11 -171 10 -225 -6 -123 -36 -263 -65 -370 -76 -104 -11 -123 -10 -340
20 -311 42 -459 59 -590 66 -60 3 -154 15 -209 28 -99 22 -99 22 -137 73 -39
53 -62 64 -138 64 -65 0 -317 -61 -331 -80 -4 -6 -68 -25 -240 -70 -67 -18
-124 -45 -161 -78 -19 -16 -61 -41 -94 -56 -47 -22 -56 -30 -42 -35 16 -6 11
-16 -39 -71 -32 -36 -70 -70 -85 -77 -35 -14 -105 2 -119 28 -15 27 -15 91 0
119 21 40 116 147 167 191 27 21 59 50 73 63 42 40 133 104 165 116 127 50
236 64 715 94 132 9 456 -4 615 -23z m14205 -16 c0 -5 -133 -45 -146 -44 -8 1
122 46 139 48 4 1 7 -1 7 -4z m-14762 -145 c23 -10 42 -25 42 -33 0 -19 50
-63 85 -74 25 -9 15 -11 -70 -17 -451 -29 -509 -34 -733 -72 -51 -9 -96 -14
-99 -11 -8 9 58 46 72 41 7 -3 36 6 63 20 41 21 210 72 310 93 12 3 22 9 22
13 0 7 79 28 205 54 40 8 61 5 103 -14z m1884 -158 c13 -13 -3 -172 -18 -172
-7 0 -97 15 -201 34 -103 19 -210 38 -237 42 -58 8 -45 19 34 29 51 7 238 52
305 74 31 10 104 6 117 -7z m11933 -33 c-55 -27 -136 -58 -180 -69 -44 -11
-89 -23 -100 -26 -41 -10 9 14 70 34 33 11 112 41 175 66 63 25 120 45 125 45
6 0 -35 -23 -90 -50z m-13400 9 c154 -37 609 -83 785 -79 80 2 646 -93 679
-113 6 -4 39 -9 73 -11 33 -2 63 -7 67 -12 3 -6 42 -15 86 -22 221 -36 324
-56 470 -93 147 -37 193 -47 355 -79 30 -6 107 -26 170 -44 63 -18 151 -40
195 -50 124 -27 270 -68 273 -77 2 -4 11 -8 20 -8 17 0 340 -78 447 -107 33
-9 92 -30 130 -46 193 -82 406 -138 630 -168 50 -6 92 -15 95 -18 3 -4 34 -15
70 -25 149 -42 159 -47 194 -89 36 -44 88 -131 140 -232 31 -60 31 -60 84 -66
29 -4 65 -4 80 1 l27 7 -25 7 c-14 3 -43 10 -65 16 -34 8 -31 8 20 3 123 -14
128 -13 151 34 l21 41 26 -21 c31 -25 117 -153 117 -173 0 -8 5 -14 10 -14 6
0 10 -20 10 -45 0 -25 -4 -45 -10 -45 -5 0 -10 -8 -10 -17 0 -31 -36 -133 -53
-154 -9 -10 -17 -25 -17 -32 0 -8 -17 -30 -37 -50 -21 -19 -49 -48 -63 -62
-40 -43 -141 -111 -200 -136 -30 -13 -57 -26 -60 -31 -17 -24 -310 -87 -500
-107 -433 -47 -720 -47 -1655 0 -190 9 -655 48 -815 69 -41 5 -136 15 -210 21
-74 7 -138 17 -142 23 -5 8 -8 7 -8 -1 0 -8 -14 -13 -35 -13 -19 0 -35 4 -35
9 0 4 -28 11 -62 14 -200 18 -636 93 -908 157 -91 21 -230 52 -309 69 -80 17
-147 34 -150 39 -3 5 -44 19 -91 31 -99 26 -153 44 -160 52 -10 11 -150 63
-380 140 -202 68 -490 191 -510 217 -3 4 -48 28 -100 55 -52 26 -135 78 -185
115 -49 37 -103 73 -118 81 -45 23 -106 81 -134 124 -58 93 -136 233 -150 271
-24 68 -29 214 -8 275 20 61 62 113 105 131 16 7 30 18 31 24 0 6 4 1 9 -12
11 -27 65 -52 113 -52 62 0 93 19 162 100 38 44 78 86 90 94 20 13 86 26 324
62 51 7 179 21 285 29 388 30 510 29 661 -7z m253 1 c164 -19 262 -36 219 -38
-34 -2 -382 39 -412 48 -51 16 1 13 193 -10z m1437 7 c55 -8 150 -25 210 -39
61 -14 137 -28 170 -32 117 -13 538 -132 547 -154 3 -8 425 -156 543 -191 367
-107 504 -151 519 -166 15 -15 118 -46 242 -73 94 -20 474 -139 554 -173 56
-24 155 -91 141 -96 -11 -4 -225 58 -531 154 -232 72 -468 139 -560 160 -41 9
-77 20 -80 25 -3 4 -64 24 -135 42 -527 140 -606 158 -1048 236 -125 22 -254
47 -286 56 -33 8 -68 15 -80 15 -12 0 -21 4 -21 9 0 4 -48 14 -107 20 -60 7
-139 20 -178 29 -38 9 -76 16 -82 15 -14 -1 -17 54 -7 131 l7 46 41 0 c22 0
86 -7 141 -14z m7795 -431 c326 -48 637 -121 660 -153 3 -5 32 -19 65 -32 106
-41 169 -77 228 -129 32 -28 84 -69 115 -90 83 -57 128 -98 119 -107 -4 -5
-11 -4 -15 2 -4 6 -27 18 -52 27 -25 8 -90 34 -145 57 -55 23 -145 52 -200 65
-55 13 -136 32 -180 44 -100 26 -350 51 -509 51 -108 0 -427 -21 -546 -36 -33
-4 -41 -3 -30 5 10 6 11 13 5 19 -44 38 -107 81 -142 97 -24 10 -43 21 -43 25
0 11 -108 57 -170 73 -30 8 -84 18 -119 22 -40 5 -59 10 -50 15 24 13 292 51
422 59 252 16 412 13 587 -14z m-6641 -31 c9 -8 -45 -2 -64 6 -14 7 -8 8 20 3
22 -3 42 -7 44 -9z m66 -14 c25 -11 -1 -11 -35 0 -20 6 -21 8 -5 8 11 0 29 -3
40 -8z m5551 -50 c135 -18 242 -43 254 -60 3 -3 34 -21 70 -38 78 -38 126 -65
148 -85 9 -8 24 -17 32 -19 17 -6 7 -9 -125 -33 -113 -20 -301 -60 -380 -80
-100 -26 -300 -89 -305 -96 -3 -4 -39 -20 -80 -35 -41 -14 -118 -48 -170 -74
-81 -40 -276 -121 -489 -203 -29 -11 -67 -33 -84 -48 -16 -15 -66 -47 -111
-71 -94 -50 -238 -186 -273 -257 l-22 -43 -83 -2 c-46 -1 -95 -6 -110 -10 -22
-7 -27 -4 -33 16 -18 57 -88 89 -150 68 -30 -10 -41 -7 -112 28 -43 22 -102
45 -131 52 l-53 12 22 24 c12 13 27 24 32 24 6 0 25 11 43 25 18 14 36 25 39
25 12 0 175 103 175 110 0 4 -15 11 -32 14 l-33 7 71 67 c52 49 117 93 245
166 96 55 179 105 185 110 6 6 33 21 60 33 217 94 291 124 369 148 50 15 155
48 235 75 80 26 182 55 228 65 45 10 82 22 82 26 0 7 228 61 331 78 4 1 73 -8
155 -19z m4001 -26 c-3 -3 -12 -4 -19 -1 -8 3 -5 6 6 6 11 1 17 -2 13 -5z
m-8344 -269 c64 -21 116 -39 115 -41 -7 -5 -228 46 -283 66 -90 33 -189 73
-198 80 -10 8 209 -55 366 -105z m5707 70 c91 -8 201 -25 245 -36 44 -12 125
-31 180 -44 95 -22 274 -88 285 -104 5 -9 87 -38 180 -65 36 -10 68 -28 93
-52 34 -33 37 -34 37 -14 0 17 4 20 23 15 12 -4 37 -16 55 -26 49 -28 51 -23
4 13 -23 18 -42 37 -42 44 0 20 36 45 74 51 36 6 36 5 26 -21 -14 -39 -13 -46
11 -46 13 0 23 8 26 20 3 11 26 33 52 47 25 15 52 34 60 41 44 43 215 87 371
97 180 11 392 -39 468 -112 7 -7 21 -17 30 -22 15 -8 13 -12 -13 -33 -67 -51
-108 -96 -119 -128 -14 -44 -34 -49 -251 -54 l-170 -4 91 24 c100 25 221 70
230 86 22 35 -38 32 -356 -17 -91 -14 -170 -26 -177 -27 -7 -1 -45 14 -85 32
-69 32 -128 43 -145 27 -19 -20 25 -45 158 -91 l144 -51 260 0 260 0 122 43
c67 23 145 47 174 52 29 6 68 22 86 36 55 42 99 42 161 2 28 -19 82 -48 118
-63 l67 -28 -23 -19 c-27 -22 -52 -24 -44 -3 4 9 0 15 -10 15 -20 0 -216 -108
-236 -130 -29 -32 -117 -59 -246 -75 -71 -9 -156 -14 -189 -11 -33 3 -141 8
-240 12 l-180 5 -45 32 c-25 17 -50 37 -55 45 -6 7 -27 17 -48 21 l-37 9 21
-26 c11 -15 36 -38 56 -52 l36 -25 -27 -3 c-25 -3 -123 45 -153 74 -15 14 -42
24 -260 93 -90 29 -163 55 -163 58 0 3 52 4 115 1 110 -4 114 -4 98 14 -19 22
-124 25 -213 6 -49 -10 -69 -8 -156 11 -54 12 -126 31 -159 41 -56 17 -216 45
-345 59 -30 3 -183 3 -340 0 -268 -6 -294 -8 -433 -37 -89 -19 -187 -47 -245
-71 -53 -22 -135 -53 -182 -69 -116 -40 -181 -74 -221 -117 -21 -22 -52 -41
-81 -50 -62 -18 -179 -99 -248 -170 -30 -32 -72 -70 -92 -85 -69 -51 -348
-376 -348 -406 0 -6 -14 -26 -31 -45 -46 -51 -138 -221 -166 -306 -13 -42 -30
-85 -38 -97 -40 -63 -79 -492 -51 -572 7 -19 1 -21 -73 -33 -45 -7 -81 -17
-81 -21 0 -4 -21 -13 -47 -19 -49 -12 -136 -50 -393 -171 -179 -85 -270 -115
-430 -142 -69 -12 -127 -25 -130 -28 -3 -3 -39 -11 -80 -18 -41 -7 -132 -26
-202 -43 -138 -33 -146 -39 -133 -99 8 -37 86 -112 157 -153 29 -16 58 -35 64
-42 23 -22 421 -151 510 -164 71 -11 109 -4 181 33 69 34 189 114 233 154 64
57 268 208 322 237 29 15 80 42 113 58 33 17 62 33 65 37 8 10 107 50 124 50
19 0 87 -37 101 -56 5 -7 47 -36 93 -63 64 -38 98 -52 155 -61 170 -27 458
-94 577 -134 116 -38 222 -56 336 -56 86 0 121 12 198 69 54 40 56 41 60 19
27 -155 41 -202 86 -306 29 -64 60 -138 70 -164 21 -54 101 -191 133 -228 12
-14 40 -38 62 -55 l40 -30 -30 -6 c-17 -4 -52 -7 -80 -8 -58 -1 -218 -31 -225
-42 -10 -15 -347 -53 -463 -52 -113 1 -119 2 -135 24 -55 79 -96 97 -442 191
-19 5 -147 13 -285 18 -137 5 -281 14 -320 20 -38 6 -148 17 -243 25 -95 8
-203 22 -240 30 -113 25 -358 55 -537 65 -165 10 -265 25 -265 42 0 4 -20 8
-45 8 -25 0 -45 -4 -45 -10 0 -5 -7 -10 -15 -10 -8 0 -56 -16 -106 -36 -106
-43 -125 -42 -321 6 -67 17 -134 30 -149 30 -16 0 -29 4 -29 9 0 4 -20 11 -45
15 -25 3 -78 15 -118 25 -40 11 -84 23 -98 25 -36 8 -59 50 -94 176 -16 58
-32 107 -35 110 -8 7 -30 74 -30 91 0 8 -22 49 -49 90 -27 40 -48 76 -46 78 3
3 226 81 232 81 1 0 8 6 16 14 19 19 176 104 234 126 27 10 88 34 137 55 48
20 90 34 92 32 2 -2 -14 -39 -36 -84 -47 -95 -74 -208 -65 -275 3 -26 24 -86
47 -133 42 -89 100 -153 170 -189 18 -10 51 -28 73 -42 59 -35 177 -72 301
-94 60 -10 163 -30 229 -44 66 -13 167 -30 225 -37 58 -7 107 -15 110 -19 3
-4 53 -12 112 -19 59 -6 129 -18 155 -26 27 -8 62 -14 78 -14 l30 1 -30 13
c-17 7 -60 19 -95 26 -36 7 -67 16 -70 19 -3 3 -93 16 -200 29 -169 20 -311
44 -615 105 -98 20 -169 48 -266 107 -113 68 -133 89 -185 193 -38 76 -44 97
-44 150 1 76 20 156 52 221 14 28 31 67 37 87 12 35 15 37 84 53 118 27 292
62 452 91 83 15 152 30 155 34 3 4 70 18 150 30 184 27 457 84 535 111 33 11
98 39 145 62 68 34 86 47 88 67 3 19 1 22 -10 13 -26 -21 -184 -100 -233 -116
-61 -20 -381 -91 -485 -107 -148 -22 -305 -53 -310 -60 -3 -4 -61 -17 -130
-29 -69 -12 -185 -34 -257 -50 -73 -15 -133 -25 -133 -23 0 7 54 107 61 112 4
3 38 68 77 145 38 78 77 147 86 154 8 7 35 47 60 90 25 42 57 87 70 100 35 33
140 68 258 87 218 34 508 111 508 135 0 5 6 9 14 9 27 0 212 74 243 98 18 13
49 54 69 90 21 37 41 70 46 73 23 15 37 149 20 190 -10 25 -100 96 -150 119
-24 11 -66 26 -95 32 -29 7 -54 15 -57 18 -3 4 -39 10 -80 14 -79 7 -150 23
-150 33 0 3 25 41 56 84 46 63 66 82 109 103 62 29 143 86 144 101 1 6 34 30
74 55 39 24 78 50 85 57 7 7 19 13 26 13 25 0 393 148 493 199 56 28 160 70
230 93 70 23 130 45 133 49 22 32 566 146 805 169 350 33 486 36 715 15z
m2324 -274 c3 -3 -37 -26 -89 -49 -170 -77 -198 -65 -74 33 l69 54 45 -16 c25
-8 47 -18 49 -22z m-2073 -28 c14 -6 62 -14 105 -18 95 -8 155 -19 212 -39 24
-9 130 -34 235 -56 208 -45 441 -113 464 -136 8 -8 27 -21 41 -28 55 -28 133
-86 117 -86 -9 0 -13 -4 -10 -10 3 -5 21 -10 39 -10 69 0 178 -92 303 -255 33
-44 99 -117 147 -162 47 -45 93 -97 103 -117 9 -20 21 -36 27 -36 16 -1 121
-165 159 -250 19 -41 47 -113 62 -160 15 -47 31 -87 34 -90 17 -13 91 -342 91
-402 0 -15 -14 -50 -30 -77 -28 -45 -37 -52 -96 -71 -50 -17 -76 -20 -117 -15
-64 8 -113 40 -121 77 -7 37 -77 222 -86 228 -4 3 -19 31 -33 63 -50 110 -279
387 -320 387 -6 0 -32 18 -58 40 -27 22 -90 61 -141 85 -116 56 -292 91 -514
101 -126 5 -169 3 -275 -15 -70 -11 -164 -32 -210 -47 -90 -28 -392 -172 -424
-202 -11 -10 -42 -33 -70 -52 -49 -33 -144 -126 -210 -205 -19 -23 -80 -131
-136 -240 -56 -110 -105 -202 -108 -205 -4 -3 -16 -32 -26 -65 -26 -79 -91
-174 -135 -197 -29 -16 -48 -18 -115 -12 -89 7 -306 47 -375 68 -25 8 -79 20
-120 26 -113 18 -165 30 -280 65 -58 18 -144 43 -192 55 -49 13 -88 26 -88 31
0 4 -31 15 -69 23 -95 22 -215 78 -237 111 -35 54 2 325 77 555 23 71 103 233
126 256 17 17 83 114 83 122 0 21 246 311 274 322 7 3 54 49 105 102 85 89
238 208 268 208 16 0 126 77 136 96 13 23 62 44 275 115 225 76 399 119 505
124 38 2 72 7 76 10 11 11 504 0 532 -12z m1015 -29 c18 -14 18 -14 -6 -3 -31
14 -36 19 -24 19 6 0 19 -7 30 -16z m624 11 c0 -22 -170 -71 -298 -85 -78 -9
-97 -8 -114 4 l-21 15 24 5 c23 6 138 24 299 47 41 6 77 13 79 15 6 6 31 5 31
-1z m-363 -331 c-3 -3 -12 -4 -19 -1 -8 3 -5 6 6 6 11 1 17 -2 13 -5z m79 -56
c19 -23 19 -23 -1 -7 -11 9 -27 19 -35 22 -13 5 -13 6 1 6 9 1 24 -9 35 -21z
m-5175 -93 c106 -23 226 -73 249 -105 11 -15 20 -33 20 -39 0 -6 12 -11 26
-11 21 0 25 3 19 18 -22 54 -24 72 -7 71 42 -1 85 -25 97 -55 12 -30 12 -31
-20 -43 -18 -6 -36 -19 -39 -28 -6 -14 0 -15 39 -10 43 6 45 6 45 -19 0 -13
-7 -40 -15 -60 -16 -38 -99 -123 -143 -144 -15 -8 -36 -22 -47 -32 -86 -77
-99 -82 -330 -108 -99 -12 -233 -30 -298 -41 -144 -23 -310 -25 -392 -4 -76
20 -300 114 -324 137 -30 27 -56 27 -55 0 0 -16 -4 -21 -13 -17 -8 3 -19 5
-23 5 -5 0 -14 9 -19 19 -9 16 -4 24 41 52 28 18 76 55 107 82 50 43 60 47 92
43 20 -3 62 -19 94 -36 33 -17 73 -30 94 -30 20 0 70 -10 111 -21 169 -47 238
-52 452 -30 l196 19 151 67 c98 44 159 77 172 94 20 25 20 26 2 30 -10 2 -21
8 -25 15 -6 8 -10 8 -15 0 -15 -21 -176 -104 -192 -99 -9 3 -112 12 -230 20
-203 14 -291 12 -291 -6 0 -25 143 -75 243 -86 32 -3 60 -9 62 -13 6 -10 -262
-30 -323 -23 -44 5 -55 10 -62 29 -14 37 -49 71 -117 115 -35 23 -63 47 -63
53 0 7 20 27 45 45 25 18 45 37 45 42 0 13 117 66 210 94 64 20 97 23 221 23
83 0 174 -6 210 -13z m5419 -188 c-3 -2 -20 15 -39 37 l-35 41 39 -37 c22 -21
37 -39 35 -41z m-4755 34 c3 -5 1 -12 -5 -16 -5 -3 -10 -11 -10 -18 0 -6 6 -3
13 7 10 13 21 16 55 10 23 -4 42 -10 42 -14 0 -5 30 -11 68 -15 168 -15 287
-61 356 -136 32 -34 36 -44 36 -94 0 -30 -4 -55 -10 -55 -5 0 -10 -7 -10 -17
0 -20 -65 -140 -94 -171 -28 -32 -56 -45 -188 -93 -62 -22 -115 -44 -118 -48
-14 -23 -263 -86 -460 -116 -145 -23 -234 -50 -274 -86 -29 -25 -106 -139
-106 -157 0 -3 -17 -26 -38 -51 -21 -25 -60 -92 -87 -148 -27 -57 -51 -103
-55 -103 -7 0 -37 -57 -68 -131 -17 -38 -26 -47 -52 -53 -55 -10 -207 -73
-375 -154 -88 -42 -162 -80 -165 -83 -5 -5 -57 -24 -147 -54 -41 -13 -43 -13
-43 6 0 11 20 70 44 132 40 104 66 196 81 291 4 21 11 43 16 50 21 25 138 274
144 306 34 170 134 430 187 488 13 13 34 22 52 22 17 1 84 9 149 19 96 15 117
16 117 5 0 -8 5 -14 10 -14 6 0 10 -21 10 -46 0 -77 28 -111 143 -173 90 -49
164 -71 239 -71 77 0 74 16 -4 25 -101 10 -208 52 -268 102 -68 58 -79 73 -85
116 -5 29 -3 47 4 52 13 7 503 29 626 27 434 -7 530 -4 583 16 28 11 52 17 52
13 0 -12 -64 -45 -99 -50 -43 -7 -54 -31 -14 -31 39 0 127 43 147 71 24 34 21
123 -4 159 -38 53 -148 74 -448 86 -89 4 -165 10 -167 15 -3 4 2 26 10 50 9
23 14 59 13 78 -3 33 0 37 32 48 42 14 156 17 165 4z m-406 -55 c-2 -2 -15 -9
-29 -15 -24 -11 -24 -11 -6 3 16 13 49 24 35 12z m-960 -50 c69 -46 108 -82
99 -91 -15 -15 -248 66 -248 86 0 7 66 47 79 49 3 0 34 -20 70 -44z m536 -26
c187 -13 192 -14 171 -35 -29 -29 -229 -18 -359 20 -62 18 -68 40 -8 31 20 -3
108 -10 196 -16z m940 -101 c137 -11 195 -24 195 -43 0 -7 13 -23 29 -35 58
-45 47 -73 -42 -111 -51 -22 -58 -23 -302 -16 -313 9 -267 9 -490 3 -142 -5
-176 -3 -135 4 78 14 120 29 160 55 42 29 66 30 283 8 192 -19 353 -16 367 6
5 8 7 24 4 35 -8 27 -16 33 -21 18 -6 -15 -83 -18 -83 -3 0 6 -28 10 -64 10
-35 0 -87 4 -116 10 -28 5 -90 11 -136 12 -46 2 -84 4 -84 6 0 1 15 16 33 32
l32 30 125 -5 c69 -4 179 -11 245 -16z m-352 -96 c-7 -2 -21 -2 -30 0 -10 3
-4 5 12 5 17 0 24 -2 18 -5z m95 -10 c-10 -2 -28 -2 -40 0 -13 2 -5 4 17 4 22
1 32 -1 23 -4z m287 -3 c4 -6 -20 -9 -67 -8 l-73 1 65 7 c36 4 66 7 67 8 1 1
5 -2 8 -8z m-202 -7 c-7 -2 -21 -2 -30 0 -10 3 -4 5 12 5 17 0 24 -2 18 -5z
m4102 -102 c157 -28 266 -72 352 -143 40 -32 56 -45 140 -110 70 -54 216 -258
258 -360 20 -48 40 -88 44 -88 10 0 44 -110 43 -141 0 -19 12 -39 44 -69 37
-35 53 -43 100 -49 31 -5 72 -5 93 0 82 16 101 22 101 29 0 4 7 10 15 14 24 9
-10 -64 -43 -91 -46 -38 -132 -73 -132 -54 0 6 -16 0 -35 -13 -19 -13 -43 -22
-54 -19 -27 7 -81 59 -81 78 0 25 -42 189 -49 195 -4 3 -12 23 -19 46 -6 22
-34 78 -62 124 -27 46 -50 85 -50 86 0 2 -15 27 -34 56 -55 87 -123 155 -225
226 -53 36 -103 73 -111 81 -22 21 -167 88 -255 116 -167 55 -424 79 -597 56
-113 -15 -271 -66 -373 -121 -42 -22 -83 -40 -90 -40 -8 0 -20 -6 -27 -13 -7
-7 -53 -39 -103 -72 -87 -57 -315 -271 -315 -296 0 -5 -11 -25 -24 -42 -28
-37 -152 -284 -186 -372 -13 -33 -29 -66 -36 -72 -7 -7 -25 -45 -40 -85 -16
-42 -40 -85 -57 -100 -16 -16 -26 -28 -22 -28 3 0 0 -7 -9 -15 -15 -16 -106
-22 -106 -7 0 5 -42 13 -92 18 -92 10 -204 41 -543 149 -177 56 -350 102 -495
130 -84 17 -169 46 -193 65 -7 5 -27 21 -44 36 -42 33 -47 64 -5 37 15 -10 52
-30 82 -43 30 -14 57 -28 60 -32 3 -4 28 -12 55 -18 51 -11 69 -16 335 -94 85
-25 209 -55 275 -66 66 -11 140 -27 165 -35 70 -21 194 -45 320 -60 114 -14
116 -13 167 10 55 25 94 69 128 146 11 24 22 46 26 49 4 3 14 28 23 55 10 28
45 102 79 165 33 63 80 153 104 200 34 67 64 106 140 186 59 60 124 116 163
139 36 21 70 44 75 51 16 20 314 160 379 179 158 45 244 55 441 50 131 -2 224
-10 300 -24z m-243 -62 c116 -12 222 -36 322 -74 71 -27 148 -63 156 -74 3 -4
42 -31 86 -60 56 -36 86 -64 98 -87 8 -19 20 -34 25 -34 6 0 33 -23 60 -51 34
-35 51 -60 51 -77 0 -14 3 -22 6 -19 9 8 104 -189 140 -286 41 -115 68 -297
44 -297 -5 0 -10 -14 -10 -30 0 -37 -26 -65 -95 -105 -28 -16 -52 -32 -55 -36
-6 -9 -56 -29 -71 -29 -5 0 -9 33 -9 74 0 74 -39 252 -57 265 -6 3 -24 35 -42
71 -32 67 -131 186 -205 248 -22 19 -66 46 -96 60 -30 14 -57 29 -60 33 -3 4
-39 19 -80 33 -125 41 -316 58 -431 36 -47 -9 -60 -17 -104 -65 -27 -31 -54
-55 -58 -55 -20 0 -133 -110 -168 -163 -42 -65 -51 -91 -105 -297 -21 -80 -41
-149 -44 -153 -20 -23 -326 27 -533 88 -48 14 -101 25 -117 25 -17 0 -30 1
-30 3 0 6 31 157 40 192 13 55 12 62 -5 39 -9 -10 13 40 49 112 35 72 76 144
90 161 14 17 26 35 26 41 0 5 44 54 98 107 101 101 276 228 332 240 16 4 30
10 30 15 0 14 161 87 250 114 143 44 289 54 472 35z m147 -483 c30 -8 57 -19
60 -24 3 -4 43 -23 89 -42 46 -18 102 -48 125 -67 65 -54 66 -58 5 -19 -63 40
-235 100 -315 111 -29 4 -53 11 -53 16 0 5 -36 9 -80 9 -47 0 -80 -4 -80 -10
0 -5 -6 -10 -14 -10 -38 0 -180 -85 -238 -143 -148 -147 -288 -572 -288 -872
0 -72 6 -146 15 -184 20 -81 81 -200 162 -312 60 -83 67 -88 159 -135 l96 -49
202 0 201 0 96 47 c124 60 201 130 254 230 59 114 114 287 127 406 7 56 16
102 20 102 4 0 8 38 8 85 0 47 -4 85 -9 85 -4 0 -11 26 -14 58 -3 31 -27 124
-52 206 -25 82 -45 154 -45 160 0 6 -11 33 -24 59 -22 45 -22 47 -3 30 30 -27
81 -110 108 -178 13 -33 27 -62 31 -65 3 -3 14 -43 24 -90 14 -73 16 -117 10
-305 -7 -215 -18 -313 -35 -324 -4 -4 -11 -17 -15 -31 -4 -14 -37 -84 -72
-157 -71 -143 -146 -238 -215 -274 -21 -10 -82 -35 -134 -54 -53 -19 -106 -41
-118 -50 -12 -8 -32 -15 -44 -15 -13 0 -23 -4 -23 -10 0 -5 -9 -10 -20 -10
-11 0 -20 5 -20 10 0 6 -24 10 -54 10 -30 0 -90 7 -135 15 -76 15 -97 24 -216
98 -140 86 -194 145 -248 273 -47 109 -68 214 -74 367 -8 177 9 307 70 536 70
267 82 285 285 449 22 17 49 32 60 32 11 0 22 7 26 15 4 11 -2 15 -21 15 -38
0 -20 12 30 21 70 13 336 3 396 -15z m-13 -75 c49 -10 109 -28 132 -40 23 -11
47 -21 54 -21 7 -1 23 -20 35 -43 95 -178 116 -259 134 -522 22 -333 -1 -554
-77 -729 -42 -98 -59 -117 -157 -191 -69 -52 -79 -65 -49 -66 12 0 10 -3 -8
-10 -15 -6 -103 -9 -215 -7 l-190 3 -69 33 c-90 42 -153 108 -232 243 -91 154
-99 183 -99 374 0 140 4 176 28 285 42 184 140 434 198 505 65 79 122 126 201
164 73 36 91 41 153 41 39 0 111 -9 161 -19z m817 -91 c19 -36 46 -108 59
-160 12 -52 26 -96 31 -98 4 -2 7 -13 7 -23 0 -59 80 -139 139 -139 37 0 113
28 195 71 l39 21 -7 -28 c-4 -16 -11 -30 -16 -32 -5 -2 -16 -26 -25 -53 -14
-41 -27 -58 -73 -92 -32 -23 -62 -47 -68 -53 -12 -10 -133 -34 -166 -32 -16 1
-18 14 -18 115 0 62 -4 113 -8 113 -4 0 -13 44 -20 97 -13 99 -55 239 -99 328
-35 70 -12 44 30 -35z m-550 -12 c51 -34 97 -80 114 -113 9 -16 40 -108 69
-202 67 -218 80 -311 64 -477 -14 -151 -24 -197 -67 -316 -75 -206 -143 -293
-285 -364 -65 -32 -70 -33 -43 -10 17 14 47 36 67 50 46 29 77 75 119 174 53
126 70 229 76 461 11 404 -32 653 -133 786 -29 38 -24 41 19 11z m-3505 -205
c5 -10 7 -24 4 -32 -2 -8 3 -18 12 -23 9 -5 32 -39 50 -76 19 -37 48 -87 65
-112 l30 -45 -22 -9 c-82 -34 -143 -61 -147 -66 -5 -7 -86 -53 -135 -78 -51
-26 -304 -209 -366 -265 -37 -33 -144 -101 -206 -129 -93 -44 -151 -37 -412
46 -112 36 -207 69 -210 74 -3 4 -37 25 -76 46 -83 45 -131 88 -147 133 -7 18
-16 33 -21 33 -5 0 -1 7 8 17 21 21 245 76 400 98 66 10 122 20 125 24 3 4 33
12 67 19 104 21 211 60 363 132 280 132 346 159 430 182 47 12 87 25 90 29 4
6 27 11 77 18 7 0 16 -7 21 -16z m124 -64 c29 -11 100 -30 158 -41 142 -26
305 -70 485 -128 83 -27 210 -65 283 -86 72 -20 132 -40 132 -45 0 -24 309
-51 349 -30 21 12 101 159 101 187 0 7 4 14 9 16 5 2 21 28 35 58 15 30 24 46
21 36 -3 -11 -8 -47 -12 -80 -3 -34 -12 -73 -19 -88 -16 -32 -18 -52 -4 -43
15 9 12 -206 -3 -226 -27 -34 -125 -99 -168 -110 -68 -18 -263 9 -399 56 -58
19 -161 47 -230 61 -69 15 -135 30 -147 35 -12 4 -70 15 -130 24 -111 16 -190
46 -238 90 -12 12 -39 32 -59 44 -20 13 -41 31 -46 42 -6 10 -19 19 -29 19
-12 0 -32 20 -54 53 -37 56 -100 177 -93 177 3 0 29 -9 58 -21z m1698 -165
c25 -7 86 -22 135 -34 50 -11 119 -27 155 -36 36 -9 116 -21 178 -26 l114 -11
-7 -26 c-3 -14 -8 -107 -12 -206 -6 -201 6 -299 54 -435 48 -138 152 -264 260
-315 18 -9 35 -19 38 -24 10 -18 113 -70 151 -77 21 -4 42 -11 45 -16 8 -12
217 -30 262 -22 21 3 46 14 55 24 10 11 58 33 107 51 213 75 262 120 371 340
31 63 60 116 64 119 30 21 59 226 60 433 0 66 2 77 18 77 19 0 104 37 112 49
3 4 27 22 53 40 l49 33 -7 -128 c-5 -122 -36 -296 -70 -399 -49 -148 -167
-394 -213 -442 -18 -19 -44 -50 -58 -69 -14 -18 -47 -47 -72 -63 -26 -17 -51
-34 -57 -38 -25 -21 -245 -96 -313 -109 -43 -7 -159 -21 -259 -29 -162 -14
-197 -14 -335 -1 -116 11 -175 22 -243 45 -168 58 -226 86 -277 134 -10 9 -25
17 -33 17 -21 0 -149 125 -185 180 -16 25 -63 122 -105 215 -115 258 -134 338
-142 598 l-6 177 34 -6 c19 -3 54 -12 79 -20z m2507 -910 c9 -328 -58 -470
-233 -490 -34 -4 -55 -1 -68 8 -17 14 -15 17 35 45 98 56 128 99 154 217 20
89 17 294 -4 334 -11 20 -7 29 36 80 l48 58 14 -55 c7 -31 16 -119 18 -197z
m-142 11 c11 -132 -13 -279 -55 -328 -10 -12 -27 -32 -37 -44 -10 -12 -40 -34
-67 -48 l-50 -25 -26 25 c-29 28 -31 31 -86 150 -20 44 -38 75 -41 68 -9 -25
52 -169 99 -230 l47 -63 -27 0 c-15 0 -110 7 -212 15 -102 8 -243 15 -315 16
-71 1 -121 3 -110 5 82 17 163 41 238 73 80 33 98 45 196 141 83 81 120 109
157 122 82 28 154 82 237 176 16 18 32 32 37 32 4 0 11 -38 15 -85z m-5360 -5
c22 -5 126 -14 230 -20 185 -11 509 -51 557 -69 32 -12 170 -37 283 -51 50 -6
110 -13 134 -16 33 -4 41 -3 36 7 -6 9 4 11 46 5 30 -4 167 -11 304 -16 246
-8 252 -8 375 -44 212 -61 227 -67 280 -114 83 -73 119 -162 145 -361 21 -162
22 -159 -22 -178 -21 -8 -46 -22 -55 -31 -17 -14 -18 -10 -18 79 -1 214 -72
388 -180 435 -31 14 -37 21 -29 31 9 10 6 13 -15 13 -14 0 -26 -3 -26 -8 0 -4
-18 -6 -40 -4 -64 6 -85 -4 -172 -83 -45 -41 -86 -75 -89 -75 -4 0 -23 -26
-42 -57 -51 -85 -77 -180 -82 -303 l-5 -105 -36 -3 c-20 -2 -73 6 -118 17 -44
11 -112 27 -151 36 -62 14 -124 36 -332 117 -52 20 -53 22 -99 117 -25 53 -59
130 -76 171 -17 41 -41 88 -52 105 -11 16 -21 34 -22 40 0 5 -2 18 -2 27 -1
11 -15 19 -39 24 -21 4 -40 10 -43 13 -16 22 -264 74 -455 96 -71 8 -166 21
-210 30 -44 8 -136 18 -205 21 -69 4 -134 11 -144 17 -19 10 -19 10 0 24 59
45 247 123 294 123 19 0 53 -5 75 -10z m-15 -215 c41 -8 134 -22 205 -30 152
-18 305 -46 305 -56 0 -4 30 -15 68 -25 38 -10 83 -31 105 -48 46 -37 92 -128
136 -271 35 -112 51 -145 51 -105 0 20 4 17 23 -20 21 -42 26 -46 122 -81 55
-20 136 -50 181 -67 44 -17 116 -38 160 -47 103 -21 157 -37 165 -48 4 -6 32
-10 62 -11 83 -1 93 17 100 164 6 160 36 250 107 321 45 46 109 60 158 35 57
-29 134 -186 153 -311 12 -72 6 -204 -12 -285 -16 -70 -64 -162 -114 -215 -25
-27 -45 -52 -45 -56 0 -11 -29 -19 -68 -19 -51 0 -82 10 -82 26 0 7 -9 18 -20
24 -34 18 -89 111 -107 182 -17 66 -35 84 -41 40 -5 -36 25 -123 60 -176 18
-27 38 -57 43 -67 6 -9 17 -24 24 -33 17 -21 12 -21 -101 1 -50 10 -88 22 -88
28 0 7 -25 17 -55 24 -55 12 -71 26 -37 33 9 2 -21 10 -68 17 -47 7 -112 24
-145 36 -33 12 -96 35 -140 50 -44 15 -96 36 -115 47 -43 25 -267 110 -338
128 -29 8 -52 17 -52 21 0 12 -182 67 -310 94 -211 44 -320 88 -415 169 -77
66 -76 64 -137 181 l-53 100 3 129 c1 70 5 133 9 139 8 13 203 2 303 -18z
m3319 -74 c86 -86 412 -179 664 -191 17 0 5 -18 -15 -23 -13 -2 -84 -18 -158
-35 -74 -17 -164 -33 -200 -37 -36 -3 -126 -15 -200 -26 -74 -12 -162 -25
-195 -30 -33 -5 -79 -9 -102 -9 -23 0 -43 -4 -45 -10 -2 -5 -127 -10 -315 -12
l-311 -3 -16 88 c-9 48 -25 110 -36 138 -11 27 -20 51 -20 52 0 1 34 1 75 -1
48 -3 101 2 143 12 37 9 126 23 197 31 160 19 245 35 245 46 0 5 28 9 63 10
34 0 85 4 112 9 80 12 94 11 114 -9z m-1223 -110 c37 -17 72 -43 89 -65 100
-131 123 -500 44 -712 -24 -65 -66 -118 -119 -152 -22 -15 -40 -32 -40 -39 0
-24 -95 -63 -152 -62 -50 1 -51 2 -16 8 40 8 88 36 88 51 0 6 19 36 43 68 23
31 51 78 62 102 11 25 23 47 27 50 13 10 28 99 34 203 7 112 -8 238 -32 262
-8 7 -14 20 -14 27 0 8 -23 51 -51 96 -51 83 -85 112 -133 112 -36 0 -39 14
-8 42 50 47 93 49 178 9z"/>
<path d="M20208 7553 c18 -2 45 -2 60 0 15 2 0 4 -33 4 -33 0 -45 -2 -27 -4z"/>
<path d="M20120 7540 c-102 -4 -192 -10 -200 -13 -8 -3 -69 -11 -134 -17 -65
-7 -130 -16 -144 -21 -13 -5 -104 -23 -201 -39 -147 -26 -478 -87 -698 -131
-28 -6 -53 -15 -55 -20 -2 -6 -100 -37 -218 -70 -118 -32 -294 -86 -390 -119
-96 -32 -249 -82 -340 -111 -91 -28 -167 -54 -170 -58 -3 -3 -48 -20 -100 -37
-564 -187 -863 -297 -880 -324 -3 -4 -45 -28 -95 -52 -106 -53 -285 -158 -329
-194 -106 -85 -132 -110 -148 -140 -10 -19 -18 -41 -18 -50 0 -12 -18 -6 -76
26 -118 66 -111 28 9 -44 43 -25 53 -36 40 -39 -10 -3 -1 -5 19 -6 20 0 48 -5
63 -11 44 -17 312 -61 490 -81 426 -49 701 -31 1295 81 269 51 788 140 817
140 12 0 23 3 25 8 2 4 50 15 108 25 152 26 653 149 821 202 171 54 363 125
367 136 2 4 20 13 40 20 70 22 407 171 543 240 99 50 144 79 163 104 15 19 32
35 39 35 14 0 180 145 201 175 19 28 30 101 17 110 -7 3 -11 -2 -11 -15 0 -11
-7 -37 -16 -58 l-16 -37 -12 45 c-15 55 -54 118 -95 152 -42 36 -235 138 -301
160 l-55 18 50 -6 c146 -17 254 -58 363 -136 53 -39 107 -82 120 -97 l24 -26
-22 32 c-21 32 -155 135 -217 166 -43 23 -164 55 -269 72 -93 15 -108 16 -404
5z m411 -145 c188 -20 260 -44 317 -104 23 -25 47 -63 54 -84 10 -33 9 -43 -9
-75 -12 -20 -49 -59 -84 -86 -35 -26 -86 -68 -112 -92 -55 -50 -83 -65 -310
-168 -210 -95 -294 -131 -391 -167 -44 -16 -82 -33 -85 -38 -3 -5 -46 -23 -96
-41 -329 -117 -857 -247 -1195 -296 -69 -10 -127 -21 -130 -24 -3 -4 -68 -17
-145 -29 -77 -12 -210 -35 -295 -51 -85 -16 -216 -41 -290 -54 -421 -78 -844
-114 -1014 -86 -33 5 -116 14 -184 20 -69 6 -134 15 -144 21 -29 16 -23 61 15
96 65 62 138 84 189 56 49 -27 402 -26 538 1 52 11 97 23 100 26 3 4 93 29
200 55 107 26 260 65 340 86 80 21 204 50 275 64 72 15 133 29 136 31 4 2 88
17 189 33 100 17 187 35 194 40 7 6 17 6 26 1 8 -5 12 -11 10 -13 -48 -39
-354 -207 -379 -207 -13 0 -182 -80 -191 -91 -3 -3 -20 -14 -37 -24 -30 -17
-43 -35 -27 -35 15 0 130 56 146 70 10 9 44 26 75 38 77 30 305 147 368 189
49 33 50 33 58 11 4 -12 7 -60 6 -105 -2 -78 3 -104 16 -91 9 9 10 148 2 198
l-7 45 47 15 c31 10 51 23 58 38 9 21 45 32 45 14 0 -5 18 -15 40 -22 22 -7
40 -16 40 -19 0 -3 -13 -19 -29 -36 -34 -36 -137 -180 -122 -171 6 4 32 35 58
69 102 134 102 133 216 102 98 -27 333 -65 400 -65 83 0 28 16 -129 39 -140
19 -326 60 -340 73 -2 2 20 30 49 61 52 57 52 57 137 72 47 7 155 21 240 30
85 9 209 24 275 35 271 43 366 54 615 70 179 11 230 19 230 33 0 5 -13 7 -32
3 -17 -3 -122 -13 -232 -21 -226 -16 -430 -39 -544 -60 -42 -8 -142 -21 -222
-30 -80 -8 -194 -22 -255 -30 -60 -8 -116 -15 -123 -15 -6 0 16 36 50 80 50
63 71 82 98 89 19 5 87 21 150 36 63 15 117 31 120 34 6 9 230 66 350 90 25 5
79 16 120 24 41 9 86 18 100 20 22 4 22 4 -5 5 -30 2 -137 -19 -300 -58 -234
-56 -300 -73 -305 -79 -3 -4 -39 -15 -80 -24 -41 -10 -92 -23 -113 -28 -46
-12 -56 -6 -34 19 10 10 17 23 17 28 0 5 42 53 93 106 50 53 121 134 157 181
l65 86 70 15 c88 19 342 66 415 76 95 13 332 11 481 -5z m-1471 -55 c0 -5 -4
-10 -9 -10 -6 0 -13 5 -16 10 -3 6 1 10 9 10 9 0 16 -4 16 -10z m-40 -10 c0
-5 20 -29 45 -52 25 -23 45 -48 45 -55 0 -7 6 -13 14 -13 32 0 56 -56 57 -129
1 -85 -25 -137 -106 -205 -47 -41 -66 -50 -172 -77 -65 -18 -128 -34 -140 -36
-17 -4 -26 3 -43 36 -11 23 -29 47 -40 53 -19 12 -19 14 10 43 66 69 187 254
222 340 16 39 38 78 49 88 23 18 59 23 59 7z m-112 -35 c-12 -27 -28 -24 -28
6 0 12 7 19 20 19 17 0 18 -3 8 -25z m606 -27 c-19 -33 -127 -160 -196 -231
-43 -43 -78 -84 -78 -91 -1 -20 -56 -73 -90 -85 -55 -19 -62 -13 -24 21 20 17
40 41 45 52 6 12 16 32 24 46 23 39 20 157 -5 198 -11 18 -20 34 -20 36 0 7
95 25 208 41 58 8 108 17 110 20 11 11 33 5 26 -7z m-650 -82 c-3 -9 -10 -13
-15 -10 -5 3 -33 -6 -62 -20 -52 -26 -117 -48 -117 -41 0 10 190 96 198 90 1
-1 0 -10 -4 -19z m-49 -83 c-16 -27 -44 -68 -64 -91 -20 -24 -41 -53 -47 -63
-18 -32 -58 -71 -82 -80 -28 -11 -42 -46 -42 -108 0 -42 -3 -50 -22 -55 -148
-42 -234 -60 -348 -72 -171 -17 -340 -46 -340 -56 0 -4 -9 -8 -19 -8 -10 0
-72 -14 -137 -30 -108 -28 -279 -59 -754 -140 -224 -38 -245 -41 -234 -31 25
23 429 191 459 191 7 0 20 6 27 13 7 7 90 42 183 76 195 72 253 95 385 149 52
21 112 42 133 46 60 11 287 86 287 95 0 4 50 20 111 35 132 32 425 128 477
155 54 29 57 26 27 -26z m-743 -39 c-75 -32 -232 -78 -239 -70 -4 4 288 103
307 104 8 1 -22 -15 -68 -34z m1088 -220 c0 -17 -124 -155 -143 -158 -12 -3
-40 -8 -62 -11 -22 -3 -49 -9 -60 -12 -14 -4 -9 6 20 36 21 22 44 41 49 41 6
0 31 20 56 44 25 25 61 49 80 54 42 12 60 14 60 6z m-470 -36 c27 -45 25 -64
-7 -72 -16 -3 -38 -8 -50 -12 -22 -6 -23 -3 -23 40 0 78 44 102 80 44z m294
-13 c-4 -8 -10 -15 -15 -15 -4 0 -39 -27 -76 -60 -37 -33 -75 -59 -83 -58 -8
1 -21 -1 -28 -6 -17 -11 -19 -8 -30 42 -11 48 -11 47 49 62 38 9 180 47 186
49 1 1 0 -6 -3 -14z m-260 -81 c3 -9 6 -30 6 -48 0 -18 5 -37 10 -42 15 -15
-11 -63 -37 -70 -40 -11 -58 0 -67 39 -5 20 -13 37 -18 37 -4 0 -8 17 -8 39 0
34 3 39 33 49 48 15 74 14 81 -4z m-135 -93 c7 -35 10 -65 8 -68 -3 -2 -97
-20 -209 -39 -111 -19 -210 -37 -218 -40 -8 -3 -69 -16 -135 -29 -66 -13 -175
-40 -241 -59 -67 -19 -157 -41 -200 -50 -44 -8 -136 -31 -204 -50 -69 -19
-156 -40 -195 -47 -38 -7 -72 -16 -75 -20 -16 -22 -380 -34 -452 -14 -59 15
-32 28 127 60 137 27 392 84 585 130 102 24 282 67 400 95 296 70 344 83 350
90 18 23 280 54 369 44 38 -4 61 -2 65 4 7 12 -29 20 -104 24 l-45 3 75 21
c41 11 78 18 81 15 3 -3 11 -35 18 -70z m373 -10 c-37 -36 -57 -48 -72 -44
-11 3 -20 9 -20 13 0 5 -14 13 -31 19 -27 9 -30 13 -19 26 7 8 27 15 44 16 17
1 42 5 56 9 14 4 40 8 59 9 l34 1 -51 -49z m-862 -18 c-14 -3 -27 -8 -30 -13
-5 -7 -64 -22 -390 -100 -310 -74 -651 -150 -907 -203 -160 -33 -183 -33 -183
-1 0 29 105 63 250 79 30 3 116 18 190 32 74 14 234 42 355 63 121 21 286 54
367 74 81 19 172 38 202 41 31 4 56 11 56 16 0 8 43 16 90 16 l25 0 -25 -4z
m-1530 -353 c0 -5 -7 -10 -16 -10 -8 0 -12 5 -9 10 3 6 10 10 16 10 5 0 9 -4
9 -10z m-500 -115 c0 -8 -6 -15 -14 -15 -17 0 -28 14 -19 24 12 12 33 6 33 -9z"/>
<path d="M20788 7173 c6 -2 18 -2 25 0 6 3 1 5 -13 5 -14 0 -19 -2 -12 -5z"/>
<path d="M20613 7163 c26 -2 67 -2 90 0 23 2 2 3 -48 3 -49 0 -68 -1 -42 -3z"/>
<path d="M20508 7153 c12 -2 30 -2 40 0 9 3 -1 5 -23 4 -22 0 -30 -2 -17 -4z"/>
<path d="M20448 7143 c6 -2 18 -2 25 0 6 3 1 5 -13 5 -14 0 -19 -2 -12 -5z"/>
<path d="M20355 7135 c-5 -2 -65 -13 -133 -25 -68 -12 -121 -24 -119 -27 3 -2
72 7 154 22 187 33 185 33 143 33 -19 0 -39 -1 -45 -3z"/>
<path d="M21142 7221 c-7 -22 -16 -41 -21 -41 -4 0 -17 -24 -30 -54 -12 -30
-31 -62 -42 -72 -20 -18 -20 -18 -9 10 18 49 4 39 -18 -11 -20 -47 -55 -82
-192 -198 -30 -25 -109 -73 -175 -107 -66 -33 -145 -75 -175 -93 -30 -18 -74
-41 -97 -50 -24 -10 -43 -21 -43 -25 0 -9 -106 -55 -216 -94 -38 -13 -139 -49
-224 -79 -187 -66 -312 -104 -485 -148 -71 -18 -132 -35 -135 -39 -5 -8 -53
-19 -330 -75 -96 -19 -240 -51 -320 -70 -242 -58 -434 -90 -765 -129 -371 -44
-1047 -76 -1203 -58 -324 40 -427 56 -502 78 -47 14 -94 28 -105 31 -19 4 -19
4 -2 -11 42 -33 189 -67 407 -92 80 -9 148 -22 152 -28 9 -13 598 -12 607 2 3
4 120 16 259 26 268 19 437 37 737 80 120 17 169 28 440 91 99 23 212 48 250
55 111 19 430 92 435 100 3 4 59 19 125 34 211 48 309 74 380 102 166 62 352
126 383 130 18 3 59 17 91 33 33 16 70 31 84 35 14 3 32 12 39 19 7 6 51 30
98 52 50 24 107 61 141 92 31 28 76 60 100 71 44 20 161 116 197 162 11 14 40
46 65 72 25 25 50 62 57 82 6 20 15 36 20 36 10 0 43 96 38 111 -2 7 -10 -7
-16 -30z m-487 -511 c-4 -6 -34 -25 -68 -42 -142 -74 -155 -70 -22 6 81 46
101 54 90 36z"/>
<path d="M2585 6688 c-136 -19 -422 -88 -434 -105 -3 -4 -28 -19 -56 -33 -57
-29 -164 -126 -224 -204 -23 -29 -41 -56 -41 -59 0 -4 51 45 112 109 81 83
129 124 170 145 32 16 64 29 72 29 8 0 16 4 18 9 3 11 151 55 213 64 42 7 40
5 -43 -25 -28 -11 -58 -25 -65 -32 -26 -26 -124 -96 -134 -96 -22 0 -140 -127
-164 -175 -19 -39 -24 -66 -24 -122 0 -40 -3 -73 -7 -73 -13 0 -68 82 -68 100
0 10 -7 23 -15 30 -13 10 -15 9 -15 -11 0 -28 33 -94 63 -127 28 -30 197 -141
268 -175 31 -15 69 -39 84 -53 70 -65 256 -138 740 -292 132 -42 242 -79 245
-83 6 -8 289 -85 495 -134 149 -36 337 -73 470 -94 563 -86 657 -97 993 -117
61 -4 112 -10 112 -15 0 -5 24 -9 53 -9 91 0 680 -60 687 -70 6 -8 386 -37
595 -46 235 -9 597 18 615 47 5 7 163 39 320 66 19 4 40 12 45 19 6 7 77 31
159 54 82 23 162 48 177 56 15 8 41 14 56 14 18 0 24 3 15 8 -9 6 6 23 49 57
65 53 86 80 69 90 -6 4 -40 -17 -77 -47 -37 -29 -68 -48 -70 -43 -11 35 -49
79 -97 114 -30 23 -57 41 -60 41 -2 0 -18 14 -35 31 -52 51 -585 298 -698 323
-18 4 -33 11 -33 15 0 7 -171 57 -435 126 -77 21 -214 57 -305 81 -91 25 -250
65 -355 90 -104 25 -192 49 -195 53 -3 3 -63 22 -135 40 -379 98 -487 124
-670 162 -110 23 -228 50 -262 60 -35 11 -110 24 -167 29 -57 5 -144 16 -193
24 -48 8 -135 20 -193 27 -58 7 -107 15 -110 19 -3 4 -120 19 -260 34 -140 15
-289 34 -330 42 -41 8 -169 19 -283 24 -115 5 -212 12 -216 15 -4 2 -86 -3
-181 -11 -198 -17 -240 -15 -125 8 108 22 51 19 -120 -4z m-32 -25 c-7 -2 -19
-2 -25 0 -7 3 -2 5 12 5 14 0 19 -2 13 -5z m732 -192 c105 -12 235 -28 289
-37 l100 -15 95 -87 c53 -48 114 -105 137 -127 22 -22 70 -62 106 -89 36 -27
99 -79 139 -117 61 -56 70 -68 51 -69 -18 0 -232 33 -637 100 -188 31 -292 44
-590 75 -315 33 -403 40 -394 31 2 -2 31 -7 64 -10 51 -4 427 -44 590 -61 28
-4 77 -10 110 -15 33 -5 110 -17 170 -26 61 -9 175 -27 255 -41 80 -13 186
-30 235 -38 50 -8 127 -21 172 -29 90 -16 75 -5 233 -156 l65 -62 -58 6 c-31
4 -190 11 -351 16 -162 6 -301 12 -308 15 -62 21 -1068 44 -1068 24 0 -15 96
-19 430 -19 190 0 390 -4 445 -9 217 -20 381 -31 635 -41 146 -6 277 -13 291
-16 19 -4 116 -73 167 -119 2 -2 -11 -11 -30 -21 -18 -9 -35 -20 -38 -25 -9
-14 -151 -56 -322 -95 -166 -38 -203 -54 -131 -54 35 0 74 8 293 62 92 22 230
75 230 88 0 14 45 20 55 7 6 -7 33 -29 60 -49 28 -20 73 -60 100 -88 28 -28
64 -61 80 -72 28 -19 -121 132 -193 195 -18 16 -32 32 -32 35 0 4 25 20 54 36
l55 30 38 -27 c21 -15 60 -30 86 -33 l47 -7 0 -41 c0 -55 17 -158 28 -165 4
-3 16 -27 26 -53 10 -27 22 -48 27 -48 14 0 11 21 -11 86 -21 60 -38 174 -26
174 3 0 24 -11 46 -25 75 -47 351 -153 665 -256 104 -33 127 -37 105 -15 -14
13 -69 34 -320 121 -289 99 -454 172 -483 211 -24 32 -20 36 24 24 19 -5 104
-14 189 -21 85 -6 157 -15 160 -19 3 -4 28 -10 55 -13 204 -23 384 -49 465
-66 52 -11 151 -27 220 -36 69 -9 195 -30 280 -45 298 -55 378 -63 578 -55
192 7 271 21 330 57 42 26 98 20 162 -16 63 -35 87 -60 95 -97 10 -43 -7 -55
-101 -70 -41 -6 -74 -16 -74 -20 0 -5 -10 -9 -22 -9 -13 0 -68 -12 -123 -25
-55 -14 -139 -28 -187 -32 -49 -3 -88 -10 -88 -14 0 -5 -108 -9 -240 -9 -132
0 -240 4 -240 8 0 5 -55 12 -122 16 -68 3 -211 15 -318 26 -107 11 -229 23
-270 26 -41 4 -77 10 -80 14 -5 7 -262 30 -570 50 -329 22 -759 77 -1124 144
-214 40 -663 150 -676 166 -3 4 -34 14 -70 24 -105 29 -480 150 -682 220 -187
65 -268 100 -268 114 0 9 -141 96 -180 111 -44 17 -107 65 -144 109 -32 40
-36 50 -36 103 0 46 5 64 20 79 11 11 20 24 20 29 0 5 19 26 43 48 51 47 122
71 297 102 139 24 337 50 405 54 85 4 291 -10 490 -32z m1015 35 c0 -3 -4 -8
-10 -11 -5 -3 -10 -1 -10 4 0 6 5 11 10 11 6 0 10 -2 10 -4z m111 -26 c21 -17
52 -55 68 -83 58 -102 181 -239 318 -353 l101 -86 -24 -35 c-13 -20 -24 -50
-24 -67 0 -51 -7 -54 -85 -39 -38 7 -104 20 -146 28 -42 8 -85 15 -97 15 -11
0 -22 3 -24 8 -4 10 -165 122 -176 122 -19 0 -84 81 -102 127 -47 125 -39 165
60 308 68 99 72 101 131 55z m93 2 c2 -4 1 -14 -4 -22 -8 -13 -13 -11 -32 8
l-22 22 26 0 c15 0 29 -4 32 -8z m-579 -102 c234 -20 250 -23 247 -45 -18
-116 -9 -180 34 -267 21 -42 98 -118 120 -118 5 0 24 -13 43 -29 l34 -28 -54
9 c-73 13 -79 17 -224 143 -70 61 -144 121 -164 135 -20 14 -54 43 -76 65 -22
22 -66 64 -98 93 -31 29 -57 56 -57 59 0 3 17 3 38 -1 20 -3 91 -11 157 -16z
m695 -40 c56 -15 232 -82 227 -87 -6 -5 -177 46 -211 63 -34 17 -56 18 -56 3
0 -15 -18 -2 -31 23 -9 17 -8 19 8 15 10 -3 38 -11 63 -17z m105 -86 c50 -16
92 -31 95 -34 10 -12 206 -61 400 -99 107 -21 236 -50 285 -64 50 -14 151 -37
225 -52 121 -24 437 -119 450 -135 3 -4 23 -11 45 -17 22 -6 87 -24 145 -42
58 -17 184 -53 280 -81 261 -74 305 -88 420 -132 178 -68 174 -66 105 -61 -96
5 -287 23 -470 43 -93 10 -210 21 -260 25 -94 7 -232 24 -395 50 -185 29 -347
44 -530 50 -167 5 -293 21 -465 60 -16 3 -25 20 -39 76 -19 70 -55 129 -81
129 -30 0 -295 247 -329 307 -10 18 -18 20 119 -23z m838 5 c61 -17 114 -35
117 -39 3 -4 28 -12 55 -18 28 -6 61 -15 75 -21 21 -8 17 -9 -20 -5 -69 9
-174 34 -180 43 -3 4 -45 22 -95 39 -117 40 -94 40 48 1z m-583 -38 c0 -5 18
-12 41 -16 22 -4 38 -9 35 -12 -7 -7 -116 19 -116 29 0 4 9 8 20 8 11 0 20 -4
20 -9z m-26 -313 c8 -13 21 -47 30 -75 l15 -53 -27 0 c-34 0 -102 19 -102 28
1 23 23 98 32 109 16 19 36 16 52 -9z m-526 -39 c2 -5 8 -9 13 -9 5 0 46 -28
91 -61 46 -34 107 -75 136 -91 29 -17 52 -32 50 -33 -3 -2 -112 10 -183 21
-22 3 -60 32 -130 100 l-100 95 60 -7 c33 -4 62 -11 63 -15z m272 -54 c73 -13
137 -28 141 -32 4 -4 9 -32 11 -61 3 -54 -8 -66 -32 -37 -14 17 -35 21 -25 5
12 -20 -21 -9 -65 20 -25 16 -48 30 -52 30 -9 0 -138 90 -138 96 0 7 26 4 160
-21z m286 -56 c18 -6 23 -19 28 -71 12 -113 -23 -146 -103 -97 -28 17 -32 24
-28 49 4 15 2 51 -2 79 -4 28 -6 53 -3 56 6 6 78 -5 108 -16z m178 -29 c55
-11 101 -22 103 -24 2 -2 -33 -6 -77 -10 -87 -7 -110 -13 -110 -28 0 -7 26 -7
78 -2 110 13 316 11 387 -3 33 -7 89 -17 125 -22 734 -114 780 -122 780 -133
0 -4 17 -8 38 -8 20 0 55 -5 77 -10 53 -12 477 -72 675 -95 75 -9 102 -17 93
-25 -36 -37 -371 -61 -548 -41 -55 7 -163 23 -240 37 -77 14 -225 38 -330 54
-104 16 -233 38 -285 50 -52 11 -131 23 -175 27 -44 3 -82 9 -85 13 -9 12
-145 30 -377 50 -124 11 -227 21 -228 22 -6 7 -11 168 -6 168 3 0 51 -9 105
-20z m-456 -76 c58 -3 92 -15 92 -34 0 -11 -102 -55 -119 -52 -20 5 -121 84
-121 96 0 5 19 5 43 1 23 -4 71 -9 105 -11z m1093 6 c57 -6 190 -24 294 -40
105 -16 251 -34 325 -40 74 -6 169 -15 210 -19 41 -5 156 -17 255 -27 99 -10
182 -22 183 -26 2 -4 24 -8 50 -8 97 0 219 -22 246 -44 32 -25 27 -56 -8 -56
-23 0 -283 32 -401 49 -38 6 -137 20 -220 31 -82 12 -152 24 -155 29 -3 4 -45
13 -95 20 -49 8 -112 17 -140 22 -27 4 -169 26 -315 48 -325 50 -420 68 -369
70 20 0 83 -4 140 -9z m1644 -260 c3 -5 -1 -10 -9 -10 -9 0 -16 5 -16 10 0 6
4 10 9 10 6 0 13 -4 16 -10z m555 -75 c0 -8 -9 -15 -20 -15 -13 0 -18 5 -14
15 4 8 12 15 20 15 8 0 14 -7 14 -15z"/>
<path d="M2305 6150 c-49 -3 -83 -8 -75 -11 8 -3 60 -3 115 0 55 3 89 8 75 11
-14 3 -65 3 -115 0z"/>
<path d="M2163 6143 c9 -2 23 -2 30 0 6 3 -1 5 -18 5 -16 0 -22 -2 -12 -5z"/>
<path d="M2451 6146 c10 -8 119 -14 119 -5 0 5 -28 9 -62 9 -34 0 -59 -2 -57
-4z"/>
<path d="M1650 6221 c0 -10 58 -97 108 -161 44 -56 80 -89 157 -142 33 -23 66
-49 72 -59 25 -35 234 -157 366 -214 43 -19 99 -49 125 -68 26 -18 62 -39 80
-47 17 -7 32 -16 32 -20 0 -7 99 -41 394 -135 65 -21 132 -39 150 -40 42 -3
59 -7 386 -87 157 -38 322 -75 368 -81 45 -6 82 -15 82 -19 0 -4 13 -8 29 -8
15 0 86 -9 157 -20 71 -11 170 -26 219 -32 50 -6 92 -14 95 -18 5 -7 175 -30
416 -55 78 -8 213 -26 300 -39 473 -73 1119 -93 1814 -56 255 14 322 24 575
82 121 28 230 53 243 56 12 2 22 8 22 13 0 5 6 9 13 9 21 0 118 49 143 73 34
32 30 39 -11 20 -19 -9 -35 -20 -35 -24 0 -9 -152 -69 -174 -69 -8 0 -16 -4
-18 -9 -1 -4 -46 -18 -98 -29 -52 -12 -143 -33 -202 -46 -171 -40 -469 -62
-969 -73 -453 -9 -998 22 -1334 76 -104 17 -267 36 -492 58 -35 3 -63 9 -63
13 0 3 -44 12 -97 19 -182 22 -373 55 -373 63 0 4 -12 8 -26 8 -51 0 -294 53
-649 140 -417 103 -651 176 -675 210 -7 9 -201 83 -275 105 -65 18 -194 80
-259 124 -23 15 -75 44 -118 64 -95 46 -146 88 -232 187 -39 45 -40 40 -4 -12
59 -85 -75 38 -158 144 -35 46 -64 89 -64 96 0 6 -4 12 -10 12 -5 0 -10 -4
-10 -9z m963 -673 c45 -17 84 -34 87 -38 3 -4 29 -18 58 -30 29 -13 51 -24 49
-26 -6 -7 -157 48 -157 56 0 5 -13 11 -28 15 -27 6 -115 54 -99 55 4 0 45 -14
90 -32z"/>
<path d="M13340 5872 c0 -14 59 -66 67 -58 4 4 -7 20 -24 36 -33 31 -43 36
-43 22z"/>
<path d="M13153 5523 c-24 -2 -43 -8 -43 -14 0 -5 -15 -9 -32 -10 -18 0 -42
-4 -52 -8 -19 -7 -19 -8 1 -27 43 -43 133 -178 153 -229 7 -20 -5 -15 -88 33
-198 114 -285 153 -325 146 -91 -17 -185 -54 -179 -71 1 -4 -12 -16 -30 -25
-41 -22 -115 -95 -135 -132 -15 -28 -15 -29 9 -22 54 16 101 18 139 6 21 -7
39 -17 39 -22 0 -5 30 -23 68 -40 37 -17 69 -34 72 -38 6 -9 62 -26 110 -34
34 -6 138 17 150 33 7 9 173 63 206 67 15 1 30 8 34 14 5 8 82 13 256 17 180
4 255 9 270 18 25 16 154 207 154 229 0 8 -13 22 -29 30 -67 35 -298 49 -338
21 -24 -17 -74 -102 -102 -173 l-19 -47 -11 45 c-17 63 -31 98 -63 153 -15 26
-28 57 -28 67 0 18 -7 20 -72 18 -40 -1 -92 -3 -115 -5z m197 -115 c22 -46 45
-111 53 -145 l14 -61 -91 -9 c-86 -8 -91 -7 -100 12 -35 82 -86 173 -119 213
-26 31 -35 48 -26 50 36 6 158 20 192 21 l38 1 39 -82z m513 22 c20 -6 37 -13
37 -15 0 -2 -30 -47 -66 -102 l-65 -98 -57 -6 c-31 -4 -105 -7 -164 -8 l-107
-1 24 36 c14 20 25 42 25 47 0 6 19 44 41 83 36 62 47 74 73 78 48 7 217 -2
259 -14z m-1003 -79 c30 -11 90 -40 134 -65 43 -25 103 -58 132 -73 30 -15 54
-31 54 -35 0 -4 -10 -10 -22 -14 -13 -4 -25 -10 -28 -14 -3 -4 -50 -22 -105
-40 -122 -39 -189 -38 -280 3 -33 16 -62 32 -65 36 -12 20 -97 53 -146 58 -29
3 -51 9 -48 14 11 18 146 102 201 125 71 29 103 30 173 5z"/>
<path d="M13657 5119 c-19 -11 -19 -22 4 -111 11 -44 39 -57 74 -34 35 23 32
39 -5 31 -35 -8 -39 4 -9 31 20 18 44 54 36 54 -2 0 -14 -9 -27 -20 -13 -11
-26 -20 -30 -20 -15 0 -18 40 -4 51 31 26 -1 40 -39 18z"/>
<path d="M13589 5103 c0 -4 0 -30 1 -57 2 -57 -13 -55 -31 4 -13 42 -39 55
-39 20 0 -34 27 -88 49 -100 15 -8 27 -8 41 0 16 9 20 21 20 65 0 44 -4 56
-20 65 -11 6 -20 7 -21 3z"/>
<path d="M13276 5077 c-14 -13 -26 -29 -26 -35 0 -5 20 -19 44 -31 59 -27 65
-39 27 -54 -37 -14 -35 -33 3 -30 67 5 75 64 13 99 -38 21 -39 34 -5 34 13 0
18 6 16 18 -5 26 -43 26 -72 -1z"/>
<path d="M13394 5075 c-12 -49 20 -115 55 -115 20 0 61 27 61 40 0 6 -11 5
-26 0 -41 -16 -57 4 -49 57 6 39 4 43 -14 43 -14 0 -23 -9 -27 -25z"/>
<path d="M13130 5054 c-17 -16 -21 -27 -14 -32 6 -4 15 -18 19 -32 19 -65 65
-91 95 -55 11 13 8 15 -14 15 -33 0 -33 13 -1 34 37 24 31 39 -10 22 -32 -14
-34 -13 -41 6 -4 14 -1 26 10 33 9 7 16 17 16 24 0 19 -34 11 -60 -15z"/>
<path d="M12961 5004 c-12 -15 -21 -33 -21 -40 0 -19 106 -88 120 -79 8 5 4
15 -11 31 -27 29 -24 30 36 4 80 -34 85 -1 5 35 -33 15 -40 23 -40 47 0 25 -3
28 -34 28 -25 0 -40 -7 -55 -26z m47 -24 c-13 -20 -28 -27 -28 -12 0 10 22 32
32 32 5 0 3 -9 -4 -20z"/>
<path d="M13010 2291 c0 -6 4 -13 10 -16 6 -3 7 1 4 9 -7 18 -14 21 -14 7z"/>
</g>
</svg>
