<?xml version="1.0" standalone="no"?>
<!DOCTYPE svg PUBLIC "-//W3C//DTD SVG 20010904//EN"
 "http://www.w3.org/TR/2001/REC-SVG-20010904/DTD/svg10.dtd">
<svg version="1.0" xmlns="http://www.w3.org/2000/svg"
 width="558.9678px" height="201.2797px" viewBox="0 0 2288.000000 838.000000"
 preserveAspectRatio="xMidYMid meet">

<g transform="translate(0.000000,838.000000) scale(0.100000,-0.100000)"
fill="#000000" stroke="none">
<path d="M20240 8051 c-147 -8 -311 -28 -320 -40 -5 -7 -299 -55 -720 -117
-135 -20 -246 -40 -248 -45 -2 -5 -14 -9 -27 -9 -62 0 -654 -125 -665 -140 -3
-4 -48 -17 -100 -30 -52 -12 -144 -38 -205 -57 -60 -19 -132 -42 -160 -50 -27
-9 -52 -19 -55 -22 -3 -4 -50 -21 -105 -39 -288 -92 -349 -113 -354 -120 -3
-5 -58 -28 -121 -51 -178 -66 -245 -92 -250 -100 -3 -3 -39 -20 -80 -38 -208
-86 -275 -117 -278 -125 -5 -12 -60 -39 -189 -94 -60 -25 -110 -49 -113 -53
-3 -4 -34 -23 -70 -41 -80 -42 -182 -109 -193 -127 -4 -7 -14 -13 -21 -13 -18
0 -136 -126 -136 -145 0 -7 -6 -20 -13 -27 -7 -7 -23 -38 -36 -69 -17 -42 -41
-75 -94 -126 -81 -78 -111 -140 -109 -224 1 -55 49 -174 87 -215 19 -21 22
-30 14 -40 -6 -8 -18 -14 -25 -14 -23 0 -246 88 -254 100 -9 15 -163 60 -270
79 -77 14 -117 17 -150 11 -25 -5 -72 -9 -105 -10 -127 -1 -300 -43 -338 -82
-34 -35 -110 -66 -136 -57 -35 14 -86 1 -127 -32 -20 -16 -40 -29 -44 -29 -14
0 -97 61 -147 108 -52 51 -135 112 -150 112 -5 0 -37 27 -72 60 -35 33 -68 60
-72 60 -5 0 -29 13 -55 30 -26 16 -63 35 -83 41 -19 7 -41 17 -47 24 -21 21
-286 102 -409 126 -66 12 -122 26 -125 30 -7 9 -255 49 -393 62 -87 8 -179 8
-355 -1 -217 -10 -520 -45 -532 -62 -3 -3 -84 -21 -180 -39 -96 -18 -248 -51
-338 -72 -90 -22 -170 -39 -178 -39 -8 0 -14 -4 -14 -9 0 -4 -28 -16 -62 -26
-35 -9 -94 -27 -133 -40 -38 -13 -119 -38 -180 -56 -60 -18 -113 -36 -116 -41
-3 -4 -30 -17 -60 -27 -81 -29 -262 -110 -269 -121 -3 -5 -35 -23 -70 -39 -95
-45 -211 -109 -224 -124 -15 -18 -93 -67 -106 -67 -6 0 -49 -39 -96 -86 -50
-50 -91 -83 -99 -80 -9 3 -18 -7 -25 -30 -12 -36 -56 -84 -77 -84 -7 0 -43
-30 -80 -66 l-68 -65 -160 -3 c-142 -2 -170 -6 -250 -31 -82 -25 -223 -88
-235 -104 -19 -26 -238 -134 -257 -127 -17 7 -16 17 22 125 40 118 42 163 9
250 -30 77 -29 76 -186 224 -22 20 -44 37 -48 37 -4 0 -23 35 -43 78 -50 108
-142 198 -283 273 -47 25 -93 53 -104 61 -17 15 -192 98 -207 98 -13 0 -178
65 -183 72 -8 10 -206 93 -294 124 -39 13 -72 28 -75 32 -6 8 -87 38 -291 105
-69 23 -127 44 -130 48 -3 3 -43 18 -90 32 -47 14 -130 40 -185 56 -55 17
-129 38 -165 46 -35 9 -67 19 -70 24 -3 4 -135 41 -295 81 -159 40 -292 76
-295 80 -3 4 -34 15 -70 23 -82 21 -601 117 -629 117 -12 0 -21 4 -21 8 0 18
-432 71 -1035 128 -159 15 -292 30 -295 34 -3 3 -79 14 -170 24 -562 60 -533
58 -790 51 -363 -9 -770 -49 -770 -75 0 -4 -24 -15 -53 -24 -29 -9 -79 -34
-112 -56 -33 -22 -64 -40 -70 -40 -29 0 -267 -269 -297 -335 -6 -14 -15 -25
-20 -25 -13 0 -9 -40 5 -40 6 -1 -14 -14 -46 -31 -36 -18 -65 -42 -77 -62 -10
-18 -23 -37 -29 -44 -5 -6 -18 -34 -27 -63 -26 -80 -8 -306 26 -330 4 -3 16
-23 27 -45 74 -149 110 -204 185 -277 43 -43 84 -78 89 -78 12 0 128 -86 146
-107 16 -20 59 -44 183 -104 57 -27 107 -53 110 -57 10 -14 133 -73 234 -113
55 -23 103 -44 106 -48 3 -3 46 -19 95 -35 186 -58 330 -108 335 -116 8 -14
194 -74 355 -115 83 -21 152 -42 155 -45 3 -3 79 -21 170 -39 91 -19 197 -41
235 -51 39 -10 124 -28 190 -41 66 -12 122 -26 125 -29 14 -18 859 -132 950
-128 89 3 280 -11 280 -22 0 -4 33 -10 73 -13 39 -3 173 -15 297 -26 124 -11
403 -27 620 -36 217 -8 494 -20 615 -25 228 -9 436 -2 750 25 186 16 478 62
483 76 2 5 11 9 19 9 9 0 56 14 105 31 l90 31 57 -25 c31 -14 70 -29 86 -33
17 -4 32 -11 35 -15 3 -4 41 -17 85 -29 44 -12 94 -26 110 -32 80 -27 138 -39
223 -45 86 -6 91 -7 77 -23 -8 -9 -15 -22 -15 -28 0 -6 -6 -15 -14 -19 -19
-11 -76 -107 -76 -128 0 -9 -9 -28 -20 -42 -20 -26 -60 -140 -60 -173 0 -10
-6 -21 -12 -23 -10 -4 -9 -8 2 -16 10 -7 11 -11 3 -11 -7 0 -13 -7 -13 -15 0
-8 5 -15 10 -15 6 0 10 -11 10 -25 0 -14 -3 -25 -8 -25 -19 0 -113 -220 -134
-315 -13 -55 -26 -101 -30 -103 -5 -2 -8 -13 -8 -24 0 -23 -65 -218 -85 -259
-8 -14 -17 -49 -21 -76 -5 -43 -2 -60 19 -107 24 -52 82 -137 100 -144 4 -2 7
-8 7 -14 0 -5 6 -24 14 -41 7 -18 24 -81 36 -142 34 -168 40 -186 64 -208 22
-19 234 -95 269 -96 9 -1 17 -5 17 -10 0 -5 40 -16 89 -25 49 -9 129 -28 177
-42 49 -14 137 -38 196 -53 100 -26 106 -28 95 -47 -17 -27 -109 -125 -201
-213 -44 -42 -130 -125 -192 -186 -62 -60 -135 -128 -163 -150 -28 -22 -51
-43 -51 -48 0 -4 -12 -20 -26 -34 -43 -43 -84 -118 -84 -153 0 -29 -2 -32 -23
-26 -12 4 -47 12 -77 18 -30 6 -57 14 -60 18 -3 4 -34 14 -70 24 -95 25 -156
45 -240 78 -41 16 -92 34 -112 40 -21 6 -38 14 -38 18 0 12 -96 33 -118 26
-38 -12 -42 -83 -10 -166 l23 -58 107 -53 c60 -29 108 -56 108 -60 0 -11 134
-68 190 -80 121 -25 315 -73 320 -79 9 -11 210 -59 445 -106 126 -25 232 -49
235 -53 3 -3 32 -12 65 -19 121 -26 403 -81 523 -103 67 -12 122 -26 122 -30
0 -5 8 -9 18 -9 23 0 596 -143 602 -151 3 -3 113 -25 245 -48 257 -45 346 -62
446 -86 131 -31 235 -12 434 78 150 68 246 184 168 203 -15 4 -58 0 -97 -9
-150 -34 -200 -39 -402 -41 -191 -1 -223 2 -369 28 -88 16 -161 33 -163 37 -2
5 -9 9 -15 9 -17 0 -67 93 -67 125 0 38 15 62 79 127 31 31 70 71 86 88 17 17
139 139 273 271 l243 240 162 -6 c89 -4 232 -12 317 -19 178 -14 775 -4 925
15 50 6 104 13 120 14 17 2 71 10 120 18 50 9 137 21 195 27 58 6 107 15 110
20 3 4 39 15 80 24 41 8 130 31 198 51 126 36 168 43 157 25 -3 -5 -1 -10 4
-10 6 0 11 3 11 8 0 4 57 6 128 5 97 -1 161 -9 272 -31 80 -17 183 -38 230
-48 47 -9 87 -20 90 -24 3 -3 46 -14 95 -24 132 -27 499 -117 505 -125 5 -6
300 -80 405 -101 96 -20 220 -53 225 -60 11 -17 232 -38 382 -36 l158 1 42 46
c98 105 101 109 102 147 l1 36 -90 -1 c-49 -1 -131 -6 -182 -10 -124 -11 -323
18 -323 47 0 5 -16 25 -35 44 -27 27 -35 44 -35 71 0 36 -5 50 -74 216 -20 47
-36 90 -36 96 0 5 -8 18 -18 29 -10 10 -32 45 -50 76 -17 32 -49 82 -72 112
-22 31 -40 60 -40 66 0 5 -4 10 -8 10 -13 0 -66 78 -107 158 -21 39 -41 72
-46 72 -4 0 -22 20 -40 46 -30 41 -34 43 -41 24 -5 -15 3 -36 32 -83 22 -34
43 -66 48 -72 4 -5 33 -53 64 -105 32 -52 73 -113 92 -134 39 -43 136 -207
136 -230 0 -8 7 -22 16 -30 19 -19 84 -173 84 -199 0 -10 7 -34 15 -53 10 -25
12 -41 5 -54 -13 -24 5 -64 34 -78 36 -16 120 -42 138 -42 9 0 18 -6 21 -12 6
-20 334 -18 347 1 9 15 102 22 116 9 12 -13 -13 -55 -62 -108 -35 -38 -54 -50
-75 -50 -16 0 -29 -4 -29 -10 0 -6 -37 -10 -90 -10 -65 0 -90 3 -90 13 0 8 -4
7 -11 -3 -8 -11 -12 -12 -16 -2 -3 7 -23 12 -47 12 -67 0 -674 134 -686 152
-3 4 -51 18 -105 32 -55 13 -173 42 -261 65 -89 23 -169 41 -178 41 -9 0 -16
4 -16 8 0 5 -26 14 -57 20 -32 6 -134 27 -228 47 -93 20 -208 43 -255 52 -62
12 -79 18 -65 24 11 4 32 8 48 8 15 1 27 6 27 11 0 6 8 10 18 10 18 0 66 16
172 55 43 16 48 16 190 -15 80 -17 159 -33 175 -37 17 -3 32 -9 35 -12 12 -17
582 -151 641 -151 19 0 59 33 59 48 0 6 7 9 15 6 12 -5 12 0 -2 35 -9 23 -20
41 -25 41 -4 0 -8 6 -8 14 0 36 -113 275 -141 296 -3 3 -9 15 -13 26 -13 44
-109 190 -154 236 -35 36 -49 44 -59 36 -7 -6 -13 -14 -13 -18 0 -8 69 -100
87 -115 15 -14 93 -136 93 -147 0 -15 53 -118 61 -118 9 0 63 -105 79 -155 7
-22 21 -57 31 -77 17 -34 18 -38 2 -53 -9 -10 -25 -14 -37 -11 -12 3 -41 8
-66 12 -69 9 -374 85 -380 94 -6 9 -127 39 -300 75 -69 14 -131 28 -139 31
-13 4 194 224 213 224 45 0 230 115 241 149 3 9 25 33 49 53 24 20 60 61 80
92 20 30 44 61 54 68 52 39 132 177 132 229 0 18 29 89 41 99 3 3 9 53 13 113
6 103 6 107 -13 107 -25 0 -28 -14 -35 -135 -2 -49 -11 -103 -19 -120 -8 -16
-18 -49 -22 -72 -4 -27 -14 -47 -29 -57 -13 -8 -29 -29 -36 -48 -8 -18 -17
-35 -20 -38 -4 -3 -20 -25 -37 -50 -32 -47 -254 -280 -267 -280 -4 0 -24 -11
-44 -25 -53 -36 -70 -33 -41 8 13 17 35 55 49 82 14 28 28 52 31 55 12 10 30
51 49 114 11 35 27 69 35 76 8 7 15 18 15 24 0 6 22 33 50 59 67 65 127 188
135 277 7 75 -6 65 -24 -19 -17 -79 -68 -175 -129 -239 l-54 -57 7 35 c4 19
16 71 27 115 11 44 22 90 25 103 3 12 9 22 14 22 5 0 9 21 10 48 1 74 4 77 88
79 89 3 132 16 174 54 17 16 36 29 42 29 6 0 23 13 38 28 20 20 40 68 69 163
23 74 45 136 49 139 14 9 39 147 39 212 0 59 -28 190 -42 196 -5 2 -8 15 -8
30 0 27 -16 85 -82 295 -23 71 -46 134 -52 141 -6 6 -29 47 -51 91 -41 82 -99
173 -121 190 -7 6 -25 33 -40 60 -43 78 -71 118 -76 104 -2 -7 -10 3 -18 22
-8 19 -16 36 -19 39 -4 3 -26 32 -51 65 -25 32 -78 93 -117 135 -40 41 -73 80
-73 86 0 6 -11 21 -25 34 -14 13 -25 27 -25 32 0 4 39 8 86 8 59 0 83 3 78 11
-4 8 42 10 162 9 238 -4 448 27 484 69 8 10 42 27 75 37 33 10 87 30 120 44
33 15 72 30 86 33 14 4 38 18 53 32 29 27 42 31 48 15 6 -17 149 -40 356 -56
176 -14 251 -14 512 -5 168 6 357 18 420 26 63 8 143 18 178 21 34 4 62 11 62
15 0 5 15 9 33 9 18 0 58 4 88 10 30 5 162 23 294 40 282 36 548 79 555 89 3
4 34 13 70 19 36 6 137 24 225 41 88 17 183 31 210 31 28 0 88 10 135 21 47
11 110 25 140 31 30 7 57 15 60 19 3 3 77 23 165 44 194 45 368 94 375 105 3
5 19 12 35 16 17 3 102 31 190 60 88 29 179 58 203 64 23 6 42 15 42 20 0 6 5
10 11 10 15 0 234 87 291 116 25 13 48 27 50 32 3 7 96 52 261 124 26 12 47
24 47 28 0 4 12 12 28 19 38 17 216 133 220 143 2 5 29 26 61 47 31 21 72 58
91 81 19 23 58 65 86 94 62 61 78 96 105 232 24 121 17 190 -31 290 -36 75
-78 117 -145 145 -37 15 -51 27 -52 42 -1 12 -12 29 -25 37 -12 8 -48 36 -79
63 -31 26 -62 47 -68 47 -6 0 -11 4 -11 10 0 13 -113 88 -158 104 -47 17 -115
49 -122 57 -27 34 -441 55 -750 40z m618 -27 c28 -3 52 -9 52 -13 0 -4 22 -13
49 -19 67 -15 250 -106 294 -145 19 -18 56 -48 82 -66 55 -41 70 -63 79 -113
6 -35 5 -37 -29 -48 -30 -10 -40 -9 -77 12 -56 30 -88 54 -105 78 -12 18 -12
19 4 14 10 -3 7 1 -7 9 -14 8 -41 18 -60 22 -19 4 -46 15 -60 25 -34 23 -105
48 -162 55 -27 3 -48 10 -48 15 0 4 -24 11 -52 15 -29 4 -92 15 -139 26 -101
22 -236 34 -273 25 -15 -4 -32 -20 -42 -39 -29 -57 -97 -83 -264 -102 -69 -8
-187 -26 -262 -40 -76 -14 -147 -25 -158 -25 -11 0 -20 -4 -20 -9 0 -18 -224
-52 -302 -46 -126 10 -313 37 -319 47 -8 13 -148 15 -157 2 -4 -6 -54 -16
-111 -23 -57 -7 -138 -22 -180 -33 -42 -11 -125 -30 -186 -43 -138 -30 -225
-56 -225 -67 0 -4 -7 -8 -16 -8 -8 0 -48 -13 -87 -29 -40 -16 -120 -48 -179
-72 -60 -23 -108 -45 -108 -49 0 -4 -26 -17 -57 -29 -158 -60 -212 -80 -258
-97 -27 -10 -55 -23 -62 -29 -6 -7 -58 -26 -115 -44 -136 -42 -288 -101 -288
-110 0 -5 -57 -25 -127 -45 -136 -39 -295 -94 -303 -105 -3 -4 -39 -19 -80
-34 -170 -63 -231 -98 -306 -174 -39 -40 -76 -73 -82 -73 -7 0 -12 -10 -12
-21 0 -12 -13 -49 -29 -83 -16 -33 -39 -82 -51 -108 -18 -40 -28 -49 -58 -57
-79 -20 -152 -32 -162 -26 -26 16 0 95 31 95 5 0 9 19 9 42 0 81 49 155 160
239 25 18 50 39 55 46 13 17 221 132 251 139 13 3 24 10 24 14 0 4 28 19 63
34 79 34 230 109 237 117 8 10 64 37 131 63 123 48 213 87 219 95 3 5 25 16
50 24 25 9 101 36 169 61 69 25 126 46 127 46 2 0 9 6 16 13 7 7 119 46 248
86 129 40 237 76 240 80 8 11 297 98 425 127 66 15 123 31 126 36 11 16 379
92 609 125 63 9 117 19 120 23 3 4 70 17 150 29 405 59 806 126 812 135 13 20
611 28 786 10z m-178 -150 c47 -9 87 -20 90 -24 3 -4 28 -10 55 -14 28 -4 73
-13 100 -21 28 -8 70 -19 93 -25 24 -6 42 -14 39 -16 -3 -3 -67 0 -143 5 -77
6 -245 11 -374 12 -209 1 -232 2 -203 14 21 10 35 25 43 49 6 19 16 37 23 40
22 10 191 -2 277 -20z m267 -120 c188 -16 193 -18 259 -78 22 -20 64 -48 94
-62 49 -23 58 -25 95 -14 22 7 48 19 57 28 16 14 22 13 57 -2 67 -31 117 -96
147 -195 18 -59 18 -120 0 -213 -20 -102 -44 -158 -83 -191 -18 -16 -53 -54
-77 -85 -40 -53 -189 -172 -215 -172 -6 0 -11 -4 -11 -9 0 -15 -92 -78 -171
-117 -41 -20 -76 -40 -79 -44 -3 -4 -70 -37 -149 -74 -80 -37 -149 -73 -155
-81 -12 -16 -162 -77 -296 -122 -47 -15 -87 -31 -90 -34 -7 -9 -443 -149 -462
-149 -9 0 -18 -4 -20 -10 -5 -16 -469 -129 -563 -138 -33 -3 -62 -8 -65 -12
-3 -4 -70 -19 -150 -34 -80 -15 -188 -36 -240 -46 -52 -11 -135 -26 -185 -34
-190 -33 -230 -40 -235 -47 -5 -7 -101 -22 -395 -59 -514 -66 -629 -80 -655
-80 -16 0 -30 -5 -32 -10 -12 -38 -1060 -38 -1088 -1 -3 4 -40 14 -82 23 -113
24 -257 91 -311 144 -25 24 -52 44 -59 44 -20 0 -83 69 -108 120 -12 25 -26
47 -30 50 -12 9 -30 72 -30 106 0 41 14 78 40 106 11 12 20 27 20 32 0 6 13
27 29 46 l29 34 31 -33 c30 -32 34 -33 79 -27 32 4 42 3 32 -4 -13 -8 -13 -10
2 -10 9 0 19 -6 22 -12 5 -10 7 -10 12 0 3 6 19 12 35 12 17 0 38 4 48 10 10
5 40 61 66 125 26 63 52 115 56 115 5 0 17 17 26 37 17 35 25 40 128 75 61 22
166 50 234 63 69 14 127 29 131 34 3 6 36 17 74 26 96 22 308 110 326 135 8
11 132 54 290 101 80 24 147 46 150 50 3 3 68 25 145 48 77 23 184 56 237 72
53 16 98 33 100 39 2 5 71 27 153 49 203 53 329 91 335 101 6 9 112 36 250 65
47 9 100 22 118 27 18 5 56 14 85 18 58 10 169 41 177 50 12 15 345 82 449 91
64 5 177 19 251 30 74 11 154 22 178 26 23 3 42 10 42 14 0 5 11 9 23 9 13 0
50 9 83 20 32 12 82 25 109 29 88 15 542 12 732 -5z m-883 -14 c-11 -4 -56
-14 -100 -21 -43 -7 -81 -16 -84 -20 -3 -4 -30 -9 -60 -12 -30 -2 -45 -2 -32
0 12 2 22 8 22 12 0 4 48 16 108 25 59 10 114 19 122 21 31 6 44 3 24 -5z
m-934 -80 c74 -11 151 -20 170 -20 48 -1 22 -15 -61 -33 -229 -51 -269 -61
-269 -68 0 -5 -7 -9 -15 -9 -8 0 -15 9 -15 20 0 11 -4 20 -8 20 -7 0 -35 79
-34 97 1 12 43 22 72 17 14 -2 86 -13 160 -24z m-242 -52 c21 -61 28 -98 16
-85 -3 3 -24 -1 -46 -9 -23 -8 -91 -23 -152 -34 -109 -19 -144 -27 -296 -69
-41 -12 -85 -21 -97 -21 -13 0 -23 -4 -23 -9 0 -5 -35 -17 -77 -26 -72 -16
-252 -61 -398 -100 -33 -9 -62 -20 -65 -24 -3 -4 -108 -40 -234 -79 -126 -39
-232 -75 -235 -79 -3 -5 -40 -19 -81 -32 -139 -42 -345 -113 -350 -120 -5 -8
-68 -32 -279 -106 -68 -24 -127 -48 -130 -52 -8 -11 -201 -76 -207 -70 -3 3
10 16 28 31 18 14 40 32 48 40 8 7 29 21 46 29 33 17 48 23 208 81 55 20 103
41 106 47 4 6 72 30 151 53 170 50 256 82 274 99 7 8 77 35 156 61 161 54 241
84 249 94 5 7 40 21 180 72 75 27 171 70 180 81 11 11 267 111 348 134 34 10
62 22 62 26 0 4 35 14 78 24 42 9 140 32 217 51 126 31 225 49 280 53 16 1 25
-12 43 -61z m-15788 -354 c85 -10 157 -21 160 -24 3 -4 34 -10 70 -13 144 -12
1171 -117 1253 -128 48 -6 87 -16 87 -20 0 -5 12 -9 26 -9 55 0 766 -129 774
-140 3 -4 133 -39 290 -79 156 -40 287 -76 290 -80 3 -4 64 -22 135 -40 154
-39 388 -110 395 -120 3 -4 41 -17 85 -30 44 -13 116 -36 160 -51 44 -16 104
-36 133 -45 28 -9 52 -20 52 -25 0 -4 17 -12 38 -18 90 -24 349 -127 368 -146
6 -7 34 -20 60 -30 183 -66 305 -116 314 -127 5 -6 86 -51 213 -117 26 -14 47
-28 47 -31 0 -4 32 -34 71 -66 72 -60 104 -110 116 -179 2 -15 18 -47 34 -69
19 -26 29 -51 27 -67 -3 -24 -5 -25 -71 -23 -117 4 -140 14 -171 79 -16 32
-39 68 -53 81 -26 27 -63 91 -63 110 0 13 -83 95 -103 102 -7 2 -29 21 -50 42
-38 38 -165 98 -254 120 -23 6 -43 15 -43 19 0 4 -28 15 -62 25 -35 9 -80 24
-101 31 -49 18 -200 57 -304 80 -46 9 -83 21 -83 25 0 5 -9 9 -20 9 -11 0 -50
12 -87 26 -83 31 -190 64 -305 94 -49 13 -88 26 -88 30 0 4 -12 10 -27 13 -16
2 -71 18 -123 35 -52 17 -142 45 -200 63 -58 17 -106 36 -108 40 -2 5 -9 9
-15 9 -6 0 -45 13 -86 29 -42 16 -134 49 -206 72 -71 23 -132 46 -135 50 -10
14 -288 80 -422 99 -73 11 -158 27 -188 35 -30 8 -67 15 -82 15 -14 0 -28 4
-30 10 -4 11 -130 26 -304 35 -99 6 -132 4 -182 -10 -34 -10 -62 -21 -62 -25
0 -4 -17 -10 -37 -13 -21 -3 -81 -15 -133 -26 -180 -37 -243 -37 -522 0 -139
18 -255 36 -258 40 -6 7 -201 26 -360 35 -63 3 -147 14 -186 25 -38 10 -79 19
-90 19 -22 0 -60 35 -78 72 -6 12 -23 28 -36 35 -29 15 -114 17 -173 4 -23 -5
-68 -15 -99 -21 -31 -6 -58 -15 -60 -19 -3 -7 -169 -55 -364 -105 -59 -16 -96
-33 -107 -52 -4 -8 -13 -14 -19 -14 -7 0 -23 -11 -37 -24 -15 -13 -51 -34 -81
-47 -68 -27 -82 -39 -50 -39 22 -1 23 -2 8 -11 -10 -5 -18 -16 -18 -22 0 -15
-86 -100 -117 -116 -26 -13 -105 2 -123 24 -16 19 -15 97 1 128 8 14 37 51 64
83 28 31 65 75 84 96 19 22 46 45 60 53 14 7 35 22 46 32 68 64 137 105 226
133 52 16 106 30 121 30 14 0 28 4 30 9 3 9 190 26 453 41 205 12 508 5 685
-16z m14780 -23 c0 -10 -139 -55 -146 -48 -3 2 25 13 61 23 36 10 65 22 65 26
0 5 5 8 10 8 6 0 10 -4 10 -9z m-15350 -141 c22 -6 42 -21 52 -37 25 -42 59
-70 98 -81 30 -8 19 -10 -75 -16 -384 -23 -465 -30 -465 -36 0 -4 -30 -11 -67
-14 -38 -4 -124 -16 -191 -27 -68 -11 -126 -18 -129 -16 -8 9 44 38 73 42 14
1 29 7 33 13 8 14 100 50 159 62 78 17 317 84 322 91 4 5 99 24 140 28 8 0 31
-4 50 -9z m1972 -173 c7 -11 0 -177 -8 -185 -4 -6 -159 21 -164 28 -3 4 -80
20 -173 36 -92 15 -162 31 -155 35 7 4 35 11 63 14 46 6 162 31 263 57 23 6
42 14 42 19 0 21 119 17 132 -4z m12485 8 c-27 -26 -169 -86 -277 -115 -58
-16 -106 -27 -108 -26 -3 4 326 126 339 126 5 0 9 4 9 9 0 8 17 16 43 20 5 0
2 -6 -6 -14z m-14117 -4 c0 -37 688 -119 925 -111 61 2 346 -39 355 -51 3 -4
25 -10 50 -14 127 -19 268 -47 290 -57 14 -6 34 -10 44 -9 29 4 481 -71 484
-81 2 -4 12 -8 23 -8 11 0 110 -22 222 -49 111 -27 247 -57 302 -67 55 -10
102 -21 105 -25 6 -8 119 -41 220 -64 191 -43 365 -88 370 -94 3 -4 32 -13 65
-20 165 -35 461 -108 500 -123 17 -7 32 -15 35 -19 12 -17 262 -103 355 -122
55 -12 102 -24 105 -28 7 -9 93 -25 205 -39 84 -10 299 -62 337 -82 10 -5 40
-43 68 -86 27 -42 53 -82 57 -87 12 -17 40 -65 74 -127 30 -55 34 -58 73 -60
123 -5 147 22 33 37 -26 4 -46 9 -43 12 3 3 41 0 84 -7 92 -14 116 -7 136 42
l13 30 39 -38 c84 -83 123 -153 124 -220 0 -67 -38 -196 -66 -220 -13 -12 -24
-26 -24 -31 0 -5 -15 -24 -34 -41 -19 -17 -37 -39 -41 -49 -3 -10 -38 -40 -77
-68 -39 -27 -78 -57 -87 -67 -32 -33 -189 -88 -328 -115 -76 -14 -140 -30
-143 -34 -11 -14 -386 -50 -675 -64 -235 -12 -1590 43 -1605 65 -3 4 -70 12
-150 19 -80 6 -203 18 -275 26 -219 23 -356 35 -456 40 -52 2 -138 10 -190 18
-52 8 -139 21 -194 28 -55 7 -102 16 -105 19 -3 4 -68 17 -145 29 -77 12 -201
36 -275 53 -149 33 -249 56 -295 65 -16 3 -32 9 -35 12 -3 4 -48 15 -100 25
-126 24 -469 117 -484 131 -13 13 -173 72 -316 116 -58 18 -107 36 -110 39 -3
4 -30 15 -60 25 -121 39 -291 115 -318 141 -7 8 -17 14 -22 14 -24 0 -255 122
-282 149 -18 17 -36 31 -41 31 -13 0 -147 103 -147 112 0 5 -6 8 -14 8 -20 0
-118 91 -136 126 -8 16 -22 35 -30 44 -28 30 -121 226 -127 268 -3 23 -10 42
-14 42 -5 0 -9 38 -9 85 0 47 4 85 9 85 5 0 12 13 16 29 12 54 63 121 108 141
37 17 43 17 50 4 13 -23 70 -44 117 -44 64 0 80 11 237 174 34 36 16 32 320
76 152 23 481 50 596 50 44 0 77 4 77 10 0 6 45 10 115 10 63 0 115 -4 115 -9z
m374 -32 c174 -20 272 -36 232 -38 -35 -2 -400 39 -431 48 -27 8 -28 9 -6 10
14 1 106 -8 205 -20z m1496 6 c58 -8 134 -21 170 -30 36 -8 112 -22 170 -30
124 -19 333 -65 340 -76 3 -4 19 -11 35 -15 60 -14 420 -136 425 -144 3 -4 50
-22 105 -40 55 -17 138 -44 185 -60 47 -15 98 -31 115 -35 16 -4 32 -11 35
-15 3 -5 64 -25 135 -45 200 -55 353 -104 357 -115 3 -9 194 -61 273 -75 53
-9 268 -75 275 -84 3 -4 55 -22 115 -41 162 -50 226 -78 267 -118 20 -20 36
-38 34 -39 -5 -6 -160 38 -166 46 -3 4 -66 24 -140 45 -206 58 -334 98 -340
107 -6 9 -103 36 -380 107 -102 26 -188 50 -191 55 -3 4 -133 39 -290 79 -156
39 -286 74 -289 78 -8 11 -333 77 -600 121 -74 13 -136 27 -138 31 -2 4 -15 8
-29 8 -13 0 -72 11 -131 25 -59 13 -179 33 -267 45 -88 11 -184 27 -213 36
-29 8 -57 12 -62 9 -11 -7 -13 69 -4 139 l7 46 46 0 c25 0 93 -7 151 -15z
m8008 -427 c53 -6 99 -14 102 -18 3 -3 79 -19 170 -34 91 -15 197 -35 235 -44
101 -22 265 -72 265 -81 0 -4 35 -20 79 -35 43 -15 102 -43 131 -62 28 -19 54
-34 57 -34 2 0 26 -22 52 -49 26 -27 66 -58 89 -70 38 -19 155 -121 140 -121
-13 0 -153 52 -158 59 -13 17 -253 101 -287 101 -26 0 -187 42 -193 50 -14 20
-324 50 -512 50 -110 0 -430 -20 -563 -35 -36 -4 -46 -3 -35 4 10 7 11 13 5
19 -44 38 -107 81 -142 97 -24 10 -43 21 -43 25 0 20 -172 77 -277 91 -48 7
-79 15 -71 20 7 4 67 15 133 25 66 10 122 21 125 25 16 23 548 35 698 17z
m-6838 -48 c20 -6 21 -8 5 -8 -11 0 -29 3 -40 8 -25 11 1 11 35 0z m95 -20
c14 -7 8 -8 -20 -3 -22 3 -42 7 -44 9 -9 8 45 2 64 -6z m5730 -45 c194 -24
275 -43 303 -72 7 -7 21 -13 29 -13 20 0 176 -85 193 -105 7 -8 19 -15 27 -15
35 0 -15 -27 -62 -34 -162 -24 -592 -119 -605 -135 -3 -3 -59 -24 -125 -45
-169 -55 -273 -96 -290 -112 -18 -18 -149 -79 -250 -115 -43 -16 -82 -33 -85
-38 -3 -5 -25 -16 -50 -24 -144 -49 -280 -115 -280 -137 0 -4 -24 -18 -54 -30
-90 -36 -243 -184 -283 -272 -9 -21 -19 -38 -22 -39 -3 0 -46 -1 -96 -3 -49
-2 -99 -7 -111 -10 -17 -6 -23 -2 -34 24 -7 17 -23 37 -34 45 -32 20 -89 26
-124 14 -29 -10 -41 -7 -115 29 -45 22 -106 46 -135 52 -51 12 -52 13 -39 34
8 11 27 27 43 35 16 7 58 33 94 56 36 23 75 45 88 49 12 4 22 11 22 16 0 5 15
17 33 26 l32 17 -33 9 -34 9 54 57 c48 52 191 152 246 173 12 5 22 12 22 17 0
5 66 42 147 83 82 41 150 76 153 79 13 14 258 112 323 130 26 7 47 16 47 20 0
5 24 14 53 21 28 7 95 27 147 44 52 18 147 45 210 60 63 16 117 31 120 35 7
10 209 55 350 79 3 0 59 -6 125 -14z m4232 -21 c-3 -3 -12 -4 -19 -1 -8 3 -5
6 6 6 11 1 17 -2 13 -5z m-40 -10 c-3 -3 -12 -4 -19 -1 -8 3 -5 6 6 6 11 1 17
-2 13 -5z m-8937 -195 c3 -4 37 -16 75 -27 109 -30 324 -96 322 -99 -5 -5
-173 29 -242 49 -90 26 -196 68 -213 85 -7 7 -22 13 -32 13 -10 0 -21 4 -25 9
-6 11 107 -19 115 -30z m6070 3 c0 -4 66 -13 148 -20 94 -7 190 -23 267 -42
66 -16 128 -30 138 -30 21 0 180 -51 187 -60 13 -16 210 -89 300 -110 44 -10
64 -23 97 -58 37 -39 43 -42 43 -24 0 28 15 28 75 -3 27 -13 50 -23 51 -22 1
1 -13 13 -32 27 -18 14 -36 33 -40 44 -9 28 26 57 77 63 25 2 39 1 32 -4 -6
-4 -15 -21 -18 -36 -6 -24 -4 -27 18 -27 18 0 30 8 39 28 9 19 38 39 98 69 47
24 90 47 97 53 21 17 184 48 294 55 142 10 338 -22 376 -61 8 -8 21 -14 28
-14 12 0 109 -52 124 -66 2 -2 -7 -13 -22 -24 -59 -47 -123 -116 -132 -144
-11 -34 -34 -43 -117 -45 -27 0 -48 -5 -48 -11 0 -5 -9 -10 -20 -10 -11 0 -20
5 -20 10 0 6 -11 10 -25 10 -14 0 -25 -4 -25 -10 0 -5 -16 -10 -35 -10 -19 0
-35 5 -35 10 0 6 -11 10 -25 10 -14 0 -25 -4 -25 -10 0 -5 -11 -10 -25 -10
-51 0 -23 17 58 35 95 21 216 62 236 80 7 7 10 18 6 25 -9 14 -63 9 -340 -32
-110 -16 -204 -30 -210 -30 -5 -1 -51 15 -100 35 -90 36 -135 40 -135 11 0
-21 37 -40 150 -75 58 -18 107 -35 110 -39 30 -41 609 -42 640 -1 6 9 190 68
252 81 26 5 62 19 80 30 18 11 41 23 51 26 9 4 17 10 17 15 0 15 62 10 74 -6
6 -8 59 -39 118 -68 l107 -54 -20 -22 c-26 -28 -59 -29 -52 -1 7 26 -20 27
-44 1 -10 -10 -56 -37 -103 -61 -47 -23 -92 -48 -100 -55 -8 -7 -32 -18 -52
-25 -21 -6 -38 -15 -38 -20 0 -11 -77 -27 -195 -40 -66 -7 -151 -7 -250 -1
-82 4 -159 8 -170 8 -11 0 -57 0 -102 1 -77 2 -84 4 -113 32 -36 35 -82 60
-130 71 l-34 8 47 -43 c26 -24 55 -47 65 -52 14 -6 12 -9 -12 -12 -31 -4 -86
15 -86 29 0 13 -143 77 -208 94 -81 22 -196 59 -202 66 -3 3 -30 14 -60 25
-69 23 -49 28 88 22 99 -5 102 -4 86 14 -14 14 -32 18 -92 18 -42 0 -101 -5
-131 -11 -48 -10 -70 -9 -161 10 -58 12 -135 31 -171 42 -36 10 -76 19 -88 19
-11 0 -21 4 -21 9 0 5 -30 12 -67 16 -38 3 -86 11 -107 17 -67 17 -633 11
-751 -9 -55 -9 -102 -19 -105 -23 -3 -4 -48 -16 -100 -27 -94 -20 -342 -109
-348 -125 -2 -4 -8 -8 -13 -8 -30 0 -177 -67 -219 -101 -27 -21 -54 -39 -60
-39 -5 0 -10 -4 -10 -9 0 -5 -12 -12 -27 -16 -16 -3 -44 -16 -63 -28 -19 -12
-48 -29 -64 -37 -32 -16 -147 -123 -356 -331 -91 -91 -156 -166 -195 -225 -32
-49 -64 -93 -71 -99 -19 -15 -144 -253 -144 -274 0 -6 -4 -11 -8 -11 -5 0 -16
-26 -26 -57 -10 -32 -25 -67 -33 -80 -21 -32 -65 -389 -60 -493 2 -47 7 -95
12 -107 6 -21 4 -23 -22 -23 -68 0 -313 -73 -333 -99 -3 -4 -45 -24 -95 -45
-102 -44 -208 -95 -215 -105 -8 -11 -135 -60 -220 -86 -41 -12 -142 -33 -225
-45 -82 -13 -152 -26 -155 -30 -3 -3 -36 -12 -75 -19 -38 -6 -118 -23 -177
-37 -117 -28 -124 -34 -113 -96 6 -30 71 -103 137 -155 41 -31 150 -77 275
-114 75 -23 143 -47 149 -54 17 -17 198 -59 255 -59 49 0 157 42 191 74 10 9
48 34 84 55 35 21 82 55 103 75 21 20 62 53 92 73 30 20 71 52 93 71 21 20 40
36 42 36 2 0 35 21 74 46 39 25 96 57 128 71 31 15 59 30 62 34 5 7 50 25 127
51 38 13 83 -5 135 -52 18 -17 67 -48 108 -70 62 -32 99 -43 205 -60 72 -12
132 -26 135 -30 3 -5 51 -18 106 -29 143 -28 190 -40 264 -66 36 -12 92 -28
125 -36 33 -7 63 -17 67 -23 4 -5 67 -10 150 -10 125 -1 147 1 162 17 10 9 22
17 29 17 6 0 32 18 58 40 51 43 59 40 59 -21 0 -39 30 -159 40 -159 4 0 11
-12 15 -27 12 -48 136 -334 150 -348 6 -5 29 -39 50 -75 52 -87 85 -130 100
-130 6 0 19 -8 29 -19 16 -17 15 -18 -30 -25 -26 -3 -83 -6 -127 -6 -85 0
-209 -17 -217 -31 -8 -12 -195 -50 -274 -56 -113 -9 -542 35 -556 56 -3 4 -70
11 -150 14 -80 3 -197 13 -260 22 -142 19 -583 105 -590 114 -3 4 -111 31
-240 60 -129 28 -272 61 -317 71 -45 11 -88 20 -96 20 -9 0 -17 4 -19 8 -1 5
-66 24 -143 42 -162 38 -397 108 -406 121 -3 5 -30 16 -60 25 -30 9 -58 19
-64 24 -5 4 -28 13 -50 20 -63 20 -134 58 -157 85 -12 14 -27 25 -33 25 -23 0
-104 81 -121 120 -10 22 -21 40 -25 40 -3 0 -17 24 -29 52 -20 46 -22 64 -17
138 6 92 20 152 41 172 19 20 36 54 52 108 l14 48 88 20 c48 11 116 26 152 32
36 7 67 15 70 19 6 8 286 59 669 121 102 16 187 33 190 38 3 4 49 16 101 26
199 39 379 124 380 179 0 15 -6 14 -42 -10 -24 -15 -45 -31 -48 -35 -9 -11
-103 -55 -155 -71 -27 -9 -117 -30 -200 -48 -82 -17 -152 -35 -155 -39 -3 -4
-57 -15 -120 -24 -63 -10 -200 -33 -305 -52 -104 -19 -244 -44 -310 -56 -66
-12 -122 -24 -125 -28 -3 -3 -38 -13 -78 -22 l-73 -16 7 22 c10 33 33 74 43
78 5 1 41 71 79 153 47 99 84 164 109 191 21 22 52 67 68 99 19 38 44 68 70
87 22 15 46 32 53 38 23 20 91 39 203 55 168 25 409 79 419 94 3 4 83 34 178
67 204 70 234 91 297 219 37 74 40 86 40 162 0 79 -1 83 -33 116 -18 19 -45
41 -60 48 -15 8 -31 19 -37 26 -18 22 -129 51 -235 63 -117 13 -180 27 -180
39 0 4 9 16 20 26 11 10 20 22 20 27 0 20 72 102 106 120 20 10 41 23 48 28
40 33 75 57 99 69 15 8 27 19 27 25 0 6 18 22 40 36 22 14 40 28 40 31 0 14
190 92 333 136 26 8 47 18 47 22 0 4 17 13 38 20 56 21 276 123 282 132 8 11
62 30 268 95 96 30 182 54 192 54 10 0 20 4 22 10 6 17 397 92 603 115 72 8
187 17 258 21 70 4 127 11 127 15 0 5 63 9 140 9 77 0 140 -4 140 -8z m2521
-282 c17 -10 18 -13 4 -26 -32 -33 -235 -109 -235 -89 0 12 123 127 145 135
19 7 46 1 86 -20z m-2221 -30 c0 -5 12 -10 28 -10 15 0 42 -4 60 -9 18 -5 67
-12 110 -16 93 -7 119 -11 198 -35 33 -10 119 -30 190 -45 71 -15 131 -30 134
-34 3 -4 34 -12 70 -19 177 -35 385 -108 430 -151 8 -8 35 -27 59 -43 27 -16
38 -28 27 -28 -9 0 -14 -4 -11 -10 3 -5 23 -10 43 -10 20 0 51 -8 67 -18 38
-24 163 -145 197 -192 14 -19 85 -95 157 -169 84 -84 138 -147 148 -172 8 -21
20 -39 26 -39 11 0 87 -79 87 -91 0 -5 13 -29 29 -54 16 -26 42 -77 56 -113
15 -37 31 -69 35 -72 9 -6 59 -159 85 -260 28 -106 33 -131 46 -212 7 -43 17
-78 21 -78 4 0 8 -20 8 -45 0 -25 -4 -45 -10 -45 -5 0 -21 -22 -34 -49 -26
-51 -59 -71 -138 -86 -76 -14 -197 27 -198 67 0 25 -87 270 -98 277 -5 3 -19
29 -31 56 -12 28 -34 66 -50 85 -15 19 -36 50 -46 68 -11 17 -22 32 -26 32 -4
0 -29 30 -56 66 -35 49 -69 80 -130 121 -46 29 -89 63 -97 74 -15 21 -128 80
-212 109 -28 10 -100 26 -160 36 -60 9 -112 22 -115 27 -11 15 -431 15 -436 0
-3 -7 -16 -13 -29 -13 -92 0 -421 -108 -454 -149 -3 -3 -58 -33 -123 -66 -65
-33 -135 -75 -155 -93 -20 -17 -44 -34 -52 -37 -8 -3 -39 -36 -68 -74 -30 -38
-72 -87 -94 -109 -24 -25 -62 -86 -99 -162 -32 -67 -65 -128 -73 -135 -17 -17
-100 -207 -115 -262 -6 -22 -21 -51 -33 -65 -13 -13 -34 -41 -48 -61 -42 -62
-74 -71 -202 -58 -133 14 -168 21 -168 32 0 5 -12 9 -28 9 -15 0 -81 13 -147
30 -65 16 -142 32 -169 36 -106 12 -274 55 -286 73 -3 5 -59 22 -125 39 -234
60 -281 73 -332 94 -29 12 -53 25 -53 30 0 4 -7 8 -16 8 -8 0 -29 13 -45 29
-27 27 -29 35 -29 103 1 40 5 102 10 138 12 85 60 294 69 300 4 3 15 29 25 59
26 80 102 236 131 267 14 15 25 31 25 37 0 5 22 39 48 76 27 36 51 71 53 78 6
18 118 142 178 198 29 27 112 107 184 178 72 70 135 127 140 127 4 0 27 13 50
28 23 16 62 39 87 51 25 12 50 28 55 34 45 53 161 111 295 149 19 6 37 14 40
18 8 11 255 86 367 110 56 12 137 24 180 26 43 2 79 8 81 14 5 14 462 14 462
0z m1136 -46 c18 -14 18 -14 -6 -3 -31 14 -36 19 -24 19 6 0 19 -7 30 -16z
m654 11 c0 -22 -168 -69 -306 -85 -75 -8 -97 -7 -119 4 l-27 14 29 6 c36 8
206 34 308 47 44 6 82 12 84 15 6 6 31 5 31 -1z m-373 -341 c-3 -3 -12 -4 -19
-1 -8 3 -5 6 6 6 11 1 17 -2 13 -5z m69 -56 l19 -23 -25 20 c-14 11 -27 21
-29 22 -2 2 0 3 6 3 5 0 18 -10 29 -22z m-5358 -104 c136 -28 271 -98 272
-141 0 -7 12 -13 26 -13 21 0 25 3 19 18 -4 9 -11 30 -16 46 -8 28 -8 28 29
21 20 -4 39 -11 40 -16 2 -5 10 -9 18 -9 7 0 20 -13 28 -29 15 -28 15 -28 -24
-40 -62 -18 -63 -35 -2 -28 l52 6 0 -31 c0 -42 -36 -116 -63 -129 -12 -6 -35
-26 -52 -44 -16 -18 -57 -48 -90 -66 -33 -17 -69 -40 -80 -49 -34 -30 -62 -40
-109 -40 -25 0 -46 -4 -46 -8 0 -5 -69 -16 -152 -26 -84 -10 -196 -25 -248
-33 -263 -43 -513 -19 -600 57 -13 11 -29 20 -36 20 -7 0 -45 15 -86 34 -91
42 -114 47 -112 23 2 -14 -3 -16 -20 -11 -11 3 -27 12 -34 19 -11 10 -7 16 22
34 20 13 36 26 36 30 0 4 12 14 28 22 15 7 50 33 77 57 47 41 53 43 94 38 25
-4 52 -13 61 -21 26 -23 86 -45 127 -45 50 -1 194 -35 202 -48 14 -22 171 -33
311 -21 74 7 137 15 140 19 3 4 35 9 71 12 65 5 115 23 264 93 39 18 79 35 90
39 11 3 30 21 43 39 l22 32 -27 7 c-30 8 -98 -17 -130 -48 -48 -48 -68 -55
-140 -45 -37 5 -132 13 -210 17 -79 3 -143 10 -143 15 0 5 -22 9 -50 9 -27 0
-50 -4 -50 -10 0 -5 -11 -10 -25 -10 -31 0 -32 -15 -2 -34 28 -19 209 -66 253
-66 18 0 36 -4 39 -10 4 -6 -7 -10 -27 -10 -18 -1 -78 -5 -133 -10 -55 -5
-130 -6 -168 -3 l-67 6 -19 42 c-10 23 -34 52 -52 65 -19 13 -38 30 -42 37 -4
7 -13 13 -20 13 -7 0 -23 9 -37 20 l-25 20 30 24 c17 14 35 25 40 26 6 0 25
14 43 31 39 36 100 64 207 95 69 20 102 23 233 22 85 0 183 -7 220 -14z m5592
-149 c19 -19 32 -35 29 -35 -3 0 -20 16 -39 35 -19 19 -32 35 -29 35 3 0 20
-16 39 -35z m-4917 -2 c4 -3 1 -13 -6 -22 -11 -14 -10 -14 6 -2 14 11 28 11
76 2 33 -6 95 -16 138 -21 107 -12 181 -29 196 -45 8 -7 36 -24 64 -38 28 -15
63 -41 78 -59 26 -30 27 -37 23 -104 -9 -131 -104 -273 -207 -310 -25 -8 -75
-26 -111 -39 -36 -13 -101 -36 -145 -51 -44 -15 -82 -31 -85 -34 -3 -4 -18
-10 -35 -13 -16 -3 -73 -15 -125 -27 -52 -11 -142 -27 -200 -35 -230 -33 -286
-64 -361 -200 -21 -39 -59 -91 -84 -117 -25 -26 -45 -53 -45 -61 0 -20 -90
-208 -110 -230 -15 -16 -34 -53 -60 -123 -6 -14 -21 -24 -46 -29 -47 -8 -247
-84 -254 -95 -6 -9 -270 -133 -310 -145 -14 -4 -27 -11 -30 -16 -3 -4 -39 -19
-80 -33 -71 -24 -75 -24 -78 -7 -2 10 12 59 31 107 19 49 38 100 42 114 4 14
11 27 16 30 4 3 17 53 29 110 12 58 27 123 35 145 22 64 88 199 102 208 13 8
29 57 68 217 35 141 66 231 80 237 7 2 27 35 44 72 17 38 39 75 49 83 9 9 44
18 77 22 33 3 102 12 153 19 76 11 92 11 92 0 0 -7 5 -13 10 -13 6 0 10 -22
10 -50 0 -65 14 -92 62 -121 22 -13 50 -33 61 -43 38 -36 166 -79 250 -84 92
-5 108 13 20 23 -69 7 -171 34 -187 50 -6 6 -38 26 -71 44 -70 39 -94 65 -95
104 0 15 -4 27 -10 27 -17 0 -11 47 8 55 20 8 517 29 642 27 424 -6 545 -3
603 16 31 11 57 16 57 13 0 -13 -61 -42 -102 -49 -23 -4 -44 -14 -46 -21 -7
-20 76 -8 127 19 56 28 71 54 71 121 0 50 -4 61 -33 92 -26 29 -46 39 -97 51
-68 16 -321 36 -445 36 -41 0 -76 4 -79 9 -3 5 1 28 10 52 8 24 13 59 10 77
-4 30 -2 35 27 47 33 14 158 20 170 8z m-413 -47 c0 -2 -13 -9 -30 -15 -35
-12 -41 -5 -7 9 25 10 37 12 37 6z m-1040 -23 c14 -9 31 -25 38 -35 7 -10 19
-18 27 -18 16 0 85 -58 85 -71 0 -16 -81 2 -177 39 -51 20 -93 38 -93 41 0 13
17 27 50 43 44 21 41 21 70 1z m-233 -9 c-3 -3 -12 -4 -19 -1 -8 3 -5 6 6 6
11 1 17 -2 13 -5z m833 -54 c194 -13 197 -14 175 -36 -14 -15 -34 -16 -148
-11 -73 3 -154 12 -182 20 -27 8 -63 18 -78 21 -44 10 -21 29 27 22 22 -3 115
-10 206 -16z m975 -101 c71 -6 132 -14 135 -18 3 -4 17 -11 33 -15 15 -3 27
-12 27 -20 0 -7 14 -19 30 -26 71 -30 54 -84 -38 -119 -48 -19 -75 -21 -245
-20 -106 0 -228 4 -272 9 -46 4 -120 4 -175 -1 -52 -6 -147 -9 -210 -7 -107 3
-111 4 -55 11 93 12 98 14 135 47 19 17 46 34 60 37 14 4 90 1 170 -6 318 -28
472 -26 484 4 13 35 -3 40 -122 42 -64 2 -149 8 -188 13 -39 6 -106 12 -148
13 -42 1 -76 3 -76 5 0 2 17 19 38 38 l37 34 125 -5 c69 -4 183 -11 255 -16z
m-362 -96 c-7 -2 -21 -2 -30 0 -10 3 -4 5 12 5 17 0 24 -2 18 -5z m85 -10
c-10 -2 -26 -2 -35 0 -10 3 -2 5 17 5 19 0 27 -2 18 -5z m307 -3 c4 -6 -22 -9
-72 -8 l-78 2 70 6 c39 4 71 7 72 8 1 1 5 -2 8 -8z m-212 -7 c-7 -2 -21 -2
-30 0 -10 3 -4 5 12 5 17 0 24 -2 18 -5z m4247 -108 c131 -22 291 -76 310
-105 3 -4 19 -16 36 -26 60 -37 169 -120 209 -159 22 -22 58 -67 79 -100 22
-33 45 -64 53 -68 23 -14 70 -90 102 -167 18 -41 36 -77 40 -80 14 -9 54 -143
53 -177 -1 -26 6 -39 39 -67 62 -53 188 -65 287 -28 l52 20 -27 -50 c-15 -27
-38 -57 -52 -67 -34 -23 -105 -43 -109 -32 -2 5 -19 -1 -39 -15 -24 -16 -43
-22 -57 -18 -37 12 -77 48 -82 74 -18 84 -59 246 -64 250 -3 3 -16 29 -29 59
-22 51 -93 173 -126 216 -9 11 -42 55 -75 97 -33 42 -70 83 -82 89 -21 11 -58
40 -113 88 -30 26 -161 96 -240 126 -38 16 -73 32 -76 37 -10 15 -145 46 -272
63 -138 18 -284 19 -393 4 -96 -13 -241 -55 -261 -74 -8 -8 -20 -15 -26 -15
-11 0 -76 -30 -234 -108 -29 -14 -54 -31 -57 -38 -2 -6 -31 -26 -63 -44 -59
-33 -201 -171 -253 -245 -15 -23 -41 -55 -57 -72 -15 -17 -53 -84 -83 -149
-30 -66 -57 -121 -61 -124 -17 -13 -63 -119 -120 -278 -20 -55 -27 -65 -69
-110 -13 -15 -24 -30 -22 -34 5 -17 -57 -20 -176 -8 -69 7 -142 18 -161 25
-20 7 -115 34 -211 60 -96 27 -177 51 -180 55 -13 17 -242 85 -410 122 -58 12
-107 25 -110 29 -3 4 -27 10 -55 14 -66 10 -224 70 -252 97 -13 12 -23 29 -23
39 0 16 4 15 26 -6 15 -14 33 -25 41 -25 8 0 31 -9 53 -20 35 -18 167 -57 280
-82 25 -6 47 -13 50 -17 9 -12 252 -80 340 -96 183 -34 245 -47 251 -56 7 -12
184 -46 334 -64 l119 -15 53 25 c34 15 60 35 71 54 9 17 20 31 24 31 9 0 58
94 58 111 0 16 80 203 90 209 4 3 40 68 79 145 46 91 90 161 124 199 28 32 60
71 69 85 20 32 81 89 128 121 19 14 40 30 47 36 6 6 74 42 150 79 76 38 143
74 148 82 15 19 166 69 280 92 55 11 111 22 125 25 52 10 427 -3 520 -19z
m-245 -65 c118 -13 215 -31 215 -39 0 -4 23 -13 51 -20 91 -24 297 -120 307
-143 2 -4 18 -15 36 -23 41 -20 70 -49 106 -107 16 -27 36 -48 43 -48 20 0 77
-75 77 -101 0 -12 3 -20 6 -16 4 3 22 -26 41 -66 19 -39 38 -74 42 -77 11 -8
51 -106 77 -190 32 -99 53 -262 36 -268 -6 -2 -12 -19 -12 -39 0 -44 -35 -79
-117 -118 -32 -15 -60 -31 -63 -35 -3 -5 -17 -11 -31 -15 l-26 -6 -6 107 c-3
58 -9 109 -15 113 -5 3 -16 34 -25 67 -31 126 -88 212 -254 385 -28 29 -172
109 -196 109 -9 0 -22 6 -30 14 -38 38 -262 72 -414 63 -101 -6 -143 -20 -158
-55 -5 -12 -14 -22 -18 -22 -9 0 -125 -95 -176 -143 -42 -40 -96 -132 -116
-198 -10 -35 -22 -66 -26 -69 -4 -3 -22 -68 -41 -145 l-34 -140 -95 3 c-52 2
-137 12 -189 23 -143 30 -274 63 -280 70 -11 12 -75 29 -111 29 -28 0 -39 4
-39 15 0 8 4 15 9 15 5 0 12 24 16 53 4 28 13 74 21 101 18 63 18 75 -1 50 -8
-10 1 17 21 61 20 44 47 105 61 135 14 30 33 63 44 73 10 10 38 43 60 75 46
63 224 242 240 242 13 0 98 57 122 82 10 10 30 21 45 24 15 4 54 21 87 39 33
18 98 45 145 61 47 16 87 32 90 35 8 11 90 31 160 39 96 11 213 11 315 0z m96
-491 c38 -7 69 -16 69 -20 0 -5 6 -9 14 -9 15 0 95 -30 176 -67 30 -13 78 -45
105 -70 32 -28 39 -38 20 -27 -16 10 -32 21 -35 24 -47 54 -318 129 -467 130
-70 0 -162 -29 -238 -76 -26 -16 -55 -33 -64 -38 -26 -14 -97 -115 -125 -181
-15 -32 -30 -62 -35 -65 -31 -20 -125 -301 -146 -440 -4 -25 -13 -48 -19 -52
-17 -11 -15 -400 2 -405 6 -3 12 -11 12 -19 0 -26 57 -151 99 -216 91 -139
159 -208 252 -249 l74 -34 205 0 c191 0 209 2 267 23 33 13 69 31 80 40 10 10
41 32 68 51 55 38 125 101 125 113 0 10 61 111 72 118 4 3 26 64 48 135 56
177 79 377 63 527 -13 110 -96 423 -120 446 -7 7 -13 21 -13 30 0 10 -8 28
-17 42 -15 22 -13 21 20 -6 20 -16 37 -32 37 -36 0 -4 16 -34 36 -67 81 -137
106 -322 86 -662 -9 -153 -14 -187 -41 -267 -27 -80 -83 -198 -102 -212 -3 -3
-14 -22 -24 -44 -25 -52 -140 -169 -194 -196 -23 -12 -77 -33 -120 -47 -79
-26 -131 -51 -143 -68 -8 -11 -210 -8 -217 3 -4 5 -37 14 -76 20 -91 15 -206
75 -277 144 -9 9 -30 23 -45 31 -36 19 -83 78 -118 147 -15 30 -31 57 -36 60
-16 11 -40 95 -60 208 -21 127 -25 301 -9 433 11 89 59 301 70 309 3 3 16 42
28 88 42 159 78 212 235 345 41 35 77 57 92 57 13 0 27 5 30 10 4 6 -5 10 -19
10 -14 0 -26 4 -26 10 0 9 17 15 70 23 57 9 266 6 331 -4z m29 -84 c107 -18
230 -64 230 -85 0 -8 14 -35 30 -60 17 -25 38 -65 47 -90 9 -25 20 -47 25 -50
12 -9 36 -119 48 -220 18 -167 24 -499 11 -602 -15 -111 -48 -260 -60 -268 -5
-3 -26 -41 -48 -85 -30 -60 -50 -88 -84 -112 -62 -46 -119 -96 -119 -105 0 -5
8 -8 18 -9 14 0 14 -2 -3 -9 -11 -5 -104 -9 -206 -9 -189 -1 -269 10 -301 43
-8 7 -30 21 -50 30 -33 16 -118 112 -118 133 0 5 -16 25 -35 46 -38 40 -82
122 -111 207 -16 46 -19 83 -18 230 0 160 3 186 31 307 18 72 44 164 58 205
15 40 29 83 32 96 3 12 8 22 12 22 4 0 29 45 55 100 65 137 140 211 268 267
86 37 154 41 288 18z m873 -100 c20 -39 43 -105 53 -148 10 -42 21 -77 25 -77
4 0 11 -21 15 -47 9 -62 25 -93 69 -132 46 -40 100 -42 177 -6 29 14 60 25 69
25 9 0 28 9 43 21 14 11 26 17 26 13 0 -4 -12 -42 -26 -86 -26 -78 -27 -79
-98 -126 -39 -26 -73 -49 -76 -53 -6 -6 -137 -28 -161 -27 -14 1 -17 23 -21
157 -4 101 -10 157 -17 159 -6 2 -11 17 -11 34 0 47 -36 177 -79 283 -44 110
-39 114 12 10z m-583 -15 c14 -11 30 -20 36 -20 30 0 90 -88 118 -170 16 -47
32 -87 36 -90 14 -10 71 -239 81 -325 17 -141 -10 -380 -58 -517 -9 -27 -20
-48 -24 -48 -4 0 -11 -19 -17 -42 -6 -24 -27 -69 -47 -102 -19 -32 -35 -62
-35 -67 0 -11 -127 -113 -167 -133 -18 -9 -33 -20 -33 -24 0 -4 -13 -13 -29
-19 -28 -10 -29 -9 -18 7 6 10 20 23 31 28 46 22 106 85 132 139 14 31 32 63
40 70 17 18 40 94 62 208 24 129 24 611 -1 772 -17 109 -46 210 -66 235 -24
29 -79 118 -73 118 4 0 18 -9 32 -20z m-3633 -212 c4 -7 6 -20 5 -29 -2 -9 4
-19 13 -22 8 -4 22 -24 31 -47 9 -22 19 -40 23 -40 4 0 22 -28 39 -62 18 -35
39 -73 48 -85 14 -20 14 -22 -8 -28 -57 -17 -178 -69 -178 -75 0 -4 -15 -14
-32 -21 -18 -7 -63 -32 -101 -56 -37 -24 -71 -43 -77 -43 -5 0 -24 -15 -42
-33 -42 -42 -113 -97 -125 -97 -5 0 -36 -25 -68 -55 -33 -30 -63 -55 -67 -55
-4 0 -42 -22 -84 -50 -42 -27 -83 -50 -90 -50 -8 0 -14 -4 -14 -9 0 -15 -79
-41 -126 -41 -49 0 -185 29 -194 41 -3 4 -77 29 -165 57 -142 44 -240 83 -255
101 -3 3 -22 15 -43 26 -52 27 -96 75 -112 121 -22 64 -28 61 180 108 61 14
151 30 200 37 50 7 92 15 95 19 3 4 41 12 84 19 43 7 113 23 155 36 99 30 261
95 261 105 0 4 68 38 151 75 84 36 158 72 165 79 7 7 63 27 126 44 99 27 128
33 185 41 6 0 15 -5 20 -11z m125 -55 c24 -9 46 -20 49 -25 3 -5 64 -20 135
-33 173 -32 434 -100 444 -115 6 -9 176 -61 370 -115 74 -20 137 -41 140 -45
7 -12 163 -30 253 -30 70 0 73 2 121 60 22 27 65 119 67 140 0 8 14 42 30 75
16 33 27 51 24 40 -4 -11 -9 -49 -12 -85 -3 -36 -12 -77 -19 -92 -16 -32 -18
-52 -4 -43 17 11 13 -201 -5 -236 -19 -35 -102 -91 -163 -110 -75 -22 -298 11
-465 70 -31 11 -84 25 -117 32 -33 6 -60 16 -60 20 0 5 -11 9 -23 9 -13 0 -58
9 -100 20 -43 10 -125 26 -184 35 -83 12 -125 24 -180 52 -40 20 -73 39 -73
43 0 5 -20 20 -45 34 -24 15 -49 35 -55 46 -6 11 -19 20 -28 20 -23 0 -48 34
-102 145 -25 50 -49 93 -55 97 -18 14 13 9 57 -9z m-1900 -148 c-9 -25 -20
-45 -25 -45 -13 0 -47 -89 -63 -165 -19 -89 -12 -156 28 -243 24 -53 50 -86
124 -157 98 -97 149 -130 254 -166 36 -12 68 -26 71 -31 7 -11 280 -100 394
-128 50 -12 92 -25 95 -29 5 -6 372 -90 585 -134 55 -11 102 -24 105 -28 12
-18 663 -139 748 -139 17 0 32 -4 32 -9 0 -5 50 -12 111 -16 l112 -7 -74 -48
c-41 -26 -96 -73 -122 -104 -27 -31 -53 -56 -60 -56 -6 0 -30 -19 -53 -41
l-43 -42 -93 17 c-141 25 -561 125 -567 134 -4 5 -15 11 -26 14 -243 68 -489
141 -495 148 -7 9 -108 35 -254 65 -71 15 -139 31 -152 35 -22 9 -23 10 -7 42
9 18 19 55 21 83 5 64 -18 95 -71 95 -19 0 -37 -3 -39 -7 -1 -5 -25 -19 -53
-33 -27 -14 -68 -39 -90 -56 l-40 -31 -140 38 c-77 21 -169 46 -205 56 -36 10
-67 21 -70 24 -3 4 -43 14 -90 23 -104 19 -222 53 -229 64 -3 5 -17 12 -31 16
-89 24 -97 28 -113 65 -13 30 -61 197 -97 336 -12 46 -20 63 -35 68 -15 6 -76
115 -67 121 4 2 21 6 37 10 44 10 199 69 205 78 8 10 236 122 283 139 20 7 37
16 37 20 0 4 12 12 28 17 15 6 52 20 82 31 30 11 58 20 62 21 4 0 0 -20 -10
-45z m3638 -25 c7 -10 56 -24 175 -50 55 -12 136 -31 180 -41 44 -10 124 -21
178 -25 95 -6 98 -7 92 -28 -3 -11 -9 -105 -12 -207 -5 -149 -2 -206 11 -290
19 -113 58 -238 79 -254 8 -5 22 -27 32 -48 18 -40 90 -118 140 -154 17 -12
50 -37 75 -55 52 -38 147 -88 166 -88 8 0 14 -4 14 -8 0 -9 109 -27 223 -38
75 -6 165 10 174 32 3 8 40 25 84 39 43 13 113 42 156 64 66 34 86 50 128 106
28 37 55 72 61 78 18 20 112 219 134 281 11 33 20 69 20 82 0 12 4 24 9 26 5
2 13 87 17 189 l7 186 41 11 c23 6 52 20 65 31 13 12 28 21 33 21 5 0 30 14
54 31 l45 31 -6 -139 c-8 -170 -64 -433 -99 -468 -8 -8 -24 -41 -36 -72 -44
-120 -93 -232 -109 -250 -26 -29 -71 -91 -71 -98 0 -18 -69 -88 -109 -112 -25
-14 -48 -30 -51 -34 -11 -16 -60 -28 -92 -23 -26 5 -39 1 -58 -19 -47 -46 -75
-55 -280 -86 -36 -6 -118 -13 -182 -17 -65 -4 -118 -11 -118 -15 0 -5 -29 -9
-65 -9 -36 0 -65 4 -65 9 0 5 -48 12 -107 16 -60 4 -142 16 -183 27 -101 27
-295 103 -319 125 -38 35 -50 43 -64 43 -8 0 -39 21 -69 48 -59 51 -130 152
-172 247 -15 33 -31 62 -35 65 -24 15 -129 304 -142 390 -5 35 -14 67 -20 71
-7 4 -13 78 -17 203 l-5 197 44 -7 c24 -4 46 -10 49 -14z m-3026 -1018 c-1
-32 -6 -47 -22 -58 -12 -8 -22 -22 -22 -30 0 -9 -85 -102 -189 -207 -177 -180
-231 -238 -231 -250 0 -3 -30 -36 -66 -74 -36 -37 -71 -80 -79 -94 -8 -15 -21
-29 -29 -32 -49 -19 -73 -137 -47 -231 l16 -60 120 -28 c66 -15 186 -44 267
-63 81 -19 154 -35 162 -35 9 0 16 -4 16 -9 0 -4 20 -11 45 -14 25 -4 109 -22
188 -41 78 -18 160 -37 182 -41 63 -11 229 -58 235 -66 3 -5 39 -15 80 -24 41
-9 120 -29 176 -45 56 -17 105 -30 108 -30 3 0 6 9 6 19 0 11 3 21 8 23 4 2
20 35 36 73 62 148 68 157 208 298 76 76 138 144 138 151 0 7 30 34 68 59 37
25 94 72 128 104 424 409 491 458 586 432 21 -5 38 -13 38 -18 0 -27 -140
-167 -177 -177 -12 -3 -34 -23 -49 -45 -30 -44 -449 -466 -623 -628 -129 -120
-145 -145 -136 -204 9 -58 56 -166 75 -172 8 -2 94 -19 190 -37 171 -32 181
-33 425 -31 244 1 252 2 323 28 40 14 85 25 100 23 l27 -4 -44 -42 c-24 -23
-50 -42 -57 -42 -7 0 -20 -7 -28 -16 -26 -26 -157 -80 -221 -92 -126 -23 -135
-23 -253 2 -64 14 -187 37 -272 52 -85 15 -157 30 -160 33 -3 4 -52 15 -110
25 -117 19 -552 124 -560 135 -10 14 -178 51 -485 106 -110 20 -202 40 -205
44 -3 5 -41 16 -85 25 -248 52 -565 118 -595 123 -19 3 -37 9 -40 12 -9 12
-114 39 -250 66 -216 42 -323 73 -340 96 -3 4 -62 35 -132 69 -121 59 -129 64
-150 109 -13 25 -26 48 -30 49 -5 2 -8 15 -8 28 0 40 25 35 302 -65 49 -17 95
-31 103 -31 8 0 15 -4 15 -9 0 -5 66 -25 148 -45 81 -20 157 -39 168 -42 20
-5 23 -1 29 48 9 69 13 75 88 163 15 18 27 37 27 41 1 5 22 25 47 44 26 19 58
48 72 64 14 16 42 47 61 69 19 21 42 42 51 46 25 9 249 222 249 237 0 7 20 30
44 51 24 21 67 66 96 101 28 35 59 66 68 70 10 3 37 19 62 34 32 21 55 28 80
26 34 -3 35 -4 34 -46z m178 -203 c57 -12 105 -25 106 -30 2 -5 11 -9 19 -9 9
0 84 -20 167 -44 83 -24 196 -56 251 -71 55 -15 102 -31 105 -35 7 -9 84 -33
190 -59 192 -46 396 -91 413 -91 9 0 17 -4 17 -8 0 -5 32 -15 71 -22 l72 -12
-49 -41 c-27 -23 -67 -61 -88 -84 -22 -24 -43 -43 -48 -43 -26 0 -234 -198
-286 -271 -7 -11 -19 -19 -27 -19 -26 0 -110 -106 -135 -171 -13 -35 -27 -66
-31 -69 -12 -10 -29 -49 -29 -69 0 -11 -5 -23 -11 -26 -11 -7 -170 34 -179 46
-3 3 -45 16 -95 28 -49 11 -130 32 -180 45 -49 13 -146 36 -215 51 -69 16
-127 32 -130 36 -3 4 -65 19 -137 34 -72 14 -162 34 -200 45 -37 10 -126 31
-198 45 -71 15 -131 31 -133 36 -2 5 -10 9 -17 9 -8 0 -16 9 -20 19 -3 11 -12
22 -20 25 -19 7 -21 118 -2 138 6 7 38 45 69 83 32 39 80 94 108 124 27 30 50
59 50 65 0 6 70 79 155 162 85 84 155 156 155 160 0 4 14 22 31 40 l31 32 59
-14 c32 -8 105 -23 161 -35z m3195 -27 c38 -38 180 -99 293 -127 63 -15 117
-31 120 -36 6 -9 107 -25 223 -35 37 -3 67 -9 67 -12 0 -16 -293 -77 -440 -91
-63 -7 -117 -16 -120 -20 -3 -4 -45 -14 -95 -20 -49 -7 -115 -17 -145 -22 -83
-14 -864 -28 -1020 -17 -74 4 -183 11 -243 14 l-107 6 32 40 c17 23 61 64 96
93 67 56 136 150 127 174 -4 11 5 13 52 7 301 -36 419 -42 517 -26 33 5 94 14
134 20 41 6 81 17 89 25 8 8 25 15 39 15 13 0 24 5 24 10 0 14 28 12 32 -2 5
-14 169 -12 178 2 5 8 36 13 107 18 12 1 30 -6 40 -16z"/>
<path d="M20558 7673 c18 -2 45 -2 60 0 15 2 0 4 -33 4 -33 0 -45 -2 -27 -4z"/>
<path d="M20485 7660 c-197 -7 -452 -33 -530 -55 -27 -8 -114 -24 -192 -36
-79 -12 -143 -26 -143 -31 0 -4 -10 -8 -22 -8 -25 0 -111 -16 -337 -61 -80
-16 -157 -29 -172 -29 -30 0 -191 -49 -199 -60 -3 -4 -43 -17 -90 -29 -201
-50 -402 -109 -410 -120 -3 -4 -18 -12 -35 -19 -39 -14 -336 -106 -397 -122
-27 -7 -48 -16 -48 -20 0 -4 -19 -12 -42 -19 -103 -29 -393 -125 -398 -131 -7
-9 -62 -28 -275 -96 -99 -32 -182 -61 -185 -65 -3 -4 -43 -23 -90 -42 -131
-54 -242 -107 -254 -121 -6 -7 -49 -33 -96 -58 -136 -72 -154 -82 -165 -94 -5
-7 -48 -42 -95 -80 -81 -64 -105 -93 -119 -141 -6 -21 -7 -21 -85 18 -43 22
-81 37 -85 34 -9 -10 58 -63 112 -87 38 -17 44 -24 30 -29 -11 -4 3 -8 36 -11
29 -3 56 -10 60 -16 9 -15 270 -59 501 -85 242 -27 574 -28 780 -4 183 23 534
79 540 87 10 13 799 150 867 150 12 0 23 4 25 8 2 4 52 15 113 25 117 19 587
126 595 136 3 3 46 16 95 29 137 35 375 113 375 123 0 5 6 9 13 9 6 0 77 25
157 56 80 31 163 62 185 71 22 8 42 18 45 23 3 4 30 18 60 30 92 37 275 122
280 130 3 4 43 26 90 48 47 23 104 59 127 79 110 101 173 153 182 153 5 0 23
19 39 43 32 46 48 113 32 137 -8 12 -10 9 -10 -13 0 -15 -7 -44 -16 -65 l-16
-37 -12 46 c-7 25 -19 54 -27 64 -40 52 -119 123 -154 139 -22 11 -46 25 -53
33 -21 21 -82 50 -164 77 -40 14 -68 26 -62 26 28 0 186 -32 244 -50 73 -23
90 -33 139 -79 18 -17 38 -31 43 -31 6 0 40 -23 77 -51 l66 -50 -49 46 c-27
26 -67 55 -88 66 -22 11 -41 26 -44 33 -21 55 -339 139 -506 134 -35 -1 -144
-5 -243 -8z m402 -155 c161 -15 237 -32 290 -65 35 -21 93 -94 93 -117 0 -7 5
-13 10 -13 6 0 10 -11 10 -25 0 -14 -4 -25 -10 -25 -5 0 -16 -15 -24 -34 -9
-22 -41 -54 -90 -91 -42 -32 -76 -61 -76 -66 0 -14 -81 -64 -170 -105 -47 -21
-87 -41 -90 -44 -7 -8 -195 -94 -275 -126 -38 -16 -72 -31 -75 -34 -14 -15
-127 -59 -315 -123 -49 -16 -92 -34 -95 -38 -8 -11 -175 -62 -345 -105 -82
-21 -152 -40 -155 -44 -15 -17 -449 -106 -665 -136 -71 -10 -132 -21 -135 -25
-3 -3 -81 -18 -175 -33 -93 -14 -219 -35 -280 -46 -60 -11 -177 -32 -260 -47
-82 -14 -152 -29 -155 -33 -3 -4 -25 -10 -50 -13 -25 -3 -110 -15 -190 -26
-267 -37 -574 -51 -695 -31 -33 5 -118 14 -188 20 -150 12 -167 18 -167 63 0
25 9 42 38 69 65 62 130 80 184 51 49 -27 422 -26 558 1 52 11 97 22 100 25 5
7 285 76 450 111 113 25 173 42 180 51 5 7 149 43 215 53 22 4 92 18 155 31
132 27 300 55 336 55 13 0 24 3 24 8 0 4 12 12 26 19 21 10 26 9 31 -4 9 -22
-33 -53 -144 -109 -51 -26 -93 -50 -93 -54 0 -4 -51 -28 -112 -54 -110 -46
-218 -96 -228 -106 -3 -3 -22 -14 -42 -24 -33 -17 -50 -36 -32 -36 18 0 141
56 158 72 11 10 34 22 50 27 75 21 240 101 256 123 3 4 28 16 55 28 27 12 71
37 97 55 34 25 48 31 48 20 0 -8 5 -15 10 -15 6 0 10 -35 10 -85 0 -54 -4 -85
-11 -85 -6 0 -3 -7 6 -16 9 -9 18 -14 21 -12 8 9 9 152 1 209 l-8 57 37 6 c20
4 47 18 61 32 13 13 30 24 38 24 13 0 94 -28 104 -37 4 -3 -76 -108 -116 -151
-13 -14 -23 -30 -23 -35 0 -6 -8 -20 -17 -31 -13 -15 -10 -14 10 3 15 14 27
29 27 34 0 5 10 20 23 32 12 12 44 48 72 79 45 51 52 56 80 50 16 -4 32 -10
35 -14 9 -14 119 -38 268 -59 158 -23 222 -26 222 -11 0 6 -13 10 -29 10 -44
0 -365 51 -371 59 -3 4 -32 15 -65 25 l-60 18 50 54 c28 30 56 54 63 54 6 0
12 4 12 8 0 5 44 14 98 21 53 7 129 16 167 21 39 5 106 12 150 15 44 4 130 15
190 25 218 37 533 70 673 70 39 0 72 4 72 9 0 5 29 12 65 16 36 3 65 11 65 17
0 6 -13 8 -32 4 -18 -3 -114 -11 -213 -17 -99 -7 -182 -15 -185 -19 -3 -3 -63
-12 -135 -19 -71 -7 -179 -21 -240 -31 -60 -11 -200 -28 -310 -40 -110 -11
-227 -25 -260 -30 -33 -6 -71 -10 -84 -10 -23 0 -23 1 11 34 20 19 51 58 69
86 18 28 42 53 53 55 12 2 95 22 186 44 91 22 182 42 203 46 20 4 37 11 37 15
0 5 15 11 33 15 17 3 60 13 95 21 35 8 87 19 115 25 29 5 95 18 147 29 78 16
84 18 35 14 -33 -3 -121 -20 -195 -36 -74 -17 -151 -34 -170 -38 -19 -4 -51
-11 -70 -16 -19 -4 -37 -10 -40 -14 -3 -4 -39 -14 -80 -24 -41 -10 -121 -29
-178 -43 -106 -26 -133 -24 -96 6 11 9 35 37 53 61 18 25 54 68 81 96 58 61
164 193 172 215 14 36 101 57 513 124 109 18 339 18 522 0z m-1527 -55 c0 -5
-4 -10 -9 -10 -6 0 -13 5 -16 10 -3 6 1 10 9 10 9 0 16 -4 16 -10z m4 -54 c31
-30 56 -59 56 -65 0 -6 6 -11 14 -11 8 0 24 -13 35 -29 30 -42 31 -162 2 -218
-18 -37 -72 -93 -89 -93 -4 0 -23 -15 -42 -33 -29 -27 -56 -38 -162 -65 -70
-18 -132 -32 -138 -32 -6 0 -20 20 -31 45 -11 24 -28 50 -39 58 -19 13 -19 15
11 43 17 16 42 45 54 64 13 19 39 52 57 72 39 42 128 210 128 239 0 21 56 79
76 79 6 0 37 -24 68 -54z m-156 15 c-13 -21 -28 -19 -28 5 0 8 9 14 20 14 17
0 19 -3 8 -19z m625 -28 c-6 -17 -60 -88 -109 -143 -56 -63 -195 -224 -219
-254 -12 -15 -70 -36 -99 -36 -20 0 -20 1 3 13 13 6 42 34 64 60 40 47 41 50
45 137 4 78 2 94 -17 126 -12 20 -20 38 -18 41 7 6 226 43 258 43 16 0 29 4
29 9 0 9 21 16 57 20 8 0 10 -6 6 -16z m-669 -86 c-3 -9 -12 -13 -20 -10 -8 3
-20 1 -27 -4 -6 -6 -33 -18 -59 -28 -27 -10 -48 -21 -48 -25 0 -4 -11 -10 -24
-12 -42 -8 -18 17 42 44 62 28 135 56 140 53 1 -1 0 -9 -4 -18z m-35 -66 c-6
-15 -18 -37 -27 -47 -10 -11 -46 -56 -81 -102 -35 -46 -81 -94 -101 -107 -40
-25 -50 -52 -50 -130 l0 -42 -58 -17 c-32 -9 -66 -16 -75 -16 -9 0 -17 -4 -17
-8 0 -15 -95 -33 -274 -52 -176 -19 -316 -42 -461 -76 -38 -9 -82 -18 -97 -21
-16 -3 -28 -9 -28 -12 0 -8 -88 -25 -315 -61 -66 -11 -199 -33 -295 -50 -96
-16 -185 -30 -197 -30 -12 0 -23 -4 -25 -9 -1 -4 -22 -10 -45 -13 -29 -4 -40
-2 -37 6 4 12 151 80 264 123 35 13 67 28 70 32 3 5 39 20 80 34 285 98 346
120 350 127 3 4 44 22 92 39 49 17 109 39 135 50 27 10 75 30 108 42 33 13 62
27 65 31 3 4 51 19 105 33 55 14 155 44 222 65 67 22 129 40 138 40 8 0 15 5
15 10 0 6 7 10 16 10 39 0 439 126 458 145 11 11 55 33 68 34 4 1 2 -12 -3
-28z m-652 -17 c-3 -3 -12 -4 -19 -1 -8 3 -5 6 6 6 11 1 17 -2 13 -5z m-95
-34 c-77 -35 -308 -102 -290 -85 3 3 61 23 129 44 68 22 135 44 149 50 45 18
56 11 12 -9z m1088 -238 c0 -14 -43 -67 -97 -121 -39 -39 -59 -51 -81 -51 -17
0 -32 -4 -34 -8 -1 -5 -20 -12 -41 -15 -34 -5 -36 -4 -27 13 5 10 24 29 41 42
18 12 57 47 87 76 35 33 70 56 92 62 48 11 60 11 60 2z m-490 -42 c28 -55 26
-67 -16 -74 -19 -4 -42 -10 -50 -13 -11 -4 -14 5 -14 38 0 68 9 89 36 89 17 0
29 -10 44 -40z m300 -20 c-6 -11 -16 -20 -23 -20 -7 0 -40 -27 -75 -61 -46
-44 -67 -59 -81 -54 -11 3 -22 1 -26 -5 -3 -5 -10 -10 -14 -10 -11 0 -30 99
-20 105 4 3 29 10 56 15 36 8 159 39 191 49 1 1 -2 -8 -8 -19z m-266 -76 c3
-9 6 -32 6 -53 0 -20 5 -42 11 -48 8 -8 7 -17 -3 -32 -15 -25 -48 -36 -83 -27
-27 7 -45 54 -45 118 0 34 3 38 33 47 49 14 74 13 81 -5z m-141 -71 c4 -26 9
-58 13 -70 5 -19 0 -22 -48 -32 -29 -5 -79 -13 -110 -17 -32 -3 -58 -10 -58
-15 0 -5 -12 -9 -27 -9 -16 -1 -71 -10 -123 -21 -52 -11 -140 -28 -196 -38
-114 -21 -296 -69 -304 -80 -3 -4 -43 -15 -90 -25 -47 -10 -184 -43 -305 -72
-121 -30 -232 -54 -247 -54 -14 0 -28 -4 -30 -9 -5 -15 -172 -29 -308 -26
-129 2 -190 10 -190 25 0 11 10 14 160 44 69 14 202 41 295 61 94 20 184 39
200 42 17 3 32 9 35 13 3 4 68 22 145 39 77 17 156 36 175 41 19 5 89 21 155
35 66 15 122 31 125 35 3 5 39 15 81 24 41 8 122 27 180 41 124 30 300 48 380
39 31 -3 63 -3 70 2 20 12 -17 22 -91 24 -63 2 -64 2 -30 13 19 6 37 13 40 17
6 7 83 27 91 23 3 -1 9 -24 12 -50z m392 -38 c-52 -47 -53 -47 -122 -18 -29
11 -33 16 -23 28 7 8 27 15 44 16 17 1 42 5 56 9 14 4 41 8 60 9 l35 0 -50
-44z m-880 -20 c-5 -1 -73 -18 -150 -36 -77 -18 -142 -36 -145 -39 -3 -4 -21
-10 -40 -13 -19 -3 -120 -26 -225 -51 -104 -24 -229 -52 -277 -61 -49 -10 -88
-21 -88 -25 0 -4 -26 -13 -57 -19 -32 -6 -176 -35 -320 -64 -259 -54 -283 -55
-283 -21 0 32 89 57 298 85 50 6 92 16 92 20 0 5 10 9 23 9 13 0 79 11 148 25
68 13 174 31 234 40 148 21 358 64 365 74 5 7 204 49 330 70 53 8 115 13 95 6z
m-1605 -365 c0 -5 -10 -10 -22 -10 -19 0 -20 2 -8 10 19 13 30 13 30 0z m-520
-115 c0 -8 -6 -15 -14 -15 -17 0 -28 14 -19 24 12 12 33 6 33 -9z"/>
<path d="M21158 7283 c6 -2 18 -2 25 0 6 3 1 5 -13 5 -14 0 -19 -2 -12 -5z"/>
<path d="M20973 7273 c26 -2 68 -2 95 0 26 2 4 3 -48 3 -52 0 -74 -1 -47 -3z"/>
<path d="M20868 7263 c12 -2 30 -2 40 0 9 3 -1 5 -23 4 -22 0 -30 -2 -17 -4z"/>
<path d="M20803 7253 c9 -2 23 -2 30 0 6 3 -1 5 -18 5 -16 0 -22 -2 -12 -5z"/>
<path d="M20693 7243 c-18 -2 -33 -8 -33 -12 0 -5 -21 -11 -47 -15 -91 -12
-174 -28 -170 -33 7 -6 271 39 277 47 3 5 19 10 35 13 l30 4 -30 0 c-16 0 -45
-2 -62 -4z"/>
<path d="M21495 7268 c-24 -61 -49 -107 -62 -115 -20 -13 -21 -13 -16 6 3 12
9 21 14 21 5 0 9 5 9 10 0 25 -19 6 -38 -38 -20 -47 -96 -132 -117 -132 -12 0
-115 -87 -128 -108 -5 -7 -70 -43 -145 -79 -75 -36 -139 -70 -140 -75 -5 -12
-187 -103 -260 -130 -31 -11 -59 -24 -62 -29 -5 -7 -302 -112 -372 -131 -21
-6 -38 -14 -38 -19 0 -5 -26 -16 -57 -24 -32 -9 -92 -27 -133 -40 -41 -12
-137 -37 -212 -55 -76 -18 -138 -36 -138 -40 0 -4 -19 -10 -42 -14 -24 -4 -94
-18 -156 -32 -62 -14 -163 -34 -225 -45 -132 -23 -290 -60 -297 -69 -6 -9 -79
-25 -205 -45 -55 -9 -102 -18 -106 -21 -8 -5 -450 -61 -554 -70 -44 -4 -82
-10 -85 -14 -8 -10 -308 -29 -651 -41 -279 -10 -331 -9 -455 6 -76 10 -165 19
-196 22 -32 3 -58 9 -58 13 0 4 -33 11 -72 15 -40 3 -114 20 -164 36 -99 31
-113 34 -98 19 14 -14 153 -60 180 -60 12 0 24 -4 26 -10 2 -5 64 -17 138 -25
74 -9 167 -21 205 -26 106 -16 327 -19 555 -9 314 15 755 50 758 60 2 6 20 10
39 10 20 0 63 4 97 10 33 5 102 14 151 21 173 22 299 45 535 97 14 3 27 8 30
12 6 8 151 42 255 60 61 10 255 50 398 81 26 6 47 14 47 19 0 7 35 15 255 60
50 10 128 30 175 45 47 14 102 31 123 37 20 6 37 14 37 19 0 4 28 17 63 28 34
11 103 34 152 52 50 17 104 33 120 35 32 4 87 24 95 35 6 8 138 69 150 69 4 0
48 19 96 42 58 28 101 57 128 86 22 24 65 57 96 72 30 16 66 41 80 56 13 14
40 38 60 52 52 38 100 84 100 96 0 6 16 22 35 34 44 31 59 55 96 154 44 119
31 124 -16 6z m-484 -478 c-13 -11 -29 -20 -37 -20 -8 0 -14 -3 -14 -8 0 -6
-41 -29 -112 -64 -37 -18 -16 2 30 29 26 15 49 31 53 35 7 10 81 47 94 47 6 0
-1 -9 -14 -19z"/>
<path d="M2295 6782 c-60 -8 -111 -19 -113 -23 -2 -5 -19 -9 -37 -9 -44 0
-285 -62 -360 -93 -33 -14 -69 -33 -80 -43 -131 -117 -175 -159 -175 -166 0
-5 -14 -27 -32 -49 -17 -21 -29 -41 -26 -44 3 -3 17 10 31 28 14 18 70 77 124
131 77 77 112 103 163 126 68 29 226 74 295 84 36 5 34 3 -15 -13 -48 -16 -88
-35 -164 -78 -11 -7 -25 -18 -31 -25 -5 -7 -45 -40 -87 -72 -43 -32 -85 -73
-94 -90 -59 -109 -59 -111 -59 -183 0 -40 -3 -73 -6 -73 -15 0 -71 67 -76 92
-3 15 -12 33 -19 39 -11 9 -14 7 -14 -11 0 -38 41 -109 79 -137 20 -14 41 -33
48 -41 7 -8 61 -43 120 -78 59 -35 113 -67 118 -71 32 -27 170 -104 230 -129
39 -15 72 -31 75 -35 5 -6 215 -79 350 -121 36 -11 67 -24 70 -28 5 -7 195
-66 415 -128 50 -14 92 -28 95 -32 6 -7 286 -77 495 -122 83 -18 152 -35 155
-39 5 -6 19 -9 230 -40 74 -11 191 -29 260 -39 172 -26 356 -48 473 -56 53 -4
97 -11 97 -15 0 -5 24 -9 54 -9 92 0 497 -32 821 -65 470 -47 633 -57 935 -57
314 0 348 3 580 50 52 11 138 27 190 36 93 17 150 33 160 46 3 4 50 19 105 33
55 14 127 36 160 47 33 12 76 25 95 30 19 4 29 8 22 9 -16 1 6 39 28 46 8 3
37 25 65 50 37 34 46 48 37 57 -9 9 -16 8 -29 -4 -10 -8 -42 -32 -72 -53 -42
-29 -55 -34 -62 -23 -5 7 -9 16 -9 20 0 14 -62 78 -76 78 -7 0 -17 6 -21 13
-18 27 -108 91 -176 124 -40 19 -74 38 -77 42 -6 9 -267 131 -280 131 -5 0
-15 6 -22 13 -22 21 -233 97 -398 143 -36 10 -67 21 -70 25 -3 4 -46 17 -95
29 -224 53 -448 113 -455 121 -5 7 -320 86 -515 130 -55 12 -102 25 -105 29
-3 4 -43 17 -90 28 -47 11 -175 43 -285 71 -110 28 -207 51 -217 51 -9 0 -18
4 -20 9 -1 5 -113 32 -248 60 -135 28 -270 57 -300 66 -30 8 -82 15 -116 15
-34 0 -64 4 -66 8 -4 11 -248 44 -593 82 -154 16 -332 38 -395 47 -63 9 -139
18 -167 21 -29 2 -53 8 -53 13 0 5 -55 9 -122 10 -68 0 -154 4 -193 8 -76 9
-355 -8 -355 -21 0 -4 -22 -8 -50 -8 -73 0 -61 16 23 30 147 23 90 25 -78 2z
m-72 -39 c-7 -2 -19 -2 -25 0 -7 3 -2 5 12 5 14 0 19 -2 13 -5z m762 -192
c110 -12 245 -29 300 -37 96 -14 101 -16 135 -53 19 -21 42 -42 51 -47 9 -5
54 -43 100 -85 95 -87 205 -179 214 -179 3 0 22 -17 43 -38 20 -21 60 -57 87
-80 50 -42 50 -42 21 -42 -16 0 -99 11 -185 25 -358 58 -572 91 -651 101 -30
3 -57 10 -60 14 -5 8 -692 80 -760 80 -50 0 -32 -8 30 -13 211 -17 606 -62
608 -69 2 -4 21 -8 41 -8 21 0 62 -4 92 -9 30 -6 106 -17 169 -26 63 -9 194
-30 290 -45 96 -16 211 -34 255 -40 44 -7 82 -15 85 -19 3 -4 38 -12 79 -18
66 -10 78 -16 115 -52 23 -23 47 -41 52 -41 6 0 35 -28 65 -62 l53 -61 -58 7
c-32 3 -189 11 -349 16 -161 6 -332 15 -382 20 -49 5 -165 13 -257 16 -93 4
-168 11 -168 16 0 4 -61 8 -135 8 -83 0 -135 -4 -135 -10 0 -6 -27 -10 -60
-10 -33 0 -60 4 -60 10 0 6 -7 10 -15 10 -8 0 -15 -4 -15 -10 0 -5 -22 -10
-50 -10 -27 0 -50 5 -50 10 0 6 -27 10 -60 10 -44 0 -60 -4 -60 -14 0 -22 75
-26 460 -26 195 0 402 -4 460 -9 194 -19 384 -30 650 -41 146 -6 282 -13 303
-17 27 -4 53 -20 89 -55 29 -28 63 -54 77 -59 14 -6 20 -13 15 -18 -14 -13
-161 -71 -178 -71 -9 0 -16 -4 -16 -9 0 -4 -88 -28 -195 -52 -107 -24 -195
-48 -195 -53 0 -12 111 -1 186 18 32 8 110 27 173 42 62 15 118 33 125 39 6 6
39 23 74 38 l63 27 39 -26 c21 -14 41 -32 44 -40 3 -8 12 -14 19 -14 7 0 45
-33 84 -72 68 -70 140 -128 103 -83 -19 23 -183 185 -188 185 -8 0 -72 53 -72
59 0 8 102 61 117 61 5 0 24 -11 42 -24 20 -15 54 -27 86 -31 l52 -7 6 -79 c6
-76 36 -197 56 -229 22 -33 23 5 1 77 -25 87 -38 193 -23 193 5 0 18 -8 29
-18 32 -30 154 -83 357 -153 20 -7 37 -16 37 -20 0 -8 31 -19 115 -43 28 -8
104 -33 170 -55 122 -42 169 -51 148 -30 -12 12 -66 32 -243 92 -52 18 -96 35
-98 40 -2 4 -8 7 -13 7 -5 0 -71 23 -146 50 -76 28 -157 58 -181 66 -23 9 -49
22 -57 30 -7 8 -33 23 -57 33 -41 17 -76 47 -67 56 3 2 22 0 44 -5 22 -5 108
-14 190 -20 83 -6 182 -16 220 -21 39 -5 118 -15 178 -21 59 -7 107 -16 107
-20 0 -4 13 -8 29 -8 15 0 86 -11 157 -24 71 -14 200 -34 287 -46 87 -11 215
-32 285 -45 70 -14 139 -25 154 -25 14 0 28 -4 30 -9 2 -6 60 -15 129 -22 137
-14 495 -1 508 18 3 6 24 16 46 23 22 7 50 20 63 28 26 17 95 11 141 -12 44
-23 99 -84 106 -118 8 -34 -11 -58 -46 -58 -10 0 -19 -4 -21 -8 -1 -4 -68 -20
-148 -36 -80 -15 -176 -34 -215 -42 -44 -9 -167 -17 -335 -20 -267 -6 -498 5
-855 41 -77 8 -228 22 -335 31 -107 10 -197 21 -200 24 -3 4 -126 15 -275 24
-350 22 -533 40 -785 77 -113 16 -225 32 -250 36 -25 3 -47 9 -50 12 -3 4 -41
13 -85 20 -186 29 -636 128 -645 142 -3 4 -66 23 -140 42 -147 38 -382 108
-390 117 -3 3 -45 18 -95 33 -49 16 -119 39 -155 51 -36 13 -90 31 -120 41
-30 10 -57 21 -60 25 -3 4 -30 15 -60 25 -114 36 -232 96 -278 142 -7 7 -33
21 -57 32 -24 11 -64 33 -89 50 -25 17 -50 31 -56 31 -6 0 -13 8 -17 18 -4 9
-19 32 -35 50 -24 28 -28 41 -28 92 0 47 4 64 20 80 11 11 20 23 20 27 0 4 24
29 53 55 72 67 128 83 472 133 241 36 403 35 760 -4z m1055 35 c0 -3 -4 -8
-10 -11 -5 -3 -10 -1 -10 4 0 6 5 11 10 11 6 0 10 -2 10 -4z m114 -30 c23 -19
50 -51 61 -72 11 -22 24 -44 30 -50 5 -7 33 -40 60 -74 56 -68 240 -260 250
-260 3 0 29 -19 56 -42 43 -36 47 -43 35 -57 -14 -16 -31 -63 -40 -112 -6 -29
5 -29 -181 5 -49 10 -114 21 -143 26 -52 9 -88 29 -140 77 -14 13 -40 31 -57
39 -50 23 -101 84 -124 147 -11 32 -21 67 -21 77 0 11 -4 20 -10 20 -5 0 -10
16 -10 35 0 19 5 35 10 35 6 0 10 6 10 14 0 7 8 24 19 37 10 13 20 31 22 39 2
8 24 45 48 83 52 78 66 82 125 33z m99 8 c9 -9 -4 -34 -18 -34 -6 0 -20 9 -30
20 -18 20 -17 20 12 20 16 0 32 -3 36 -6z m-638 -101 c50 -3 92 -9 95 -13 3
-4 48 -11 100 -16 87 -8 95 -11 92 -29 -2 -11 -5 -39 -9 -63 -6 -48 14 -157
33 -176 7 -7 19 -29 28 -49 9 -22 37 -53 71 -79 31 -24 70 -55 87 -69 l31 -26
-65 12 c-57 10 -70 18 -103 54 -20 22 -43 41 -49 41 -7 0 -41 29 -76 65 -36
36 -69 65 -73 65 -7 0 -57 40 -162 131 -22 18 -67 60 -99 92 -33 31 -63 57
-68 57 -4 0 -8 5 -8 11 0 8 14 10 43 5 23 -3 83 -9 132 -13z m755 -53 c40 -10
171 -57 225 -81 35 -15 -33 0 -125 28 -47 14 -89 30 -94 34 -14 13 -46 11 -46
-2 0 -15 -18 -2 -31 23 -9 17 -8 19 8 15 10 -3 38 -11 63 -17z m827 -46 c-3
-3 -12 -4 -19 -1 -8 3 -5 6 6 6 11 1 17 -2 13 -5z m-742 -34 c49 -16 97 -30
106 -30 10 0 19 -4 21 -9 5 -13 222 -65 413 -100 192 -35 255 -50 255 -61 0
-9 -10 -7 225 -54 184 -37 357 -84 363 -98 2 -4 40 -19 85 -32 169 -51 363
-105 400 -111 20 -4 37 -11 37 -15 0 -4 37 -18 83 -30 196 -53 392 -111 397
-119 3 -4 57 -27 120 -51 63 -23 116 -44 118 -46 8 -6 -271 18 -543 46 -99 10
-246 24 -327 30 -82 7 -148 16 -148 20 0 4 -24 10 -52 13 -29 3 -100 13 -158
22 -199 31 -346 44 -540 50 -129 4 -232 13 -305 26 -60 12 -129 23 -152 26
l-41 5 -27 87 c-27 87 -55 131 -84 131 -34 0 -307 251 -345 318 -10 17 0 16
99 -18z m891 -1 c66 -17 121 -35 122 -40 2 -5 13 -9 25 -10 12 0 47 -9 77 -19
50 -17 52 -18 15 -13 -78 10 -179 33 -184 41 -3 5 -49 22 -101 39 -123 40
-103 41 46 2z m-596 -38 c0 -5 16 -12 36 -16 20 -3 34 -8 32 -10 -2 -3 -30 1
-61 7 -59 12 -76 28 -32 28 14 0 25 -4 25 -9z m-38 -321 c11 -10 29 -43 39
-72 l18 -53 -29 -3 c-16 -2 -47 2 -70 8 -40 11 -41 12 -35 43 9 43 35 97 47
97 5 0 18 -9 30 -20z m-527 -51 c38 -17 137 -87 143 -101 2 -5 35 -26 74 -49
38 -22 68 -42 66 -44 -3 -2 -114 10 -187 21 -25 4 -54 24 -105 74 -39 37 -84
80 -101 94 l-30 27 60 -7 c33 -4 69 -11 80 -15z m280 -45 c147 -26 139 -21
145 -92 5 -64 -4 -78 -30 -47 -14 17 -45 21 -35 5 13 -21 -20 -8 -84 32 -36
22 -68 44 -71 48 -3 3 -26 21 -52 39 -27 17 -48 35 -48 38 0 6 39 1 175 -23z
m275 -54 c3 -3 12 -9 21 -12 21 -8 35 -130 20 -170 -9 -23 -17 -28 -43 -28
-18 0 -48 9 -67 21 -30 18 -33 23 -28 57 3 20 2 60 -3 87 -4 28 -6 53 -3 57 5
9 96 -2 103 -12z m199 -42 l116 -22 -85 -8 c-105 -10 -130 -15 -130 -29 0 -8
19 -10 58 -5 136 14 292 18 357 8 39 -6 124 -18 190 -28 66 -9 122 -20 125
-24 3 -4 59 -15 125 -24 66 -10 145 -21 175 -26 30 -5 100 -16 155 -25 193
-30 301 -47 385 -61 47 -8 97 -14 113 -14 15 0 27 -4 27 -8 0 -5 44 -14 98
-21 53 -7 126 -16 162 -21 36 -5 124 -16 195 -25 162 -19 189 -25 178 -35 -21
-22 -136 -39 -296 -46 -183 -7 -328 5 -547 46 -58 11 -184 31 -279 45 -238 34
-305 46 -311 56 -10 15 -453 72 -734 94 -104 8 -190 16 -192 18 -4 5 -10 177
-6 177 3 0 57 -10 121 -22z m-480 -74 c105 -6 120 -36 38 -76 l-53 -26 -35 22
c-37 22 -99 79 -99 92 0 3 19 3 43 -1 23 -3 71 -8 106 -11z m1276 -10 c72 -9
132 -20 135 -24 6 -8 195 -36 305 -44 162 -13 411 -37 430 -41 11 -3 126 -14
255 -25 287 -24 322 -29 335 -44 6 -6 19 -16 30 -22 23 -13 27 -25 16 -43 -8
-12 -26 -12 -118 -2 -105 11 -134 15 -348 42 -55 7 -102 16 -105 20 -3 4 -43
12 -90 18 -47 5 -146 20 -220 31 -356 55 -580 89 -642 97 -27 3 -48 9 -48 13
0 3 -42 12 -92 19 -51 7 -109 16 -128 21 -52 14 126 4 285 -16z m1570 -254 c3
-5 -1 -10 -9 -10 -9 0 -16 5 -16 10 0 6 4 10 9 10 6 0 13 -4 16 -10z m575 -80
c0 -15 -7 -20 -25 -20 -28 0 -30 5 -12 25 18 21 37 18 37 -5z"/>
<path d="M1960 6221 c-52 -4 -88 -9 -80 -12 8 -3 65 -3 125 1 61 4 102 8 93 8
-9 1 -22 3 -30 5 -7 2 -56 1 -108 -2z"/>
<path d="M1818 6213 c6 -2 18 -2 25 0 6 3 1 5 -13 5 -14 0 -19 -2 -12 -5z"/>
<path d="M2121 6216 c11 -9 119 -15 119 -6 0 6 -27 10 -62 10 -34 0 -59 -2
-57 -4z"/>
<path d="M1290 6291 c0 -5 20 -37 45 -72 25 -35 49 -73 54 -84 13 -28 153
-161 194 -184 18 -10 58 -37 88 -60 30 -22 59 -41 66 -41 6 0 27 -14 45 -31
31 -28 202 -117 258 -134 14 -4 27 -10 30 -14 31 -38 251 -151 294 -151 9 0
16 -4 16 -8 0 -5 42 -21 93 -36 50 -16 142 -44 202 -63 61 -19 128 -36 150
-38 58 -4 119 -17 125 -25 5 -8 556 -140 584 -140 9 0 16 -4 16 -9 0 -5 46
-14 103 -21 56 -6 163 -20 237 -31 226 -33 669 -87 770 -95 52 -4 97 -10 100
-14 8 -12 259 -47 525 -74 427 -44 1466 -41 1840 5 97 11 318 59 325 70 3 4
23 10 45 14 218 38 437 126 402 161 -2 3 -11 -1 -18 -9 -28 -28 -177 -86 -274
-107 -162 -35 -240 -54 -245 -61 -10 -12 -157 -39 -270 -49 -564 -49 -1294
-51 -1795 -4 -207 19 -399 45 -405 54 -3 5 -77 16 -165 25 -268 27 -572 64
-740 90 -88 13 -181 27 -207 30 -27 3 -48 10 -48 14 0 4 -33 13 -72 20 -109
19 -562 123 -568 131 -3 3 -25 12 -50 18 -25 6 -92 23 -150 37 -165 41 -331
93 -340 106 -8 11 -164 73 -290 115 -63 21 -117 40 -120 43 -7 8 -79 41 -89
41 -14 0 -191 101 -191 109 0 4 -28 20 -62 36 -35 16 -88 45 -118 63 -53 32
-67 46 -148 137 -35 40 -35 34 0 -17 11 -16 15 -28 10 -28 -23 0 -232 250
-232 278 0 7 -4 12 -10 12 -5 0 -10 -4 -10 -9z m1069 -730 c46 -17 85 -31 86
-31 1 0 13 -10 26 -21 l24 -21 -25 7 c-14 4 -27 11 -30 15 -3 4 -43 19 -90 35
-82 26 -160 61 -160 70 0 5 63 -15 169 -54z"/>
<path d="M13450 5900 c35 -30 50 -37 50 -22 0 14 -33 39 -60 46 -23 6 -22 4
10 -24z"/>
<path d="M13210 5559 c-124 -17 -130 -18 -123 -36 3 -9 27 -38 52 -64 37 -39
85 -118 129 -212 2 -4 -20 6 -48 23 -28 17 -68 37 -87 45 -20 8 -47 26 -60 39
-13 13 -49 34 -81 46 -31 13 -71 31 -88 41 -36 22 -98 15 -199 -20 -33 -12
-61 -21 -62 -21 -2 0 -2 -3 -1 -7 4 -10 -17 -31 -99 -101 -34 -30 -66 -67 -72
-84 -10 -29 -10 -30 17 -23 15 3 29 11 30 16 4 11 92 12 92 1 0 -5 19 -17 43
-27 23 -10 67 -29 97 -43 165 -73 199 -72 465 13 92 30 232 43 460 44 l179 1
52 54 c28 30 58 70 67 88 9 18 27 48 41 67 14 19 26 43 26 53 0 18 -46 48 -74
48 -8 0 -16 5 -18 11 -2 6 -56 13 -135 16 -145 7 -124 14 -191 -64 -22 -26
-54 -89 -75 -148 l-15 -40 -11 45 c-21 85 -34 119 -51 137 -20 22 -50 81 -50
100 0 15 -102 16 -210 2z m210 -86 c17 -37 35 -70 40 -73 5 -3 18 -42 28 -86
l19 -81 -92 -9 c-99 -10 -106 -7 -120 37 -17 53 -87 176 -121 212 -20 21 -35
40 -33 42 4 3 165 21 216 24 29 1 33 -3 63 -66z m553 -3 c20 -6 37 -14 37 -17
0 -3 -16 -27 -35 -53 -19 -26 -35 -53 -35 -59 0 -6 -4 -11 -9 -11 -5 0 -21
-20 -35 -43 l-25 -44 -83 -6 c-46 -4 -123 -7 -171 -7 l-88 0 20 28 c11 15 30
53 41 85 12 31 25 57 30 57 5 0 19 18 31 39 15 27 31 42 48 45 41 7 232 -3
274 -14z m-1028 -86 c36 -14 65 -30 65 -34 0 -4 56 -36 125 -71 69 -35 125
-69 125 -76 0 -7 -46 -26 -102 -43 -57 -17 -113 -35 -126 -40 -33 -14 -120
-12 -173 4 -47 14 -150 63 -159 75 -9 13 -67 32 -116 39 l-48 7 54 43 c30 24
62 49 71 56 29 24 143 65 181 66 21 0 67 -12 103 -26z"/>
<path d="M13746 5147 c-15 -11 -16 -19 -8 -53 6 -21 13 -51 16 -65 8 -34 48
-46 82 -24 27 17 32 45 9 45 -8 0 -15 -4 -15 -10 0 -5 -7 -10 -15 -10 -24 0
-18 21 18 58 l32 34 -33 -16 c-28 -14 -35 -15 -46 -3 -12 11 -11 15 5 25 10 7
19 17 19 22 0 14 -43 12 -64 -3z"/>
<path d="M13689 5134 c0 -5 -1 -31 0 -59 l0 -50 -21 48 c-23 50 -58 66 -58 27
0 -11 4 -20 9 -20 5 0 12 -14 16 -30 9 -39 49 -68 70 -50 21 17 20 113 0 130
-8 7 -15 9 -16 4z"/>
<path d="M13360 5112 c-26 -21 -22 -48 7 -59 10 -4 29 -17 43 -30 l25 -23 -33
-12 c-34 -13 -41 -25 -18 -34 24 -9 86 26 86 48 0 23 -38 63 -70 73 -25 8 -17
25 11 25 26 0 19 24 -8 28 -11 2 -30 -6 -43 -16z"/>
<path d="M13485 5110 c-14 -46 19 -120 54 -120 25 0 61 29 61 48 0 11 -3 13
-8 6 -4 -6 -17 -14 -29 -18 -29 -9 -47 24 -38 70 5 29 3 34 -14 34 -11 0 -22
-9 -26 -20z"/>
<path d="M13209 5090 c-16 -13 -20 -22 -13 -27 6 -5 14 -21 18 -38 17 -69 58
-94 102 -60 18 14 17 14 -13 15 -41 0 -42 15 -3 35 36 19 41 46 8 37 -13 -3
-30 -12 -38 -20 -12 -13 -15 -11 -23 13 -8 22 -6 31 7 40 9 7 16 15 16 19 0
13 -39 5 -61 -14z"/>
<path d="M13030 5038 c-11 -18 -20 -39 -20 -45 0 -18 106 -86 120 -78 8 5 4
15 -11 31 -27 29 -27 29 40 4 30 -11 58 -17 63 -14 15 10 -11 32 -58 50 -40
15 -44 20 -44 50 0 32 -2 34 -35 34 -29 0 -39 -6 -55 -32z m48 -28 c-13 -20
-28 -27 -28 -12 0 10 22 32 32 32 5 0 3 -9 -4 -20z"/>
</g>
</svg>
