<?xml version="1.0" encoding="utf-8"?>
<!-- Generator: Adobe Illustrator 28.3.0, SVG Export Plug-In . SVG Version: 6.00 Build 0)  -->
<svg version="1.1" id="Layer_1" xmlns="http://www.w3.org/2000/svg" xmlns:xlink="http://www.w3.org/1999/xlink" x="0px" y="0px"
	 viewBox="0 0 536 368" style="enable-background:new 0 0 536 368;" xml:space="preserve">
<style type="text/css">
	.st0{fill:#FFFFFF;}
</style>
<g>
	<path class="st0" d="M369.7,216.1L369.7,216.1c-0.2-0.6-0.4-1.3-0.6-2c1-0.4,2.1-0.8,3.1-1.3c0.8-0.4,1.6-0.7,2.3-1.2
		c1.3-0.9,2.7-0.7,4.1,0.2c2.5,1.7,3.5,4.2,4.2,6.9c0.9,3.3,1.4,6.7,1.9,10.1c0.2,1.2,0,2.5,0.2,3.7c0.3,1.8,0.7,3.5,1.2,5.3
		c0.1,0.3,0.6,0.6,0.9,0.9c0.7,0.8,0.5,1.7-0.1,2.7c-1.3,2-1.4,4.3-1,6.6c0.7,3.5,2.7,6.3,4.3,9.3c1.8,3.3,3.7,6.5,3.5,10.5
		c0,0.4,0.2,0.9,0.4,1.3c0.8,1.3,1.8,2.3,3.5,2.2c-0.4,0.9-0.8,1.6-1.1,2.3c-0.9,1.7-0.5,3.4,0.2,5c0.5,1.2,2.3,1.9,3.3,1.1
		c0.4-0.3,0.3-1.5,0.4-2.2c0-0.4-0.2-0.8-0.3-1.3c0-1.5,0-3,0-4.4c0.1-2.5,1.1-4.8,0.7-7.4c-0.6-4.3-0.7-8.6-1-13
		c-0.4-4.5-1.8-8.7-4.6-12.4c0.1-0.2,0.4-0.4,0.5-0.7c0-1,0.1-2-0.1-3c-0.2-1.5-0.7-3-0.8-4.5c-0.5-5.9-1.1-11.8-1.3-17.7
		c-0.1-4.6-0.9-9.1-2.5-13.4c-0.5-1.2-0.9-2.4-2.2-3.1c-2-1.1-4.2-1.1-6.1-0.3c-3,1.3-5.7,3.2-8.5,4.8c-0.1,0-0.1,0.1-0.2,0.2
		c-2.5,1.9-5.1,3.7-7.6,5.6c-0.2,0.2-0.4,0.4-0.6,0.6c-0.6,0.4-1.1,1.1-1.8,1.3c-2.5,0.8-5,1.4-7.6,2.2c1.7,2.4,4.4,3.9,6.9,5.4
		c0.3-0.5,0.1-1-0.6-1.4c-1.8-0.9-3.5-1.9-4.9-3.6c1.4-0.5,2.6-1,3.9-1.3c2.4-0.6,4.7-1.2,6.6-3c1.3-1.3,2.9-2.3,4.4-3.4
		c0.6-0.5,1.2-1.1,1.8-1.7c1.5-1.7,3.9-2.3,5.6-1.4c0.1,1.9,1.2,3.7,0.2,5.6c-0.2-3.6-0.9-5.2-2.4-5.5c2.1,2.7,2.4,5.8,0.7,8
		c-0.5-0.3-1.2-1.2-1.6-0.1c-0.5,1.1,0.5,1.3,1.3,1.5c-0.1,0.9-0.6,0.8-1.3,0.8c-1,0-2.1,0.2-3,0.5c-0.9,0.3-1.7,1.1-2.5,1
		c-1.2-0.2-1.8,0.7-2.6,1.1c-0.1,0-0.1,0-0.2,0c-0.3-0.2-0.5-0.3-1-0.7c0.3,0.5,0.4,0.8,0.5,1c-1.5,1.3-2.9,2.5-4.3,3.7
		c-0.1-0.3-0.2-0.6-0.3-1c-0.7,0.9-1.3,1.6-1.8,2.3c-0.1,0.2-0.2,0.4-0.2,0.6c0.1,1.3-0.9,1.8-1.6,2.4c-0.1-0.1-0.3-0.1-0.4-0.2
		c0.4-0.9,0.8-1.9,1.2-3c-0.3,0.1-0.9,0.2-1,0.4c-0.3,0.8-0.6,1.7-0.7,2.6c-0.1,0.9,0.5,1.2,1.3,0.8c0.2-0.1,0.4-0.2,0.6-0.4
		c-0.5,1.2-1.2,2.3-2,3.2c-1.7,1.9-4.7,1.6-6.1-0.5c-1.6-2.4-2.5-5.1-2.3-8c0.1-0.9,0.4-1.9,0.6-2.8c-1.2,1.7-1.2,3.7-0.8,5.6
		c0.6,2.8,1.2,5.9,4.4,7.3c-2.2-0.7-4.3-1.4-6.6-2.2c0.5-0.4,1-0.7,1.4-1c-0.1-0.1-0.1-0.2-0.2-0.2c-0.3,0.2-0.6,0.4-1,0.6
		c-0.2-0.2-0.3-0.4-0.4-0.5c-0.2,0.2-0.5,0.5-0.6,0.5c-0.3-0.2-0.7-0.5-0.8-0.8c-0.2-1-0.4-1.9-0.5-2.9c-0.3-2,0.3-3.9,1-5.8
		c0.3-0.7,0.8-1.4,1.4-1.7c1.2-0.7,2.4-1.1,3.9-1.3c1.3-0.1,2.5-0.7,3.8-1.1c0-0.1-0.1-0.3-0.1-0.4c-1.4-0.4-2.7,0.6-4.1,0.8
		c2-3.4,3.1-9.5,1.7-10.5c-0.4,3.8-0.4,7.6-3.1,10.7c-1.7-1.7-4.4-2.1-5.8-0.8c0.7,0,1.2,0,1.8,0c0.7,0.1,1.5,0.2,2.2,0.4
		c0.3,0.1,0.5,0.5,0.8,0.7c-0.3,0.2-0.5,0.4-0.8,0.6c-0.8,0.7-2.1,1.3-2.4,2.1c-0.9,2.6-2,5.2-1,8.2c-1.8,0.1-3.4,0.2-4.7-1.1
		c-0.8,0.7-0.2,1.1,0.2,1.5c0.4,0.4,1.1,0.9,1.2,1.3c0,1.5-0.1,3-0.3,4.4c-0.1,0.8-0.5,1.7-1,2.4c-0.4,0.5-1.1,1.1-1.7,1.1
		c-1.7-0.1-3.5-0.4-5.1-0.8c-2.2-0.7-4.4-1.6-6.6-2.4c-0.3-0.1-0.7-0.1-1.1-0.2c0.1,0.4,0.3,0.6,0.5,0.7c2.6,1,5.2,2.2,8,3
		c1.4,0.4,3,0.3,4.6,0.3c0.4,0,0.9-0.2,1.1-0.5c1.8-1.8,4-3,6.4-3.7c1.3-0.3,2.5-0.9,3-2.6c2.1,2,4.4,2.1,6.9,1.6
		c2.8-0.6,3.7-3,5.1-5.3c0.4,0.7,0.9,1.3,1.1,1.9c0.8,1.9,1.6,3.9,2.4,5.8c0.1,0.3,0.1,0.6,0.2,0.9c0.3,0.8,0.7,1.5,1,2.3
		c0.2,0.5,0.4,1.1,0.6,1.6c0.1,0.1,0.2,0.4,0.3,0.4c1.1,0.1,1.1,0.8,0.7,1.5c-1.4,2.3-0.8,4.4,0.6,6.3c1.3,1.7,2.7,3.3,4.2,4.8
		c1.9,2,3.6,4,3.9,6.8c0,0.4,0.3,0.8,0.4,1.2c0.7,1.7,2.6,3,4.3,3c1,0,1.5,0.4,1.7,1.2c0.1,0.4,0.3,0.7,0.4,1.1
		c0.8,2.7,2.2,3.6,5.2,2.9c-0.7-1.1-1.3-2.1-1.9-3.1c-1-1.6-2.1-3.1-3.1-4.7c-0.1-0.2-0.2-0.4-0.2-0.7c-0.6-3.2-1.2-6.4-2.2-9.5
		c-1.5-4.2-2.8-8.3-6.1-10.7c-0.4-1.5-0.6-2.5-0.9-3.5c-0.6-1.8-1.5-3.4-2-5.2c-0.8-2.7-1.3-5.4-2-8.1
		C370.3,217.6,370,216.9,369.7,216.1z M327.1,227.4c-1.8,0.2-3.5,0.3-5.3,0.5c-3.6,0.5-7.1,0.3-10.6-0.3c-4.5-0.8-8.7-2.7-12.3-5.6
		c-1.4-1.1-2.3-2.8-3.5-4.3c-0.1-0.2-0.1-0.5-0.2-0.9c0.6,0.4,1,0.7,1.4,1c-1.9-2.1-3.1-4.5-3.8-7.2c-0.2-0.6,0-1.4-0.2-2
		c-0.8-1.9-1.6-3.9-1.5-6c0-2.1,0-4.1,0-6.2c5.4,1.1,10.4,3.1,15.8,3.1c-0.6,3.7-0.7,7.3-0.3,10.9c0.9,7.3,5.5,12.5,12.8,14.3
		c2,0.5,4.4,0.6,6.4,0.2c2.1-0.4,4.1-1.5,6.1-2.5c1.1-0.6,2.3-1.3,2.9-2.3c1.6-2.4,3.1-5,4.3-7.6c0.7-1.5,0.8-3.3,1-5
		c0.2-2,0.2-4.1,0.3-5.9c1.8-0.9,3.5-1.8,5.5-2.8c-0.3,3.6-0.6,7-0.9,10.2c1.5-2.1,1.8-4.7,2.2-7.3c5,0.2,7.6-1.6,9.1-6.2
		c0.3-1,0.8-2,1-3c0.4-1.8,0.7-3.7,0.8-5.6c0-1.3-0.5-2.6-0.8-3.9c-1.3-5.5-3-10.8-6.4-15.4c-1.2-1.6-2.4-3.4-3.6-5
		c-1.5-1.9-3-3.8-4.5-5.7c-0.8-0.9-1.6-1.8-2.4-2.9c3.3-0.1,6.4-1,9.6-0.4c0.3,0.1,0.6,0,0.9,0c3.4-0.4,6.7-1.1,9.8-2.5
		c1.8-0.9,3.6-1.7,5.5-2.5c0.4-0.2,0.8-0.2,1.2-0.1c1.6,0.3,3.2,0.7,4.8,0.9c6.2,0.8,12.5,0.7,18.7,0.2c5.4-0.4,10.8-1.2,16.2-2.1
		c11-1.8,22-3.7,33-5.8c8.1-1.5,15.9-4.2,23.6-7.1c3.9-1.5,7.6-3.5,11.4-5.3c5.3-2.5,10.1-5.6,14-10.1c2.5-2.9,3.5-8.2,1.6-11.6
		c-0.6-1.1-1.6-2.1-2.6-3c-0.7-0.6-1.5-0.9-2.2-1.7c-2.9-3-6.2-5.5-10.2-6.6c-2.5-0.6-5.1-0.9-7.7-0.9c-4.4,0-8.8,0-13.1,0.6
		c-6,0.7-11.8,1.9-17.8,2.8c-8.8,1.3-17.6,3.1-26.2,5.7c-13.9,4.2-27.5,9.5-40.4,16.3c-2.1,1.1-4.2,2.4-6.1,3.9
		c-1.3,1-2.5,2.5-3.3,3.9c-0.7,1.4-1.5,2.7-2.6,3.8c-3.1,3-3.4,5.3-1.3,9.1c0.3,0.6,0.5,1.3,0.8,1.9c-0.7-0.1-1.5-0.2-2.2-0.5
		c-1.5-0.5-3-1.1-4.5-1.8c-4.3-2-8.7-2-13.2-1.4c-2.1,0.3-4.1,0.7-5.9,2c-0.8,0.6-1.7,1.2-3,0.8c-0.6-0.2-1.7,0.2-2.1,0.7
		c-1,1.1-1.7,0.6-2.6-0.1c-0.5-0.4-1-0.9-1.5-1.3c-3.2-2.3-6.2-5.1-9.6-6.8c-7.6-3.8-15.8-5.2-24.2-5.6c-7-0.3-13.8,0.7-20.7,2.1
		c-7.5,1.5-14.9,3.4-22.1,6.1c-7.7,2.9-15.1,6.2-21.1,12.1c-0.3,0.3-0.8,0.5-1.1,0.8c-0.4,0.5-0.7,1.1-1.2,1.5c-1.1,1-2.3,2-3.5,3
		c-0.3,0.2-0.6,0.4-0.9,0.4c-1.5,0-3.1-0.1-4.6,0c-0.6,0-1.3,0.1-1.9,0.2c-3.1,0.7-5.9,2.1-8.6,3.7c-1.2,0.7-2.5,1.4-3.7,2.1
		c-0.2,0.1-0.7,0.1-0.8,0c-0.2-0.2-0.1-0.6-0.1-0.9c0-0.2,0.2-0.4,0.3-0.5c2-4.4,1.4-7.5-2.3-10.7c-0.5-0.4-1.1-0.8-1.5-1.3
		c-0.4-0.3-0.8-0.7-1-1.2c-1.4-3.5-4.1-5.6-7.3-7.5c-5.3-3.2-11.2-5.2-16.9-7.6c-9.4-3.9-19.1-6.8-28.9-9.5
		c-9.4-2.6-19-4.7-28.6-6.1c-6.1-0.8-12.2-1.4-18.3-2c-6.8-0.7-13.5-1.8-20.3-2.2c-5.1-0.3-10.3,0.2-15.4,0.4
		c-2.4,0.1-4.9,0.3-7.3,0.9c-5.9,1.5-9.8,5.7-13,10.6c-0.1,0.2-0.3,0.6-0.3,0.8c0.3,0.7-0.2,0.8-0.6,1c-2.7,1.1-3.4,3.5-3.5,6
		c-0.2,5.1,2.5,9,5.7,12.6c0.1,0.1,0.2,0.2,0.4,0.3c4.6,3.7,9.6,6.8,15.1,9.1c5,2.1,10.1,4,15.3,5.8c9.4,3.2,19.1,5.3,28.8,6.9
		c6.3,1,12.6,2.2,19,2.4c9.2,0.3,18.3,1.5,27.4,2.1c9.5,0.6,18.9,1.2,28.4,0.1c5.5-0.6,11-1.1,16.2-3.2c0.2-0.1,0.6-0.1,0.9,0.1
		c4.6,1.8,9.2,3.8,14.3,3.8c0.1,0,0.2,0.1,0.2,0.1c-0.9,1.7-1.8,3.4-2.8,5.1c-1,1.7-1.7,3.5-1.6,5.4c0,1.2-0.4,2.1-0.8,3.1
		c-0.7,1.5-1.6,3-2,4.6c-0.9,3.3-1.6,6.6-3.1,9.8c-0.7,1.6-0.4,3.1,0.7,4.5c0.6,0.8,1.4,1.7,1.7,2.7c0.7,1.8,1.2,3.6,1.5,5.4
		c0.4,2.1,0.9,3.9,3.5,4c-0.5,1.6-1,3.2-1.5,4.7c-1.2,3.5-2.4,7.1-3.7,10.6c-0.6,1.6-1.5,3.2-2.2,4.7c-0.6,1.2-1.2,2.4-0.9,3.9
		c-2.8,2.2-4.9,5-6.3,8.3c-1.2,2.8-2.2,5.7-3.2,8.5c-0.7,1.9-1.2,3.8-1.9,5.7c-0.7,1.7-1.8,3.3-2.5,5.1c-0.7,1.7-1.7,2.9-3.5,3.4
		c-1,0.3-1.2,1-1.3,1.8c-0.1,0.4,0.2,1,0.6,1.3c1,0.6,4.6-0.2,5.3-1.2c0.2-0.2,0.2-0.6,0.2-0.9c0.2-1,0.4-1.9,0.8-2.8
		c0.1-0.3,0.5-0.7,0.8-0.7c2.9-0.5,4.8-2.4,6.3-4.6c1.2-1.8,1.8-4,3.1-5.7c1.7-2.3,3.9-4.2,5.7-6.5c1.2-1.5,2.5-3.1,3-4.9
		c0.5-1.6,0.9-2.9,2.6-3.8c1.4-0.8,2-2.3,1.9-4c2.1,0,3.4-0.9,4.6-2.4c0.8-1.1,1.8-2,2.9-2.7c1.9-1.4,4-2.7,6-4.1
		c1.6-1.2,3-2.5,2.8-4.8c1.3,1.5,3.5,2.1,3.8,4.5c0.1,0.7,0.4,1.4,0.7,2.1c1.4,3.2,4.6,4.5,7.8,3.3c0.6-0.2,1.3-0.2,1.9-0.3
		c1-0.1,2-0.3,2.6-1.4c0.1-0.3,0.6-0.5,0.9-0.5c1,0,1.9,0.2,2.9,0.3c0.3,3-2,5.8-0.5,8.9c-2,2.4-3.2,5.2-3.8,8.1
		c-1.5,6.6-1.5,13.4-1.8,20.1c-0.1,1.7,0.6,3.5,0.9,5.3c0.1,0.8,0.1,1.6,0,2.3c-0.1,1.3-0.4,2.6-0.5,4c0,0.3,0.2,0.7,0.4,0.8
		c1.5,0.6,3.1-0.2,3.6-1.8c0.5-1.7,0.7-3.4-0.3-5c-0.3-0.5-0.5-1-0.8-1.6c2.5-0.4,4-2.4,4-5c0-1.6,0.4-3.4,1.1-4.8
		c1.4-3.1,3.2-6,4.8-9c1.9-3.6,2.9-7.3,0.8-11.1c-0.6-1-0.8-1.9-0.3-3c0.7,0.3,1,0,1.1-0.8c0.3-1.6,0.7-3.2,1.1-4.8
		c0.1-0.3,0.2-0.6,0.1-0.8c-0.5-1.9,0.3-3.7,0.7-5.6c11.5,3.5,23.1,5.4,35.1,4.7c1.2,2.7,2.4,5.3,3.5,7.9c0.9,1.9,2.2,3.3,4.3,3.8
		c0.2,0.1,0.4,0.4,0.9,0.8c-0.7,0-0.9,0-1.1,0c0.2,1.5,0.3,3,0.5,4.5c0,0.3,0.2,0.6,0.2,0.9c0.2,1.1,1,1.4,1.8,1.3
		c0.7,0,1.6-0.3,2.1-0.8c0.3-0.3,0-1.3-0.2-1.9c-0.6-1.4-1.3-2.8-2-4.2c-0.1-0.3-0.1-0.7,0.1-0.9c2.1-2.9,3.2-6.1,3-9.7
		c0-0.8-0.3-1.6-0.4-2.5c0.4-0.1,0.8-0.2,1.2-0.2c5.4-0.7,10.8-1.5,15.9-3.4c0.8-0.3,1.3-0.3,1.4,0.5c0.4-0.2,0.7-0.5,1.1-0.6
		c0.6-0.2,1.3-0.1,2-0.3C324.4,228.5,325.7,227.9,327.1,227.4c3.2,0.7,6-0.2,8.5-2c1.4-1,2.9-2.1,3.7-3.6c1.5-2.4,2.5-5.1,3.7-7.8
		c0.3-0.6,0.4-1.3,0.6-2c-1,1.7-1.7,3.5-2.5,5.2C338.5,223.5,333.5,226.5,327.1,227.4z M377.8,203.6c-0.1-0.2-0.2-0.7-0.3-1.2
		c-0.2-0.7-0.6-1.2-1.3-0.8c-0.4,0.2-0.7,0.8-1,1.3c0.5,0.2,1,0.5,1.6,0.7C377,203.6,377.4,203.6,377.8,203.6z"/>
	<path d="M327.1,227.4c-1.4,0.5-2.7,1.1-4.1,1.5c-0.6,0.2-1.3,0.2-2,0.3c-0.4,0.1-0.7,0.4-1.1,0.6c-0.1-0.7-0.6-0.8-1.4-0.5
		c-5.2,1.9-10.5,2.7-15.9,3.4c-0.4,0-0.8,0.1-1.2,0.2c0.2,0.9,0.4,1.7,0.4,2.5c0.2,3.6-0.8,6.8-3,9.7c-0.2,0.2-0.2,0.7-0.1,0.9
		c0.6,1.4,1.4,2.8,2,4.2c0.2,0.6,0.5,1.6,0.2,1.9c-0.5,0.5-1.4,0.7-2.1,0.8c-0.8,0-1.7-0.3-1.8-1.3c0-0.3-0.2-0.6-0.2-0.9
		c-0.2-1.5-0.3-2.9-0.5-4.5c0.2,0,0.4,0,1.1,0c-0.4-0.4-0.6-0.7-0.9-0.8c-2.1-0.5-3.4-1.9-4.3-3.8c-1.2-2.6-2.3-5.2-3.5-7.9
		c-12,0.7-23.6-1.2-35.1-4.7c-0.5,1.9-1.2,3.7-0.7,5.6c0.1,0.2-0.1,0.5-0.1,0.8c-0.4,1.6-0.8,3.2-1.1,4.8c-0.1,0.8-0.4,1.1-1.1,0.8
		c-0.6,1.1-0.3,2,0.3,3c2.1,3.9,1.1,7.6-0.8,11.1c-1.6,3-3.4,5.9-4.8,9c-0.7,1.5-1.1,3.2-1.1,4.8c0,2.6-1.5,4.6-4,5
		c0.3,0.5,0.5,1.1,0.8,1.6c1,1.6,0.9,3.3,0.3,5c-0.5,1.5-2.1,2.4-3.6,1.8c-0.2-0.1-0.5-0.6-0.4-0.8c0.1-1.3,0.4-2.6,0.5-4
		c0.1-0.8,0.1-1.6,0-2.3c-0.3-1.8-1-3.6-0.9-5.3c0.4-6.7,0.3-13.5,1.8-20.1c0.7-3,1.8-5.8,3.8-8.1c-1.6-3.1,0.7-5.9,0.5-8.9
		c-1-0.1-1.9-0.3-2.9-0.3c-0.3,0-0.7,0.3-0.9,0.5c-0.6,1.1-1.6,1.2-2.6,1.4c-0.6,0.1-1.3,0.1-1.9,0.3c-3.2,1.2-6.5-0.1-7.8-3.3
		c-0.3-0.7-0.7-1.4-0.7-2.1c-0.2-2.4-2.5-3-3.8-4.5c0.2,2.3-1.3,3.7-2.8,4.8c-1.9,1.4-4,2.7-6,4.1c-1.1,0.8-2.1,1.7-2.9,2.7
		c-1.1,1.6-2.5,2.4-4.6,2.4c0,1.7-0.5,3.2-1.9,4c-1.6,0.9-2,2.2-2.6,3.8c-0.5,1.8-1.8,3.4-3,4.9c-1.8,2.2-4,4.2-5.7,6.5
		c-1.3,1.7-1.8,3.9-3.1,5.7c-1.5,2.2-3.4,4.2-6.3,4.6c-0.3,0-0.7,0.4-0.8,0.7c-0.3,0.9-0.5,1.9-0.8,2.8c-0.1,0.3-0.1,0.6-0.2,0.9
		c-0.7,1-4.3,1.9-5.3,1.2c-0.3-0.2-0.7-0.9-0.6-1.3c0.2-0.7,0.3-1.5,1.3-1.8c1.7-0.5,2.8-1.8,3.5-3.4c0.7-1.7,1.7-3.3,2.5-5.1
		c0.8-1.8,1.3-3.8,1.9-5.7c1-2.9,2.1-5.7,3.2-8.5c1.4-3.3,3.5-6.1,6.3-8.3c-0.2-1.4,0.3-2.7,0.9-3.9c0.8-1.6,1.6-3.1,2.2-4.7
		c1.3-3.5,2.5-7.1,3.7-10.6c0.5-1.5,1-3.1,1.5-4.7c-2.6-0.1-3.1-1.9-3.5-4c-0.3-1.8-0.9-3.7-1.5-5.4c-0.4-1-1.1-1.8-1.7-2.7
		c-1.1-1.4-1.5-3-0.7-4.5c1.5-3.1,2.2-6.5,3.1-9.8c0.4-1.6,1.3-3.1,2-4.6c0.5-1,0.9-1.9,0.8-3.1c-0.1-1.9,0.6-3.7,1.6-5.4
		c1-1.6,1.8-3.4,2.8-5.1c0,0-0.1-0.1-0.2-0.1c-5.1,0-9.7-2-14.3-3.8c-0.3-0.1-0.6-0.2-0.9-0.1c-5.2,2.1-10.7,2.6-16.2,3.2
		c-9.5,1-19,0.4-28.4-0.1c-9.1-0.5-18.3-1.8-27.4-2.1c-6.4-0.2-12.7-1.3-19-2.4c-9.7-1.6-19.4-3.7-28.8-6.9
		c-5.2-1.8-10.3-3.7-15.3-5.8c-5.5-2.3-10.5-5.3-15.1-9.1c-0.1-0.1-0.3-0.2-0.4-0.3c-3.1-3.7-5.9-7.5-5.7-12.6
		c0.1-2.5,0.8-4.9,3.5-6c0.4-0.2,0.9-0.4,0.6-1c-0.1-0.2,0.1-0.5,0.3-0.8c3.2-4.9,7.1-9.1,13-10.6c2.4-0.6,4.8-0.8,7.3-0.9
		c5.1-0.3,10.3-0.7,15.4-0.4c6.8,0.4,13.5,1.4,20.3,2.2c6.1,0.7,12.2,1.2,18.3,2c9.7,1.3,19.2,3.4,28.6,6.1
		c9.8,2.7,19.5,5.6,28.9,9.5c5.7,2.4,11.5,4.4,16.9,7.6c3.1,1.9,5.9,4,7.3,7.5c0.2,0.4,0.6,0.8,1,1.2c0.5,0.5,1,0.8,1.5,1.3
		c3.6,3.2,4.3,6.3,2.3,10.7c-0.1,0.2-0.2,0.3-0.3,0.5c0,0.3-0.1,0.7,0.1,0.9c0.1,0.1,0.6,0.1,0.8,0c1.3-0.7,2.5-1.3,3.7-2.1
		c2.7-1.6,5.5-3,8.6-3.7c0.6-0.1,1.2-0.2,1.9-0.2c1.5,0,3.1,0.1,4.6,0c0.3,0,0.7-0.2,0.9-0.4c1.2-1,2.4-1.9,3.5-3
		c0.5-0.4,0.8-1.1,1.2-1.5c0.3-0.3,0.8-0.5,1.1-0.8c6-5.9,13.4-9.3,21.1-12.1c7.2-2.7,14.6-4.6,22.1-6.1c6.8-1.4,13.7-2.5,20.7-2.1
		c8.4,0.4,16.6,1.8,24.2,5.6c3.5,1.7,6.5,4.5,9.6,6.8c0.5,0.4,1,0.9,1.5,1.3c0.8,0.7,1.5,1.2,2.6,0.1c0.4-0.5,1.5-0.9,2.1-0.7
		c1.3,0.4,2.2-0.2,3-0.8c1.8-1.3,3.8-1.7,5.9-2c4.5-0.6,9-0.6,13.2,1.4c1.5,0.7,3,1.3,4.5,1.8c0.7,0.3,1.5,0.3,2.2,0.5
		c-0.3-0.6-0.4-1.3-0.8-1.9c-2.1-3.8-1.8-6.1,1.3-9.1c1.2-1.1,1.9-2.4,2.6-3.8c0.8-1.5,2-2.9,3.3-3.9c1.9-1.5,4-2.8,6.1-3.9
		c12.9-6.8,26.5-12,40.4-16.3c8.6-2.6,17.3-4.3,26.2-5.7c5.9-0.9,11.8-2.1,17.8-2.8c4.3-0.5,8.7-0.6,13.1-0.6c2.6,0,5.2,0.2,7.7,0.9
		c4.1,1.1,7.4,3.6,10.2,6.6c0.7,0.7,1.5,1.1,2.2,1.7c1,0.8,2,1.8,2.6,3c1.9,3.4,0.9,8.7-1.6,11.6c-3.9,4.5-8.7,7.6-14,10.1
		c-3.8,1.8-7.5,3.8-11.4,5.3c-7.7,2.9-15.5,5.6-23.6,7.1c-11,2-22,4-33,5.8c-5.4,0.9-10.8,1.6-16.2,2.1c-6.2,0.5-12.5,0.6-18.7-0.2
		c-1.6-0.2-3.2-0.6-4.8-0.9c-0.4-0.1-0.9,0-1.2,0.1c-1.8,0.8-3.7,1.6-5.5,2.5c-3.1,1.5-6.4,2.1-9.8,2.5c-0.3,0-0.6,0.1-0.9,0
		c-3.1-0.6-6.2,0.3-9.6,0.4c0.9,1,1.7,1.9,2.4,2.9c1.5,1.9,3.1,3.8,4.5,5.7c1.2,1.6,2.4,3.4,3.6,5c3.5,4.6,5.1,9.9,6.4,15.4
		c0.3,1.3,0.9,2.6,0.8,3.9c0,1.9-0.4,3.7-0.8,5.6c-0.2,1-0.7,2-1,3c-1.5,4.6-4.2,6.4-9.1,6.2c-0.4,2.6-0.7,5.3-2.2,7.3
		c0.3-3.3,0.6-6.7,0.9-10.2c-2,1-3.7,1.9-5.5,2.8c-0.1,1.9-0.1,3.9-0.3,5.9c-0.2,1.7-0.3,3.5-1,5c-1.2,2.6-2.7,5.2-4.3,7.6
		c-0.7,1-1.8,1.8-2.9,2.3c-2,1-4,2.1-6.1,2.5c-2.1,0.4-4.4,0.3-6.4-0.2c-7.3-1.9-11.9-7-12.8-14.3c-0.4-3.6-0.3-7.2,0.3-10.9
		c-5.5,0-10.5-2-15.8-3.1c0,2.1,0,4.2,0,6.2c0,2.1,0.7,4.1,1.5,6c0.2,0.6,0.1,1.3,0.2,2c0.6,2.7,1.9,5.1,3.8,7.2
		c-0.4-0.3-0.8-0.6-1.4-1c0.1,0.4,0.1,0.7,0.2,0.9c1.1,1.5,2.1,3.2,3.5,4.3c3.6,2.9,7.8,4.8,12.3,5.6c3.5,0.6,7.1,0.8,10.6,0.3
		C323.5,227.7,325.3,227.6,327.1,227.4C327.1,227.4,327.1,227.4,327.1,227.4z M239.8,275.8c0.3-1.4,0-1.7-1.4-1.4
		c0.2,0.5,0.4,1,0.6,1.5c0.1-0.1,0.1-0.2,0.2-0.3C239.4,275.7,239.6,275.7,239.8,275.8c0.9,1.6,0.7,3.3,0.6,5
		c0.2-0.9,0.5-1.9,0.4-2.9C240.7,277.2,240.1,276.6,239.8,275.8z M224.8,221.9c0.1-0.4,0.1-0.8,0.2-1.2c-0.3-0.2-0.5-0.3-0.7-0.4
		c-0.2-0.1-0.5-0.2-0.7-0.4c-1-1-1-1-1.9,0c-0.7,0.8-1.5,1.5-2.3,2.2c0.9-1.1,1.8-2.1,2.8-3.3c-2.7-0.9-5.3-1.6-8-1.4
		c-0.8,1.6,0.9,1.8,1.5,2.7c-0.5,0.1-0.8,0.2-1.2,0.3c0,0.2,0,0.3,0.1,0.3c1.6,0.5,3.2,0.9,4.8,1.4c0.2,0.2,0.4,0.7,0.6,0.7
		c1.4,0,2.1,1.1,3.1,1.6c0.7,0.9,1.4,1.9,2.1,2.7c0.3-0.3,0.5-0.4,0.9-0.8c0.4,1.2,0.6,2.1,1,3.1c0.2,0.5,0.6,0.8,1,1.3
		c0.1-0.1,0.3-0.2,0.4-0.2c-0.2-0.7-0.4-1.4-0.8-2.5c0.5,0.5,1,0.7,1,1c0.1,0.7,0,1.4-0.1,2c0,0.1-0.9,0-1.3,0
		c0.6,2.3,2.5,4.3,5.2,3l0,0c-0.1,0.2-0.2,0.4-0.3,0.8c0.5-0.1,1.1-0.1,1.5-0.2c0.9-0.1,1.7-0.2,2.6-0.5c0.9-0.3,2.2-0.7,2.6-1.4
		c0.6-1.1,0.9-2.5,0.9-3.8c0-1.7-0.2-3.5-2.4-4.1c-1.3-0.4-2.6-0.9-4-1.4c-0.3-0.1-0.7-0.3-0.7-0.3c0.2-1-0.7-0.8-1.1-1.1
		c-0.8-0.4-1.7-0.8-2.6-1.1c-1.2-0.5-2.4-0.9-3.7-1.3c0,0.1-0.1,0.3-0.1,0.4c2,1.6,4.6,2,7,3.1c-1.9,1.5-4,2.4-6.2,2.9
		c-0.1-0.1-0.1-0.2-0.2-0.3c1.7-0.8,3.4-1.5,5.4-2.4c-0.7-0.4-1.1-0.6-1.5-0.7c-1.5-0.5-2.9-1.8-4.6-0.5
		C224.9,222,224.9,221.9,224.8,221.9z M207.3,234.3c0.1,0.2,0.3,0.6,0.4,0.6c1.8,0.3,1.8,0.3,2,2.2c1.6-2.6,4-4,6.4-5.5
		c1.5-0.9,2.9-1.9,4.2-3.1c0.7-0.6,1.1-1.7,1.2-2.7c0.1-0.8-0.4-1.4-1.6-1.5c-0.8-0.1-1.5-0.3-2,0.1c-1.7,1.2-3.4,2.4-4.9,3.8
		c-1.6,1.5-3,3.3-4.5,5c0.5-0.7,0.9-1.4,1.4-2.1c2-2.6,4.2-4.9,7.1-6.6c0.6-0.4,1.1-1,1.6-1.5c-1.7-2.1-3.5-2-5.5-0.9
		c-1.9,1.1-3.1,2.7-4.1,4.6c-1,2-1.9,4.1-2.9,6.2c-0.3,0.7-0.6,1.5-0.9,2.3c-0.3,0.8-0.7,1.5-1.1,2.3c0.2-0.5,0.3-1.1,0.5-1.6
		c0,0-0.1,0-0.1,0c-0.9,1.1-1.7,2.3-2.6,3.4c-0.1-0.1-0.2-0.1-0.4-0.2c0.2-0.6,0.3-1.2,0.5-1.7c0.9-1.8,1.7-3.6,2.7-5.4
		c2.2-4.1,4.4-8.2,8-11.5c-1.4-5-0.7-7,2.9-7.7c-1.3-0.8-2.5-1.7-4-2c-2.3-0.6-3.8-0.6-5.4,1.4c-0.7,0.9-1.4,1.7-2,2.6
		c-0.2,0.3-0.2,0.8-0.2,1c-0.5,0.7-1,1.2-1.2,1.9c-0.5,1.4-0.7,2.9-1.2,4.4c-1.1,3.3-2.2,6.6-3.4,9.8c-0.6,1.6-1.5,3.1-2.3,4.7
		c-0.3,0.6-0.5,1.3-0.7,1.9c1.4,0,2.7-0.2,3.8,0.1c1.2,0.3,2.3,1,3.5,1.6c0.4-0.7,0.7-1.2,1-1.8c-0.4,0.7-0.5,1.8-1.1,2.1
		c-0.9,0.6-1.2,0.7-0.8,2.1c0.9-1.2,1.8-2.2,2.5-3.3C205.1,237.5,205.6,235.5,207.3,234.3z M316.1,182.9c0.4,0.1,0.7,0.3,0.8,0.3
		c-0.9,0.7-2,1.5-3.1,2.4c-0.2,0.2-0.5,0.4-0.7,0.6c-1.8,1.4-3,3.2-3.7,5.4c-0.3,1.1-0.6,2.1-0.9,3.2c-1.6,5.4-2.1,10.9-1.3,16.6
		c1,6.4,6,11.5,12.3,13c1.9,0.4,4,0.5,6,0.2c1.8-0.3,3.4-1.4,5.1-2c2-0.8,3.6-2.2,4.7-4c0.7-1.2,1.4-2.5,2.1-3.7
		c1.3-2.4,2.1-4.9,2.1-7.7c0-0.8,0.1-1.7,0.1-2.5c0.1-3,0.3-5.9-0.4-8.8c-0.6-2.5-1.6-4.7-3.6-6.8c0.8,2.6,1.7,4.8,2.2,7.1
		c0.5,2.2,1,4.4,1.1,6.6c0.1,4.1-0.8,8.1-2.4,11.8c-1.9,4.4-5.1,7.4-9.8,8.2c-2.7,0.5-5.7,0.3-8.5-0.2c-1.6-0.3-3.4-1.3-4.6-2.5
		c-1.6-1.6-2.9-3.7-4-5.7c-0.8-1.5-1.4-3.3-1.5-5c-0.5-7.7,1.6-14.7,5.7-21.1c2.1-3.4,5.5-5.2,9.6-4.8c2.2,0.2,4.3,0.9,6.4,1.5
		c1,0.3,1.9,0.8,2.8,1.2C327.8,182.5,322.1,181.8,316.1,182.9c0.6-0.3,1.3-0.8,1.9-0.9c1.9-0.1,3.9-0.2,5.8,0
		c7.9,0.5,14.4,6.6,16,13.6c0.4,1.7,0.5,3.4,0.8,5.4c1.6-0.9,3-1.7,4.4-2.6c0.3-0.2,0.5-0.5,0.6-0.8c0.3-1.4,0.7-2.7,0.4-4.2
		c-0.9-4.5-2.8-8.5-5.3-12.3c-0.8-1.2-1.8-2.2-2.8-3.3c-0.1-0.1-0.2-0.2-0.4-0.3c-6.8-5-14.4-6.8-22.6-5.5
		c-5.4,0.9-10.2,3.4-14.4,6.8c-4.1,3.4-7.6,7.5-8.5,13c-0.2,1.4-0.6,2.8-0.9,4.2c1,0.2,1.9,0.5,2.8,0.7c3.9,1,7.8,2.2,11.9,2.4
		c0.7,0,1,0,1.2-0.9c0.5-2.1,1.1-4.1,1.6-6.2c0.7-2.5,2-4.7,4.1-6.3C314,184.9,315.1,183.9,316.1,182.9z M251.3,186.4
		c-0.1,1.4,0,2.7,1.5,3.3c1.1,0.5,2.2,1.1,3.4,1.4c5.5,1.3,10.7,3.5,16.3,4.3c3.7,0.5,7.3,1.4,11,2.1c1.4,0.3,2.5-0.2,3.4-1.2
		c0.6-0.6,1-1.4,1.4-2.2c1.7-3.5,3.2-7.2,5.2-10.6c1.5-2.5,3.3-5.1,5.6-6.8c3.4-2.5,7.3-4.4,11.2-6.1c5.4-2.3,11.2-2.2,17-1.5
		c5.7,0.7,10.4,3.3,14.3,7.2c3.6,3.6,6,8.1,7.3,13.1c0.3,1.2,1.1,1.6,2.1,1.9c0.3,0.1,0.7,0.2,1,0.2c3.1,0.4,5.9-2,5.2-5.1
		c-0.6-2.7-1.3-5.4-1.9-8c-1.3-5.4-4.3-10-7.9-14.1c-0.1-0.1-0.3-0.3-0.4-0.4c-1.4-1.5-2.8-2.9-4.2-4.4c-1.5-1.6-3-3.2-4.6-4.6
		c-0.5-0.5-1.5-0.6-2.2-0.8c-0.3-0.1-1.1,0.1-0.5-0.7c0,0-0.2-0.2-0.3-0.3c-3.1-2.3-6.6-3.5-10.2-4.4c-2.9-0.6-5.8-1.2-8.6-2
		c-4.2-1.2-8.5-1.9-12.8-1.9c-3.8-0.1-7.7-0.2-11.4,0.6c-7,1.4-13.8,3.6-19.8,7.8c-2.8,2-5.1,4.4-7.6,6.6c-2.8,2.5-5.2,5.4-7.3,8.5
		C253.7,173.8,251.9,179.9,251.3,186.4z M192.7,151.7c-2,0.8-3.2,0.3-4.1-1.2c-1.1-1.8-2.2-3.6-3.4-5.4c-0.3-0.4-0.7-0.8-1.1-1
		c-2-0.6-4-1.3-6-1.7c-4.2-0.7-8.3-1.3-12.3-2.8c-3.2-1.2-6.5-2.4-9.9-3.3c-8-2.1-16-4.1-24-6.1c-3.8-0.9-7.6-1.9-11.4-2.7
		c-3.8-0.8-7.6-1.4-11.4-2.1c-6.5-1.2-12.9-2.4-19.6-2.7c-4.5-0.2-8.9-1-13.4-1.5c-1.4-0.2-2.9-0.8-4.3-0.8
		c-7.1,0.1-14.2,0.6-21.2,1.8c-2.5,0.4-4.6,1.2-6,3.4c-0.3,0.4-0.7,0.7-1,1c-1.2,1.1-2.5,1.2-3.9,0.6c-0.5-0.2-1-0.6-1.4-1
		c-1.5,0.6-2.7,1.5-3,3.2c-0.2,1.2-0.5,2.4-0.4,3.6c0.4,4.5,2.6,8.2,5.9,11c4.6,4.1,10,7.1,15.7,9.4c9.1,3.6,18.3,7,27.9,9.1
		c9.5,2,19,4.2,28.7,4.9c6.2,0.4,12.4,1.4,18.6,1.8c9.3,0.6,18.7,1,28.1,1.4c8.1,0.3,16.1-0.4,24.1-1.9c4.7-0.9,8.8-2.6,12.1-6.3
		c1.4-1.6,2.5-3.2,3-5.2c0.7-2.9-0.8-6-3.4-7.5c-0.6,1.7-0.9,1.9-2.8,1.6c-0.6-0.1-1.2-0.1-1.8-0.2c0,0,0,0.1,0,0.1
		C191.2,151.3,191.9,151.4,192.7,151.7z M213.7,194.2c0.5,0,0.6,0,0.7-0.1c7.5-1.4,15.1-2.8,22.6-4.4c3.8-0.8,7.8-1.4,11.2-3.7
		c0.4-0.3,0.9-0.5,1.4-0.8c0.1,0.1,0.2,0.1,0.2,0.2c-0.2,0.3-0.4,0.7-0.7,0.9c-1.8,0.9-3.6,2.1-5.6,2.5c-5.6,1.3-11.3,2.3-16.9,3.4
		c-4.2,0.8-8.5,1.7-12.7,2.6c-0.4,0.1-0.9,0.4-1.1,0.7c-0.5,1-1,2.1-1.4,3.1c-1.8,4.2-1,7.5,2,10.5c2.1,2.1,4.8,3.6,7.9,4.1
		c7.6,1.4,15.2,2.7,22.9,4c-0.1-4.6,0.2-9,1.8-13.3c-0.5,0.3-0.9,0.6-1.4,0.9c-3,2.1-5.9,4.3-8.9,6.3c-1.4,1-3.1,1.3-4.8,0.7
		c-3.6-1.1-7.1-2.3-10.7-3.5c-1.1-0.4-2.1-1-3.1-1.6c-1.2-0.7-2.1-1.8-2.5-3.2c-0.3-0.9,0-1.6,1-1.8c3.5-0.7,7.1-1.6,10.6-2.1
		c3.8-0.6,7.3-1.8,10.7-3.5c3.4-1.7,6.9-3.6,10.6-4.5c1-0.3,2.1-0.4,3.2-0.7c-0.2-0.7-0.5-1.3-0.4-2c0.2-4.3,0.3-8.6,1.9-12.7
		c2.3-6,5.7-11.3,10.3-15.7c3.6-3.4,6.7-7.4,11.6-9.2c0.3-0.1,0.5-0.4,0.8-0.6c1.4-0.8,2.7-1.6,4.1-2.3c1.9-0.9,3.8-1.7,5.8-2.3
		c2.9-0.8,5.8-1.8,8.8-2.1c4.6-0.4,9.2-0.4,13.8-0.2c2.9,0.1,5.7,1,8.6,1.5c2.6,0.5,5.2,1.8,8,0.9c0.9-0.3,1.9-0.1,2.8,0
		c0.4,0,0.9,0.4,1.3,0.6c0,0.1-0.1,0.1-0.1,0.2c-1.6,0-3.2,0-4.8,0c2.2,1,4.5,1.6,6.8,2.5c2.2,0.8,4.3,1.9,6.4,2.8
		c0.1-0.1,0.1-0.2,0.2-0.4c-0.7-0.6-1.4-1.2-2.1-1.7c0.1-0.1,0.1-0.2,0.2-0.3c0.6,0.3,1.4,0.5,1.9,0.9c1.4,1.2,2.9,1.7,4.7,1.5
		c0.9-0.1,1.8,0,2.7,0.1c3.3,0.1,6.5,0.5,9.8-0.2c1-0.2,2.1-0.4,3-0.9c2.1-1,4-2.2,6-3.3c0.5-0.3,1-0.6,1.1,0.5
		c0.5-0.3,0.9-0.5,1.3-0.8c-1.6-0.9-3.1-1.6-4.4-2.6c-1-0.7-2-0.7-2.7-0.1c-1.4,1.2-3.1,1.2-4.6,1.8c-3.3,1.4-6.8,1.9-10.4,2
		c-4.3,0.1-8.2-0.8-12.1-2.3c-0.5-0.2-0.9-0.7-1.5-1.1c1.1-0.7,1.9-0.3,2.8,0c1,0.4,2.1,1.1,3.1,1c2.8-0.3,5.6-0.9,8.4-1.3
		c1.1-0.2,2.3-0.2,3.4-0.3c0,0.2,0.1,0.3,0.1,0.5c-2,1.7-4.6,1.8-7.1,2.7c0.8,0,1.5,0,2.3,0c2-0.1,4.1-0.2,6.1-0.4
		c0.3,0,0.7-0.4,0.9-0.7c0.6-0.7,1-1.5,1.6-2.2c0.5-0.6,1.2-1,1.9-1.6c-0.2-0.1-0.3-0.2-0.4-0.2c-6.1-3.8-12.5-3.8-19-1.2
		c-1.3,0.5-3,1-3.6,2.7c-0.1,0.2-0.6,0.2-1,0.3c0.1-0.7,0.2-1.1,0.3-1.7c-1.2,0-2.1,0.2-2.5,1.4c0.4,0.4,0.8,0.7,1.2,1
		c0,0-0.1,0.1-0.1,0.1c-0.6-0.2-1.2-0.4-1.8-0.6c-0.1,0.3-0.2,0.5-0.2,0.5c-1.1-0.6-2.2-1.3-3.3-1.7c-1.4-0.6-2.9-0.9-4.2-1.5
		c-6.4-2.7-13.1-4.2-20-4.3c-10.1-0.2-20.1,1.3-29.8,4.1c-7.5,2.2-14.3,6.2-21.7,8.8c-1.2,0.4-2.3,1.3-3.4,2.1
		c-0.9,0.6-1.6,1.6-2.5,2c-2.3,1-3.2,3.1-4.8,4.9c1.7,0.2,3.1,0.5,4.5,0.6c2.5,0.3,4.9,0.9,6.8,2.6c0.5,0.5,1,1.2,1.2,1.8
		c0.7,2.6-1.6,7.3-4.1,8.3c-5.7,2.3-11.5,4.3-17.7,5c-2.7,0.3-5.2,1.2-6.4,4c-0.2,0.5-0.6,0.9-0.9,1.4
		C217.6,187.2,215.7,190.6,213.7,194.2z M359.4,132.7c-2.8,2.2-3.3,4.6-1.9,7.7c1,2.1,2.7,3.3,4.5,4.5c2.9,2,6.2,3.3,9.8,3.5
		c5,0.2,10,0.5,15,0.4c8.7-0.1,17.2-1.7,25.8-3c8.8-1.3,17.5-3,26.2-4.7c6.6-1.3,12.9-3.3,19.3-5.5c8.9-3,17.4-6.8,25-12.2
		c3.7-2.6,7.1-5.6,7.7-10.6c0.4-2.9-1.1-7.6-4.5-8.3c-1.4,1.4-2.4,1.5-4.1,0.4c-0.9-0.6-1.7-1.3-2.6-1.9c-0.5-0.3-1.1-0.6-1.7-0.7
		c-5-0.3-10.1-0.5-15.1-0.7c-1.8,0-3.5,0.2-5.3,0.5c-2.9,0.5-5.8,1.3-8.7,1.8c-2.9,0.5-5.8,0.6-8.7,1.2c-3.4,0.7-6.7,1.7-10.1,2.6
		c-4,1-8,1.8-11.9,3c-8.4,2.5-16.7,5.3-25.1,7.9c-1.7,0.5-3.4,1-4.9,1.8c-4.2,2.3-8.7,3.7-13.4,4.6c-2,0.4-3.8,1.2-5.7,1.9
		c-0.4,0.2-0.9,0.6-1.1,1c-0.9,1.7-1.6,3.4-2.4,5.1c-0.2,0.3-0.4,0.8-0.6,0.9C363.6,135,360.4,134.2,359.4,132.7z M323,222.3
		c2.4,0.1,4.3,0.1,6.2-1.9c1.8-1.9,3.5-3.8,4.2-6.3c0.6-2.3,1.1-4.7,1.2-7.1c0.2-3.1,0-6.2-0.2-9.3c-0.3-3.8-0.9-7.5-3.2-10.7
		c-0.2-0.3-0.4-0.8-0.8-1c-1.1-0.5-2.1-1.1-3.3-1.3c-2-0.3-4.2-0.8-6.1-0.4c-3.2,0.7-5.8,2.7-7.3,5.8c-2.3,4.6-3.9,9.3-4.6,14.3
		c-0.9,6.2,1.6,11.2,5.6,15.6c0.3,0.3,0.7,0.5,1.1,0.7C318,222.4,320.5,222.5,323,222.3z M44.9,123c0.5-0.2,1.4-0.4,2-0.9
		c1.5-1.5,3.4-2.3,5.4-2.8c3.9-1,7.8-2.2,11.8-3.1c1.1-0.3,2.5-0.3,3.2,0.7c1.6,2.4,4.1,2.5,6.4,2.8c4.5,0.6,9.1,0.7,13.5,1.5
		c5.7,0.9,11.3,1.3,16.9-0.5c2.2-0.7,4.3-0.8,6.7-0.7c5.5,0.3,10.9,1.4,16.2,2.7c6.6,1.7,13,4.2,19.5,6.3c6.1,2,12.2,4,18.3,5.9
		c3.2,1,6.5,1.8,9.7,2.8c4.1,1.2,8,2.7,10.9,5.9c0.2,0.3,0.5,0.5,0.7,0.8c1.1,1.7,2.1,3.4,3.1,5.1c0.2,0.3,0.6,0.6,0.9,0.6
		c1,0.2,2.1,0.4,3.2,0.5c0.9,0.1,1.1-0.4,0.9-1.1c-0.1-0.5-0.5-0.9-0.8-1.4c-0.2-0.4-0.4-0.7-0.6-1.1c-0.6-1.1-0.9-2.4-1.7-3.3
		c-1.2-1.3-2.7-2.3-4.2-3.3c-5.4-3.5-11.4-5.6-17.3-7.9c-8-3.1-16.2-5.7-24.4-8.2c-11.5-3.6-23.2-6.2-35.2-7.7
		c-11.4-1.4-22.9-2.6-34.3-3.8c-7.3-0.8-14.6,0-21.9,0.7c-4.8,0.4-8.4,3.1-11.7,6.3c-0.8,0.8-1.6,1.8-2.3,2.7
		c-0.3,0.5-0.8,1-0.8,1.6c0,0.8-0.5,1.8,0.6,2.3c1.3,0.7,2.4,0.5,3.5-0.5c0.6-0.6,1.2-1.3,1.7-1.9C44.9,123.9,44.9,123.6,44.9,123z
		 M195.3,201.7c0.8-0.2,1.3-0.3,1.7-0.5c2.3-1,4.5-2,6.8-3c2.9-1.2,5.9-2.4,8.8-3.7c0.3-0.1,0.6-0.4,0.7-0.6
		c1.9-3.5,3.2-7.4,5.8-10.5c0.4-0.4,0.7-0.9,0.9-1.4c1.1-2.5,3.2-3.5,5.6-3.8c5.7-0.8,11.1-2.3,16.5-4.3c2.7-1,4.3-2.7,5.5-5.1
		c1.1-2.5,0.7-4.6-1.7-5.8c-1.7-0.9-3.7-1.3-5.7-1.8c-1.6-0.4-3.2-0.4-4.7-0.9c-1.5-0.5-2.8-0.4-4.2,0.2c-0.2,0.1-0.3,0.3-0.4,0.5
		c-0.2,1.1-0.3,2.1-0.4,3.4c1.3,0.1,2.7,0.1,4.1,0.3c2.7,0.3,5.5,0.5,8.2,0.9c1.9,0.3,2.7,2.1,2.2,3.9c-0.5,1.5-2.9,2.7-4.5,2.1
		c1.1-0.5,2.2-0.9,3.3-1.3c0-0.1-0.1-0.2-0.1-0.3c-0.9,0.2-1.8,0.7-2.7,0.7c-3.4,0-6.7,0-10.1-0.1c-0.9,0-1.7-0.1-2.6-0.1
		c-3.1,0.1-6.2,0.3-9.3,0.5c-1.1,0.1-2.3,0.1-3.4,0.3c-0.3,0-0.8,0.5-0.8,0.6c0.3,0.9,0.4,2.1,1,2.6c1.9,1.5,4,2.7,6.5,2.9
		c0.6,0.1,1.2,0.2,1.9,0.3c-0.3,0.3-0.5,0.4-0.8,0.4c-2.6,0.2-4.7-0.9-6.9-2.1c-1.5-0.9-2.5-1.9-2.3-3.8c0.1-0.9-0.4-1.4-1.4-1.2
		c-1.8,0.3-3.7,0.5-5.5,0.8c-0.5,0.1-1,0.5-1.3,0.9c-1.4,2.4-2.7,4.9-3.3,7.7c-0.5,2.6-1.4,5.1-2.8,7.4c-0.7,1.2-1.2,2.7-1.6,4
		c-0.8,2.4-1.4,4.8-2.2,7.2C196.1,199.8,195.8,200.6,195.3,201.7z M282.7,137.9c-2.9-2.4-6-3.9-9.6-4.4c-2-0.3-4.1-0.8-6.1-0.5
		c-5.9,0.9-11.7,2.7-17.4,4.6c-6.8,2.2-13.2,5.2-19.2,9.1c-1.6,1.1-3.1,2.4-4.8,3.7c0.8,0.3,1.1,0.4,1.6,0.6c-2.4,1.5-4.7,3-7,4.5
		c1.7,0.8,3.2,1.4,4.7,2.1c0.5,0.2,1.1,0.6,1.5,0.5c2-0.6,3.4,0,4.3,1.6c1.7-0.1,3.2-0.2,5-0.3c2.6-4.9,7.3-7.5,12.3-9.8
		c2.8-1.3,5.9-2.2,8.6-3.6c5.4-2.8,11.1-4.6,17-6C276.6,139.1,279.6,138.6,282.7,137.9z M274.2,221.1c-0.5-0.3-1.1-0.6-1.5-1
		c-1.9-1.9-4.1-3.3-6.6-4.3c-1.1-0.4-2.1-1.1-3.1-1.6c-0.4-0.2-1-0.5-1.4-0.4c-1.9,0.3-3.5,1.3-4.4,3c-1,1.8-1.7,3.9-2.3,5.9
		c-0.4,1.3-0.5,2.7-0.7,4.1c-0.2,1.6-0.2,1.6,1.5,2c0.4,0.1,0.8,0.3,1.2,0.4c7.1,1.9,14.3,3.6,21.7,3.8c7.6,0.2,15.3,0.6,22.9-0.8
		c4.5-0.9,9.1-1.6,13.6-2.4c0.4-0.1,0.8-0.2,1.1-0.4c-0.6-0.3-1.1-0.5-1.6-0.5c-3.3,0-6.3-1-9.3-2c-2-0.6-4.2-1.1-5.7-2.7
		c-0.7-0.8-1.7-1.3-2.3-2.3c-0.6-1-1.3-2-2-2.9c-0.3-0.4-0.2-1.3-1.1-0.9c0,0-0.3-0.4-0.2-0.6c0.5-1.2-0.2-2.2-0.5-3.3
		c-0.1-0.4-0.6-0.9-1-0.9c-1.1,0-2.3,0.1-3.4,0.3c-0.3,0-0.6,0.5-0.8,0.7c0.3,0.2,0.5,0.4,0.8,0.6c0.8,0.6,2,1.1,2.3,1.9
		c0.7,2.1,1,4.3,1.4,6.5c0.1,0.6-0.1,1.2-0.2,2.2c1.7-0.4,3.3-0.7,4.8-1c0,0-0.1,0.4-0.3,0.6c-1.5,1-3.2,0.7-4.8,0.6
		c-0.2,0.3-0.4,0.6-0.5,0.9c-0.4,1.6-1.6,2-3,2.3c-0.6,0.1-1.3,0.3-1.9,0.6c-3.3,2-7.4,1.2-9.4-2.1
		C276,225.3,275.2,223.1,274.2,221.1z M259.4,213c0.3,0.2,0.7,0.6,1,0.5c1.5-0.4,2.7,0,3.9,0.8c0.7,0.4,1.6,0.9,2.3,0.8
		c0.8-0.1,1.1,0.2,1.5,0.5c2,1.5,3.9,3.1,5.8,4.6c0-0.2,0.1-0.5,0.3-0.9c0.7,0.8,1.3,1.6,1.8,2.3c0.1,0.2,0.2,0.5,0.2,0.7
		c0,1.2,0.9,1.7,1.6,2.3c0.1-0.1,0.3-0.2,0.4-0.2c-0.4-0.9-0.8-1.9-1.3-3.1c0.4,0.2,1,0.3,1.1,0.6c0.3,0.8,0.6,1.6,0.7,2.5
		c0.1,0.9-0.5,1.2-1.3,0.8c-0.2-0.1-0.4-0.3-0.6-0.4c-0.1,0.1-0.2,0.2-0.2,0.2c0.8,1.1,1.6,2.4,2.6,3.3c0.6,0.6,1.7,1,2.5,1
		c1.8-0.1,3.2-1.1,4-2.9c1.4-3.1,2.3-6.3,1-9.7c1.2,1.7,1.2,3.7,0.8,5.6c-0.6,2.8-1.2,5.9-4.5,7.1c1.1,0,2.2-0.1,3-0.9
		c0.4-0.3,1.1-0.3,1.6-0.5c0.8-0.2,1.6-0.4,2.3-0.7c1.6-0.9,1.4-2.6,1.6-4.1c0.3-1.8-0.1-3.6-0.8-5.3c-0.7-1.8-2.5-3.2-4.5-3.4
		c-1.6-0.2-3.2-0.7-4.7-1.1c0-0.2,0-0.4,0.1-0.6c0.6,0,1.2,0,1.7,0.1c1.8,0.6,3.6,1.3,5.4-0.3c0.6-0.6,2-0.4,3.1-0.6
		c-0.6-1.7-1.5-3.2-3.3-4c0.1-0.1,0.2-0.3,0.3-0.4c0.8,0.5,1.7,1,2.5,1.5c0.1-0.1,0.1-0.2,0.2-0.3c-0.8-0.7-1.6-1.4-2.4-2
		c0.1-0.1,0.2-0.2,0.2-0.3c0.4,0.1,0.9,0.3,1.4,0.4c-0.1-0.7-0.3-1.4-0.4-2.1c-0.6,0.5-1.1,0.9-1.6,1.3c-1.2,1-2.5,1.5-4.1,1.3
		c-2.6-0.4-5.3-0.8-7.9-1.3c-2.1-0.5-4.2-1.2-6.3-1.7c-2.5-0.6-5-1.1-7.5-1.6c0,0.1-0.1,0.3-0.1,0.4c5.4,4.7,10.9,9.1,18.5,10
		c-1.8,2.6-4.5,4-6.9,5.6c-0.3-0.6-0.1-1,0.6-1.4c1.7-0.9,3.5-1.9,4.9-3.6c-1.4-0.5-2.6-1-3.8-1.3c-2.4-0.6-4.8-1.2-6.7-3
		c-1.3-1.3-2.9-2.2-4.3-3.3c-0.7-0.5-1.3-1.1-1.9-1.8c-1.5-1.6-3.8-2.2-5.5-1.4c-0.2,1-0.5,1.9-0.6,2.8c-0.1,0.9,0,1.8,0.1,2.7
		c0.4-3.4,1.2-5.2,2.6-5.4c-2.1,2.5-2.5,5.9-0.8,7.8c0.5-0.1,1-0.3,1.4-0.3c0.2,0,0.5,0.8,0.4,1C260.5,212.2,260,212.5,259.4,213z
		 M466,95.7c-3.8,0.2-6.6,0.1-9.4,0.5c-7.8,1.2-15.6,2.6-23.4,3.8c-13.4,2-26.1,6-38.8,10.7c-7.8,2.9-15.3,6.4-22.7,10.1
		c-3.2,1.6-6.2,3.3-8.7,5.9c-0.7,0.8-1.2,1.8-1.5,2.9c-0.2,0.7-0.2,1.4-0.8,2c-0.6,0.7-0.3,1.7,0.3,1.8c1.7,0.2,4-1,4.7-2.6
		c0.6-1.3,0.9-2.8,1.8-3.8c1.4-1.8,3-3.5,5.3-4.3c6.8-2.6,13.5-5.1,20.3-7.7c2.2-0.8,4.4-1.6,6.6-2.6c7.4-3.1,14.7-6.6,22.7-8
		c3-0.5,6-1,9.1-1.3c1.3-0.1,2.6,0.4,4,0.6c2.5,0.3,5,0.7,7.6,0.2c4.8-1,9.7-1.6,14.6-2.6c1.6-0.3,3.5-0.4,4.3-2.4
		c0.1-0.3,0.8-0.6,1.2-0.6c0.7-0.1,1.5,0,2.2,0.1c2.3,0.4,4.6,1,6.9,1.2c2.7,0.4,5.2,1.6,7.7,2.6c0.1,0.1,0.3,0.2,0.4,0.3
		c0.8,0.7,1.6,1.5,2.4,2.1c0.8,0.6,1.9,0.6,2.4-0.1c0.3-0.4-0.2-1.7-0.6-2.1c-2.9-2.8-6.2-5.1-10.2-5.9
		C471.4,95.9,468.2,95.9,466,95.7z M255.4,198.6c-1.4-2.1-2.6-3.9-3.8-5.8c-0.1-0.1,0.1-0.3,0-0.4c-0.3-0.3-0.5-0.8-0.8-0.8
		c-0.5-0.1-1.1,0.2-1.6,0.3c-4.3,0.9-8.1,3.2-12.1,4.9c-2.6,1.2-5.2,2.3-7.9,3c-4.2,1.1-8.5,1.8-12.8,2.6c-1.3,0.3-1.5,0.7-0.8,1.8
		c0.6,1,1.5,1.9,2.4,2.5c3.3,2.2,7.3,2.9,11,4.3c3.2,1.2,6,0.6,8.7-1.3c2.7-2,5.4-4,8.1-6c0.5-0.4,0.9-0.9,1.1-1.4
		c1.2-2.9,2.5-3.7,5.7-3.6C253.3,198.6,254.3,198.6,255.4,198.6z M250.2,239.8c-0.2,0-0.3,0-0.5-0.1c0-0.7-0.1-1.3,0-2
		c0.7-3.4,1.2-6.8,2.1-10.1c1.4-4.9,2.3-10,5.3-14c-0.6-2.2-1.3-4.2-1.7-6.3c-0.6-2.9,0.6-4.7,3.5-5.2c-1.6-0.9-2.9-2.5-5.4-1.6
		c0.4-0.5,0.6-0.6,0.8-0.9c-0.2,0-0.3,0-0.4,0c-2.2,1.1-4.3,2.2-6.5,3.3c-0.2,0.1-0.4,0.5-0.6,0.7c-1.4,3.1-2.2,6.4-2.2,9.8
		c0,1.3,0.3,2.6,0.2,3.8c-0.3,4.8-0.6,9.6-1,14.4c-0.1,1.6-0.4,3.3-0.7,4.9c-0.2,1.1-0.5,2.1-0.8,3.1c0.1,0.1,0.2,0.3,0.3,0.4
		c3-2.2,5.7-0.3,8.4,0.7c0.4-2,0.8-3.9,1.2-5.8c-0.1,0-0.1,0-0.2-0.1C251.5,236.6,250.8,238.2,250.2,239.8z M196,202.6
		c0.7,1.1,1.6,2.2,2.1,3.5c0.8,2.2,1.3,4.5,2,6.8c0.2,0.6,0.5,1.2,0.9,1.8c0.8,1,2.1,0.9,2.8-0.1c0.7-1,1.4-2,2.1-3
		c1-1.3,2.3-1.7,3.8-1.7c4,0.1,6.7,2.8,9.5,5.1c2.3,1.9,4.2,4.1,7.4,4.6c0.8,0.1,1.7,0.4,2.5,0.8c4.1,1.9,8.5,2.5,12.9,3.2
		c0.5,0.1,1.1,0,1.7,0c0.2-1.9,0.3-3.7,0.5-5.7c-1-0.2-2-0.5-3.1-0.7c-5-0.8-10-1.6-14.9-2.4c-4.4-0.7-8.8-1.6-12.4-4.5
		c-1.9-1.6-3.1-3.5-3.7-5.9c-0.6-2.4,0.2-4.7,1.3-6.8c0.3-0.7,0.7-1.4,1-2c-0.1-0.1-0.2-0.2-0.3-0.2
		C206.8,197.7,201.4,200.1,196,202.6z M226.8,160.7c0.1,0.2,0.2,0.4,0.3,0.6c-0.5,0.4-0.9,0.9-1.5,1.2c-3.5,1.8-7,3.3-11.1,3.5
		c-3.3,0.1-6.6,0.5-9.8-0.7c-0.9-0.3-1.9-0.4-2.9-0.7c-1-0.3-1.9-0.7-2.9-0.9c-0.8-0.2-2-0.7-2.5-0.4c-1.7,1.1-3.2,2.5-4.9,3.8
		c0.5,0.2,1,0.4,1.6,0.7c-0.3-1.1,0.2-1,0.8-0.7c1.7,0.8,3.4,1.7,5.2,2.4c1.5,0.6,3.1,1.1,4.6,1.2c2.5,0.2,4.9,0.2,7.4-0.4
		c1.9-0.4,3.8-0.5,5.7-0.8c2.8-0.5,5.9-0.1,8.3-2.3c1.1-1.1,2.6-1.8,3.7-2.8c1-0.9,1.5-2,1.2-3.4c-0.6,0-1.1,0-1.7,0
		c0-0.1,0-0.1,0-0.2c0.5-0.2,1-0.5,1.5-0.7c-0.5-1.4-1.1-1.8-2.7-1.5c0.1,0.5,0.3,1,0.4,1.5c-0.1,0.1-0.2,0.2-0.3,0.3
		c-0.3-0.2-0.6-0.4-0.9-0.6c-0.4-0.4-0.8-0.9-1.2-1.2c-5.4-2.7-11-3.1-16.6-1c-1.9,0.7-3.5,2-5.5,3.2c0.7,0.5,1.1,0.8,1.5,1.1
		c1.2,0.8,2.7,1.5,3,3.2c0,0.2,0.3,0.3,0.5,0.4c2.7,0.4,5.4,0,8-0.4c-2.3-0.5-4.7-0.7-6.7-2.3c0.5-0.3,1-0.4,1.4-0.4
		c3.1,0.2,6.2,0.2,9.3,0.6c1.5,0.2,2.7-0.2,3.8-1c0.2-0.2,0.4-0.4,0.7-0.4C225.4,161.1,226.1,160.9,226.8,160.7z M249.7,243.7
		c-1.3-0.9-2.3-1.7-3.4-2.4c-0.1,0.1-0.1,0.1-0.2,0.2c0.3,0.4,0.6,0.7,0.8,1.1c-0.1,0.1-0.2,0.2-0.3,0.2c-0.3-0.2-0.7-0.5-1-0.7
		c-1.1-0.9-1.7-0.9-2.7,0.2c-0.4,0.5-0.9,1-1.1,1.5c-1,2.5-2.3,4.9-2.8,7.5c-0.8,3.8-1,7.7-1.5,11.6c-0.2,1.4-0.2,2.9-0.3,4.5
		c1.3-0.8,2.6-1.3,3.7-0.3c0.9,0.8,1.5,2,2.3,3c0-0.5,0-1,0-1.5c0.2-2.5,0.7-4.8,2-7c1.3-2.3,2.8-4.5,4.1-6.8
		c1.4-2.5,2.2-5.2,1.3-8.2c-0.3-1.1-0.3-2.5-2.1-2.5C248.8,244,249,243.9,249.7,243.7z M322.1,142.9c0-0.1,0.1-0.3,0.1-0.4
		c-0.3-0.3-0.7-0.6-1-0.9c-1.4-1-2.7-2.1-4.2-3.1c-1.7-1.2-3.4-2.4-5.3-3.3c-6.1-2.8-12.6-3.7-19.2-4.6c-6-0.8-12.1-0.1-18.1,0.8
		c-1,0.1-1.9,0.4-2.9,0.6c4.6,0.8,8.8,2.3,12.4,6C296.9,135.9,309.8,136.7,322.1,142.9z M253,192.8c1.2,2.1,1.8,4.4,4,5.8
		c1.9,1.2,3.8,2.8,5.9,3.5c3.7,1.1,7.7,1.5,11.4,2.6c3,0.8,5.8,1.9,8.9,2.2c5.2,0.4,7.5-2.4,6.7-7.5c-0.1-0.4-0.2-0.8-0.2-1.2
		c0.2-1.2,0.5-2.4,0.8-3.7c-0.1,0-0.2-0.1-0.3-0.1c-0.7,1.7-1.4,3.3-2.1,5c-0.4,0.9-1,1.7-2.1,1.6c-2.4-0.2-4.8-0.2-7-0.8
		c-4-1-7.9-2.5-11.9-3.7C262.5,195.2,257.9,194.1,253,192.8z M110.3,124.7c12.3,2.4,24.6,4.1,36.5,7.4c11.9,3.3,23.8,6.8,35.8,10.2
		c-0.4-0.3-0.6-0.6-1-0.8c-1.3-0.7-2.5-1.5-3.9-1.9c-6.7-2.2-13.4-4.2-20.1-6.4c-7.1-2.3-14.3-4.5-21.3-7.1
		c-6.9-2.6-14.2-3.7-21.4-5.1c-1.4-0.3-2.8-0.2-4.2-0.4C110.5,122,110.4,123.3,110.3,124.7z M184.6,259.1c1.4-0.2,2.4,0.1,2.9,1.5
		c0.4,1.2,0.3,2-0.5,2.9c0-0.6,0-1.2,0-2c-0.3,1.6-0.6,3-0.9,4.4c0.1,0,0.1,0,0.2,0.1c0.5-0.8,0.9-1.6,1.4-2.4
		c0.1,0,0.2,0.1,0.2,0.1c0,0.4-0.1,0.8-0.1,1.2c0.7-0.7,1.2-1.4,1.5-2.2c0.9-2.8,2.4-5.1,4.5-7.1c1.7-1.6,3.2-3.2,4.7-5
		c1.4-1.6,2.5-3.5,2.3-5.8c-0.1-0.7,0.4-2-1.1-2.1c0,0-0.1-0.1-0.2-0.2c0.2-0.1,0.4-0.2,0.8-0.4c-0.7-0.6-1.3-1.2-2-1.9
		c0,0.5-0.1,0.7-0.1,1.1c-0.3-0.3-0.6-0.4-0.8-0.6c-0.7-0.9-1.6-0.9-2.4-0.3c-0.8,0.6-1.6,1.3-2.3,2
		C188.5,247.1,186.9,253.2,184.6,259.1z M356.1,191.7c-0.6,0.2-1.1,0.5-1.6,0.5c-1.3,0.1-2.6,0.4-3.8,0.1c-1.6-0.3-2.5-1.3-2.9-3.2
		c-0.8-4.1-3.1-7.5-5.7-10.8c-1.9-2.4-4.5-4.1-7-5.8c-2.1-1.4-4.5-2-6.9-2.3c-3.7-0.6-7.4-0.9-11.1-0.4c-4.6,0.5-8.7,2.4-12.8,4.4
		c-4,2-7.3,4.8-9.6,8.6c-2.1,3.5-3.7,7.4-5.5,11.1c-0.5,1-1,2.1-1.7,2.9c-1,1.2-2.2,1.9-3.9,1.6c-5-0.9-10-1.6-14.8-2.9
		c-5.8-1.5-11.7-2.8-17.2-5.3c0.4,0.5,0.8,1.2,1.4,1.4c1.4,0.6,2.9,1.1,4.3,1.5c4.4,1.3,8.9,2.5,13.3,3.7c4.3,1.2,8.5,2.9,13,3.3
		c2.5,0.2,3.3-0.4,4.4-2.5c0.6-1.1,0.9-2.4,1.5-3.5c1.7-3.4,3.2-6.9,5.2-10.1c2.9-4.5,7.1-7.5,11.8-9.9c6.2-3.2,12.7-4.2,19.4-2.7
		c11.3,2.4,18.9,9,21.8,20.5c0.1,0.6,0.2,1.2,0.4,1.7c0.4,1.6,2.1,2.3,3.5,1.3c0.2-0.1,0.4-0.3,0.6-0.2
		C353.9,195,355.6,193.7,356.1,191.7z M429.9,107c-0.3-0.9-0.6-1.6-0.8-2.2c-0.2-0.9-0.7-1.1-1.5-0.9c-3.8,0.9-7.6,1.5-11.3,2.7
		c-5.3,1.8-10.5,4.2-15.8,6.2c-5.9,2.3-11.8,4.4-17.7,6.7c-3.4,1.3-6.7,2.6-10,4.1c-0.9,0.4-1.7,1.1-2.5,1.7
		c0.1,0.1,0.2,0.3,0.2,0.4C389.8,118,409.3,111.1,429.9,107z M289.6,234c1.1,2.4,2.2,4.7,3.1,7.1c0.7,1.8,1.9,2.9,3.5,3.5
		c1.4,0.6,1.9,0.5,2.7-0.8c2.1-3.3,1.7-7,1.6-10.5C296.8,233.6,293.2,233.8,289.6,234z M329,221.4c3.1-1.2,5.3-3.4,6.7-6.4
		c4-8.5,3.1-16.9-0.7-25.3c-0.7-1.5-2.2-2.6-3.1-2.8c0.7,1.7,1.7,3.5,2.2,5.5c1.1,4.6,1.1,9.3,1,14c-0.1,2.4-0.4,4.9-1,7.2
		C333.4,216.8,331.8,219.5,329,221.4z M228.2,166.4c3.9,0.3,7.6,0.7,11.5,1c0,0,0.2,0.5,0.1,0.5c-0.5,0.3-1.1,0.8-1.6,0.8
		c-3.2-0.1-6.5-0.3-9.7-0.6c-1.7-0.1-3.4-0.3-4.8,0.9c-0.5,0.4-1.2,0.5-1.9,0.6c-0.6,0.1-1.1,0.1-1.7,0.2c0.5,0.3,1,0.3,1.4,0.3
		c2.6-0.1,5.2-0.4,7.8-0.4c3.7,0,7.3,0.2,11,0.2c1,0,2.1-0.5,3.1-1c0.3-0.1,0.5-1.2,0.4-1.3c-1.1-0.8-1.7-2.1-3.4-2.1
		c-3-0.1-6.1-0.3-9.1-0.7C230,164.8,229,165.2,228.2,166.4z M69.1,119.5c-0.5-0.4-1.3-1-1.8-1.7c-0.7-0.9-1.6-1.2-2.7-1.1
		c-0.6,0-1.2,0.1-1.7,0.3c-4.4,1.3-8.7,2.5-13.1,3.8c-0.4,0.1-0.8,0.5-1.1,0.7C55.6,120.8,62.4,120.1,69.1,119.5z M345,186.1
		c-0.1,0.1-0.3,0.1-0.4,0.2c2.3,4.6,2.8,9.5,2.6,14.4c4.1,0.6,8.1-1.9,8.4-6.1c-1,0.5-2.1,0.9-3.2,1.4c-2.3,1.1-4.6,0-5.2-2.5
		c-0.3-1.1-0.5-2.2-0.8-3.3C346,188.8,345.5,187.5,345,186.1z M240.1,232.1c2.4,0.8,2.9,0.5,3.2-2c0-0.2,0.1-0.4,0.1-0.6
		c0.1-1.7,0.3-3.5,0.4-5.2c-1.3-0.1-2.3-0.3-3.3-0.3c-0.9-0.1-1.8-0.1-2.8-0.1c0,0.1,0,0.2,0,0.4C241,226.1,240.6,229.1,240.1,232.1
		z M109.5,124.7c0.1-1.1,0.2-2,0.3-2.9c0.1-1.2-0.1-1.5-1.3-1.6c-0.4,0-0.9,0.1-1.3,0.2c-2.8,0.6-5.5,1.3-8.3,1.9
		c-0.1,0-0.2,0.1-0.5,0.3C102.3,123.4,105.9,124,109.5,124.7z M461.3,101c5.2,0.2,10.5,0.3,15.8,0.5c-0.7-0.3-1.4-0.5-2.1-0.7
		c-3.6-0.7-7.2-1.4-10.8-2.1c-0.9-0.2-1.6,0.1-2,1.1C462,100.3,461.6,100.6,461.3,101z M430.4,106.9c2.9-0.7,5.6-1.4,8.3-2.1
		c-2.6-0.6-5.2-1-7.7-1.4c-0.5-0.1-1,0.1-1.7,0.1C429.7,104.8,430,105.8,430.4,106.9z M221.8,218c-1-0.9-1.9-1.8-2.9-2.6
		c-0.6-0.6-1.3-1.2-2-1.6c-0.7-0.3-2-0.6-2.3-0.2c-0.7,0.7-0.9,1.8-1.4,2.8c0.1,0.1,0.2,0.1,0.3,0.2c0.4-1.1,0.9-2.1,2-2.5
		c-0.6,0.8-1.1,1.6-1.7,2.5C216.7,217.1,219.2,217.6,221.8,218z M220.6,163.8c0-0.1,0-0.3-0.1-0.4c-3.2-0.2-6.3-0.5-9.5-0.7
		c0,0.3,0.1,0.4,0.2,0.4c2.7,1,5.5,1.2,8.4,1.2C219.9,164.2,220.3,163.9,220.6,163.8z M200.3,162.8c2.1,0.7,4,1.4,5.9,2
		c0.1-0.1,0.2-0.2,0.2-0.4c-0.2-0.3-0.4-0.7-0.7-0.9c-0.6-0.4-1.2-0.8-1.8-1.2C202.3,161.2,202.2,161.2,200.3,162.8z M184.6,262.7
		c-2.1,1.1-4.5,6.4-3.5,7.4c0.2-0.3,0.5-0.5,0.5-0.7c0.4-2,1.5-3.7,2.8-5.2C184.6,263.9,184.5,263.4,184.6,262.7z M336.4,147.1
		c1.4,1.1,7.6,0.1,9.9-1.6C342.8,146.1,339.7,146.6,336.4,147.1z M356.3,144.8c-1.8-1.3-2-1.3-3.5-0.1c-0.5,0.4-1,0.7-1.4,1.1
		c-0.3,0.3-0.5,0.7-0.8,1c0.1,0.1,0.2,0.2,0.3,0.3C352.6,146.3,354.4,145.6,356.3,144.8z M239.8,269.5c-0.2,0-0.3,0-0.5,0
		c-1,1-1.4,2.1-1.3,3.5c0,0.3,0.7,0.6,1.1,0.7c0.1,0,0.5-0.6,0.5-0.7c-0.5-0.5,0-0.9,0.1-1.4C239.8,270.9,239.8,270.2,239.8,269.5z
		 M253.7,223.6c-0.1,0-0.2,0-0.2-0.1c-0.6,2.1-1.1,4.2-1.8,6.6c0.5-0.4,0.7-0.6,0.9-0.8c0.1,0.3,0.2,0.5,0.4,1
		C253.3,227.9,253.5,225.8,253.7,223.6z M244.4,239.9c0.1,0.3,0.2,0.6,0.3,0.8c2.1-1,3.4,0.4,4.9,1.3c0.1-0.3,0.2-0.7,0.3-1
		C248.2,239.8,246.5,239.1,244.4,239.9z M172,140.3c-2.8-0.9-5.6-1.8-8.4-2.7C166.2,139.1,168.9,140.3,172,140.3z M250.3,237.3
		c1.5-2.1,2.2-4.9,1.6-6.5C251.4,233,250.9,235.2,250.3,237.3z M247.7,202.1c1.6-0.9,3.1-1.7,4.7-2.5
		C250.4,199.4,248.5,199.7,247.7,202.1z M77.3,120.6c0,0.1,0,0.3-0.1,0.4c3.2,0.4,6.3,0.7,9.5,1.1c0-0.1,0-0.2,0-0.3
		C83.6,121.3,80.4,120.9,77.3,120.6z M379.7,123c0.1,0.1,0.1,0.3,0.2,0.4c2.2-0.9,4.4-1.8,6.7-2.7c0-0.1-0.1-0.2-0.1-0.4
		C384.2,121.2,382,122.1,379.7,123z M201.1,240.9c0-0.4,0.1-0.8,0-0.9c-1.2-1.1-2.6-1.6-4.3-1.2c0,0.2,0.1,0.4,0.1,0.6
		C198.6,238.9,199.6,240,201.1,240.9z M207.5,228.2c-0.1-0.1-0.2-0.1-0.3-0.2c-0.7,1.3-1.4,2.5-2.2,4
		C207.3,231.4,206.8,229.5,207.5,228.2z M202.7,236.9c0.1,0.1,0.3,0.1,0.4,0.2c0.8-1.4,1.6-2.8,2.4-4.2c-0.2-0.1-0.3-0.2-0.5-0.3
		C204.2,234.1,203.5,235.5,202.7,236.9z M204.8,238.3c1.1,0.4,2.3-0.7,2.6-2.2C206.5,236.9,205.7,237.5,204.8,238.3z M454.7,102.6
		c0-0.1,0-0.2,0-0.3c-1.9,0.4-3.9,0.7-5.8,1.1c0,0.1,0,0.1,0,0.2C450.8,103.2,452.7,102.9,454.7,102.6z"/>
	<path d="M366.7,232.9c-0.3-0.8-0.7-1.5-1-2.3c-0.1-0.3-0.1-0.6-0.2-0.9c-0.8-1.9-1.6-3.9-2.4-5.8c-0.3-0.6-0.7-1.2-1.1-1.9
		c-1.4,2.3-2.3,4.7-5.1,5.3c-2.5,0.5-4.8,0.4-6.9-1.6c-0.5,1.7-1.7,2.3-3,2.6c-2.5,0.7-4.6,1.9-6.4,3.7c-0.3,0.3-0.8,0.5-1.1,0.5
		c-1.5,0-3.2,0.2-4.6-0.3c-2.7-0.8-5.3-2-8-3c-0.2-0.1-0.3-0.3-0.5-0.7c0.4,0.1,0.8,0.1,1.1,0.2c2.2,0.8,4.3,1.7,6.6,2.4
		c1.6,0.5,3.4,0.7,5.1,0.8c0.5,0,1.3-0.6,1.7-1.1c0.5-0.7,0.9-1.5,1-2.4c0.2-1.5,0.4-3,0.3-4.4c0-0.5-0.7-0.9-1.2-1.3
		c-0.5-0.5-1.1-0.9-0.2-1.5c1.3,1.3,2.9,1.2,4.7,1.1c-1-3,0.1-5.6,1-8.2c0.3-0.9,1.5-1.4,2.4-2.1c0.3-0.2,0.5-0.4,0.8-0.6
		c-0.3-0.3-0.5-0.6-0.8-0.7c-0.7-0.2-1.5-0.3-2.2-0.4c-0.5-0.1-1.1,0-1.8,0c1.4-1.3,4-0.9,5.8,0.8c2.7-3,2.6-6.9,3.1-10.7
		c1.4,1,0.2,7.1-1.7,10.5c1.4-0.1,2.7-1.2,4.1-0.8c0,0.1,0.1,0.3,0.1,0.4c-1.3,0.4-2.5,0.9-3.8,1.1c-1.4,0.1-2.7,0.6-3.9,1.3
		c-0.6,0.4-1.1,1.1-1.4,1.7c-0.7,1.8-1.3,3.7-1,5.8c0.1,1,0.3,2,0.5,2.9c0.1,0.3,0.5,0.6,0.8,0.8c0,0,0.3-0.3,0.6-0.5
		c0.1,0.1,0.3,0.3,0.4,0.5c0.3-0.2,0.6-0.4,1-0.6c0.1,0.1,0.1,0.2,0.2,0.2c-0.5,0.3-0.9,0.6-1.4,1c2.2,0.7,4.4,1.5,6.6,2.2
		c-3.2-1.4-3.8-4.5-4.4-7.3c-0.4-1.9-0.4-3.9,0.8-5.6c-0.2,0.9-0.6,1.9-0.6,2.8c-0.2,2.9,0.7,5.6,2.3,8c1.4,2.1,4.4,2.3,6.1,0.5
		c0.8-0.9,1.5-2,2-3.2c-0.2,0.1-0.4,0.3-0.6,0.4c-0.8,0.4-1.4,0.1-1.3-0.8c0.1-0.9,0.4-1.7,0.7-2.6c0.1-0.3,0.7-0.3,1-0.4
		c-0.5,1.1-0.9,2.1-1.2,3c0.1,0.1,0.3,0.1,0.4,0.2c0.7-0.7,1.7-1.1,1.6-2.4c0-0.2,0.1-0.5,0.2-0.6c0.6-0.7,1.1-1.5,1.8-2.3
		c0.1,0.4,0.2,0.7,0.3,1c1.4-1.2,2.9-2.5,4.3-3.7c-0.1-0.2-0.2-0.5-0.5-1c0.5,0.3,0.8,0.5,1,0.7c0.1,0,0.2,0,0.2,0
		c0.8-0.5,1.4-1.3,2.6-1.1c0.8,0.1,1.6-0.8,2.5-1c1-0.3,2-0.5,3-0.5c0.7,0,1.2,0.1,1.3-0.8c-0.8-0.2-1.7-0.4-1.3-1.5
		c0.5-1.1,1.1-0.2,1.6,0.1c1.7-2.2,1.4-5.3-0.7-8c1.5,0.3,2.2,1.9,2.4,5.5c1-1.9-0.1-3.7-0.2-5.6c-1.7-0.9-4.1-0.3-5.6,1.4
		c-0.5,0.6-1.1,1.2-1.8,1.7c-1.4,1.2-3.1,2.1-4.4,3.4c-1.9,1.8-4.2,2.4-6.6,3c-1.3,0.3-2.5,0.8-3.9,1.3c1.4,1.7,3.2,2.7,4.9,3.6
		c0.8,0.4,0.9,0.8,0.6,1.4c-2.5-1.5-5.1-2.9-6.9-5.4c2.6-0.7,5.1-1.4,7.6-2.2c0.7-0.2,1.2-0.8,1.8-1.3c0.2-0.2,0.4-0.4,0.6-0.6
		c2.5-1.9,5.1-3.7,7.6-5.6c0.1,0,0.1-0.1,0.2-0.2c2.8-1.6,5.5-3.5,8.5-4.8c1.9-0.8,4.1-0.8,6.1,0.3c1.2,0.7,1.7,1.9,2.2,3.1
		c1.6,4.3,2.3,8.8,2.5,13.4c0.2,5.9,0.8,11.8,1.3,17.7c0.1,1.5,0.6,3,0.8,4.5c0.1,1,0.1,2,0.1,3c0,0.2-0.3,0.5-0.5,0.7
		c2.8,3.7,4.2,7.9,4.6,12.4c0.4,4.3,0.4,8.7,1,13c0.4,2.6-0.6,4.9-0.7,7.4c0,1.5,0,3,0,4.4c0,0.4,0.3,0.9,0.3,1.3
		c0,0.8,0.1,1.9-0.4,2.2c-1,0.7-2.8,0-3.3-1.1c-0.7-1.6-1.1-3.3-0.2-5c0.4-0.7,0.7-1.4,1.1-2.3c-1.8,0.1-2.7-1-3.5-2.2
		c-0.2-0.4-0.4-0.9-0.4-1.3c0.2-4-1.7-7.2-3.5-10.5c-1.6-3-3.7-5.8-4.3-9.3c-0.5-2.3-0.3-4.6,1-6.6c0.6-1,0.7-1.9,0.1-2.7
		c-0.3-0.3-0.8-0.5-0.9-0.9c-0.5-1.7-0.9-3.5-1.2-5.3c-0.2-1.2,0-2.5-0.2-3.7c-0.6-3.4-1.1-6.8-1.9-10.1c-0.7-2.6-1.7-5.2-4.2-6.9
		c-1.4-0.9-2.7-1.1-4.1-0.2c-0.7,0.5-1.5,0.8-2.3,1.2c-1,0.5-2,0.9-3.1,1.3c0.2,0.7,0.5,1.4,0.7,2.1c-0.4-0.6-0.8-1.1-1.2-1.8
		c-1.2,1-2.3,1.9-3.4,2.9c-0.3,0.3-0.6,0.8-0.9,0.7c-1.2-0.1-1.1,0.9-1.3,1.6c-0.3,0.8-0.6,1.5,0,2.3c2.4,3.2,3.8,6.9,5.4,10.5
		c0.2,0.5,0.2,1,0.3,1.5c-0.1,0-0.3,0.1-0.4,0.1c-0.5-0.7-0.9-1.4-1.4-2.2c0.2,0.1,0.4,0.2,0.9,0.3c-0.7-1.3-1.2-2.3-1.8-3.4
		c-0.1,0.1-0.2,0.1-0.4,0.2c0.4,1,0.8,1.9,1.2,2.9c-0.2-0.1-0.4-0.3-0.8-0.6C366.3,232,366.5,232.4,366.7,232.9z M397.9,273
		c-1.3,0.8-1.4,3.2-0.5,5C397.2,276.3,397,274.6,397.9,273c0.2-0.1,0.4-0.2,0.6-0.3c0.1,0.1,0.1,0.2,0.2,0.3c0.2-0.5,0.4-1,0.6-1.5
		C397.9,271.4,397.6,271.7,397.9,273z M395.1,237.3c0-0.9,0-1.4-0.1-1.8c-0.3-1.9-0.8-3.8-1.1-5.7c-0.3-2.5-0.4-4.9-0.6-7.4
		c-0.2-3.3-0.4-6.6-0.4-10c0.1-4.9-1-9.5-3.4-13.8c-0.4-0.7-1.3-1.5-2-1.7c-1.4-0.3-2.8-0.1-4.3-0.1c0.1,0.2,0.3,0.4,0.6,0.8
		c-2.4-0.9-3.7,0.7-5.3,1.6c2.8,0.6,4.1,2.1,3.6,4.8c-0.4,2.1-1.2,4-1.8,6.1c-0.1,0.3,0,0.8,0.1,1.1c0.7,1.2,1.6,2.3,2.1,3.5
		c2.6,6.5,3.9,13.4,5.3,20.3c0.1,0.6,0,1.3,0,2c-0.2,0-0.3,0-0.5,0.1c-0.7-1.6-1.3-3.2-2-4.8c-0.1,0-0.1,0-0.2,0.1
		c0.4,1.9,0.8,3.8,1.3,5.9C389.3,236.9,392,235.2,395.1,237.3z M388.1,240.8c0.5,0.2,0.8,0.3,1,0.5c-1.6-0.1-1.7,1.2-2,2.2
		c-0.9,3-0.2,5.9,1.3,8.5c1.3,2.3,2.7,4.5,4.1,6.8c0.4,0.7,0.8,1.5,1,2.3c0.5,2,0.9,4.1,1.2,5.9c0.5-0.7,1.1-1.9,2-2.7
		c1.1-1,2.4-0.4,3.8,0.2c-0.2-2.5-0.3-4.8-0.6-7.1c-0.4-3.3-0.8-6.7-1.4-9.9c-0.6-2.8-1.7-5.4-3.5-7.7c-1.1-1.4-1.7-1.4-3.1-0.4
		c-0.3,0.2-0.6,0.4-1,0.5c0-0.1-0.1-0.2-0.1-0.2c0.3-0.3,0.6-0.7,0.8-1c-0.1-0.1-0.1-0.1-0.2-0.2
		C390.3,239.2,389.3,239.9,388.1,240.8z M349.5,226.2c-1-0.5-1.9-0.7-2.5-1.3c-0.6-0.6-0.9-1.5-1.4-2.2c-1.1,0-2.1,0.1-2.9,0.1
		c-0.2,2.4-0.4,4.7-0.6,6.6C344.4,228.5,346.9,227.4,349.5,226.2z M398.3,266.6c-0.2,0-0.3,0-0.5,0.1c0.1,0.9,0.2,1.7,0.3,2.6
		c0,0.2,0.1,0.3,0.1,0.5c0,0.3-0.1,0.7,0,0.9c0.1,0.2,0.6,0.2,0.9,0.1c0.3-0.1,0.6-0.5,0.6-0.7C399.7,268.7,399.3,267.5,398.3,266.6
		z M384.2,220.7c-0.1,0-0.2,0-0.2,0.1c0.2,2.1,0.4,4.3,0.6,6.4c0.3-1.6,0.9,0.1,1.3-0.2C385.4,224.9,384.8,222.8,384.2,220.7z
		 M387.8,238.2c0.1,0.4,0.2,0.7,0.3,0.8c0.8-0.4,1.6-0.7,2.4-1.1c0.8-0.4,1.7-0.9,2.4,0.1c0.1-0.4,0.2-0.6,0.3-0.9
		C391.2,236.3,389.5,236.9,387.8,238.2z M387.3,234.6c-0.5-2.2-1.1-4.4-1.6-6.5c-0.1,0-0.3,0.1-0.4,0.1
		C385.2,230.5,386.2,232.6,387.3,234.6z M364.6,225.1c-0.1,2.3,0.3,2.9,1.4,2.7C365.5,226.9,365,226,364.6,225.1z"/>
	<path class="st0" d="M366.7,232.9c-0.2-0.5-0.4-0.9-0.6-1.6c0.4,0.3,0.6,0.4,0.8,0.6l0,0c0.5,0.7,0.9,1.4,1.4,2.2
		c0.1,0,0.3-0.1,0.4-0.1c-0.1-0.5-0.1-1.1-0.3-1.5c-1.6-3.6-3-7.3-5.4-10.5c-0.6-0.8-0.3-1.5,0-2.3c0.3-0.6,0.1-1.6,1.3-1.6
		c0.3,0,0.6-0.5,0.9-0.7c1.1-0.9,2.2-1.9,3.4-2.9c0.5,0.7,0.9,1.2,1.2,1.8c0,0,0,0,0,0c1,5.9,2.2,11.8,4.9,17.2
		c-1.4,0.1-2.6,0.2-3.8,0.4c0,0,0,0,0,0c-1.2,0.3-2.3,0.6-3.5,0.9C367.1,234,366.9,233.4,366.7,232.9z"/>
	<path d="M370.8,233.7c1.2-0.1,2.4-0.2,3.8-0.4c-2.6-5.4-3.8-11.3-4.9-17.2c0.3,0.7,0.6,1.4,0.8,2.2c0.7,2.7,1.3,5.5,2,8.1
		c0.5,1.8,1.4,3.5,2,5.2c0.4,1,0.6,2,0.9,3.5c3.3,2.4,4.7,6.5,6.1,10.7c1.1,3.1,1.7,6.3,2.2,9.5c0,0.2,0.1,0.5,0.2,0.7
		c1,1.6,2.1,3.1,3.1,4.7c0.7,1,1.3,2,1.9,3.1c-3,0.6-4.5-0.2-5.2-2.9c-0.1-0.4-0.3-0.7-0.4-1.1c-0.2-0.9-0.7-1.3-1.7-1.2
		c-1.8,0.1-3.7-1.3-4.3-3c-0.2-0.4-0.4-0.8-0.4-1.2c-0.3-2.9-2-4.9-3.9-6.8c-1.5-1.5-2.9-3.1-4.2-4.8c-1.4-1.9-2-4-0.6-6.3
		c0.4-0.7,0.3-1.4-0.7-1.5c-0.1,0-0.2-0.3-0.3-0.4C368.5,234.2,369.7,233.9,370.8,233.7c-1.6,0.6-2,0.9-1.8,1.4
		c1.3-0.4,2.6-0.8,3.9-1.2c0-0.1,0-0.1,0-0.2C372.2,233.7,371.5,233.7,370.8,233.7z M383.2,257.7c0-0.4,0.2-0.7,0.1-1
		c-0.8-4.4-1.5-8.8-3.1-13.1c-1.1-3-2.5-5.7-4.9-7.8c-1.3-1.2-2-1.2-3.5-0.2c-0.1,0.1-0.3,0.1-0.5,0.2c0.1-0.3,0.1-0.5,0.1-0.8
		c-0.7,0.7-2,0.6-1.8,2c-0.9,0.2-1.6,1.8-1.1,2.9c1,2.2,2.2,4.3,4.4,5.7c2.4,1.6,4.3,3.7,5,6.7c0.3,1.1,0.7,2.3,1.1,3.4
		c0.5,1.5,1.5,2.2,3.1,2.2C382.5,257.7,382.8,257.7,383.2,257.7z"/>
	<path d="M327.1,227.4c6.5-0.9,11.4-3.9,14.1-10.1c0.8-1.8,1.5-3.5,2.5-5.2c-0.2,0.7-0.3,1.4-0.6,2c-1.2,2.6-2.3,5.3-3.7,7.8
		c-0.9,1.4-2.3,2.6-3.7,3.6C333,227.2,330.2,228.2,327.1,227.4C327.1,227.4,327.1,227.4,327.1,227.4z"/>
	<path d="M377.8,203.6c-0.4,0-0.8,0-1-0.1c-0.5-0.2-1-0.5-1.6-0.7c0.3-0.4,0.5-1,1-1.3c0.7-0.4,1.1,0.2,1.3,0.8
		C377.6,202.9,377.7,203.4,377.8,203.6z"/>
	<path class="st0" d="M251.3,186.4c0.6-6.5,2.4-12.6,6.1-18c2.1-3.1,4.5-6,7.3-8.5c2.5-2.2,4.8-4.6,7.6-6.6c6-4.2,12.8-6.5,19.8-7.8
		c3.7-0.7,7.6-0.6,11.4-0.6c4.3,0.1,8.6,0.7,12.8,1.9c2.8,0.8,5.8,1.4,8.6,2c3.7,0.8,7.2,2.1,10.2,4.4c0.1,0.1,0.3,0.3,0.3,0.3
		c-0.6,0.8,0.2,0.6,0.5,0.7c0.8,0.2,1.7,0.3,2.2,0.8c1.6,1.4,3.1,3.1,4.6,4.6c1.4,1.4,2.8,2.9,4.2,4.4c0.1,0.1,0.3,0.3,0.4,0.4
		c3.6,4.2,6.6,8.7,7.9,14.1c0.7,2.7,1.3,5.3,1.9,8c0.7,3.2-2.2,5.5-5.2,5.1c-0.3,0-0.7-0.1-1-0.2c-1-0.3-1.8-0.8-2.1-1.9
		c-1.2-5-3.7-9.5-7.3-13.1c-3.9-3.9-8.6-6.6-14.3-7.2c-5.8-0.7-11.6-0.8-17,1.5c-3.9,1.6-7.8,3.6-11.2,6.1c-2.3,1.7-4.1,4.3-5.6,6.8
		c-2,3.4-3.5,7.1-5.2,10.6c-0.4,0.8-0.9,1.5-1.4,2.2c-0.9,1-2,1.5-3.4,1.2c-3.7-0.7-7.3-1.6-11-2.1c-5.6-0.8-10.9-3-16.3-4.3
		c-1.2-0.3-2.3-0.9-3.4-1.4C251.3,189.1,251.2,187.8,251.3,186.4z M286.5,158.7c0.1,0.1,0.2,0.3,0.2,0.4c2.1-1.2,3.8-0.3,5.5,0.7
		c0.8,0.4,1.6,0.8,2.5,1.1c1.6,0.7,3.2,0.7,4.8,0.1c3.1-1.1,6.2-2.2,9.5-2.2c2.5,0,5-0.1,7.5-0.1c1.2,0,2-0.5,2.6-1.5
		c0.6-1,1.3-2,1.9-3c1-1.4,0.8-2-0.9-2.3c-1.8-0.3-3.7-0.3-5.5-0.5c-1.2-0.1-1.9,0.5-2.5,1.4c-0.6,1.2-1.2,2.4-1.8,3.6
		c-0.8-1.9-1.7-4-2.7-6.2c-2.4,0.3-4.9,0.5-7.3,0.8c1.4,2.2,2.8,4.2,4.1,6.2c-0.1,0.1-0.2,0.1-0.3,0.2c-2.6-1.4-5.2-2.8-7.8-4.2
		c-0.5-0.2-1.1-0.3-1.7-0.3c-2.9,0.1-4.8,2.1-6.8,3.9C287.3,157.5,286.9,158.1,286.5,158.7z M301.5,163.1c-0.4-0.7-0.6-1.4-0.9-1.5
		c-0.5-0.1-1.2,0.2-1.5,0.6c-0.7,0.6-0.7,1.4,0.3,1.9c0.5,0.3,1,0.6,1.5,0.9c0.2,0.1,0.4,0,0.8,0c-0.4-0.5-0.6-0.7-0.9-1.1
		c0.9,0.3,1.7,0.5,2.6,0.8c0-0.1,0.1-0.3,0.1-0.4C302.8,163.8,302.1,163.4,301.5,163.1z M314.6,159.9c0.2,0.8,0.3,1.5,0.5,2
		c0.2,0.5,0.6,1.2,1,1.2c0.5,0.1,1-0.4,1.5-0.7c0-0.1-0.1-0.2-0.1-0.3c-0.4,0-0.9,0.1-1.7,0.2c0.6-0.7,1-1.1,1.6-1.7
		c-0.6,0.2-1,0.3-1.7,0.6c0.3-0.7,0.5-1.2,0.8-1.9C315.7,159.6,315.2,159.7,314.6,159.9z M306.5,163.7c0.9,0.7,1.7,0.5,2-0.1
		c1-1.6-0.8-1.7-1.6-2.4c0.5-0.2,0.8-0.3,1.1-0.4c0-0.1,0-0.3,0-0.4c-0.4,0-0.8-0.1-1.2,0c-0.3,0.2-0.8,0.6-0.8,0.9
		c0,0.3,0.5,0.6,0.8,0.8c0.4,0.3,0.8,0.5,1.5,0.9C307.6,163.3,307.1,163.5,306.5,163.7z M304.3,163.3c0.6-0.5,1-0.7,1.4-1
		c-0.1-0.1-0.1-0.2-0.2-0.2c-0.4,0.1-0.9,0.2-1.7,0.5c0.2-0.7,0.3-1.3,0.5-2c-0.6,0.3-1.2,0.6-1.7,0.8c0.3,0.8,0.6,1.3,0.9,1.9
		c0.4,1.1,1.4,1.3,2.1,0.3C305.2,163.5,304.9,163.5,304.3,163.3z M312.4,160.4c-0.1,0.1-0.3,0.1-0.4,0.2c0.2,0.5,0.2,1.1,0.5,1.6
		c0.3,0.4,0.8,0.7,1.2,1.1c0.3-0.4,0.7-0.8,0.8-1.3c0.1-0.7,0.1-1.4-0.8-1.9c0,0.9,0,1.5,0,2.1c-0.4-0.3-0.5-0.6-0.7-0.9
		C312.8,160.9,312.6,160.6,312.4,160.4z M312,162.1c-1.9,0.6-2.1,0.4-1.8-1.3c0-0.2-0.1-0.5-0.2-0.5c-0.2,0-0.6,0.1-0.7,0.2
		c-0.5,0.6-0.1,2.2,0.6,2.6C310.8,163.6,311.4,163.1,312,162.1z"/>
	<path class="st0" d="M192.7,151.7c-0.8-0.2-1.4-0.4-2.1-0.5c0,0,0-0.1,0-0.1c0.6,0.1,1.2,0.1,1.8,0.2c1.9,0.3,2.2,0.2,2.8-1.6
		c2.7,1.5,4.1,4.6,3.4,7.5c-0.5,2-1.6,3.6-3,5.2c-3.3,3.7-7.4,5.4-12.1,6.3c-8,1.5-16,2.2-24.1,1.9c-9.4-0.4-18.7-0.8-28.1-1.4
		c-6.2-0.4-12.4-1.4-18.6-1.8c-9.7-0.7-19.2-2.9-28.7-4.9c-9.7-2-18.8-5.5-27.9-9.1c-5.7-2.2-11.1-5.3-15.7-9.4
		c-3.3-2.9-5.4-6.6-5.9-11c-0.1-1.2,0.2-2.4,0.4-3.6c0.3-1.7,1.5-2.6,3-3.2c0.5,0.3,0.9,0.8,1.4,1c1.4,0.6,2.8,0.5,3.9-0.6
		c0.3-0.3,0.7-0.6,1-1c1.4-2.2,3.5-3,6-3.4c7-1.1,14.1-1.6,21.2-1.8c1.4,0,2.8,0.6,4.3,0.8c4.5,0.6,8.9,1.4,13.4,1.5
		c6.6,0.2,13.1,1.4,19.6,2.7c3.8,0.7,7.6,1.3,11.4,2.1c3.8,0.8,7.6,1.8,11.4,2.7c8,2,16,3.9,24,6.1c3.3,0.9,6.6,2.1,9.9,3.3
		c4,1.5,8.2,2.1,12.3,2.8c2.1,0.4,4,1,6,1.7c0.4,0.1,0.9,0.6,1.1,1c1.2,1.8,2.3,3.6,3.4,5.4C189.5,152,190.6,152.4,192.7,151.7z
		 M185.9,154.7c-0.6-0.7-0.9-1.5-1.5-2c-1.4-1.2-2.9-2.4-4.5-3.3c-5.3-2.9-10.7-5.6-16.5-7.2c-9.4-2.6-18.8-5.1-28.2-7.6
		c-10.7-2.8-21.4-6-32.4-7.3c-1.9-0.2-3.8-0.6-5.8-0.8c-5.3-0.7-10.5-1.3-15.8-2c-5.1-0.6-10.2-1.1-15.4-0.7
		c-1.5,0.1-3.1,0.2-4.6,0.3c0-0.1,0-0.1,0-0.2c0.4-0.1,0.9-0.2,1.3-0.3c-2.4,0.2-4.7,0.4-7,0.9c-4.6,0.9-8.8,2.6-11.7,6.5
		c-0.5,0.6-1,1.2-1.5,1.9c2-1.8,3.8-3.8,5.9-5.4c1.7-1.3,6.3-2.5,7.1-2.4c-1.4,0.9-3.1,1.9-4.7,3.1c-3,2.1-5.3,4.5-4.7,8.6
		c-0.1,0-0.2,0.1-0.3,0.1c-0.6-1-1.3-2-1.9-3c0,1.5,0.6,2.8,1.8,3.6c3.8,2.4,7.5,5.1,11.6,6.9c4.7,2.1,9.6,3.5,14.5,5.2
		c13,4.4,26.3,7.1,39.9,8.6c11.1,1.2,22.2,2.2,33.3,3c6,0.4,12.1,0.7,18.1,0.4c7.3-0.4,14.3-2.5,21.2-4.7c1.9-0.6,3.3-2,4.7-3.2
		c0.3-0.3,0.4-0.7,0.6-1c-0.1-0.1-0.2-0.1-0.3-0.2C187.9,153.2,186.9,154,185.9,154.7z M38.6,134.6c1.3,2.3,2.7,4.6,4.8,6.2
		c3.7,2.8,7.5,5.6,11.9,7.3c0.8,0.3,1.5,0.9,2.3,1.3c1.1,0.6,2.1,1.4,3.3,1.8c4.4,1.4,8.7,2.9,13.2,4c9.1,2.3,18.3,4.3,27.6,5.4
		c4.6,0.6,9.3,0.9,13.9,1.7c9.9,1.7,19.8,2.4,29.8,2.4c5,0,10-0.4,15-0.4c7,0,13.6-1.7,20.3-3.4c1.2-0.3,2.3-1,3.5-1.5
		c0.3-0.2,0.6-0.5,0.7-0.5c-2.4,0.8-5.1,1.8-7.7,2.4c-3.8,0.9-7.6,1.9-11.5,2.2c-8.5,0.5-17,0.6-25.5,0.7c-3.5,0-7.1-0.2-10.6-0.5
		c-4.8-0.5-9.6-1.2-14.4-1.9c-7.4-1-14.9-1.7-22.3-3.1c-11.9-2.2-23.7-5.4-34.8-10.2c-3.1-1.3-6-3.1-9-4.6c-1.8-0.9-3.6-2-4.8-3.7
		c-0.1-0.1-0.2-0.1-0.3-0.2c0.1,0.3,0.2,0.5,0.2,0.7c-0.1,0.1-0.2,0.2-0.3,0.2C42,138.7,40.3,136.7,38.6,134.6z"/>
	<path class="st0" d="M213.7,194.2c2.1-3.6,4-7,5.9-10.3c0.3-0.5,0.7-0.9,0.9-1.4c1.2-2.8,3.7-3.7,6.4-4c6.1-0.8,12-2.7,17.7-5
		c2.5-1,4.8-5.8,4.1-8.3c-0.2-0.7-0.7-1.3-1.2-1.8c-1.9-1.8-4.3-2.3-6.8-2.6c-1.4-0.2-2.8-0.4-4.5-0.6c1.7-1.9,2.6-4,4.8-4.9
		c1-0.4,1.7-1.4,2.5-2c1.1-0.8,2.2-1.7,3.4-2.1c7.4-2.6,14.2-6.6,21.7-8.8c9.7-2.8,19.7-4.3,29.8-4.1c6.9,0.1,13.6,1.6,20,4.3
		c1.4,0.6,2.9,0.9,4.2,1.5c1.1,0.5,2.2,1.1,3.3,1.7c0,0,0.1-0.2,0.2-0.5c0.6,0.2,1.2,0.4,1.8,0.6c0,0,0.1-0.1,0.1-0.1
		c-0.4-0.3-0.8-0.7-1.2-1c0.4-1.2,1.3-1.4,2.5-1.4c-0.1,0.5-0.2,1-0.3,1.7c0.4-0.1,1-0.1,1-0.3c0.6-1.7,2.3-2.1,3.6-2.7
		c6.5-2.5,12.9-2.6,19,1.2c0.1,0.1,0.2,0.1,0.4,0.2c-0.7,0.6-1.4,1-1.9,1.6c-0.6,0.7-1.1,1.5-1.6,2.2c-0.2,0.3-0.6,0.7-0.9,0.7
		c-2,0.2-4.1,0.3-6.1,0.4c-0.7,0-1.4,0-2.3,0c2.5-0.9,5.1-1,7.1-2.7c0-0.2-0.1-0.3-0.1-0.5c-1.1,0.1-2.3,0.1-3.4,0.3
		c-2.8,0.4-5.6,1.1-8.4,1.3c-1,0.1-2.1-0.6-3.1-1c-0.8-0.4-1.6-0.8-2.8,0c0.5,0.4,0.9,0.9,1.5,1.1c3.9,1.5,7.8,2.4,12.1,2.3
		c3.6-0.1,7.1-0.6,10.4-2c1.5-0.6,3.2-0.6,4.6-1.8c0.7-0.6,1.7-0.6,2.7,0.1c1.3,1,2.8,1.7,4.4,2.6c-0.4,0.3-0.8,0.5-1.3,0.8
		c-0.1-1.1-0.6-0.8-1.1-0.5c-2,1.1-4,2.3-6,3.3c-0.9,0.5-2,0.7-3,0.9c-3.2,0.7-6.5,0.3-9.8,0.2c-0.9,0-1.8-0.2-2.7-0.1
		c-1.8,0.2-3.3-0.3-4.7-1.5c-0.5-0.4-1.3-0.6-1.9-0.9c-0.1,0.1-0.1,0.2-0.2,0.3c0.7,0.6,1.4,1.2,2.1,1.7c-0.1,0.1-0.1,0.2-0.2,0.4
		c-2.1-0.9-4.3-2-6.4-2.8c-2.2-0.8-4.5-1.5-6.8-2.5c1.6,0,3.2,0,4.8,0c0-0.1,0.1-0.1,0.1-0.2c-0.4-0.2-0.8-0.5-1.3-0.6
		c-0.9-0.1-2-0.2-2.8,0c-2.8,0.9-5.4-0.4-8-0.9c-2.9-0.5-5.7-1.4-8.6-1.5c-4.6-0.2-9.2-0.2-13.8,0.2c-3,0.3-5.9,1.2-8.8,2.1
		c-2,0.6-3.9,1.4-5.8,2.3c-1.4,0.6-2.8,1.5-4.1,2.3c-0.3,0.2-0.5,0.5-0.8,0.6c-4.9,1.7-8.1,5.7-11.6,9.2c-4.6,4.4-7.9,9.7-10.3,15.7
		c-1.6,4.1-1.7,8.4-1.9,12.7c0,0.6,0.3,1.3,0.4,2c-1.1,0.2-2.1,0.4-3.2,0.7c-3.8,0.9-7.2,2.8-10.6,4.5c-3.4,1.7-6.9,2.9-10.7,3.5
		c-3.6,0.6-7.1,1.4-10.6,2.1c-1,0.2-1.3,0.9-1,1.8c0.4,1.4,1.3,2.4,2.5,3.2c1,0.6,2,1.3,3.1,1.6c3.5,1.2,7.1,2.4,10.7,3.5
		c1.7,0.5,3.3,0.2,4.8-0.7c3-2.1,5.9-4.2,8.9-6.3c0.4-0.3,0.9-0.7,1.4-0.9c-1.5,4.3-1.9,8.7-1.8,13.3c-7.7-1.4-15.3-2.7-22.9-4
		c-3-0.5-5.7-2-7.9-4.1c-3-3-3.8-6.3-2-10.5c0.5-1,0.9-2.1,1.4-3.1c0.2-0.3,0.7-0.6,1.1-0.7c4.2-0.9,8.5-1.8,12.7-2.6
		c5.6-1.1,11.3-2.1,16.9-3.4c2-0.4,3.7-1.6,5.6-2.5c0.3-0.1,0.5-0.6,0.7-0.9c-0.1-0.1-0.2-0.1-0.2-0.2c-0.5,0.3-1,0.5-1.4,0.8
		c-3.4,2.2-7.3,2.9-11.2,3.7c-7.5,1.5-15.1,2.9-22.6,4.4C214.3,194.1,214.2,194.1,213.7,194.2z"/>
	<path class="st0" d="M359.4,132.7c1,1.5,4.1,2.3,5.6,1.4c0.3-0.2,0.5-0.6,0.6-0.9c0.8-1.7,1.6-3.4,2.4-5.1c0.2-0.4,0.6-0.9,1.1-1
		c1.9-0.7,3.8-1.5,5.7-1.9c4.7-1,9.2-2.4,13.4-4.6c1.5-0.8,3.2-1.3,4.9-1.8c8.4-2.7,16.7-5.4,25.1-7.9c3.9-1.2,7.9-2,11.9-3
		c3.4-0.9,6.7-1.9,10.1-2.6c2.8-0.6,5.8-0.7,8.7-1.2c2.9-0.5,5.8-1.3,8.7-1.8c1.7-0.3,3.5-0.5,5.3-0.5c5,0.1,10.1,0.4,15.1,0.7
		c0.6,0,1.2,0.3,1.7,0.7c0.9,0.6,1.7,1.3,2.6,1.9c1.7,1.1,2.7,1,4.1-0.4c3.4,0.7,4.9,5.4,4.5,8.3c-0.7,5-4,8-7.7,10.6
		c-7.7,5.4-16.1,9.2-25,12.2c-6.3,2.1-12.7,4.1-19.3,5.5c-8.7,1.7-17.4,3.4-26.2,4.7c-8.5,1.3-17.1,2.9-25.8,3c-5,0.1-10-0.2-15-0.4
		c-3.6-0.2-6.9-1.4-9.8-3.5c-1.7-1.2-3.5-2.5-4.5-4.5C356.2,137.3,356.7,134.9,359.4,132.7z M483.4,112.5c-0.1,0-0.2,0-0.3,0
		c-0.4-1.9-1.5-3.5-3.1-4.5c-1.8-1.1-3.7-2.1-5.6-3.1c-0.6-0.3-1.3-0.8-1.9-0.9c-2.2-0.1-4.5-0.1-6.7,0c-1.5,0-2.9-0.1-4.4,0.1
		c-5.6,0.9-11.2,1.8-16.8,2.8c-3.8,0.7-7.7,1.3-11.5,2.2c-3,0.7-6,1.7-9,2.7c-10,3.3-20.1,6.8-30.1,10.1c-6.7,2.2-13,4.9-18.9,8.7
		c-2.4,1.5-4.7,3.1-6.1,5.9c-1.1-0.6-2.2-1.2-3.3-1.9c-0.1,0.1-0.1,0.2-0.2,0.3c0.2,0.2,0.3,0.5,0.5,0.7c1.3,0.8,2.6,1.9,4.1,2.3
		c6.2,1.7,12.6,2.5,19.1,2.7c4.5,0.1,9.2-0.4,13.7-1.1c5.9-0.8,11.7-2.1,17.5-3.2c8.6-1.5,17.2-2.8,25.7-5.1
		c10.1-2.7,19.7-6.7,29.1-11.4c3.3-1.6,5.8-4.2,8.4-6.7c0.8-0.7,0.8-1.7,0.5-2.8C483.8,111.1,483.6,111.8,483.4,112.5z M370.4,139.7
		c0,0.1,0,0.2-0.1,0.2c0.9,0.4,1.8,0.9,2.7,1c3.6,0.6,7.2,1.4,10.9,1.6c4.8,0.2,9.6,0.2,14.3-0.1c7.5-0.6,15-1.3,22.5-2.4
		c4.4-0.6,8.8-1.9,13.2-2.8c9.2-2,18.6-3.7,27.5-7.1c2.5-0.9,5.1-1.5,7.5-2.6c3.3-1.5,6.7-2.9,9.7-5.4c2.5-2,5-3.9,7.2-6.2
		c1.4-1.4,1.9-3.3,2.3-5.2c-0.3,0.6-0.6,1.2-0.8,1.7c-0.3,0.6-0.5,1.2-0.8,1.7c-0.2,0.4-0.6,0.7-0.9,1c-0.6,0.4-0.8,1.1-1.3,1.5
		c-1.9,1.6-3.6,3.4-5.7,4.6c-4.5,2.5-9.1,4.9-13.8,6.8c-4.7,2-9.6,3.6-14.6,5c-5.3,1.5-10.8,2.5-16.3,3.7c-4.3,1-8.6,2.2-12.9,2.9
		c-8.8,1.4-17.7,2.2-26.6,2.6c-6.4,0.3-12.8-0.2-19.1-1.3C373.6,140.7,372,140.1,370.4,139.7z"/>
	<path class="st0" d="M323,222.3c-2.5,0.2-5,0-7.3-1.5c-0.4-0.2-0.8-0.4-1.1-0.7c-4-4.4-6.5-9.4-5.6-15.6c0.7-5,2.3-9.8,4.6-14.3
		c1.6-3.1,4.1-5.1,7.3-5.8c1.9-0.4,4.1,0.1,6.1,0.4c1.1,0.2,2.2,0.8,3.3,1.3c0.3,0.2,0.5,0.6,0.8,1c2.4,3.2,3,6.9,3.2,10.7
		c0.2,3.1,0.4,6.2,0.2,9.3c-0.1,2.4-0.6,4.8-1.2,7.1c-0.7,2.5-2.4,4.4-4.2,6.3C327.3,222.4,325.4,222.4,323,222.3z"/>
	<path class="st0" d="M316.1,182.9c-1.1,0.9-2.1,1.9-3.2,2.8c-2.1,1.6-3.4,3.8-4.1,6.3c-0.6,2-1.2,4.1-1.6,6.2
		c-0.2,0.8-0.5,0.9-1.2,0.9c-4.1-0.1-8-1.4-11.9-2.4c-0.9-0.2-1.8-0.4-2.8-0.7c0.3-1.3,0.6-2.7,0.9-4.2c1-5.6,4.4-9.6,8.5-13
		c4.2-3.4,9-5.9,14.4-6.8c8.2-1.4,15.8,0.5,22.6,5.5c0.1,0.1,0.3,0.2,0.4,0.3c0.9,1.1,2,2.1,2.8,3.3c2.5,3.8,4.4,7.8,5.3,12.3
		c0.3,1.5-0.1,2.8-0.4,4.2c-0.1,0.3-0.3,0.7-0.6,0.8c-1.4,0.9-2.9,1.7-4.4,2.6c-0.3-2-0.4-3.7-0.8-5.4c-1.6-7-8.1-13.1-16-13.6
		c-1.9-0.1-3.9-0.1-5.8,0C317.4,182.1,316.7,182.6,316.1,182.9L316.1,182.9z"/>
	<path class="st0" d="M44.9,123c-0.1,0.6,0,0.9-0.1,1c-0.6,0.7-1.1,1.3-1.7,1.9c-1.1,1.1-2.1,1.2-3.5,0.5c-1-0.5-0.6-1.5-0.6-2.3
		c0-0.5,0.4-1.1,0.8-1.6c0.7-0.9,1.4-1.9,2.3-2.7c3.3-3.3,6.9-5.9,11.7-6.3c7.3-0.6,14.6-1.5,21.9-0.7c11.4,1.2,22.9,2.4,34.3,3.8
		c12,1.4,23.7,4.1,35.2,7.7c8.2,2.5,16.4,5.1,24.4,8.2c5.9,2.3,12,4.4,17.3,7.9c1.5,1,3,2,4.2,3.3c0.8,0.9,1.1,2.2,1.7,3.3
		c0.2,0.4,0.4,0.7,0.6,1.1c0.3,0.5,0.7,0.9,0.8,1.4c0.2,0.7-0.1,1.2-0.9,1.1c-1.1-0.2-2.1-0.3-3.2-0.5c-0.3-0.1-0.7-0.4-0.9-0.6
		c-1.1-1.7-2.1-3.4-3.1-5.1c-0.2-0.3-0.4-0.6-0.7-0.8c-2.9-3.2-6.8-4.7-10.9-5.9c-3.2-0.9-6.5-1.8-9.7-2.8
		c-6.1-1.9-12.2-3.9-18.3-5.9c-6.5-2.1-12.9-4.6-19.5-6.3c-5.3-1.3-10.7-2.5-16.2-2.7c-2.4-0.1-4.5,0-6.7,0.7
		c-5.6,1.8-11.2,1.4-16.9,0.5c-4.5-0.7-9-0.9-13.5-1.5c-2.3-0.3-4.8-0.4-6.4-2.8c-0.7-1-2.1-1-3.2-0.7c-3.9,1-7.9,2.1-11.8,3.1
		c-2,0.5-3.8,1.3-5.4,2.8C46.4,122.6,45.5,122.8,44.9,123z"/>
	<path class="st0" d="M195.3,201.7c0.4-1.1,0.7-1.9,1-2.7c0.7-2.4,1.4-4.8,2.2-7.2c0.5-1.4,0.9-2.8,1.6-4c1.3-2.3,2.2-4.8,2.8-7.4
		c0.6-2.8,1.9-5.3,3.3-7.7c0.2-0.4,0.8-0.8,1.3-0.9c1.8-0.3,3.7-0.6,5.5-0.8c1-0.2,1.5,0.3,1.4,1.2c-0.2,1.8,0.8,2.9,2.3,3.8
		c2.2,1.2,4.3,2.3,6.9,2.1c0.2,0,0.5-0.1,0.8-0.4c-0.6-0.1-1.2-0.3-1.9-0.3c-2.5-0.2-4.6-1.4-6.5-2.9c-0.6-0.5-0.8-1.7-1-2.6
		c0-0.1,0.5-0.6,0.8-0.6c1.1-0.2,2.3-0.2,3.4-0.3c3.1-0.2,6.2-0.3,9.3-0.5c0.9,0,1.7,0.1,2.6,0.1c3.4,0.1,6.7,0.1,10.1,0.1
		c0.9,0,1.8-0.4,2.7-0.7c0,0.1,0.1,0.2,0.1,0.3c-1.1,0.4-2.1,0.8-3.3,1.3c1.7,0.6,4-0.6,4.5-2.1c0.6-1.8-0.2-3.6-2.2-3.9
		c-2.7-0.5-5.5-0.7-8.2-0.9c-1.4-0.1-2.8-0.2-4.1-0.3c0.2-1.2,0.3-2.3,0.4-3.4c0-0.2,0.2-0.5,0.4-0.5c1.4-0.6,2.7-0.6,4.2-0.2
		c1.5,0.5,3.2,0.5,4.7,0.9c1.9,0.5,3.9,0.9,5.7,1.8c2.4,1.3,2.9,3.3,1.7,5.8c-1.1,2.5-2.7,4.1-5.5,5.1c-5.4,2-10.8,3.5-16.5,4.3
		c-2.4,0.3-4.5,1.3-5.6,3.8c-0.2,0.5-0.5,1-0.9,1.4c-2.7,3.1-3.9,7-5.8,10.5c-0.1,0.3-0.4,0.5-0.7,0.6c-2.9,1.2-5.9,2.4-8.8,3.7
		c-2.3,1-4.5,2-6.8,3C196.7,201.4,196.2,201.5,195.3,201.7z"/>
	<path class="st0" d="M282.7,137.9c-3.1,0.6-6.1,1.2-9,1.9c-5.9,1.4-11.6,3.2-17,6c-2.8,1.4-5.8,2.3-8.6,3.6
		c-5,2.3-9.7,4.9-12.3,9.8c-1.7,0.1-3.3,0.2-5,0.3c-0.9-1.7-2.3-2.2-4.3-1.6c-0.4,0.1-1-0.2-1.5-0.5c-1.5-0.7-3-1.4-4.7-2.1
		c2.3-1.5,4.6-2.9,7-4.5c-0.5-0.2-0.9-0.3-1.6-0.6c1.7-1.4,3.2-2.7,4.8-3.7c6-3.9,12.4-6.9,19.2-9.1c5.7-1.8,11.4-3.7,17.4-4.6
		c2-0.3,4.1,0.2,6.1,0.5C276.7,134,279.9,135.5,282.7,137.9z"/>
	<path class="st0" d="M274.2,221.1c1,2.1,1.9,4.2,3.1,6.2c2,3.3,6.1,4.1,9.4,2.1c0.5-0.3,1.2-0.5,1.9-0.6c1.4-0.3,2.6-0.7,3-2.3
		c0.1-0.3,0.3-0.6,0.5-0.9c1.7,0.1,3.3,0.4,4.8-0.6c0.2-0.1,0.3-0.5,0.3-0.6c-1.5,0.3-3,0.7-4.8,1c0.1-1,0.3-1.6,0.2-2.2
		c-0.4-2.2-0.7-4.4-1.4-6.5c-0.3-0.8-1.5-1.3-2.3-1.9c-0.3-0.2-0.5-0.4-0.8-0.6c0.3-0.2,0.5-0.7,0.8-0.7c1.1-0.2,2.3-0.3,3.4-0.3
		c0.3,0,0.8,0.5,1,0.9c0.4,1.1,1,2.1,0.5,3.3c-0.1,0.1,0.2,0.6,0.2,0.6c0.9-0.3,0.8,0.5,1.1,0.9c0.7,1,1.4,1.9,2,2.9
		c0.5,1,1.5,1.5,2.3,2.3c1.5,1.6,3.7,2.1,5.7,2.7c3,1,6.1,2,9.3,2c0.5,0,1.1,0.2,1.6,0.5c-0.4,0.1-0.8,0.3-1.1,0.4
		c-4.5,0.8-9.1,1.6-13.6,2.4c-7.6,1.4-15.3,1-22.9,0.8c-7.4-0.2-14.6-1.8-21.7-3.8c-0.4-0.1-0.8-0.3-1.2-0.4c-1.7-0.4-1.7-0.4-1.5-2
		c0.2-1.4,0.3-2.8,0.7-4.1c0.6-2,1.3-4,2.3-5.9c0.9-1.7,2.5-2.7,4.4-3c0.4-0.1,1,0.2,1.4,0.4c1.1,0.5,2.1,1.2,3.1,1.6
		c2.5,1,4.7,2.4,6.6,4.3C273.1,220.5,273.7,220.8,274.2,221.1z"/>
	<path class="st0" d="M259.4,213c0.6-0.5,1.1-0.8,1.4-1.2c0.1-0.2-0.2-0.9-0.4-1c-0.4,0-0.9,0.2-1.4,0.3c-1.7-1.9-1.4-5.4,0.8-7.8
		c-1.4,0.2-2.2,2-2.6,5.4c0-0.9-0.2-1.8-0.1-2.7c0.1-0.9,0.4-1.8,0.6-2.8c1.7-0.8,4-0.2,5.5,1.4c0.6,0.6,1.2,1.2,1.9,1.8
		c1.4,1.1,3,2.1,4.3,3.3c1.9,1.9,4.2,2.5,6.7,3c1.3,0.3,2.5,0.8,3.8,1.3c-1.4,1.7-3.1,2.7-4.9,3.6c-0.7,0.4-1,0.8-0.6,1.4
		c2.5-1.6,5.1-2.9,6.9-5.6c-7.6-0.9-13.1-5.3-18.5-10c0-0.1,0.1-0.3,0.1-0.4c2.5,0.5,5,1,7.5,1.6c2.1,0.5,4.1,1.3,6.3,1.7
		c2.6,0.6,5.3,1,7.9,1.3c1.5,0.2,2.9-0.4,4.1-1.3c0.5-0.4,1-0.8,1.6-1.3c0.1,0.7,0.3,1.4,0.4,2.1c-0.6-0.2-1-0.3-1.4-0.4
		c-0.1,0.1-0.2,0.2-0.2,0.3c0.8,0.7,1.6,1.4,2.4,2c-0.1,0.1-0.1,0.2-0.2,0.3c-0.8-0.5-1.7-1-2.5-1.5c-0.1,0.1-0.2,0.3-0.3,0.4
		c1.8,0.8,2.8,2.2,3.3,4c-1.1,0.2-2.4,0-3.1,0.6c-1.8,1.7-3.5,0.9-5.4,0.3c-0.5-0.2-1.1-0.1-1.7-0.1c0,0.2,0,0.4-0.1,0.6
		c1.6,0.4,3.1,0.9,4.7,1.1c2,0.2,3.8,1.6,4.5,3.4c0.7,1.7,1,3.5,0.8,5.3c-0.2,1.5,0,3.2-1.6,4.1c-0.7,0.4-1.5,0.5-2.3,0.7
		c-0.5,0.2-1.2,0.2-1.6,0.5c-0.9,0.8-1.9,0.9-3,0.9c3.3-1.2,3.9-4.3,4.5-7.1c0.4-1.9,0.4-3.9-0.8-5.6c1.3,3.4,0.4,6.5-1,9.7
		c-0.8,1.8-2.2,2.7-4,2.9c-0.8,0.1-1.9-0.4-2.5-1c-1-0.9-1.7-2.2-2.6-3.3c0.1-0.1,0.2-0.2,0.2-0.2c0.2,0.1,0.4,0.3,0.6,0.4
		c0.8,0.4,1.4,0.1,1.3-0.8c-0.1-0.8-0.4-1.7-0.7-2.5c-0.1-0.3-0.7-0.4-1.1-0.6c0.5,1.2,0.9,2.1,1.3,3.1c-0.1,0.1-0.3,0.2-0.4,0.2
		c-0.8-0.6-1.6-1.1-1.6-2.3c0-0.2-0.1-0.5-0.2-0.7c-0.5-0.7-1.1-1.5-1.8-2.3c-0.1,0.4-0.2,0.7-0.3,0.9c-1.9-1.5-3.9-3.1-5.8-4.6
		c-0.4-0.3-0.8-0.6-1.5-0.5c-0.7,0.1-1.6-0.4-2.3-0.8c-1.2-0.8-2.5-1.2-3.9-0.8C260.2,213.6,259.7,213.2,259.4,213z M260.3,206.3
		c0.6,0,1,0,1.3-0.1c0.3-0.1,0.6-0.5,0.9-0.7c-0.3-0.4-0.6-0.9-1-1.1c-0.2-0.1-0.9,0.1-1,0.4c-0.3,0.6-0.4,1.3-0.6,1.9
		c0.1,0,0.1,0.1,0.2,0.1C260.1,206.6,260.3,206.3,260.3,206.3z"/>
	<path class="st0" d="M466,95.7c2.2,0.2,5.4,0.2,8.5,0.8c4,0.8,7.3,3.2,10.2,5.9c0.5,0.5,0.9,1.7,0.6,2.1c-0.5,0.8-1.6,0.8-2.4,0.1
		c-0.9-0.6-1.6-1.4-2.4-2.1c-0.1-0.1-0.2-0.2-0.4-0.3c-2.5-1-4.9-2.3-7.7-2.6c-2.3-0.3-4.6-0.9-6.9-1.2c-0.7-0.1-1.5-0.2-2.2-0.1
		c-0.4,0-1.1,0.3-1.2,0.6c-0.8,2-2.7,2.1-4.3,2.4c-4.8,0.9-9.7,1.6-14.6,2.6c-2.6,0.5-5.1,0.1-7.6-0.2c-1.3-0.2-2.7-0.7-4-0.6
		c-3,0.3-6.1,0.7-9.1,1.3c-8,1.5-15.3,5-22.7,8c-2.2,0.9-4.4,1.7-6.6,2.6c-6.8,2.6-13.5,5.1-20.3,7.7c-2.2,0.8-3.8,2.5-5.3,4.3
		c-0.9,1.1-1.2,2.5-1.8,3.8c-0.7,1.6-3,2.9-4.7,2.6c-0.7-0.1-1-1.2-0.3-1.8c0.6-0.6,0.6-1.3,0.8-2c0.3-1,0.8-2.1,1.5-2.9
		c2.4-2.6,5.5-4.4,8.7-5.9c7.4-3.7,14.9-7.3,22.7-10.1c12.6-4.6,25.4-8.6,38.8-10.7c7.8-1.2,15.6-2.6,23.4-3.8
		C459.4,95.8,462.2,95.9,466,95.7z"/>
	<path class="st0" d="M255.4,198.6c-1.2,0-2.1,0-3.1,0c-3.1-0.1-4.4,0.7-5.7,3.6c-0.2,0.5-0.6,1.1-1.1,1.4c-2.7,2-5.4,4-8.1,6
		c-2.7,2-5.5,2.5-8.7,1.3c-3.7-1.4-7.6-2.1-11-4.3c-1-0.6-1.8-1.5-2.4-2.5c-0.7-1.1-0.4-1.5,0.8-1.8c4.3-0.9,8.6-1.6,12.8-2.6
		c2.7-0.7,5.4-1.8,7.9-3c4-1.8,7.8-4,12.1-4.9c0.5-0.1,1.1-0.3,1.6-0.3c0.3,0,0.6,0.5,0.8,0.8c0.1,0.1-0.1,0.3,0,0.4
		C252.8,194.7,254.1,196.5,255.4,198.6z"/>
	<path class="st0" d="M250.2,239.8c0.7-1.6,1.3-3.2,2-4.8c0.1,0,0.1,0,0.2,0.1c-0.4,1.9-0.8,3.7-1.2,5.8c-2.7-1-5.4-2.8-8.4-0.7
		c-0.1-0.1-0.2-0.3-0.3-0.4c0.3-1,0.6-2.1,0.8-3.1c0.3-1.6,0.6-3.2,0.7-4.9c0.4-4.8,0.7-9.6,1-14.4c0.1-1.3-0.2-2.6-0.2-3.8
		c0-3.4,0.8-6.7,2.2-9.8c0.1-0.3,0.3-0.6,0.6-0.7c2.2-1.1,4.3-2.2,6.5-3.3c0.1,0,0.2,0,0.4,0c-0.2,0.2-0.4,0.4-0.8,0.9
		c2.5-0.9,3.8,0.7,5.4,1.6c-2.9,0.5-4.2,2.3-3.5,5.2c0.5,2.1,1.1,4.1,1.7,6.3c-3,4-3.9,9.1-5.3,14c-1,3.3-1.5,6.8-2.1,10.1
		c-0.1,0.6,0,1.3,0,2C249.9,239.8,250,239.8,250.2,239.8z"/>
	<path class="st0" d="M196,202.6c5.4-2.5,10.8-5,16.1-7.4c0.1,0.1,0.2,0.2,0.3,0.2c-0.3,0.7-0.6,1.4-1,2c-1.1,2.2-1.9,4.4-1.3,6.8
		c0.6,2.3,1.8,4.3,3.7,5.9c3.6,2.9,8,3.8,12.4,4.5c5,0.8,10,1.6,14.9,2.4c1,0.2,2,0.5,3.1,0.7c-0.2,2-0.3,3.8-0.5,5.7
		c-0.6,0-1.1,0.1-1.7,0c-4.4-0.7-8.8-1.2-12.9-3.2c-0.8-0.4-1.6-0.7-2.5-0.8c-3.1-0.5-5.1-2.6-7.4-4.6c-2.7-2.3-5.5-4.9-9.5-5.1
		c-1.6-0.1-2.9,0.4-3.8,1.7c-0.7,1-1.4,2-2.1,3c-0.7,1-2,1.2-2.8,0.1c-0.4-0.5-0.7-1.1-0.9-1.8c-0.7-2.2-1.2-4.6-2-6.8
		C197.6,204.9,196.7,203.7,196,202.6z"/>
	<path class="st0" d="M226.8,160.7c-0.7,0.2-1.4,0.4-2.1,0.6c-0.3,0.1-0.5,0.3-0.7,0.4c-1.1,0.9-2.3,1.2-3.8,1
		c-3.1-0.4-6.2-0.4-9.3-0.6c-0.5,0-0.9,0.1-1.4,0.4c2,1.6,4.4,1.8,6.7,2.3c-2.7,0.4-5.3,0.9-8,0.4c-0.2,0-0.5-0.2-0.5-0.4
		c-0.3-1.7-1.7-2.4-3-3.2c-0.4-0.3-0.8-0.5-1.5-1.1c2-1.2,3.6-2.4,5.5-3.2c5.6-2.2,11.2-1.8,16.6,1c0.5,0.2,0.8,0.8,1.2,1.2
		c0.3,0.2,0.6,0.4,0.9,0.6c0.1-0.1,0.2-0.2,0.3-0.3c-0.1-0.5-0.3-1-0.4-1.5c1.6-0.3,2.2,0.1,2.7,1.5c-0.5,0.2-1,0.5-1.5,0.7
		c0,0.1,0,0.1,0,0.2c0.5,0,1.1,0,1.7,0c0.4,1.4-0.2,2.6-1.2,3.4c-1.2,1-2.6,1.8-3.7,2.8c-2.4,2.2-5.4,1.8-8.3,2.3
		c-1.9,0.4-3.9,0.4-5.7,0.8c-2.5,0.6-4.9,0.6-7.4,0.4c-1.6-0.2-3.1-0.7-4.6-1.2c-1.8-0.7-3.5-1.6-5.2-2.4c-0.6-0.3-1-0.3-0.8,0.7
		c-0.6-0.3-1.1-0.5-1.6-0.7c1.7-1.4,3.2-2.8,4.9-3.8c0.6-0.3,1.7,0.2,2.5,0.4c1,0.3,1.9,0.7,2.9,0.9c0.9,0.3,2,0.3,2.9,0.7
		c3.2,1.2,6.5,0.8,9.8,0.7c4.1-0.2,7.6-1.7,11.1-3.5c0.5-0.3,1-0.8,1.5-1.2C227,161.1,226.9,160.9,226.8,160.7z"/>
	<path class="st0" d="M249.7,243.7c-0.7,0.2-0.9,0.3-1.1,0.4c1.8,0,1.8,1.4,2.1,2.5c0.9,2.9,0.1,5.6-1.3,8.2
		c-1.3,2.3-2.7,4.5-4.1,6.8c-1.3,2.1-1.8,4.5-2,7c0,0.5,0,1,0,1.5c-0.7-1-1.3-2.2-2.3-3c-1.1-0.9-2.4-0.5-3.7,0.3
		c0.1-1.6,0.1-3.1,0.3-4.5c0.4-3.9,0.7-7.8,1.5-11.6c0.5-2.6,1.8-5,2.8-7.5c0.2-0.6,0.7-1.1,1.1-1.5c1-1.1,1.6-1.1,2.7-0.2
		c0.3,0.3,0.7,0.5,1,0.7c0.1-0.1,0.2-0.2,0.3-0.2c-0.3-0.4-0.6-0.7-0.8-1.1c0.1-0.1,0.1-0.1,0.2-0.2
		C247.3,242,248.4,242.7,249.7,243.7z"/>
	<path class="st0" d="M203.5,238.3c-0.3,0.6-0.7,1.1-1,1.8c-1.2-0.6-2.3-1.3-3.5-1.6c-1.2-0.3-2.5-0.1-3.8-0.1
		c0.2-0.6,0.4-1.3,0.7-1.9c0.7-1.6,1.7-3.1,2.3-4.7c1.2-3.2,2.3-6.5,3.4-9.8c0.5-1.4,0.7-2.9,1.2-4.4c0.2-0.6,0.7-1.1,1.2-1.9
		c0-0.2,0-0.6,0.2-1c0.6-0.9,1.3-1.8,2-2.6c1.6-2,3.1-2,5.4-1.4c1.4,0.4,2.7,1.2,4,2c-3.6,0.6-4.3,2.7-2.9,7.7
		c-3.6,3.2-5.8,7.4-8,11.5c-0.9,1.8-1.8,3.6-2.7,5.4c-0.2,0.5-0.3,1.1-0.5,1.7c0.1,0.1,0.2,0.1,0.4,0.2c0.9-1.1,1.7-2.3,2.6-3.4
		c0,0,0.1,0,0.1,0c-0.2,0.5-0.3,1.1-0.5,1.6C203.9,237.7,203.7,238,203.5,238.3z"/>
	<path class="st0" d="M322.1,142.9c-12.3-6.2-25.2-6.9-38.1-5c-3.6-3.7-7.8-5.2-12.4-6c1-0.2,1.9-0.4,2.9-0.6c6-0.9,12-1.5,18.1-0.8
		c6.5,0.8,13.1,1.8,19.2,4.6c1.9,0.9,3.6,2.1,5.3,3.3c1.4,1,2.8,2.1,4.2,3.1c0.4,0.3,0.7,0.6,1,0.9
		C322.2,142.6,322.1,142.7,322.1,142.9z"/>
	<path class="st0" d="M253,192.8c4.8,1.2,9.5,2.4,14.1,3.7c4,1.1,7.9,2.6,11.9,3.7c2.3,0.6,4.7,0.6,7,0.8c1.1,0.1,1.7-0.7,2.1-1.6
		c0.7-1.7,1.4-3.3,2.1-5c0.1,0,0.2,0.1,0.3,0.1c-0.3,1.2-0.6,2.4-0.8,3.7c-0.1,0.4,0.1,0.8,0.2,1.2c0.8,5.1-1.5,7.9-6.7,7.5
		c-3.1-0.2-6-1.4-8.9-2.2c-3.8-1-7.7-1.4-11.4-2.6c-2.1-0.7-4-2.2-5.9-3.5C254.9,197.2,254.2,194.9,253,192.8z"/>
	<path class="st0" d="M110.3,124.7c0.1-1.4,0.2-2.6,0.4-4.1c1.4,0.1,2.9,0.1,4.2,0.4c7.2,1.4,14.4,2.6,21.4,5.1
		c7,2.6,14.2,4.8,21.3,7.1c6.7,2.2,13.4,4.2,20.1,6.4c1.4,0.4,2.6,1.3,3.9,1.9c0.3,0.2,0.6,0.5,1,0.8c-12-3.4-23.9-6.9-35.8-10.2
		C134.9,128.7,122.6,127.1,110.3,124.7z"/>
	<path class="st0" d="M184.6,259.1c2.3-5.9,3.9-12,8.2-16.7c0.7-0.8,1.5-1.4,2.3-2c0.8-0.6,1.7-0.6,2.4,0.3c0.2,0.2,0.4,0.3,0.8,0.6
		c0-0.4,0.1-0.6,0.1-1.1c0.8,0.7,1.4,1.3,2,1.9c-0.4,0.2-0.6,0.3-0.8,0.4c0.1,0.1,0.1,0.2,0.2,0.2c1.5,0.1,1,1.4,1.1,2.1
		c0.3,2.3-0.9,4.1-2.3,5.8c-1.5,1.7-3.1,3.4-4.7,5c-2.1,2-3.6,4.3-4.5,7.1c-0.3,0.8-0.8,1.6-1.5,2.2c0-0.4,0.1-0.8,0.1-1.2
		c-0.1,0-0.2-0.1-0.2-0.1c-0.5,0.8-0.9,1.6-1.4,2.4c-0.1,0-0.1,0-0.2-0.1c0.3-1.4,0.6-2.8,0.9-4.4c0,0.7,0,1.3,0,2
		c0.8-0.9,0.9-1.7,0.5-2.9C187,259.2,186,258.9,184.6,259.1z"/>
	<path class="st0" d="M356.1,191.7c-0.6,2-2.2,3.2-4,3.1c-0.2,0-0.4,0.1-0.6,0.2c-1.3,0.9-3.1,0.3-3.5-1.3c-0.1-0.6-0.2-1.2-0.4-1.7
		c-2.8-11.5-10.5-18.1-21.8-20.5c-6.7-1.5-13.2-0.5-19.4,2.7c-4.8,2.5-9,5.5-11.8,9.9c-2,3.2-3.5,6.7-5.2,10.1
		c-0.6,1.1-0.9,2.4-1.5,3.5c-1.1,2.1-2,2.8-4.4,2.5c-4.5-0.4-8.7-2.2-13-3.3c-4.5-1.2-8.9-2.4-13.3-3.7c-1.5-0.4-2.9-0.9-4.3-1.5
		c-0.6-0.3-1-0.9-1.4-1.4c5.5,2.5,11.4,3.8,17.2,5.3c4.9,1.3,9.9,1.9,14.8,2.9c1.6,0.3,2.9-0.4,3.9-1.6c0.7-0.9,1.2-1.9,1.7-2.9
		c1.8-3.7,3.4-7.6,5.5-11.1c2.3-3.8,5.6-6.5,9.6-8.6c4.1-2.1,8.2-3.9,12.8-4.4c3.7-0.4,7.4-0.1,11.1,0.4c2.4,0.4,4.8,1,6.9,2.3
		c2.5,1.7,5.1,3.3,7,5.8c2.6,3.3,4.8,6.7,5.7,10.8c0.4,1.9,1.3,2.8,2.9,3.2c1.2,0.3,2.6,0,3.8-0.1
		C355.1,192.2,355.6,191.9,356.1,191.7z"/>
	<path class="st0" d="M316.1,183c6-1.2,11.7-0.5,16.7,3.2c-0.9-0.4-1.9-0.9-2.8-1.2c-2.1-0.6-4.3-1.3-6.4-1.5
		c-4.1-0.4-7.4,1.4-9.6,4.8c-4.1,6.4-6.2,13.5-5.7,21.1c0.1,1.7,0.7,3.5,1.5,5c1.1,2,2.4,4.1,4,5.7c1.2,1.2,2.9,2.2,4.6,2.5
		c2.8,0.4,5.7,0.7,8.5,0.2c4.7-0.8,7.9-3.8,9.8-8.2c1.6-3.8,2.6-7.7,2.4-11.8c-0.1-2.2-0.5-4.5-1.1-6.6c-0.6-2.3-1.4-4.6-2.2-7.1
		c1.9,2.1,3,4.3,3.6,6.8c0.7,2.9,0.5,5.9,0.4,8.8c0,0.8-0.1,1.7-0.1,2.5c0,2.8-0.8,5.3-2.1,7.7c-0.7,1.2-1.4,2.5-2.1,3.7
		c-1.1,1.8-2.7,3.2-4.7,4c-1.7,0.7-3.4,1.8-5.1,2c-1.9,0.3-4.1,0.2-6-0.2c-6.3-1.5-11.4-6.6-12.3-13c-0.9-5.7-0.3-11.1,1.3-16.6
		c0.3-1.1,0.6-2.1,0.9-3.2c0.7-2.2,1.8-4,3.7-5.4c0.3-0.2,0.5-0.4,0.7-0.6c1.1-0.8,2.1-1.6,3.1-2.4
		C316.8,183.2,316.5,183.1,316.1,183C316.1,182.9,316.1,183,316.1,183z"/>
	<path class="st0" d="M225,222.1c1.7-1.3,3.1,0,4.6,0.5c0.4,0.1,0.8,0.4,1.5,0.7c-1.9,0.9-3.7,1.6-5.4,2.4c0.1,0.1,0.1,0.2,0.2,0.3
		c2.2-0.6,4.3-1.5,6.2-2.9c-2.4-1.1-5-1.5-7-3.1c0-0.1,0.1-0.3,0.1-0.4c1.2,0.4,2.5,0.8,3.7,1.3c0.9,0.3,1.8,0.7,2.6,1.1
		c0.4,0.2,1.3,0.1,1.1,1.1c0,0,0.5,0.2,0.7,0.3c1.3,0.5,2.6,1,4,1.4c2.1,0.6,2.3,2.5,2.4,4.1c0,1.3-0.3,2.7-0.9,3.8
		c-0.4,0.7-1.6,1.1-2.6,1.4c-0.8,0.3-1.7,0.3-2.6,0.5c-0.5,0.1-1,0.1-1.5,0.2c0.1-0.3,0.2-0.5,0.3-0.7c0.3,0,0.8,0.1,0.9,0
		c0.9-0.9,1.7-1.9,2.5-2.8c-0.1-0.1-0.2-0.2-0.4-0.3c-0.3,0.4-0.5,0.9-0.8,1.2c-0.7,0.7-1.5,1.3-2.2,1.9c-2.7,1.3-4.6-0.7-5.2-3
		c0.4,0,1.3,0.1,1.3,0c0.1-0.7,0.2-1.4,0.1-2c0-0.3-0.5-0.5-1-1c0.3,1.1,0.5,1.8,0.8,2.5c-0.1,0.1-0.3,0.2-0.4,0.2
		c-0.3-0.4-0.8-0.8-1-1.3c-0.4-0.9-0.6-1.9-1-3.1c-0.4,0.4-0.6,0.5-0.9,0.8c-0.7-0.9-1.4-1.8-2.1-2.7c0.5-0.6,1-1.2,1.4-1.8
		c0-0.1,0-0.2,0-0.2l0,0c0.1-0.1,0.2-0.2,0.3-0.3l0,0C224.8,222.1,224.9,222.1,225,222.1z"/>
	<path class="st0" d="M429.9,107c-20.6,4.1-40.1,11-59.3,18.6c-0.1-0.1-0.2-0.3-0.2-0.4c0.8-0.6,1.6-1.3,2.5-1.7
		c3.3-1.4,6.6-2.8,10-4.1c5.9-2.3,11.8-4.4,17.7-6.7c5.3-2,10.4-4.4,15.8-6.2c3.6-1.2,7.5-1.8,11.3-2.7c0.9-0.2,1.3,0,1.5,0.9
		C429.2,105.5,429.5,106.1,429.9,107z"/>
	<path class="st0" d="M289.6,234c3.6-0.2,7.2-0.4,10.9-0.7c0.1,3.5,0.5,7.2-1.6,10.5c-0.8,1.3-1.3,1.4-2.7,0.8
		c-1.7-0.7-2.9-1.8-3.5-3.5C291.9,238.7,290.7,236.4,289.6,234z"/>
	<path class="st0" d="M329,221.4c2.8-1.8,4.4-4.6,5.1-7.7c0.6-2.4,0.9-4.8,1-7.2c0.2-4.7,0.1-9.4-1-14c-0.5-2-1.5-3.8-2.2-5.5
		c0.9,0.2,2.4,1.3,3.1,2.8c3.8,8.3,4.6,16.7,0.7,25.3C334.3,218,332.1,220.1,329,221.4z"/>
	<path class="st0" d="M208.3,233.1c1.5-1.7,2.9-3.5,4.5-5c1.5-1.4,3.3-2.6,4.9-3.8c0.6-0.4,1.3-0.2,2-0.1c1.2,0.2,1.7,0.7,1.6,1.5
		c-0.1,0.9-0.5,2-1.2,2.7c-1.2,1.2-2.7,2.2-4.2,3.1c-2.4,1.4-4.7,2.9-6.4,5.5c-0.2-1.9-0.2-1.9-2-2.2c-0.2,0-0.3-0.4-0.4-0.6
		C207.6,233.9,208,233.5,208.3,233.1z"/>
	<path class="st0" d="M208.3,233.1c-0.4,0.4-0.7,0.7-1.1,1.1c-1.7,1.3-2.2,3.3-3.3,4.9c-0.7,1.1-1.5,2.1-2.5,3.3
		c-0.4-1.5-0.1-1.6,0.8-2.1c0.6-0.4,0.8-1.4,1.1-2.1c0.2-0.3,0.4-0.6,0.6-0.8c0.4-0.8,0.7-1.5,1.1-2.3c0.3-0.8,0.6-1.5,0.9-2.3
		c0.9-2.1,1.8-4.2,2.9-6.2c0.9-1.9,2.2-3.5,4.1-4.6c1.9-1.1,3.7-1.2,5.5,0.9c-0.5,0.5-1,1.1-1.6,1.5c-2.8,1.7-5.1,4-7.1,6.6
		C209.2,231.7,208.8,232.4,208.3,233.1z"/>
	<path class="st0" d="M228.2,166.4c0.8-1.2,1.8-1.6,3.2-1.5c3,0.3,6.1,0.6,9.1,0.7c1.6,0,2.3,1.4,3.4,2.1c0.1,0.1-0.1,1.2-0.4,1.3
		c-1,0.5-2.1,1-3.1,1c-3.7,0-7.3-0.2-11-0.2c-2.6,0-5.2,0.2-7.8,0.4c-0.5,0-0.9,0-1.4-0.3c0.6-0.1,1.1-0.1,1.7-0.2
		c0.6-0.2,1.4-0.2,1.9-0.6c1.5-1.3,3.1-1,4.8-0.9c3.2,0.2,6.4,0.4,9.7,0.6c0.5,0,1.1-0.4,1.6-0.8c0.1-0.1-0.1-0.5-0.1-0.5
		C235.8,167.1,232.1,166.7,228.2,166.4z"/>
	<path class="st0" d="M69.1,119.5c-6.6,0.7-13.5,1.4-20.5,2c0.4-0.2,0.7-0.6,1.1-0.7c4.4-1.3,8.7-2.6,13.1-3.8
		c0.6-0.2,1.2-0.2,1.7-0.3c1.1-0.1,2,0.2,2.7,1.1C67.8,118.5,68.6,119,69.1,119.5z"/>
	<path class="st0" d="M345,186.1c0.5,1.4,1,2.7,1.4,4.1c0.3,1.1,0.5,2.2,0.8,3.3c0.6,2.5,2.9,3.6,5.2,2.5c1.1-0.5,2.1-1,3.2-1.4
		c-0.3,4.2-4.3,6.7-8.4,6.1c0.2-5-0.3-9.9-2.6-14.4C344.7,186.2,344.9,186.2,345,186.1z"/>
	<path class="st0" d="M240.1,232.1c0.5-3,1-6-2.3-7.9c0-0.1,0-0.2,0-0.4c0.9,0,1.9,0.1,2.8,0.1c1,0.1,2,0.2,3.3,0.3
		c-0.1,1.7-0.3,3.5-0.4,5.2c0,0.2-0.1,0.4-0.1,0.6C243,232.7,242.5,233,240.1,232.1z"/>
	<path class="st0" d="M109.5,124.7c-3.7-0.7-7.3-1.3-11.1-2c0.3-0.2,0.4-0.3,0.5-0.3c2.8-0.7,5.5-1.3,8.3-1.9
		c0.4-0.1,0.9-0.2,1.3-0.2c1.2,0,1.4,0.4,1.3,1.6C109.7,122.7,109.7,123.6,109.5,124.7z"/>
	<path class="st0" d="M219.3,222c-1.6-0.5-3.2-0.9-4.8-1.4c0,0,0-0.1-0.1-0.3c0.3-0.1,0.7-0.2,1.2-0.3c-0.6-0.9-2.4-1-1.5-2.7
		c2.7-0.2,5.3,0.5,8,1.4C221.1,220,220.2,221,219.3,222C219.3,222.1,219.3,222,219.3,222z"/>
	<path class="st0" d="M461.3,101c0.3-0.4,0.7-0.7,0.9-1.2c0.4-0.9,1.1-1.2,2-1.1c3.6,0.7,7.2,1.4,10.8,2.1c0.7,0.1,1.4,0.3,2.1,0.7
		C471.8,101.3,466.5,101.2,461.3,101z"/>
	<path class="st0" d="M430.4,106.9c-0.4-1.1-0.7-2.1-1.1-3.3c0.7-0.1,1.2-0.2,1.7-0.1c2.6,0.4,5.1,0.8,7.7,1.4
		C436,105.5,433.3,106.2,430.4,106.9z"/>
	<path class="st0" d="M224.5,222.5c-0.5,0.6-1,1.2-1.4,1.8c-1-0.5-1.8-1.6-3.1-1.7c-0.2,0-0.4-0.4-0.6-0.7c0,0,0,0,0,0
		c0.8-0.7,1.6-1.4,2.3-2.2c0.9-1,0.9-1.1,1.9,0c0.2,0.2,0.5,0.3,0.7,0.4c0.2,0.1,0.5,0.3,0.7,0.4c-0.1,0.4-0.1,0.8-0.2,1.2
		c0,0.1,0,0.2,0,0.3c0,0,0,0,0,0c-0.1,0.1-0.2,0.2-0.3,0.3c0,0,0,0,0,0c-0.1,0-0.1,0-0.2,0C224.4,222.4,224.5,222.5,224.5,222.5z"/>
	<path class="st0" d="M221.8,218c-2.6-0.5-5.1-0.9-8-1.5c0.6-0.8,1.1-1.7,1.7-2.5c-1.1,0.4-1.6,1.4-2,2.5c-0.1-0.1-0.2-0.1-0.3-0.2
		c0.4-1,0.7-2.1,1.4-2.8c0.4-0.4,1.6-0.1,2.3,0.2c0.8,0.3,1.4,1,2,1.6C219.9,216.2,220.8,217.1,221.8,218z M215.7,216.1
		c0.5,0,1,0.1,1.4,0c0.3-0.1,0.6-0.3,1-0.4c-0.2-0.3-0.3-0.6-0.5-0.7c-0.3-0.1-0.8-0.1-1.1,0.1C216.1,215.2,216,215.7,215.7,216.1z"
		/>
	<path class="st0" d="M220.6,163.8c-0.3,0.2-0.7,0.5-1,0.5c-2.9,0.1-5.7-0.1-8.4-1.2c-0.1,0-0.2-0.1-0.2-0.4
		c3.2,0.2,6.3,0.5,9.5,0.7C220.6,163.5,220.6,163.6,220.6,163.8z"/>
	<path class="st0" d="M200.3,162.8c1.8-1.6,1.9-1.6,3.6-0.4c0.6,0.4,1.2,0.8,1.8,1.2c0.3,0.2,0.5,0.6,0.7,0.9
		c-0.1,0.1-0.2,0.2-0.2,0.4C204.3,164.2,202.4,163.5,200.3,162.8z"/>
	<path class="st0" d="M184.6,262.7c-0.1,0.7,0,1.2-0.2,1.5c-1.3,1.6-2.4,3.2-2.8,5.2c0,0.3-0.3,0.5-0.5,0.7
		C180.1,269.1,182.5,263.7,184.6,262.7z"/>
	<path class="st0" d="M336.4,147.1c3.3-0.5,6.5-1,9.9-1.6C344,147.2,337.8,148.2,336.4,147.1z"/>
	<path class="st0" d="M356.3,144.8c-1.9,0.8-3.6,1.6-5.4,2.3c-0.1-0.1-0.2-0.2-0.3-0.3c0.3-0.3,0.5-0.7,0.8-1
		c0.4-0.4,0.9-0.7,1.4-1.1C354.2,143.4,354.4,143.4,356.3,144.8z"/>
	<path class="st0" d="M239.8,269.5c0,0.7-0.1,1.4-0.1,2.1c0,0.5-0.6,0.9-0.1,1.4c0,0-0.5,0.7-0.5,0.7c-0.4-0.2-1-0.4-1.1-0.7
		c-0.1-1.3,0.4-2.5,1.3-3.5C239.5,269.4,239.7,269.5,239.8,269.5z"/>
	<path class="st0" d="M253.7,223.6c-0.2,2.1-0.4,4.3-0.7,6.8c-0.2-0.5-0.3-0.7-0.4-1c-0.3,0.2-0.5,0.4-0.9,0.8
		c0.6-2.4,1.2-4.5,1.8-6.6C253.5,223.6,253.6,223.6,253.7,223.6z"/>
	<path class="st0" d="M244.4,239.9c2-0.8,3.8-0.1,5.4,1.1c-0.1,0.3-0.2,0.6-0.3,1c-1.5-0.9-2.8-2.3-4.9-1.3
		C244.6,240.5,244.6,240.2,244.4,239.9z"/>
	<path class="st0" d="M172,140.3c-3.1,0-5.8-1.2-8.4-2.7C166.4,138.5,169.2,139.4,172,140.3z"/>
	<path class="st0" d="M250.3,237.3c0.5-2.2,1.1-4.3,1.6-6.5C252.5,232.4,251.8,235.2,250.3,237.3z"/>
	<path class="st0" d="M247.7,202.1c0.8-2.4,2.6-2.7,4.7-2.5C250.9,200.4,249.3,201.3,247.7,202.1z"/>
	<path class="st0" d="M77.3,120.6c3.1,0.4,6.3,0.8,9.4,1.2c0,0.1,0,0.2,0,0.3c-3.2-0.4-6.3-0.7-9.5-1.1
		C77.2,120.8,77.3,120.7,77.3,120.6z"/>
	<path class="st0" d="M379.7,123c2.2-0.9,4.5-1.7,6.7-2.6c0,0.1,0.1,0.2,0.1,0.4c-2.2,0.9-4.4,1.8-6.7,2.7
		C379.9,123.3,379.8,123.1,379.7,123z"/>
	<path class="st0" d="M201.1,240.9c-1.4-0.9-2.5-2-4.2-1.6c0-0.1-0.1-0.3-0.1-0.6c1.7-0.4,3.1,0.1,4.3,1.2
		C201.2,240.1,201.1,240.5,201.1,240.9z"/>
	<path class="st0" d="M207.5,228.2c-0.7,1.3-0.2,3.2-2.5,3.8c0.8-1.4,1.5-2.7,2.2-4C207.3,228.1,207.4,228.1,207.5,228.2z"/>
	<path class="st0" d="M202.7,236.9c0.8-1.4,1.5-2.8,2.3-4.2c0.2,0.1,0.3,0.2,0.5,0.3c-0.8,1.4-1.6,2.8-2.4,4.2
		C203,237,202.8,237,202.7,236.9z"/>
	<path class="st0" d="M204.8,238.3c0.9-0.8,1.7-1.4,2.6-2.2C207.2,237.6,206,238.7,204.8,238.3z"/>
	<path class="st0" d="M239.8,275.8c0.4,0.7,1,1.4,1,2.2c0.1,0.9-0.2,1.9-0.4,2.9C240.5,279.1,240.7,277.4,239.8,275.8
		C239.8,275.8,239.8,275.8,239.8,275.8z"/>
	<path class="st0" d="M454.7,102.6c-1.9,0.3-3.9,0.6-5.8,1c0-0.1,0-0.1,0-0.2c1.9-0.4,3.9-0.7,5.8-1.1
		C454.6,102.4,454.7,102.5,454.7,102.6z"/>
	<path class="st0" d="M239.8,275.8c-0.2-0.1-0.3-0.2-0.5-0.3c-0.1,0.1-0.1,0.2-0.2,0.3c-0.2-0.5-0.4-1-0.6-1.5
		C239.8,274.2,240.1,274.5,239.8,275.8C239.8,275.8,239.8,275.8,239.8,275.8z"/>
	<path d="M224.8,222.1c0-0.1,0-0.2,0-0.3c0.1,0.1,0.1,0.1,0.2,0.2C224.9,222.1,224.8,222.1,224.8,222.1z"/>
	<path class="st0" d="M395.1,237.3c-3.1-2.1-5.8-0.5-8.5,0.7c-0.4-2.1-0.9-4-1.3-5.9c0.1,0,0.1,0,0.2-0.1c0.7,1.6,1.3,3.2,2,4.8
		c0.2,0,0.3,0,0.5-0.1c0-0.7,0.1-1.3,0-2c-1.4-6.9-2.7-13.7-5.3-20.3c-0.5-1.2-1.4-2.3-2.1-3.5c-0.2-0.3-0.2-0.8-0.1-1.1
		c0.6-2,1.4-4,1.8-6.1c0.5-2.7-0.8-4.2-3.6-4.8c1.6-0.9,2.9-2.5,5.3-1.6c-0.3-0.4-0.4-0.6-0.6-0.8c1.4,0,2.9-0.2,4.3,0.1
		c0.8,0.2,1.6,0.9,2,1.7c2.4,4.3,3.5,8.9,3.4,13.8c-0.1,3.3,0.2,6.6,0.4,10c0.1,2.5,0.3,5,0.6,7.4c0.2,1.9,0.7,3.8,1.1,5.7
		C395.1,236,395.1,236.5,395.1,237.3z"/>
	<path class="st0" d="M388.1,240.8c1.2-0.9,2.2-1.6,3.2-2.4c0.1,0.1,0.1,0.1,0.2,0.2c-0.3,0.3-0.6,0.7-0.8,1c0,0.1,0.1,0.2,0.1,0.2
		c0.3-0.2,0.7-0.3,1-0.5c1.4-1.1,2-1.1,3.1,0.4c1.8,2.3,2.9,4.9,3.5,7.7c0.7,3.3,1,6.6,1.4,9.9c0.3,2.3,0.4,4.6,0.6,7.1
		c-1.3-0.7-2.6-1.2-3.8-0.2c-0.9,0.8-1.5,2-2,2.7c-0.4-1.8-0.7-3.8-1.2-5.9c-0.2-0.8-0.6-1.6-1-2.3c-1.3-2.3-2.8-4.5-4.1-6.8
		c-1.5-2.7-2.2-5.5-1.3-8.5c0.3-1,0.4-2.3,2-2.2C388.9,241.1,388.7,241,388.1,240.8z"/>
	<path class="st0" d="M349.5,226.2c-2.6,1.1-5.1,2.3-7.3,3.3c0.2-2,0.4-4.3,0.6-6.6c0.8,0,1.8-0.1,2.9-0.1c0.4,0.7,0.8,1.6,1.4,2.2
		C347.6,225.5,348.5,225.7,349.5,226.2z"/>
	<path class="st0" d="M398.3,266.6c1,0.9,1.4,2.1,1.3,3.5c0,0.3-0.3,0.6-0.6,0.7c-0.2,0.1-0.7,0.1-0.9-0.1c-0.1-0.2,0-0.6,0-0.9
		c0-0.2,0-0.3-0.1-0.5c-0.1-0.9-0.2-1.7-0.3-2.6C397.9,266.6,398.1,266.6,398.3,266.6z"/>
	<path class="st0" d="M384.2,220.7c0.6,2.1,1.1,4.2,1.7,6.3c-0.4,0.2-1-1.4-1.3,0.2c-0.2-2.1-0.4-4.3-0.6-6.4
		C384.1,220.8,384.1,220.7,384.2,220.7z"/>
	<path class="st0" d="M387.8,238.2c1.7-1.2,3.4-1.9,5.4-1.1c-0.1,0.3-0.2,0.6-0.3,0.9c-0.8-1-1.6-0.6-2.4-0.1
		c-0.8,0.4-1.6,0.7-2.4,1.1C388,238.9,387.9,238.5,387.8,238.2z"/>
	<path class="st0" d="M387.3,234.6c-1.2-2-2.1-4.1-2-6.4c0.1,0,0.3-0.1,0.4-0.1C386.3,230.2,386.8,232.4,387.3,234.6z"/>
	<path class="st0" d="M364.6,225.1c0.5,0.9,0.9,1.8,1.4,2.7C364.8,228,364.4,227.4,364.6,225.1z"/>
	<path class="st0" d="M366.9,231.8c-0.4-1-0.8-1.9-1.2-2.9c0.1-0.1,0.2-0.1,0.4-0.2c0.6,1,1.1,2.1,1.8,3.4
		C367.3,231.9,367.1,231.9,366.9,231.8C366.8,231.8,366.9,231.8,366.9,231.8z"/>
	<path class="st0" d="M397.9,273c-0.9,1.6-0.7,3.3-0.5,5C396.5,276.2,396.6,273.8,397.9,273L397.9,273z"/>
	<path class="st0" d="M397.9,273c-0.3-1.3-0.1-1.6,1.4-1.5c-0.2,0.5-0.4,1-0.6,1.5c-0.1-0.1-0.1-0.2-0.2-0.3
		C398.3,272.8,398.1,272.9,397.9,273C397.9,273,397.9,273,397.9,273z"/>
	<path class="st0" d="M383.2,257.7c-0.4,0-0.7,0-1,0c-1.6,0-2.6-0.7-3.1-2.2c-0.4-1.1-0.8-2.2-1.1-3.4c-0.7-3-2.6-5.1-5-6.7
		c-2.2-1.4-3.4-3.5-4.4-5.7c-0.5-1.1,0.2-2.7,1.1-2.9c-0.2-1.4,1.1-1.3,1.8-2c-0.1,0.4-0.1,0.6-0.1,0.8c0.2-0.1,0.4-0.1,0.5-0.2
		c1.5-1,2.1-1,3.5,0.2c2.4,2.1,3.8,4.9,4.9,7.8c1.6,4.2,2.3,8.7,3.1,13.1C383.4,256.9,383.3,257.3,383.2,257.7z"/>
	<path class="st0" d="M370.8,233.7c0.7,0,1.4,0,2.1,0c0,0.1,0,0.1,0,0.2c-1.3,0.4-2.6,0.8-3.9,1.2
		C368.8,234.5,369.2,234.2,370.8,233.7C370.8,233.6,370.8,233.7,370.8,233.7z"/>
	<path d="M286.5,158.7c0.5-0.6,0.9-1.3,1.4-1.8c2-1.8,3.9-3.8,6.8-3.9c0.6,0,1.2,0,1.7,0.3c2.6,1.3,5.2,2.8,7.8,4.2
		c0.1-0.1,0.2-0.1,0.3-0.2c-1.3-2-2.7-4.1-4.1-6.2c2.4-0.3,4.8-0.5,7.3-0.8c1,2.2,1.8,4.2,2.7,6.2c0.6-1.1,1.2-2.3,1.8-3.6
		c0.5-1,1.2-1.6,2.5-1.4c1.8,0.2,3.7,0.2,5.5,0.5c1.7,0.3,1.9,0.9,0.9,2.3c-0.7,1-1.4,1.9-1.9,3c-0.6,1-1.4,1.5-2.6,1.5
		c-2.5,0-5,0.1-7.5,0.1c-3.3,0-6.4,1.1-9.5,2.2c-1.7,0.6-3.2,0.5-4.8-0.1c-0.8-0.3-1.7-0.7-2.5-1.1c-1.7-0.9-3.4-1.9-5.5-0.7
		C286.6,159,286.5,158.9,286.5,158.7z M304.5,158.6c-2.6-1.4-4.9-2.7-7.2-3.9c-0.7-0.4-1.6-0.7-2.3-0.6c-2.7,0.3-4.8,1.7-6.6,3.4
		c1.4,0.5,2.7,1,4,1.6c1,0.4,1.9,1,2.9,1.3c1,0.3,2.1,0.5,3.1,0.2C300.4,160.1,302.3,159.4,304.5,158.6z M320.9,153
		c-2.2-0.7-4.2-1-6.4-0.8c-0.8,0.1-1.4,0.4-1.7,1.2c-0.8,1.5-1.6,3-2.3,4.5c2.2,0,4.4,0,6.6,0c0.4,0,0.8-0.3,1-0.7
		C319,155.9,319.9,154.5,320.9,153z M309.5,158c-0.2-2.4-1.1-4.4-2.2-6.3c-0.1-0.2-0.6-0.5-0.8-0.5c-1.5,0.1-3.1,0.3-4.6,0.5
		c1.3,2.2,2.5,4.4,3.9,6.6C306.8,158.3,308.1,158.2,309.5,158z"/>
	<path d="M301.5,163.1c0.5,0.3,1.3,0.7,2,1.1c0,0.1-0.1,0.3-0.1,0.4c-0.8-0.2-1.6-0.5-2.6-0.8c0.3,0.3,0.5,0.6,0.9,1.1
		c-0.4,0-0.7,0.1-0.8,0c-0.5-0.3-1-0.7-1.5-0.9c-1-0.5-1-1.2-0.3-1.9c0.4-0.4,1-0.6,1.5-0.6C300.9,161.7,301.1,162.4,301.5,163.1z"
		/>
	<path d="M314.6,159.9c0.6-0.2,1.1-0.3,1.8-0.6c-0.3,0.7-0.5,1.2-0.8,1.9c0.7-0.2,1.1-0.4,1.7-0.6c-0.5,0.6-0.9,1-1.6,1.7
		c0.8-0.1,1.3-0.1,1.7-0.2c0,0.1,0.1,0.2,0.1,0.3c-0.5,0.3-1,0.8-1.5,0.7c-0.4-0.1-0.8-0.7-1-1.2
		C314.9,161.4,314.8,160.8,314.6,159.9z"/>
	<path d="M306.5,163.7c0.6-0.3,1.1-0.5,1.8-0.8c-0.7-0.4-1.1-0.6-1.5-0.9c-0.3-0.2-0.8-0.6-0.8-0.8c0-0.3,0.5-0.7,0.8-0.9
		c0.3-0.1,0.8,0,1.2,0c0,0.1,0,0.3,0,0.4c-0.3,0.1-0.6,0.2-1.1,0.4c0.8,0.7,2.6,0.9,1.6,2.4C308.1,164.2,307.3,164.4,306.5,163.7z"
		/>
	<path d="M304.3,163.3c0.6,0.2,1,0.3,1.3,0.3c-0.8,0.9-1.7,0.7-2.1-0.3c-0.2-0.6-0.5-1.2-0.9-1.9c0.5-0.2,1.1-0.5,1.7-0.8
		c-0.2,0.7-0.3,1.3-0.5,2c0.8-0.2,1.2-0.3,1.7-0.5c0.1,0.1,0.1,0.2,0.2,0.2C305.3,162.6,304.9,162.8,304.3,163.3z"/>
	<path d="M312.4,160.4c0.2,0.3,0.4,0.5,0.6,0.8c0.2,0.3,0.3,0.7,0.7,0.9c0-0.6,0-1.3,0-2.1c0.9,0.5,0.9,1.3,0.8,1.9
		c-0.1,0.5-0.5,0.9-0.8,1.3c-0.4-0.4-0.9-0.7-1.2-1.1c-0.3-0.4-0.3-1-0.5-1.6C312.1,160.5,312.3,160.4,312.4,160.4z"/>
	<path d="M312,162.1c-0.6,1-1.2,1.5-2.1,1c-0.8-0.4-1.1-2-0.6-2.6c0.1-0.2,0.5-0.2,0.7-0.2c0.1,0,0.2,0.4,0.2,0.5
		C309.9,162.6,310,162.7,312,162.1z"/>
	<path d="M185.9,154.7c1-0.8,2.1-1.6,3.1-2.4c0.1,0.1,0.2,0.1,0.3,0.2c-0.2,0.3-0.3,0.8-0.6,1c-1.4,1.3-2.8,2.6-4.7,3.2
		c-6.9,2.2-13.9,4.3-21.2,4.7c-6,0.3-12.1,0-18.1-0.4c-11.1-0.8-22.2-1.8-33.3-3c-13.6-1.5-26.9-4.2-39.9-8.6
		c-4.9-1.7-9.8-3.1-14.5-5.2c-4.1-1.9-7.8-4.5-11.6-6.9c-1.2-0.8-1.7-2.1-1.8-3.6c0.6,1,1.3,2,1.9,3c0.1,0,0.2-0.1,0.3-0.1
		c-0.6-4.1,1.8-6.6,4.7-8.6c1.6-1.1,3.3-2.1,4.7-3.1c-0.8-0.1-5.4,1.1-7.1,2.4c-2.1,1.7-3.9,3.6-5.9,5.4c0.5-0.6,1-1.2,1.5-1.9
		c2.9-3.9,7.1-5.6,11.7-6.5c2.3-0.4,4.6-0.7,7-0.9c-0.4,0.1-0.9,0.2-1.3,0.3c0,0.1,0,0.1,0,0.2c1.5-0.1,3.1-0.2,4.6-0.3
		c5.1-0.3,10.3,0.1,15.4,0.7c5.3,0.6,10.5,1.3,15.8,2c1.9,0.2,3.8,0.6,5.8,0.8c11.1,1.4,21.7,4.5,32.4,7.3
		c9.4,2.5,18.8,4.9,28.2,7.6c5.8,1.6,11.2,4.3,16.5,7.2c1.6,0.9,3.1,2.1,4.5,3.3C184.9,153.2,185.3,154,185.9,154.7z M97.4,141.4
		c0.1-0.1,0.2-0.3,0.2-0.4c-0.3-0.3-0.7-0.5-1-0.8c-3.7-3.3-7.5-6.6-11.2-9.8c-0.3-0.3-0.7-0.5-1.1-0.5c-2.4-0.4-4.8-0.7-7.3-1
		c-6.2-0.9-12.5-1.4-18.8-0.1c-2.4,0.5-4.9,1-7.3,1.5c-1.9,0.5-3.2,1.8-4.1,3.5c-0.9,1.6-0.2,3.7,1.8,5c3,1.9,6.1,3.9,9.3,5.3
		c4.3,1.8,8.8,3.2,13.2,4.6c12.8,4.3,25.9,7,39.3,8.6c4.8,0.6,9.6,0.8,14.4,1.2c8.6,0.8,17.2,1.6,25.7,2.3
		c8.2,0.7,16.3-0.1,24.2-2.2c1.4-0.4,1.8-1.4,0.8-2.4c-0.9-0.9-2.1-1.5-3.3-2c-0.8-0.4-1.6-0.2-2.3,0.3c-0.7,0.5-1.6,0.8-2.4,0.8
		c-3.4,0.2-6.9,0.6-10.3,0.3c-4.9-0.5-9.8-1.5-14.6-2.2c-8.6-1.3-17.3-2.6-25.9-3.8c-0.1,0.1-0.1,0.3-0.2,0.4
		c0.3,0.2,0.5,0.6,0.8,0.7c1.2,0.6,2.4,1.3,3.7,1.8c4.2,1.6,8.5,3.2,12.8,4.8c0.6,0.2,1.2,0.5,1.8,0.8c-0.1,0.1-0.1,0.3-0.2,0.4
		c-6.3-2.2-12.8-4.2-19.1-7.2c0.5,2,0.9,3.9,1.4,5.9c-0.4-0.2-0.6-0.4-0.7-0.6c-0.4-1.8-0.8-3.5-1.1-5.3c-0.1-0.6-0.1-1-1-1.1
		c-0.9-0.2-1.7-0.7-2.6-1.1c-0.3-0.1-0.7-0.3-0.9-0.2c-0.8,0.3-1.5,0.8-2.3,1.2c1.8,1.7,3.6,3.3,5.4,5c-1.9-1.3-3.6-2.7-5.3-4.1
		c-0.3-0.2-0.9-0.3-1.2-0.2c-3.5,1.8-7.4,2.4-11.2,3.4c-0.6,0.1-1.2,0-1.8,0c4.2-1.5,8.7-2,12.7-4.1c-1.7-2.1-3.4-3-5.8-3.1
		c-3.9-0.2-7.9-0.3-11.8-0.5c-3.2-0.2-6.4-0.6-9.7-0.7c-4.7-0.1-9.5-0.1-14.2-0.1c-1.3,0-2.6-0.1-3.9-0.2c13.7-1,27.2,0.8,41.1,1
		c-1.5-1.3-2.7-2.5-4-3.6c-0.6-0.5-1.3-0.9-2-1c-3.4-0.7-6.9-1.3-10.4-1.8c-6.1-0.9-12.2-1.7-18.3-2.5c-2-0.3-4.1-0.5-6.2-0.7
		C74.3,137.3,85.8,139.4,97.4,141.4z M106.5,133c0.1,0.2,0.2,0.4,0.3,0.5c2.2,2.1,4.3,4.5,6.7,6.3c1.5,1.1,2.4,2.3,2.8,4
		c0.2,0.9,0.6,1.1,1.4,1.3c3.8,0.8,7.6,1.1,11.4,1.3c4.8,0.3,9.6,1.2,14.5,1.7c6.7,0.7,13.4,1.4,20,2.1c0.9,0.1,1.7,0,2.6,0
		c-2.8-1.3-5.6-2.3-8.4-3.2c-6.6-2.1-13.2-4.1-19.8-6.1c-1.8-0.5-3.7-1-5.5-1.4c-5.8-1.3-11.6-2.6-17.3-4
		C112.2,134.8,109.4,133.9,106.5,133z M117.4,147.4c0-0.1-0.1-0.3-0.1-0.4c1.3-0.2,2.6-0.4,4-0.6c0,0,0-0.1,0-0.1
		c-1.5-0.3-3.1-0.6-4.7-0.9c0.1,0.9,0.2,1.6,0.2,2.3c0,1.7,0,1.7,1.7,1.9c0.2,0,0.3,0,0.5,0c10.1,0.5,20,2.6,29.9,4.2
		c3.6,0.6,7.3,1.2,10.9,1.5c2.2,0.2,4.4-0.1,6.6-0.3c1-0.1,1.9-0.5,2.9-0.7c0-0.1,0-0.2,0-0.4c-0.4-0.1-0.7-0.2-1.1-0.2
		c-5.5-0.8-11.1-1.6-16.6-2.4c-6.8-1.1-13.6-2.2-20.3-3.3c-4.2-0.7-8.4-1.3-12.7-0.5C118.2,147.4,117.8,147.4,117.4,147.4z
		 M113,140.4c0,0-0.1-0.1-0.3-0.2c-3.8-2.9-7.1-6.3-9.7-10.5c-0.4-0.7-1.1-1.2-1.8-1.7c-0.2-0.2-0.9-0.2-1,0
		c-1.1,1.7-2.5,3.3-3.1,5.2c-0.6,2.1,0.2,4.3,1.9,5.8c2.2,2,4.5,3.8,7.7,4.1c1.7,0.2,3.4,0.6,5,0.9
		C112.1,142.7,112.5,141.7,113,140.4z M96.8,131.4c-3.7-0.4-7.1-0.7-10.5-1.1c-0.1,0.1-0.2,0.2-0.2,0.3c0.3,0.2,0.6,0.4,0.9,0.7
		c3.8,3.3,7.5,6.6,11.4,9.8c0.7,0.6,1.8,0.7,2.8,1c-1.5-1.6-3.1-2.9-4.1-4.5C96.1,135.8,95.6,133.7,96.8,131.4z M130.6,147
		c0,0.1,0,0.2-0.1,0.3c0.5,0.1,1,0.2,1.5,0.3c10.7,1.7,21.4,3.4,32,5c1.7,0.3,3.4,0.5,5.2,0.7c0.4,0,0.9-0.3,1.3-0.4
		c-0.3-0.4-0.5-0.9-0.9-1.2c-0.3-0.2-0.8-0.3-1.2-0.4c-5.2-0.6-10.4-1.1-15.5-1.6c-4.4-0.5-8.8-1-13.2-1.6
		C136.7,147.8,133.6,147.4,130.6,147z M99.7,142.2c3.1,3.7,5.5,4.9,9.3,4.7C105.7,145.4,103.7,142.1,99.7,142.2z M112.7,144.6
		c0,0.3-0.1,0.5-0.1,0.8c0,0.9,0,1.8,0.1,2.7c0,0.6,1.2,1.3,2.1,1.4c0.9,0,1-0.5,1.1-1.2c0.3-2.7-0.2-3.4-2.8-3.7
		C113.1,144.6,113,144.6,112.7,144.6z M105.2,143.1c0,0.1-0.1,0.2-0.1,0.3c2.2,1.4,4.1,3.5,7,3.6c-0.1-0.7,0-1.4-0.2-2.1
		c-0.1-0.3-0.4-0.7-0.6-0.7C109.3,143.8,107.2,143.5,105.2,143.1z M105.6,147.2c1.2,2.6,3.1,2.9,5.4,1
		C109.2,147.3,107.4,147.6,105.6,147.2z M115.6,144.7c-0.3-1-0.5-1.7-0.8-2.4c-0.2-0.4-0.7-0.7-1-1c-0.3,0.4-0.7,0.7-0.9,1.1
		c-0.2,0.3-0.3,0.7-0.2,1c0,0.3,0.3,0.8,0.5,0.9C113.9,144.5,114.7,144.5,115.6,144.7z M133.4,135.5c0-0.1,0.1-0.3,0.1-0.4
		c-2.5-0.7-5-1.4-7.4-2c0,0.1-0.1,0.2-0.1,0.3C128.4,134.1,130.9,134.8,133.4,135.5z M111.1,133.7c0-0.1,0-0.2,0.1-0.4
		c-2-0.7-3.9-1.4-5.9-2c-0.1,0.1-0.1,0.2-0.2,0.3c0.2,0.2,0.7,0.6,0.7,0.6c0.7-0.6,1.1,0.1,1.6,0.3
		C108.6,132.9,109.8,133.3,111.1,133.7z"/>
	<path d="M38.6,134.6c1.7,2.1,3.4,4.1,5.1,6.2c0.1-0.1,0.2-0.2,0.3-0.2c-0.1-0.2-0.1-0.4-0.2-0.7c0.2,0.1,0.3,0.1,0.3,0.2
		c1.2,1.8,3,2.8,4.8,3.7c3,1.6,5.9,3.3,9,4.6c11.2,4.9,22.9,8,34.8,10.2c7.4,1.4,14.8,2.1,22.3,3.1c4.8,0.6,9.6,1.4,14.4,1.9
		c3.5,0.4,7.1,0.6,10.6,0.5c8.5-0.1,17-0.2,25.5-0.7c3.9-0.2,7.7-1.3,11.5-2.2c2.7-0.6,5.3-1.6,7.7-2.4c-0.1,0.1-0.4,0.4-0.7,0.5
		c-1.1,0.5-2.3,1.2-3.5,1.5c-6.7,1.7-13.3,3.4-20.3,3.4c-5,0-10,0.4-15,0.4c-10,0-20-0.7-29.8-2.4c-4.6-0.8-9.2-1.2-13.9-1.7
		c-9.3-1.1-18.5-3.1-27.6-5.4c-4.5-1.1-8.8-2.6-13.2-4c-1.2-0.4-2.2-1.2-3.3-1.8c-0.8-0.4-1.5-1-2.3-1.3c-4.4-1.6-8.1-4.5-11.9-7.3
		C41.2,139.3,39.9,136.9,38.6,134.6z M64.2,151.9c0-0.1,0.1-0.2,0.1-0.3c-1.8-0.7-3.5-1.4-5.3-2.1c-0.1,0.1-0.1,0.3-0.2,0.4
		C60.6,150.6,62.4,151.3,64.2,151.9z"/>
	<path d="M483.4,112.5c0.2-0.7,0.4-1.4,0.6-2.1c0.4,1,0.3,2-0.5,2.8c-2.6,2.5-5.1,5-8.4,6.7c-9.4,4.7-19,8.7-29.1,11.4
		c-8.5,2.3-17.1,3.6-25.7,5.1c-5.8,1-11.6,2.3-17.5,3.2c-4.5,0.6-9.1,1.2-13.7,1.1c-6.4-0.2-12.8-1-19.1-2.7
		c-1.6-0.4-2.8-1.4-4.1-2.3c-0.2-0.1-0.4-0.4-0.5-0.7c0.1-0.1,0.1-0.2,0.2-0.3c1.1,0.6,2.2,1.2,3.3,1.9c1.3-2.8,3.7-4.3,6.1-5.9
		c5.9-3.8,12.2-6.6,18.9-8.7c10.1-3.3,20.1-6.7,30.1-10.1c3-1,5.9-2,9-2.7c3.8-0.9,7.7-1.5,11.5-2.2c5.6-1,11.2-1.9,16.8-2.8
		c1.4-0.2,2.9-0.1,4.4-0.1c2.2,0,4.5-0.1,6.7,0c0.7,0,1.3,0.5,1.9,0.9c1.9,1,3.8,2,5.6,3.1c1.6,1,2.7,2.5,3.1,4.5
		C483.1,112.5,483.2,112.5,483.4,112.5z M430,123c-1.1,0.9-0.4,1.9-0.2,2.9c0.2,0.9,0.9,1.2,1.7,0.8c0.6-0.3,1.5-0.6,0.7-1.6
		c-0.2-0.2-0.1-0.7-0.1-1c-0.1-1.3-0.2-1.4-1.5-1.1c0.4-0.2,0.7-0.4,1.3-0.8c-0.5-0.7-1.1-1.3-1.6-1.9c-0.3,0.2-0.7,0.5-0.7,0.7
		C429.7,121.6,428.8,122.5,430,123z M441.5,119.8c-2.5,0.6-3.8,2.8-5.8,4.3c3.4,0.5,4.8-1.9,6.4-4.2
		C441.9,119.9,441.7,119.9,441.5,119.8c0.5-0.3,1.2-0.6,1.6-1c1.5-1.7,3-3.4,4.5-5.2c1-1.1,1.9-2.3,3-3.7c-3,0.5-5.6,1-8.4,1.5
		c1.3,1.5,1.5,3.1,1,4.6c-0.5,1.4-1.5,2.6-2.3,3.9C441,119.8,441.3,119.8,441.5,119.8z M433.4,122c-1.6,0.6-0.5,1.7-0.5,2.6
		c2.4-0.3,3.5-2.1,4.9-3.6c-0.7,0.2-1.3,0.3-2,0.5c0.3-0.2,0.6-0.5,0.9-0.5c2.4-0.3,3.8-2,5.2-3.6c1.2-1.3,1-4.3-0.2-5.5
		c-0.9-0.9-1.9-1.8-2.7-2.7c-0.5-0.6-1-0.6-1.4,0c-0.4,0.5-0.7,1-1,1.6c-0.5,0.9-0.8,1.8-1.3,2.6c-1.4,2.1-3,4.2-4.4,6.2
		c0.3,0.5,0.8,1,1.1,1.6C432.2,121.9,432.7,122.2,433.4,122z M413.3,127.3c1.1-0.4,2.2-0.8,3.3-1.1c-0.9,0-1.7,0.1-2.5,0.2
		c-9.1,1.8-18.3,3.5-27.4,5.3c-1,0.2-2,0.4-3,0.7c-0.4,0.1-0.6,0.7-0.8,1.1c0.4,0.1,0.9,0.4,1.3,0.3c7.5-1.7,15-3.4,22.5-5.1
		C408.9,128.2,411.1,127.8,413.3,127.3c-0.1,0.1-0.3,0.2-0.5,0.2c-8.2,2-16.4,3.9-24.6,5.8c-1.3,0.3-2.7,0.6-4,0.9
		c0.7,0.4,1.5,0.6,2.2,0.6c1.9,0,3.9,0.3,5.8-0.1c6.3-1.3,12.5-2.8,18.7-4.2c5.4-1.2,10.7-2.3,16.1-3.4c0.8-0.2,1.6-0.3,2.3-0.5
		c-0.2-1.2-0.4-2.1-0.6-3.1c-0.6,0.1-1.2,0.2-1.8,0.2c1.6-0.2,2.1-1.2,2.1-2.8c0-0.6,0.6-1.3,1.1-1.8c1.8-1.8,3.5-3.7,4.5-5.9
		c-16.4,5.1-32.7,10.3-48.3,17.6c0.6,0.1,1.1,0.1,1.7,0c5.2-0.9,10.4-1.6,15.5-2.8c7.8-1.9,15.7-2.8,23.5-4.3
		c-0.5,0.2-1,0.5-1.6,0.8c1.2,0.1,2.2,0.2,3.2,0.3c0,0.1,0,0.2,0,0.3c-0.4,0-0.8,0-1.2,0.1c-2.7,0.3-5.5,0.4-8.2,0.8
		C417,126.4,415.2,126.9,413.3,127.3z M429.8,127.5c-0.1-0.1-0.1-0.1-0.2-0.2c-0.9,0.2-1.9,0.4-2.8,0.5c-8.9,1.4-17.6,3.8-26.3,6.1
		c-4.5,1.2-9,1.8-13.6,1.6c-1.2,0-2.5-0.5-3.7-0.8c-0.3-0.1-0.7-0.2-1-0.1c-1.4,0.1-2.4,1-3.3,1.9c-0.9,0.9-0.4,2,0.8,2.2
		c3,0.4,6.1,1,9.1,0.9c5.2-0.2,10.5-0.6,15.7-1.3c5.2-0.7,10.4-1.9,15.6-2.8c7.5-1.3,15.1-2.4,22.6-4.2c11.3-2.7,21.9-6.9,32.2-12.1
		c2.3-1.2,4.4-3.1,6.4-4.8c1.4-1.2,1.4-2.9,0.2-4.2c-1.2-1.2-2.5-2.2-4.2-2.3c-4-0.4-8-1-12-0.8c-4,0.2-7.9,1.2-11.9,1.8
		c-1.4,0.2-2.4,0.8-3.3,2c-1.9,2.5-4,4.8-6,7.2c-0.2,0.3-0.3,0.7-0.5,1.2c-1.6,0.8-2.3,2.6-3.4,4.1c5.5-0.6,10.8-1.5,16.2-2.1
		c5.3-0.6,10.7-1.1,16-1.6c0,0.2,0,0.3,0,0.5c-1.8,0.1-3.7,0.2-5.5,0.4c-8.6,1.1-17.2,2.2-25.9,3.2c-2,0.2-2.9,1.6-4,2.8
		c0,0.1,0,0.3,0,0.4c3.8,0.7,7.6,1.4,11.4,2.1c-0.4,0.2-0.9,0.3-1.3,0.2c-3.3-0.6-6.5-1.2-9.8-1.9c-0.8-0.2-1.3-0.1-1.8,0.4
		c-0.7,0.8-1.5,1.7-2.3,2.5c-0.1-0.1-0.1-0.1-0.2-0.2c0.9-1.1,1.8-2.1,2.7-3.3c-0.6-0.3-1.2-0.5-1.7-0.7c-0.3-0.1-0.8-0.3-1-0.1
		c-0.9,0.5-1.8,1.1-2.8,1.8c0.3,1.7,0.6,3.6,0,5.4c-0.1,0-0.2,0-0.4,0c0-1.7,0-3.3,0-5.2c-4.8,3.3-9.9,5.3-14.9,7.4
		c0.3-0.4,0.6-0.6,1-0.8c1.7-0.8,3.4-1.6,5.1-2.4c2.4-1.2,4.7-2.4,7-3.7C428.9,128.4,429.3,127.9,429.8,127.5z M434.1,125.2
		c2.7,1.7,2.4,1.7,4.4-0.9C436.9,124.6,435.5,124.9,434.1,125.2z M431.2,113.4c0.1,0.1,0.1,0.2,0.2,0.3c1.3-0.6,2.6-1.1,4-1.7
		c0-0.1-0.1-0.2-0.1-0.3C433.9,112.3,432.6,112.9,431.2,113.4z M417.4,115c0-0.1-0.1-0.2-0.1-0.3c-1.6,0.6-3.3,1.1-4.9,1.7
		c0,0.1,0.1,0.2,0.1,0.3C414.1,116.1,415.8,115.5,417.4,115z"/>
	<path d="M370.4,139.7c1.6,0.4,3.2,1,4.9,1.3c6.3,1,12.7,1.6,19.1,1.3c8.9-0.4,17.8-1.2,26.6-2.6c4.4-0.7,8.6-1.9,12.9-2.9
		c5.4-1.2,10.9-2.2,16.3-3.7c4.9-1.4,9.8-3,14.6-5c4.7-2,9.3-4.3,13.8-6.8c2.1-1.2,3.9-3,5.7-4.6c0.5-0.4,0.7-1.1,1.3-1.5
		c0.3-0.3,0.7-0.6,0.9-1c0.3-0.5,0.5-1.1,0.8-1.7c0.3-0.6,0.5-1.2,0.8-1.7c-0.5,1.9-1,3.7-2.3,5.2c-2.2,2.3-4.8,4.2-7.2,6.2
		c-3,2.4-6.3,3.8-9.7,5.4c-2.4,1.1-5,1.7-7.5,2.6c-8.9,3.4-18.2,5.1-27.5,7.1c-4.4,1-8.7,2.2-13.2,2.8c-7.5,1-15,1.8-22.5,2.4
		c-4.8,0.4-9.6,0.4-14.3,0.1c-3.6-0.2-7.3-1-10.9-1.6c-0.9-0.2-1.8-0.7-2.7-1C370.3,139.8,370.4,139.8,370.4,139.7z M473,124.9
		c0.1,0.1,0.1,0.2,0.2,0.3c1.1-0.6,2.2-1.2,3.4-1.8c-0.1-0.1-0.1-0.2-0.2-0.3C475.2,123.7,474.1,124.3,473,124.9z"/>
	<path d="M260.3,206.3c0,0-0.2,0.2-0.3,0.5c-0.1,0-0.1-0.1-0.2-0.1c0.2-0.6,0.3-1.3,0.6-1.9c0.1-0.3,0.8-0.5,1-0.4
		c0.4,0.2,0.7,0.7,1,1.1c-0.3,0.2-0.5,0.6-0.9,0.7C261.3,206.3,260.9,206.3,260.3,206.3z"/>
	<path d="M232.5,234c0.8-0.6,1.5-1.2,2.2-1.9c0.3-0.3,0.5-0.8,0.8-1.2c0.1,0.1,0.2,0.2,0.4,0.3c-0.8,0.9-1.6,1.9-2.5,2.8
		C233.2,234.1,232.8,234,232.5,234C232.4,234,232.5,234,232.5,234z"/>
	<path d="M224.5,222.5c-0.1-0.1-0.1-0.1-0.2-0.2c0.1,0,0.1,0,0.2,0C224.5,222.4,224.5,222.5,224.5,222.5z"/>
	<path d="M224.5,222.3c0.1-0.1,0.2-0.2,0.3-0.3C224.7,222.2,224.6,222.3,224.5,222.3z"/>
	<path d="M215.7,216.1c0.3-0.4,0.5-0.8,0.8-1.1c0.2-0.2,0.7-0.2,1.1-0.1c0.2,0.1,0.3,0.5,0.5,0.7c-0.3,0.1-0.6,0.4-1,0.4
		C216.7,216.1,216.2,216.1,215.7,216.1z"/>
	<path class="st0" d="M304.5,158.6c-2.2,0.7-4.1,1.5-6,2c-1,0.2-2.1,0-3.1-0.2c-1-0.3-1.9-0.9-2.9-1.3c-1.3-0.5-2.6-1-4-1.6
		c1.7-1.8,3.9-3.2,6.6-3.4c0.8-0.1,1.6,0.3,2.3,0.6C299.6,155.9,301.9,157.2,304.5,158.6z"/>
	<path class="st0" d="M320.9,153c-1,1.5-1.9,2.9-2.8,4.2c-0.2,0.3-0.7,0.6-1,0.7c-2.2,0.1-4.4,0-6.6,0c0.7-1.4,1.6-2.9,2.3-4.5
		c0.4-0.8,0.9-1.1,1.7-1.2C316.6,152,318.7,152.2,320.9,153z"/>
	<path class="st0" d="M309.5,158c-1.4,0.1-2.7,0.2-3.7,0.3c-1.3-2.3-2.6-4.4-3.9-6.6c1.5-0.2,3-0.4,4.6-0.5c0.3,0,0.7,0.2,0.8,0.5
		C308.4,153.6,309.3,155.6,309.5,158z"/>
	<path class="st0" d="M97.4,141.4c-11.6-2-23.1-4.1-34.8-4.7c2.1,0.2,4.1,0.4,6.2,0.7c6.1,0.8,12.2,1.7,18.3,2.5
		c3.5,0.5,6.9,1.1,10.4,1.8c0.7,0.1,1.5,0.5,2,1c1.3,1.1,2.5,2.3,4,3.6c-13.9-0.2-27.4-2.1-41.1-1c1.3,0.1,2.6,0.2,3.9,0.2
		c4.7,0.1,9.5,0,14.2,0.1c3.2,0.1,6.4,0.5,9.7,0.7c3.9,0.2,7.9,0.3,11.8,0.5c2.4,0.1,4,1,5.8,3.1c-4,2.2-8.5,2.6-12.7,4.1
		c0.6,0,1.2,0.1,1.8,0c3.8-1,7.7-1.5,11.2-3.4c0.3-0.2,0.9-0.1,1.2,0.2c1.8,1.4,3.5,2.8,5.3,4.1c-1.8-1.6-3.5-3.2-5.4-5
		c0.8-0.4,1.5-0.9,2.3-1.2c0.2-0.1,0.6,0.1,0.9,0.2c0.9,0.4,1.7,0.9,2.6,1.1c0.8,0.1,0.8,0.5,1,1.1c0.3,1.8,0.7,3.5,1.1,5.3
		c0.1,0.3,0.3,0.5,0.7,0.6c-0.5-2-0.9-3.9-1.4-5.9c6.3,3,12.8,5,19.1,7.2c0.1-0.1,0.1-0.3,0.2-0.4c-0.6-0.3-1.2-0.6-1.8-0.8
		c-4.3-1.6-8.5-3.1-12.8-4.8c-1.3-0.5-2.5-1.2-3.7-1.8c-0.3-0.2-0.5-0.5-0.8-0.7c0.1-0.1,0.1-0.3,0.2-0.4c8.6,1.3,17.3,2.5,25.9,3.8
		c4.9,0.7,9.7,1.8,14.6,2.2c3.4,0.3,6.8-0.1,10.3-0.3c0.8,0,1.7-0.4,2.4-0.8c0.8-0.5,1.6-0.7,2.3-0.3c1.2,0.5,2.3,1.2,3.3,2
		c1,0.9,0.5,2-0.8,2.4c-7.9,2.1-16,2.9-24.2,2.2c-8.6-0.7-17.2-1.6-25.7-2.3c-4.8-0.4-9.6-0.6-14.4-1.2c-13.4-1.6-26.5-4.3-39.3-8.6
		c-4.4-1.5-8.9-2.8-13.2-4.6c-3.3-1.4-6.3-3.4-9.3-5.3c-2-1.3-2.6-3.4-1.8-5c0.9-1.7,2.2-3,4.1-3.5c2.4-0.6,4.9-1,7.3-1.5
		c6.3-1.3,12.5-0.8,18.8,0.1c2.4,0.3,4.9,0.7,7.3,1c0.4,0.1,0.8,0.3,1.1,0.5c3.8,3.3,7.5,6.5,11.2,9.8c0.3,0.3,0.6,0.5,1,0.8
		C97.6,141.1,97.5,141.2,97.4,141.4z M51.8,136c0,0.1,0,0.2,0,0.2c2.4,0,4.9,0,7.3,0c0-0.1,0-0.2,0-0.2C56.7,136,54.2,136,51.8,136z
		"/>
	<path class="st0" d="M106.5,133c2.9,0.8,5.7,1.7,8.6,2.4c5.8,1.4,11.5,2.6,17.3,4c1.8,0.4,3.7,0.9,5.5,1.4c6.6,2,13.2,4,19.8,6.1
		c2.9,0.9,5.6,2,8.4,3.2c-0.9,0-1.7,0.1-2.6,0c-6.7-0.7-13.4-1.3-20-2.1c-4.8-0.5-9.6-1.4-14.5-1.7c-3.8-0.2-7.6-0.5-11.4-1.3
		c-0.8-0.2-1.2-0.4-1.4-1.3c-0.4-1.7-1.3-2.9-2.8-4c-2.4-1.8-4.5-4.2-6.7-6.3C106.6,133.4,106.6,133.2,106.5,133z"/>
	<path class="st0" d="M117.4,147.4c0.4,0,0.7,0.1,1,0c4.3-0.8,8.5-0.2,12.7,0.5c6.8,1.2,13.5,2.3,20.3,3.3
		c5.5,0.9,11.1,1.6,16.6,2.4c0.4,0.1,0.7,0.1,1.1,0.2c0,0.1,0,0.2,0,0.4c-1,0.2-1.9,0.6-2.9,0.7c-2.2,0.2-4.4,0.5-6.6,0.3
		c-3.7-0.3-7.3-0.9-10.9-1.5c-9.9-1.6-19.8-3.7-29.9-4.2c-0.2,0-0.3,0-0.5,0c-1.7-0.2-1.6-0.2-1.7-1.9c0-0.7-0.1-1.4-0.2-2.3
		c1.6,0.3,3.2,0.6,4.7,0.9c0,0,0,0.1,0,0.1c-1.3,0.2-2.6,0.4-4,0.6C117.4,147.1,117.4,147.2,117.4,147.4z"/>
	<path class="st0" d="M113,140.4c-0.5,1.3-0.9,2.4-1.3,3.6c-1.6-0.3-3.3-0.7-5-0.9c-3.2-0.3-5.5-2.2-7.7-4.1
		c-1.7-1.5-2.5-3.7-1.9-5.8c0.5-1.9,2-3.5,3.1-5.2c0.1-0.2,0.8-0.1,1,0c0.7,0.5,1.4,1,1.8,1.7c2.6,4.1,5.9,7.5,9.7,10.5
		C112.9,140.2,113,140.4,113,140.4z"/>
	<path class="st0" d="M96.8,131.4c-1.3,2.3-0.8,4.4,0.3,6.1c1,1.7,2.6,2.9,4.1,4.5c-1-0.3-2.1-0.4-2.8-1c-3.9-3.2-7.6-6.5-11.4-9.8
		c-0.3-0.2-0.6-0.4-0.9-0.7c0.1-0.1,0.2-0.2,0.2-0.3C89.7,130.7,93.2,131.1,96.8,131.4z"/>
	<path class="st0" d="M130.6,147c3,0.4,6.1,0.8,9.2,1.1c4.4,0.5,8.8,1.1,13.2,1.6c5.2,0.6,10.4,1.1,15.5,1.6c0.4,0,0.9,0.1,1.2,0.4
		c0.4,0.3,0.6,0.8,0.9,1.2c-0.4,0.1-0.9,0.4-1.3,0.4c-1.7-0.2-3.5-0.4-5.2-0.7c-10.7-1.7-21.4-3.3-32-5c-0.5-0.1-1-0.2-1.5-0.3
		C130.5,147.2,130.5,147.1,130.6,147z"/>
	<path class="st0" d="M99.7,142.2c4-0.1,6,3.2,9.3,4.7C105.1,147.1,102.8,145.9,99.7,142.2z"/>
	<path class="st0" d="M112.7,144.6c0.3,0,0.4-0.1,0.5,0c2.6,0.4,3.1,1.1,2.8,3.7c-0.1,0.7-0.3,1.2-1.1,1.2c-0.9,0-2.1-0.8-2.1-1.4
		c0-0.9,0-1.8-0.1-2.7C112.7,145.2,112.7,144.9,112.7,144.6z"/>
	<path class="st0" d="M105.2,143.1c2,0.4,4.1,0.7,6.1,1.2c0.2,0.1,0.6,0.4,0.6,0.7c0.1,0.7,0.1,1.4,0.2,2.1c-3-0.2-4.8-2.2-7-3.6
		C105.1,143.3,105.2,143.2,105.2,143.1z"/>
	<path class="st0" d="M105.6,147.2c1.8,0.5,3.7,0.1,5.4,1C108.7,150.1,106.8,149.8,105.6,147.2z"/>
	<path class="st0" d="M115.6,144.7c-1-0.1-1.7-0.2-2.4-0.4c-0.2-0.1-0.5-0.5-0.5-0.9c0-0.3,0-0.7,0.2-1c0.2-0.4,0.6-0.7,0.9-1.1
		c0.3,0.3,0.8,0.6,1,1C115.2,143,115.3,143.7,115.6,144.7z"/>
	<path class="st0" d="M133.4,135.5c-2.5-0.7-4.9-1.4-7.4-2.1c0-0.1,0.1-0.2,0.1-0.3c2.5,0.7,5,1.4,7.4,2
		C133.5,135.2,133.4,135.4,133.4,135.5z"/>
	<path class="st0" d="M111.1,133.7c-1.3-0.4-2.5-0.8-3.8-1.2c-0.5-0.2-0.9-0.9-1.6-0.3c0,0-0.4-0.4-0.7-0.6c0.1-0.1,0.1-0.2,0.2-0.3
		c2,0.7,3.9,1.4,5.9,2C111.2,133.4,111.1,133.6,111.1,133.7z"/>
	<path class="st0" d="M64.2,151.9c-1.8-0.7-3.5-1.4-5.3-2c0.1-0.1,0.1-0.3,0.2-0.4c1.8,0.7,3.5,1.4,5.3,2.1
		C64.3,151.7,64.2,151.8,64.2,151.9z"/>
	<path class="st0" d="M429.8,127.5c-0.5,0.4-0.9,0.9-1.4,1.2c-2.3,1.3-4.7,2.5-7,3.7c-1.7,0.9-3.4,1.6-5.1,2.4
		c-0.4,0.2-0.7,0.4-1,0.8c5-2.1,10.1-4.1,14.9-7.4c0,1.9,0,3.5,0,5.2c0.1,0,0.2,0,0.4,0c0.6-1.9,0.3-3.7,0-5.4
		c1-0.6,1.9-1.3,2.8-1.8c0.2-0.1,0.7,0,1,0.1c0.6,0.2,1.1,0.4,1.7,0.7c-0.9,1.1-1.8,2.2-2.7,3.3c0.1,0.1,0.1,0.1,0.2,0.2
		c0.8-0.8,1.5-1.7,2.3-2.5c0.5-0.6,1-0.6,1.8-0.4c3.2,0.7,6.5,1.3,9.8,1.9c0.4,0.1,0.9,0,1.3-0.2c-3.8-0.7-7.6-1.4-11.4-2.1
		c0-0.1,0-0.3,0-0.4c1.1-1.2,2-2.6,4-2.8c8.6-1,17.2-2.1,25.9-3.2c1.8-0.2,3.7-0.3,5.5-0.4c0-0.2,0-0.3,0-0.5
		c-5.3,0.5-10.7,1-16,1.6c-5.4,0.6-10.8,1.5-16.2,2.1c1.1-1.5,1.8-3.3,3.4-4.1c0.2-0.5,0.2-0.9,0.5-1.2c2-2.4,4.1-4.7,6-7.2
		c0.9-1.2,1.9-1.8,3.3-2c4-0.6,7.9-1.7,11.9-1.8c4-0.2,8,0.4,12,0.8c1.7,0.1,3,1.1,4.2,2.3c1.2,1.2,1.2,3-0.2,4.2
		c-2,1.7-4.1,3.6-6.4,4.8c-10.3,5.3-20.9,9.4-32.2,12.1c-7.5,1.8-15,2.9-22.6,4.2c-5.2,0.9-10.4,2.1-15.6,2.8
		c-5.2,0.7-10.4,1.1-15.7,1.3c-3,0.1-6-0.5-9.1-0.9c-1.2-0.1-1.7-1.3-0.8-2.2c0.9-1,1.9-1.8,3.3-1.9c0.3,0,0.7,0.1,1,0.1
		c1.2,0.3,2.4,0.7,3.7,0.8c4.6,0.1,9.1-0.5,13.6-1.6c8.7-2.3,17.4-4.7,26.3-6.1c1-0.1,1.9-0.4,2.8-0.5
		C429.7,127.3,429.7,127.4,429.8,127.5z"/>
	<path class="st0" d="M426.9,123.8c-7.8,1.5-15.7,2.4-23.5,4.3c-5.1,1.2-10.3,1.9-15.5,2.8c-0.5,0.1-1.1,0.1-1.7,0
		c15.6-7.3,32-12.5,48.3-17.6c-1,2.2-2.7,4.1-4.5,5.9c-0.5,0.5-1.1,1.2-1.1,1.8C428.9,122.6,428.4,123.6,426.9,123.8
		C426.8,123.8,426.9,123.8,426.9,123.8z"/>
	<path class="st0" d="M413.3,127.3c1.9-0.4,3.8-1,5.7-1.2c2.7-0.4,5.5-0.6,8.2-0.8c0.4,0,0.8,0,1.2-0.1c0-0.1,0-0.2,0-0.3
		c-1-0.1-2-0.2-3.2-0.3c0.7-0.3,1.1-0.5,1.7-0.8c0,0,0,0,0,0c0.6-0.1,1.2-0.2,1.8-0.2c0.2,1,0.4,2,0.6,3.1c-0.8,0.2-1.5,0.3-2.3,0.5
		c-5.4,1.1-10.7,2.2-16.1,3.4c-6.2,1.4-12.4,2.9-18.7,4.2c-1.9,0.4-3.9,0.1-5.8,0.1c-0.7,0-1.4-0.2-2.2-0.6c1.3-0.3,2.7-0.6,4-0.9
		c8.2-1.9,16.4-3.9,24.6-5.8C413,127.5,413.1,127.4,413.3,127.3L413.3,127.3z"/>
	<path class="st0" d="M433.4,122c-0.7,0.1-1.1-0.1-1.4-0.8c-0.3-0.6-0.8-1.2-1.1-1.6c1.4-2,3-4.1,4.4-6.2c0.5-0.8,0.9-1.8,1.3-2.6
		c0.3-0.5,0.6-1.1,1-1.6c0.5-0.6,0.9-0.6,1.4,0c0.9,0.9,1.8,1.8,2.7,2.7c1.2,1.2,1.3,4.2,0.2,5.5c-1.5,1.6-2.9,3.3-5.2,3.6
		c-0.3,0-0.6,0.3-0.9,0.5C435,121.7,434.2,121.8,433.4,122z"/>
	<path class="st0" d="M413.3,127.3c-2.2,0.5-4.4,0.9-6.7,1.4c-7.5,1.7-15,3.4-22.5,5.1c-0.4,0.1-0.9-0.2-1.3-0.3
		c0.3-0.4,0.5-1,0.8-1.1c1-0.4,2-0.5,3-0.7c9.1-1.8,18.3-3.5,27.4-5.3c0.8-0.2,1.6-0.3,2.5-0.2C415.5,126.6,414.4,126.9,413.3,127.3
		C413.3,127.3,413.3,127.3,413.3,127.3z"/>
	<path class="st0" d="M441.5,119.8c-0.3,0-0.5,0-0.6,0c0.8-1.3,1.8-2.5,2.3-3.9c0.5-1.5,0.2-3.1-1-4.6c2.8-0.5,5.4-0.9,8.4-1.5
		c-1.1,1.4-2,2.6-3,3.7c-1.5,1.7-2.9,3.5-4.5,5.2C442.7,119.3,442,119.5,441.5,119.8L441.5,119.8z"/>
	<path class="st0" d="M441.5,119.8c0.2,0,0.4,0.1,0.6,0.1c-1.6,2.3-3,4.6-6.4,4.2C437.7,122.7,439,120.5,441.5,119.8
		C441.5,119.8,441.5,119.8,441.5,119.8z"/>
	<path class="st0" d="M430.6,122.9c1.3-0.3,1.4-0.2,1.5,1.1c0,0.3-0.1,0.8,0.1,1c0.8,1,0,1.3-0.7,1.6c-0.8,0.4-1.5,0.1-1.7-0.8
		c-0.2-1-0.9-2,0.2-2.9C430.2,122.9,430.4,122.9,430.6,122.9z"/>
	<path class="st0" d="M433.4,122c0.8-0.2,1.6-0.3,2.4-0.5c0.7-0.2,1.3-0.3,2-0.5c-1.4,1.5-2.6,3.3-4.9,3.6
		C432.9,123.7,431.8,122.6,433.4,122z"/>
	<path class="st0" d="M434.1,125.2c1.4-0.3,2.8-0.6,4.4-0.9C436.5,126.9,436.8,126.9,434.1,125.2z"/>
	<path class="st0" d="M430.6,122.9c-0.2,0-0.4,0-0.6,0.1c-1.2-0.5-0.4-1.4-0.4-2.1c0-0.2,0.5-0.5,0.7-0.7c0.5,0.6,1,1.2,1.6,1.9
		C431.3,122.4,431,122.7,430.6,122.9z"/>
	<path class="st0" d="M431.2,113.4c1.3-0.6,2.6-1.1,4-1.7c0,0.1,0.1,0.2,0.1,0.3c-1.3,0.6-2.6,1.1-4,1.7
		C431.3,113.7,431.3,113.5,431.2,113.4z"/>
	<path class="st0" d="M417.4,115c-1.6,0.6-3.3,1.1-4.9,1.7c0-0.1-0.1-0.2-0.1-0.3c1.6-0.6,3.3-1.1,4.9-1.7
		C417.3,114.8,417.4,114.9,417.4,115z"/>
	<path class="st0" d="M473,124.9c1.1-0.6,2.2-1.2,3.4-1.8c0.1,0.1,0.1,0.2,0.2,0.3c-1.1,0.6-2.2,1.2-3.4,1.8
		C473.1,125.1,473,125,473,124.9z"/>
	<path d="M51.8,136c2.4,0,4.8,0,7.2,0c0,0.1,0,0.2,0,0.2c-2.4,0-4.9,0-7.3,0C51.8,136.2,51.8,136.1,51.8,136z"/>
</g>
</svg>
