<?xml version="1.0" standalone="no"?>
<!DOCTYPE svg PUBLIC "-//W3C//DTD SVG 20010904//EN"
 "http://www.w3.org/TR/2001/REC-SVG-20010904/DTD/svg10.dtd">
<svg version="1.0" xmlns="http://www.w3.org/2000/svg"
 width="479.8492px" height="211.9701px" viewBox="0 0 2000.000000 885.000000"
 preserveAspectRatio="xMidYMid meet">

<g transform="translate(0.000000,885.000000) scale(0.100000,-0.100000)"
fill="#000000" stroke="none">
<path d="M17365 8269 c-60 -10 -181 -33 -267 -50 -87 -16 -211 -36 -275 -44
-65 -7 -206 -30 -313 -50 -107 -20 -240 -45 -295 -55 -55 -9 -190 -41 -300
-70 -189 -49 -233 -62 -433 -131 -46 -16 -88 -29 -95 -29 -12 0 -141 -46 -167
-59 -8 -4 -49 -18 -90 -30 -41 -13 -120 -42 -175 -66 -55 -24 -129 -53 -164
-65 -35 -12 -102 -40 -150 -64 -47 -24 -104 -49 -126 -56 -22 -7 -78 -35 -125
-62 -46 -26 -88 -48 -93 -48 -21 0 -268 -131 -317 -168 -30 -23 -60 -42 -65
-42 -6 0 -38 -28 -72 -62 -45 -46 -68 -79 -84 -122 -20 -54 -77 -131 -122
-164 -37 -28 -77 -115 -77 -167 0 -54 31 -131 75 -189 23 -30 24 -35 10 -46
-14 -11 -25 -10 -68 9 -285 123 -435 163 -557 149 -219 -25 -261 -35 -361 -87
-65 -34 -99 -47 -106 -40 -18 18 -85 -2 -114 -33 -24 -27 -29 -29 -50 -18 -13
7 -46 33 -74 58 -27 24 -61 55 -75 67 -14 12 -50 39 -80 59 -30 20 -82 58
-115 86 -33 27 -63 49 -68 50 -4 0 -31 12 -60 26 -184 90 -483 167 -781 200
-143 16 -182 17 -385 6 -277 -16 -312 -20 -581 -77 -403 -86 -535 -124 -915
-258 -91 -33 -330 -149 -397 -193 -29 -19 -56 -34 -60 -34 -27 0 -218 -142
-257 -190 -18 -22 -40 -40 -51 -40 -11 0 -25 -14 -37 -37 -10 -21 -33 -47 -52
-58 -19 -11 -55 -42 -81 -68 l-46 -49 -144 -3 c-94 -2 -166 -9 -203 -19 -58
-16 -196 -85 -325 -163 -66 -40 -83 -47 -109 -44 -19 2 -16 22 13 84 14 31 30
83 36 115 11 57 10 62 -21 128 -25 54 -51 87 -121 154 -50 48 -99 107 -114
135 -40 75 -73 117 -114 145 -21 14 -53 37 -72 52 -55 42 -269 154 -337 177
-34 11 -111 43 -171 71 -60 27 -116 50 -124 50 -7 0 -18 4 -24 9 -12 12 -165
75 -229 94 -27 8 -97 34 -154 57 -57 23 -143 52 -190 65 -47 13 -124 38 -171
55 -47 17 -121 40 -165 50 -44 10 -136 35 -205 55 -69 21 -168 48 -220 60 -52
13 -133 34 -180 47 -117 34 -169 46 -280 62 -52 8 -117 20 -145 26 -27 6 -72
16 -100 20 -27 5 -102 19 -165 30 -63 11 -187 27 -275 35 -183 16 -746 80
-849 95 -62 10 -297 32 -486 47 -82 6 -517 -11 -699 -28 -161 -15 -279 -61
-409 -161 -93 -72 -260 -282 -249 -313 4 -8 -14 -25 -49 -47 -44 -26 -60 -44
-81 -88 -25 -50 -27 -65 -26 -161 2 -113 21 -178 76 -251 14 -18 28 -44 32
-58 20 -64 119 -162 256 -255 17 -11 49 -35 72 -54 23 -19 83 -53 132 -77 50
-23 110 -54 135 -68 77 -43 262 -123 325 -141 73 -21 176 -56 190 -65 6 -4 39
-17 75 -30 36 -12 106 -37 155 -55 94 -35 176 -58 358 -100 59 -14 155 -37
214 -51 249 -61 650 -136 798 -149 39 -4 126 -16 195 -27 69 -11 148 -18 175
-15 28 2 163 -9 300 -25 257 -28 420 -39 890 -58 149 -6 351 -15 450 -20 183
-9 308 -4 645 25 237 20 493 71 537 107 16 13 70 13 86 0 19 -16 234 -92 260
-92 12 0 46 -9 74 -20 29 -11 91 -23 138 -26 l85 -7 -33 -41 c-37 -45 -48 -65
-101 -176 -41 -87 -56 -147 -50 -197 4 -29 -6 -56 -45 -133 -53 -106 -75 -172
-96 -291 -13 -72 -25 -107 -77 -217 -42 -90 -30 -158 43 -234 16 -17 32 -43
35 -57 4 -14 12 -35 18 -46 6 -11 22 -65 35 -120 39 -165 57 -197 119 -210 26
-5 32 -11 26 -23 -12 -29 -81 -233 -120 -357 -20 -66 -41 -127 -45 -135 -5 -8
-20 -50 -35 -93 -15 -43 -31 -80 -35 -83 -5 -3 -9 -14 -9 -24 0 -10 -6 -23
-13 -27 -22 -13 -56 -95 -59 -142 -3 -39 -9 -51 -51 -90 -46 -42 -157 -182
-157 -196 0 -4 -19 -46 -42 -94 -35 -74 -90 -218 -156 -416 -9 -27 -20 -51
-24 -53 -5 -2 -8 -18 -8 -36 0 -19 -8 -40 -18 -49 -19 -18 -57 -94 -94 -192
-19 -50 -31 -65 -73 -92 -27 -18 -57 -33 -65 -33 -17 0 -40 -44 -40 -77 0 -16
8 -27 28 -34 38 -15 128 -2 171 26 32 20 38 30 49 84 20 97 28 108 79 116 35
5 61 20 119 68 63 52 83 76 125 155 28 51 48 96 45 99 -8 8 28 58 83 117 25
27 65 70 88 95 23 25 67 73 97 106 63 67 120 176 131 248 6 40 12 49 39 62 42
20 105 82 111 109 2 11 6 32 7 45 2 20 10 26 38 29 51 5 88 32 150 107 30 36
71 76 91 88 96 58 267 179 296 209 35 37 53 76 53 114 0 41 22 29 76 -42 15
-19 34 -34 44 -34 13 0 19 -15 29 -68 15 -82 58 -163 103 -190 70 -42 175 -49
242 -15 15 8 37 12 48 10 29 -8 80 12 108 42 23 25 30 27 91 23 l66 -4 -5 -56
c-3 -31 -8 -59 -12 -62 -26 -18 -38 -207 -14 -217 11 -4 6 -14 -17 -41 -17
-19 -38 -52 -46 -71 -8 -20 -29 -72 -48 -116 -46 -109 -62 -198 -74 -410 -6
-99 -16 -249 -22 -333 -11 -136 -10 -157 5 -190 19 -44 26 -223 12 -349 l-9
-83 52 0 c63 0 84 18 105 91 22 72 20 90 -13 169 l-29 68 33 6 c41 8 102 75
110 120 2 17 7 64 10 105 5 61 14 89 51 161 24 48 44 90 44 94 0 4 15 31 34
59 19 29 50 86 70 127 21 41 45 88 56 105 33 54 52 147 49 232 -3 66 -10 90
-37 142 -25 49 -31 70 -26 96 4 25 10 32 24 28 24 -6 28 3 41 93 6 43 16 88
22 99 6 11 10 47 9 80 -2 46 20 173 33 193 1 1 49 -12 106 -29 57 -18 133 -37
169 -44 36 -7 133 -26 215 -43 237 -49 351 -61 617 -66 136 -2 251 -7 257 -10
5 -3 12 -18 15 -32 4 -14 29 -71 55 -127 27 -56 52 -113 56 -127 19 -63 115
-150 167 -150 22 0 28 -5 28 -21 0 -17 -3 -19 -14 -10 -19 16 -28 -1 -17 -32
6 -14 13 -54 16 -89 10 -99 21 -125 59 -138 38 -12 91 2 106 30 12 22 -2 67
-42 131 -15 25 -34 64 -42 87 -14 38 -13 41 6 59 30 27 68 107 75 159 3 25 12
48 19 51 18 7 19 180 2 218 -9 20 -9 28 -1 33 7 4 67 16 135 26 201 30 363 64
458 96 90 30 121 36 119 23 -3 -21 2 -33 12 -28 6 4 8 13 5 20 -3 8 2 14 12
14 32 0 127 19 199 40 43 12 101 21 141 21 63 0 78 4 169 51 116 58 191 128
240 225 78 152 146 310 140 327 -3 10 -63 -115 -102 -214 -12 -31 -40 -80 -61
-109 -53 -73 -163 -179 -194 -187 -14 -3 -71 -23 -127 -44 -138 -51 -246 -64
-533 -63 l-235 0 -100 36 c-155 55 -204 77 -281 128 -39 27 -81 51 -93 55 -12
3 -30 24 -41 46 -12 22 -35 52 -52 67 -28 25 -64 89 -55 98 2 2 14 -7 27 -21
13 -14 28 -25 34 -25 5 0 -7 17 -27 38 -20 21 -37 41 -37 45 0 4 -12 26 -27
49 -34 50 -85 190 -73 198 5 3 -3 37 -17 75 -49 136 -55 342 -14 560 31 165
98 299 210 420 26 28 53 59 61 70 30 41 185 153 245 177 22 9 67 32 100 52 33
20 78 41 100 47 22 6 67 19 100 31 146 49 381 46 583 -8 116 -32 134 -39 257
-109 102 -58 145 -90 145 -110 0 -6 25 -34 55 -63 35 -32 58 -63 62 -82 3 -17
8 -28 11 -25 17 17 144 -276 168 -388 16 -79 18 -137 4 -137 -5 0 -10 -11 -10
-25 0 -34 -34 -67 -106 -103 -106 -53 -104 -53 -104 20 0 223 -162 478 -370
582 -150 76 -173 81 -368 81 l-172 0 -53 -52 c-28 -28 -89 -87 -134 -131 l-81
-79 -36 -114 c-19 -63 -46 -152 -60 -199 l-24 -85 -84 3 c-45 2 -105 10 -133
18 -194 54 -287 76 -335 79 -30 2 -44 2 -30 -1 14 -3 45 -11 70 -19 156 -49
364 -95 433 -95 l73 0 -4 -192 c-3 -117 0 -222 7 -268 11 -75 44 -172 66 -200
7 -8 22 -34 33 -56 21 -42 121 -137 177 -168 17 -10 52 -32 79 -51 63 -44 130
-58 282 -59 99 -1 125 2 140 15 11 9 37 22 59 29 78 25 201 90 232 122 34 36
143 205 143 223 0 5 9 26 19 46 42 79 59 161 67 327 4 108 11 162 18 162 12 0
87 36 154 74 36 21 42 22 42 8 -1 -101 -23 -317 -36 -347 -19 -47 -12 -55 15
-16 30 42 60 132 67 205 l6 62 33 -4 c62 -7 137 16 210 66 61 42 71 54 82 93
6 24 30 98 54 164 50 142 60 233 36 316 -9 30 -23 79 -30 109 -62 246 -153
466 -232 560 -21 25 -44 59 -51 75 -18 42 -84 131 -84 114 0 -8 -13 10 -28 39
-26 50 -76 112 -170 211 -45 46 -82 94 -82 105 0 3 32 6 70 6 46 0 70 4 70 12
0 8 33 9 123 5 179 -10 401 21 432 59 6 7 26 17 45 23 82 24 177 62 221 90
l47 29 68 -19 c37 -10 152 -26 255 -35 159 -14 226 -14 441 -5 139 6 298 17
353 25 55 8 163 23 240 35 77 11 187 25 245 31 118 13 404 60 537 89 48 11
113 22 143 26 30 4 103 18 162 31 59 13 126 24 150 24 24 0 77 9 118 20 41 11
109 27 150 35 140 28 474 123 625 179 50 18 137 49 195 69 134 45 220 79 295
118 33 17 143 73 245 124 102 51 203 108 225 127 22 19 60 46 85 61 42 25 72
52 203 188 54 55 55 59 82 172 28 123 28 131 -6 243 -24 78 -96 157 -152 168
-21 4 -35 11 -32 16 7 12 -51 77 -84 95 -14 8 -45 31 -67 52 -51 46 -228 136
-311 157 -95 25 -628 21 -778 -5z m777 -15 c79 -20 258 -109 302 -150 19 -18
49 -40 66 -49 19 -10 39 -33 51 -58 25 -56 24 -62 -11 -77 -27 -11 -35 -10
-86 21 -30 19 -63 42 -72 52 -15 17 -15 17 4 12 33 -10 -107 54 -171 78 -22 8
-76 23 -120 32 -44 9 -118 25 -165 35 -106 24 -197 32 -233 22 -17 -4 -34 -20
-45 -41 -13 -27 -28 -39 -67 -52 -27 -10 -69 -18 -91 -18 -54 -1 -242 -34
-407 -71 -73 -17 -161 -33 -197 -36 -69 -6 -280 10 -341 26 -20 6 -58 11 -85
11 -60 2 -314 -36 -369 -56 -22 -8 -78 -23 -125 -34 -47 -12 -123 -32 -170
-46 -77 -23 -110 -37 -234 -96 -22 -11 -45 -19 -50 -19 -6 0 -43 -15 -81 -33
-39 -19 -95 -44 -125 -55 -30 -12 -95 -38 -145 -57 -49 -20 -130 -50 -180 -67
-49 -16 -128 -47 -175 -69 -47 -21 -121 -48 -165 -59 -81 -20 -180 -56 -201
-72 -7 -5 -50 -21 -97 -37 -47 -16 -116 -46 -154 -67 -86 -47 -189 -150 -203
-203 -5 -21 -27 -68 -47 -105 -40 -72 -56 -81 -153 -88 -41 -3 -45 -1 -48 20
-2 13 4 34 12 47 9 13 16 36 16 50 0 73 84 169 236 268 56 37 105 67 109 67 4
0 106 49 226 109 120 60 229 113 241 116 13 4 65 27 117 52 51 24 127 56 168
70 41 13 112 42 156 62 45 21 97 41 116 44 19 4 96 29 170 57 75 27 150 52
166 56 17 3 93 28 170 54 77 26 183 57 235 69 52 11 151 36 220 55 69 19 150
37 180 41 30 4 166 26 302 51 137 24 303 50 370 59 66 9 164 25 217 35 53 10
134 26 181 36 168 33 660 38 782 8z m-183 -124 c127 -28 195 -44 281 -68 26
-8 9 -9 -65 -4 -55 3 -196 6 -312 6 -117 1 -213 4 -213 9 0 4 4 7 9 7 5 0 12
11 15 24 16 66 77 72 285 26z m210 -95 l152 -15 68 -49 c77 -55 123 -81 144
-81 8 0 32 12 53 26 38 26 38 26 72 8 18 -10 50 -39 71 -65 54 -67 68 -141 52
-261 -18 -141 -21 -146 -172 -296 -68 -68 -275 -218 -324 -235 -16 -6 -73 -34
-125 -62 -53 -29 -107 -56 -120 -60 -14 -4 -36 -15 -50 -25 -14 -10 -44 -27
-67 -39 -54 -27 -390 -149 -434 -157 -19 -4 -38 -10 -44 -14 -15 -11 -245 -88
-285 -95 -39 -7 -190 -47 -289 -76 -35 -11 -104 -24 -155 -29 -50 -6 -194 -33
-321 -60 -126 -27 -273 -55 -325 -64 -52 -8 -149 -24 -215 -35 -230 -37 -461
-70 -570 -81 -60 -5 -153 -17 -205 -25 -136 -22 -619 -31 -798 -16 -242 22
-393 71 -496 162 -19 16 -38 29 -43 29 -5 0 -27 19 -48 43 -45 50 -95 154 -95
198 0 34 67 166 88 174 8 3 28 -7 45 -21 25 -21 37 -24 66 -19 26 4 32 3 21
-4 -13 -9 -12 -11 5 -12 84 -8 103 4 141 89 85 188 80 182 191 225 54 20 159
51 233 67 176 39 208 50 376 130 78 37 175 77 215 89 41 12 135 42 209 67 74
25 167 54 206 64 39 10 124 39 190 64 65 25 126 46 135 46 25 0 146 36 239 70
47 18 126 40 175 51 50 10 117 26 150 35 33 9 85 22 115 30 30 7 73 18 95 24
325 83 388 96 540 110 170 15 357 47 420 72 28 11 68 23 90 28 71 14 464 11
624 -5z m-755 -15 c-32 -13 -242 -52 -255 -48 -7 2 46 16 117 30 134 28 174
33 138 18z m-854 -59 c36 -5 100 -12 144 -16 111 -10 106 -12 -145 -76 -93
-24 -119 -21 -119 11 0 12 -7 34 -15 50 -14 26 -13 30 3 39 9 6 28 9 42 6 14
-3 54 -9 90 -14z m-151 -57 c12 -32 20 -58 19 -58 -8 -5 -105 -29 -183 -45
-49 -11 -120 -29 -156 -40 -36 -12 -97 -27 -135 -35 -38 -7 -114 -26 -169 -41
-55 -16 -154 -42 -220 -60 -126 -34 -312 -95 -530 -175 -71 -26 -146 -51 -165
-55 -32 -7 -143 -48 -215 -80 -16 -7 -41 -16 -55 -20 -14 -4 -86 -31 -160 -60
-74 -29 -146 -56 -160 -60 -14 -4 -53 -18 -87 -31 -76 -30 -82 -30 -54 0 46
49 222 126 496 218 66 22 152 54 190 71 39 17 113 45 165 63 52 18 142 52 200
77 58 24 123 50 145 57 22 7 74 29 115 50 41 20 104 47 140 60 36 12 70 26 75
30 26 21 154 64 280 96 77 20 169 45 204 56 65 21 139 35 202 37 35 1 37 -1
58 -55z m-13579 -298 c14 -3 81 -13 150 -20 69 -8 240 -28 380 -45 140 -16
298 -33 350 -36 126 -8 377 -40 520 -66 63 -11 169 -29 235 -39 192 -30 478
-96 725 -167 85 -25 182 -51 215 -59 33 -7 105 -27 160 -45 55 -17 136 -42
180 -55 90 -27 215 -70 260 -89 17 -7 62 -23 100 -34 39 -12 113 -39 165 -61
52 -21 131 -53 175 -70 44 -17 93 -40 110 -50 16 -10 66 -30 109 -45 105 -36
270 -116 376 -183 134 -84 200 -158 216 -241 3 -14 18 -40 35 -58 16 -19 29
-45 29 -60 l0 -26 -82 6 c-105 7 -111 10 -127 53 -7 19 -25 50 -41 67 -16 18
-40 55 -55 82 -32 60 -54 85 -125 139 -100 76 -101 77 -470 200 -25 9 -97 27
-160 42 -63 14 -155 41 -205 59 -49 17 -124 42 -165 54 -171 52 -206 63 -225
71 -11 5 -40 13 -65 18 -25 6 -88 26 -140 46 -52 19 -142 52 -200 72 -58 20
-144 52 -192 70 -48 19 -104 38 -125 43 -21 5 -94 25 -162 45 -68 19 -171 42
-230 51 -58 8 -146 23 -196 34 -49 11 -158 26 -242 32 -137 10 -158 10 -205
-6 -95 -31 -154 -44 -279 -61 -135 -18 -197 -14 -564 37 -77 11 -214 26 -305
34 -91 7 -185 20 -210 28 -25 9 -56 18 -70 21 -14 3 -35 21 -48 41 -12 20 -34
40 -48 45 -55 21 -165 4 -319 -49 -44 -16 -101 -31 -126 -35 -68 -10 -206 -61
-252 -93 -22 -15 -62 -40 -90 -55 -63 -34 -78 -48 -52 -48 15 0 3 -17 -45 -66
-65 -65 -65 -66 -113 -61 -57 5 -58 6 -67 54 -8 50 11 97 64 153 23 25 55 62
70 83 15 20 34 37 42 37 8 0 33 17 57 39 60 55 111 84 197 114 87 29 105 33
260 48 243 24 731 27 820 5z m12709 -20 c-7 -7 -114 -46 -124 -45 -5 0 17 11
50 24 57 23 84 30 74 21z m-13182 -127 c15 -5 43 -27 61 -47 18 -20 47 -42 65
-48 29 -10 24 -12 -58 -18 -202 -13 -458 -38 -585 -56 -74 -11 -142 -19 -150
-19 -18 0 38 31 60 34 8 1 41 14 73 29 33 16 102 38 155 51 54 12 120 30 147
39 47 15 166 43 192 45 6 1 24 -4 40 -10z m1696 -146 c6 -4 -1 -143 -8 -151
-5 -5 -209 27 -330 52 -116 24 -117 28 -18 46 94 16 199 40 243 54 40 13 90
13 113 -1z m10722 8 c-3 -5 -27 -17 -53 -27 -26 -10 -52 -21 -58 -26 -23 -17
-236 -84 -217 -69 16 14 242 103 331 130 2 1 1 -3 -3 -8z m-12116 -11 c56 -29
632 -96 792 -91 31 1 103 -7 160 -18 57 -11 129 -23 159 -26 79 -9 251 -46
275 -58 11 -6 28 -10 37 -8 10 1 64 -7 120 -18 57 -11 130 -23 163 -26 95 -10
160 -24 310 -67 77 -23 178 -47 225 -54 101 -16 106 -17 241 -60 58 -18 141
-40 185 -47 43 -8 134 -31 202 -51 68 -20 165 -44 215 -55 174 -36 241 -58
526 -171 71 -28 147 -45 316 -70 163 -24 360 -84 382 -115 31 -44 139 -222
150 -246 9 -22 20 -28 55 -31 24 -2 54 -1 68 2 23 7 21 8 -20 19 -67 18 -71
22 -15 14 101 -14 119 -11 135 23 l16 31 32 -21 c37 -24 101 -126 109 -172 12
-72 -56 -255 -102 -276 -14 -6 -33 -26 -44 -43 -10 -18 -29 -40 -42 -49 -163
-115 -184 -123 -469 -185 -139 -30 -337 -50 -570 -57 -205 -7 -789 8 -1100 27
-163 9 -599 52 -715 69 -33 5 -109 11 -170 15 -60 3 -145 8 -189 10 -43 2
-117 11 -165 19 -200 35 -402 69 -490 82 -51 8 -97 16 -101 19 -16 10 -368 94
-420 100 -30 4 -111 25 -180 47 -69 22 -153 48 -186 58 -34 10 -77 25 -95 33
-65 30 -190 77 -205 77 -36 0 -332 122 -424 175 -36 20 -82 43 -102 51 -46 16
-195 112 -263 169 -27 23 -64 49 -81 58 -53 27 -131 141 -210 307 -38 80 -45
205 -14 275 12 28 29 58 38 69 23 24 92 59 92 46 0 -16 64 -40 105 -40 51 0
70 12 155 99 l75 78 115 21 c133 25 240 37 470 52 91 6 183 12 205 14 97 7
228 5 244 -4z m346 -21 c66 -6 134 -15 150 -20 24 -7 18 -8 -25 -4 -30 3 -113
10 -185 16 -71 6 -139 15 -150 20 -13 7 -2 8 35 4 30 -3 109 -10 175 -16z
m1265 6 c63 -9 140 -22 170 -30 30 -8 89 -19 130 -26 41 -6 113 -21 160 -34
47 -12 102 -26 123 -29 21 -4 90 -28 155 -53 64 -25 135 -50 157 -55 22 -5 59
-17 81 -28 44 -20 196 -75 254 -91 19 -6 94 -30 165 -54 72 -24 161 -51 199
-60 37 -8 98 -28 135 -44 87 -38 155 -58 216 -66 49 -7 315 -90 466 -145 76
-28 195 -97 185 -107 -2 -3 -26 2 -53 10 -26 8 -61 18 -78 21 -16 4 -106 31
-200 61 -370 118 -454 144 -555 168 -58 14 -139 37 -180 50 -41 13 -109 32
-150 42 -72 16 -106 26 -302 81 -48 13 -133 33 -190 44 -57 10 -204 39 -328
64 -299 59 -421 82 -568 106 -68 11 -132 25 -143 30 -11 6 -24 8 -29 5 -11 -7
-13 59 -4 118 8 44 11 45 184 22z m6970 -384 c330 -63 438 -90 575 -144 122
-49 152 -66 235 -131 52 -42 124 -96 158 -122 35 -25 62 -47 60 -50 -5 -4
-117 36 -250 90 -48 19 -125 43 -170 52 -46 9 -108 23 -138 30 -83 22 -301 44
-430 44 -102 0 -377 -20 -485 -35 -29 -5 -36 -3 -25 4 13 9 10 15 -15 36 -43
36 -221 133 -264 144 -20 5 -71 15 -115 22 -49 8 -73 15 -64 20 24 13 245 49
363 58 172 14 442 6 565 -18z m-5961 -27 c10 -9 -35 -3 -49 6 -11 8 -7 9 15 4
17 -4 32 -8 34 -10z m61 -14 c11 -8 7 -9 -15 -4 -37 8 -45 14 -19 14 10 0 26
-5 34 -10z m5030 -51 c96 -18 255 -85 317 -135 23 -19 47 -34 55 -34 37 -1
-27 -19 -107 -30 -82 -11 -248 -51 -480 -114 -86 -23 -356 -127 -379 -145 -25
-20 -132 -72 -175 -85 -25 -8 -99 -37 -164 -65 -65 -28 -120 -51 -124 -51 -3
0 -28 -16 -56 -36 -28 -21 -70 -45 -94 -56 -47 -21 -148 -119 -206 -201 l-38
-54 -53 5 c-30 2 -70 -1 -90 -8 -34 -11 -37 -10 -61 19 -33 39 -85 56 -126 42
-26 -9 -39 -6 -89 19 -32 16 -61 34 -64 39 -3 5 -29 12 -56 16 -28 4 -50 9
-50 13 0 9 32 42 42 42 5 0 30 15 57 33 27 17 78 50 112 71 37 23 57 41 48 44
-42 11 -42 13 -3 53 35 37 251 189 268 189 4 0 44 22 90 50 45 27 100 56 122
64 21 7 79 32 128 55 49 23 125 53 170 66 44 13 113 35 151 50 39 15 120 40
180 56 61 16 150 41 199 55 182 54 314 63 476 33z m3497 -15 c-3 -3 -12 -4
-19 -1 -8 3 -5 6 6 6 11 1 17 -2 13 -5z m-7646 -178 c95 -25 312 -97 307 -102
-16 -14 -387 102 -425 133 -17 13 -16 13 3 4 12 -6 64 -22 115 -35z m5299 -1
c96 -9 195 -22 220 -30 25 -8 89 -26 144 -40 54 -13 103 -29 110 -34 6 -5 26
-12 44 -16 18 -4 62 -20 96 -35 34 -16 98 -40 142 -54 53 -17 92 -37 112 -57
30 -29 32 -30 32 -10 0 27 5 26 59 -4 58 -34 63 -31 13 7 -23 18 -42 35 -42
39 0 14 39 39 70 45 33 7 33 7 27 -24 -8 -39 13 -44 36 -9 27 42 127 93 237
122 152 40 306 41 443 2 96 -27 187 -71 194 -94 3 -7 -13 -23 -34 -36 -49 -32
-78 -64 -90 -102 -12 -39 -38 -44 -228 -48 l-150 -4 105 27 c121 31 151 42
169 64 21 26 4 38 -47 31 -139 -19 -370 -57 -388 -65 -16 -6 -42 1 -105 31
-84 38 -129 43 -129 13 0 -20 36 -40 120 -64 41 -12 101 -30 132 -41 48 -16
87 -19 245 -19 197 0 204 1 348 45 50 15 115 34 145 42 30 8 73 28 94 44 44
32 96 38 116 14 18 -21 124 -83 157 -91 l26 -7 -22 -19 c-28 -22 -41 -23 -41
-3 0 22 -6 20 -84 -29 -39 -25 -84 -48 -99 -51 -15 -4 -31 -13 -35 -20 -24
-40 -291 -96 -389 -81 -21 3 -112 8 -202 12 l-163 6 -46 35 c-86 65 -150 75
-73 11 45 -39 48 -43 27 -46 -12 -2 -50 14 -87 35 -36 22 -141 64 -243 98
l-179 60 97 3 c85 2 96 5 86 17 -15 18 -116 20 -188 4 -43 -10 -62 -9 -143 11
-52 13 -116 31 -144 40 -46 17 -111 30 -225 45 -25 3 -177 6 -338 5 -297 0
-328 -3 -499 -45 -34 -9 -88 -27 -120 -41 -32 -15 -80 -33 -108 -41 -27 -8
-54 -18 -60 -23 -5 -4 -28 -13 -50 -20 -52 -17 -142 -67 -183 -102 -18 -15
-37 -28 -42 -28 -41 0 -146 -71 -251 -170 -207 -194 -318 -314 -361 -386 -12
-21 -37 -58 -54 -80 -17 -23 -42 -64 -54 -90 -13 -27 -33 -65 -45 -84 -12 -19
-25 -46 -30 -60 -4 -14 -13 -38 -20 -55 -60 -136 -105 -503 -71 -577 7 -15 3
-18 -17 -18 -68 0 -302 -86 -441 -162 -38 -21 -71 -38 -73 -38 -2 0 -56 -23
-120 -51 -89 -40 -137 -55 -212 -66 -182 -27 -510 -99 -528 -116 -3 -4 -6 -24
-5 -44 2 -54 73 -123 182 -175 94 -45 348 -131 450 -153 75 -16 107 -11 190
32 72 37 257 166 295 207 6 6 32 26 59 44 37 25 47 29 42 15 -49 -125 -76
-274 -76 -415 l0 -88 -25 10 c-13 5 -70 14 -127 20 -164 17 -370 48 -481 74
-56 13 -131 27 -167 31 -86 9 -182 44 -271 96 -162 97 -224 189 -223 334 0 70
6 93 43 186 l43 107 96 25 c54 15 131 31 172 37 41 6 140 25 220 41 146 30
322 62 415 74 150 20 404 99 479 150 17 12 33 31 34 45 l4 25 -24 -21 c-12
-12 -41 -31 -63 -43 -22 -12 -47 -25 -55 -31 -42 -26 -398 -111 -555 -133 -60
-8 -195 -33 -300 -55 -104 -23 -222 -45 -262 -51 -39 -6 -83 -15 -97 -21 -14
-5 -26 -7 -26 -3 0 3 30 63 67 132 38 69 75 144 84 166 9 22 35 60 58 84 22
24 41 50 41 56 0 19 56 90 89 114 20 15 74 30 158 47 254 49 435 100 606 170
72 30 133 56 136 59 9 9 58 95 86 150 17 35 25 66 25 105 0 53 -1 55 -58 110
-55 52 -63 57 -153 77 -52 12 -119 25 -149 28 -64 7 -120 23 -120 35 0 4 7 13
16 21 8 7 30 35 49 63 24 37 47 57 82 74 27 12 69 41 93 64 53 48 188 138 208
138 27 0 348 134 432 180 47 26 99 50 115 54 17 4 91 29 165 55 74 26 180 58
235 70 55 12 161 36 235 52 96 22 200 36 360 48 290 23 369 24 580 6z m2058
-239 c8 -9 -186 -98 -204 -94 -16 4 -12 11 26 47 25 24 58 52 74 62 27 16 33
17 65 3 19 -8 37 -16 39 -18z m-1846 -24 c14 -6 57 -14 95 -17 82 -7 136 -19
185 -39 20 -9 77 -23 125 -31 211 -37 480 -118 549 -167 27 -19 63 -42 79 -51
17 -9 24 -16 18 -17 -29 -1 -10 -20 20 -20 53 0 116 -50 242 -193 28 -31 92
-100 143 -154 51 -53 101 -111 109 -127 9 -17 24 -37 34 -44 17 -11 109 -137
109 -148 0 -3 22 -56 50 -117 27 -62 54 -137 60 -167 7 -30 20 -84 30 -120 26
-90 50 -203 50 -234 0 -27 -35 -91 -62 -114 -32 -26 -102 -43 -155 -36 -61 7
-95 33 -112 86 -7 20 -33 89 -59 155 -40 99 -62 137 -139 238 -50 66 -104 130
-120 141 -15 12 -62 47 -103 79 -41 31 -106 72 -145 90 -149 73 -501 114 -680
80 -174 -32 -271 -62 -366 -112 -52 -27 -103 -52 -114 -56 -11 -4 -47 -24 -80
-46 -33 -21 -79 -49 -103 -61 -23 -12 -49 -34 -56 -49 -8 -14 -36 -49 -63 -78
-78 -84 -96 -111 -178 -268 -42 -82 -81 -154 -85 -160 -4 -5 -14 -34 -23 -63
-19 -66 -69 -149 -110 -182 -28 -22 -39 -25 -107 -23 -41 2 -109 9 -150 18
-41 8 -97 19 -125 24 -27 5 -86 18 -130 28 -44 11 -109 26 -145 32 -36 7 -90
21 -120 31 -30 10 -104 32 -165 49 -151 42 -316 96 -352 115 -17 8 -36 29 -43
46 -21 52 -1 242 44 410 21 79 99 250 147 322 69 105 81 121 128 182 114 148
461 466 509 466 8 0 42 21 76 48 33 26 77 55 96 64 56 27 242 98 259 98 9 1
34 8 56 16 79 30 271 75 334 79 35 2 66 7 70 10 11 11 444 0 473 -13z m904
-28 c18 -14 18 -14 -6 -3 -31 14 -36 19 -24 19 6 0 19 -7 30 -16z m564 10 c0
-13 -116 -55 -178 -63 -122 -17 -177 -21 -192 -11 -19 12 -14 13 140 40 69 12
143 25 165 30 52 10 65 11 65 4z m-264 -346 l19 -23 -25 20 c-14 11 -27 21
-29 22 -2 2 0 3 6 3 5 0 18 -10 29 -22z m-4591 -88 c100 -26 215 -85 215 -110
0 -15 7 -20 25 -20 29 0 30 2 10 40 -18 34 -13 36 46 20 23 -6 40 -19 47 -35
9 -19 9 -25 -1 -25 -6 0 -23 -10 -37 -21 l-25 -21 43 6 c38 6 42 4 42 -14 0
-34 -27 -88 -62 -122 -38 -38 -134 -108 -147 -108 -5 0 -24 -12 -41 -27 -26
-21 -50 -29 -128 -39 -54 -7 -182 -25 -287 -38 -326 -44 -415 -36 -604 53
-133 63 -168 74 -163 54 2 -15 -26 -17 -47 -4 -18 12 -9 25 47 63 26 17 68 49
94 71 40 34 51 38 78 32 18 -4 48 -18 67 -31 21 -14 50 -24 70 -24 40 0 173
-29 188 -40 6 -5 46 -13 90 -20 151 -22 504 35 573 92 7 6 36 22 64 35 28 13
60 33 70 45 19 22 19 22 -1 30 -23 8 -93 -20 -148 -60 -19 -14 -41 -21 -51
-18 -10 4 -103 13 -207 21 -257 20 -317 8 -214 -42 46 -23 102 -38 182 -48 27
-4 47 -8 45 -10 -10 -9 -241 -24 -286 -18 -49 5 -55 9 -72 43 -22 43 -70 87
-117 107 -18 7 -33 17 -33 21 0 12 91 77 151 108 118 60 173 72 319 72 97 0
154 -5 205 -18z m4795 -135 c13 -14 21 -25 18 -25 -2 0 -15 11 -28 25 -13 14
-21 25 -18 25 2 0 15 -11 28 -25z m-4227 8 c4 -3 1 -13 -6 -22 -11 -14 -10
-14 5 -2 14 10 27 11 65 2 27 -6 96 -18 155 -26 122 -16 173 -38 236 -98 39
-38 42 -45 42 -92 0 -48 -8 -70 -69 -185 -27 -51 -47 -66 -136 -98 -44 -16
-114 -43 -155 -60 -78 -31 -319 -92 -450 -113 -109 -17 -190 -46 -227 -82 -18
-17 -33 -36 -33 -42 0 -13 -77 -126 -92 -136 -10 -6 -51 -85 -149 -281 -27
-54 -55 -98 -63 -98 -8 0 -47 -14 -87 -31 -41 -17 -89 -35 -108 -41 -19 -5
-70 -30 -114 -54 -72 -40 -259 -122 -329 -144 -24 -7 -28 -6 -28 11 0 11 9 37
20 59 29 57 55 134 75 225 23 110 39 152 102 280 55 112 60 127 94 274 20 87
119 287 149 302 8 4 71 16 140 26 102 16 126 17 128 6 2 -7 7 -13 12 -13 4 0
10 -27 12 -59 2 -33 11 -67 19 -77 7 -9 61 -40 118 -67 85 -40 118 -51 173
-55 42 -3 68 -1 68 5 0 11 -46 23 -86 23 -31 0 -148 47 -203 81 -56 36 -72 59
-74 111 l-2 43 60 7 c33 4 267 10 520 12 447 4 506 8 533 29 7 6 12 6 12 0 0
-12 -65 -41 -99 -45 -36 -4 -39 -28 -3 -28 32 0 120 42 140 68 19 25 15 100
-8 132 -11 15 -39 35 -62 45 -46 18 -220 34 -380 35 -53 0 -99 4 -102 9 -3 5
1 28 10 52 8 24 12 54 9 66 -4 17 1 26 22 37 28 15 134 22 146 9z m-1203 -94
c33 -23 65 -50 71 -60 9 -17 6 -19 -21 -19 -34 0 -200 68 -200 82 0 10 57 37
78 38 7 0 39 -18 72 -41z m460 -19 c168 -13 172 -14 163 -36 -5 -14 -20 -16
-122 -11 -121 5 -258 37 -245 58 3 6 18 8 32 5 15 -3 92 -10 172 -16z m844
-91 c115 -11 176 -25 176 -41 0 -6 14 -23 31 -38 29 -24 31 -28 18 -48 -7 -12
-36 -31 -64 -43 -48 -21 -59 -21 -270 -15 -121 4 -229 7 -240 7 -11 1 -96 -2
-190 -5 -103 -3 -160 -2 -145 3 14 5 41 9 60 10 23 1 52 13 84 36 58 41 73 42
274 19 165 -19 318 -16 332 6 5 8 8 19 7 24 -1 4 -48 10 -102 12 -55 2 -129 9
-165 14 -36 6 -93 12 -127 13 -35 1 -63 2 -63 3 0 1 12 16 28 33 l27 32 115
-6 c63 -4 160 -11 214 -16z m-151 -96 c-7 -2 -21 -2 -30 0 -10 3 -4 5 12 5 17
0 24 -2 18 -5z m154 0 c-20 -2 -52 -2 -70 0 -17 2 0 4 38 4 39 0 53 -2 32 -4z
m3508 -97 c83 -12 116 -23 195 -63 52 -26 120 -68 150 -94 31 -26 70 -54 88
-63 18 -9 32 -20 32 -25 0 -5 19 -33 43 -62 69 -86 114 -151 147 -213 34 -64
81 -193 82 -229 2 -26 31 -61 75 -88 44 -28 145 -28 207 0 l46 20 -20 -39
c-20 -39 -51 -66 -105 -89 -19 -8 -31 -9 -33 -3 -2 6 -19 0 -39 -13 -37 -26
-44 -25 -91 13 -22 17 -49 96 -74 216 -12 59 -37 112 -89 185 -22 30 -39 59
-39 64 0 32 -230 267 -262 267 -6 0 -25 11 -42 24 -17 13 -50 33 -73 45 -214
109 -515 157 -728 116 -94 -18 -282 -86 -333 -120 -20 -14 -41 -25 -47 -25
-36 0 -257 -162 -286 -210 -9 -14 -30 -37 -46 -51 -17 -14 -38 -38 -48 -55
-10 -16 -29 -40 -41 -54 -12 -14 -38 -59 -59 -100 -20 -41 -59 -118 -86 -171
-27 -53 -49 -102 -49 -109 0 -29 -71 -173 -100 -202 l-32 -31 -114 11 c-114
12 -209 37 -494 128 -262 84 -374 115 -462 129 -129 20 -258 85 -258 130 0 4
7 -1 16 -9 8 -9 22 -16 30 -16 8 0 34 -10 57 -21 48 -25 203 -74 262 -84 22
-4 90 -24 150 -45 61 -20 139 -43 175 -49 125 -23 206 -40 295 -61 50 -11 135
-27 189 -35 114 -16 145 -9 204 48 39 37 57 69 83 146 18 55 118 253 195 383
36 61 101 141 180 222 34 34 106 77 294 174 147 76 182 89 315 113 119 21 377
19 540 -5z m-70 -499 c140 -51 192 -77 235 -118 l45 -43 -53 38 c-56 41 -124
66 -262 97 -101 22 -173 24 -226 5 -170 -60 -240 -128 -320 -311 -70 -160 -88
-214 -115 -342 -37 -180 -39 -318 -8 -434 20 -73 33 -99 116 -225 108 -165
192 -204 433 -204 195 0 265 24 392 133 64 54 118 143 163 267 29 81 65 290
65 382 0 125 -77 424 -138 533 -14 25 32 -22 61 -64 65 -89 107 -246 106 -396
0 -311 -26 -433 -130 -610 -84 -144 -139 -194 -264 -241 -55 -21 -112 -47
-127 -58 -23 -16 -42 -19 -106 -18 -97 2 -222 25 -259 48 -207 128 -253 172
-310 291 -103 215 -110 486 -22 783 17 58 36 128 43 155 16 65 37 103 85 159
58 67 166 156 190 156 11 0 23 5 26 10 4 6 -5 10 -21 10 -15 0 -24 3 -21 7 16
15 91 22 217 19 116 -2 145 -7 205 -29z m-40 -52 c93 -16 184 -51 185 -72 0
-6 11 -25 25 -41 36 -43 84 -182 102 -297 24 -153 24 -515 0 -624 -25 -110
-82 -244 -121 -284 -36 -36 -113 -100 -127 -105 -15 -6 -10 -20 9 -25 40 -9
-151 -19 -256 -14 -183 10 -247 49 -356 217 -27 41 -57 87 -68 102 -59 88 -63
383 -8 583 32 116 113 306 162 382 75 116 194 189 313 192 28 0 91 -6 140 -14z
m786 -189 c10 -34 19 -72 18 -86 0 -14 -10 5 -23 45 -13 39 -37 101 -54 139
-18 38 -32 72 -32 75 0 20 75 -123 91 -173z m-537 91 c92 -72 93 -73 158 -262
l62 -180 0 -170 c0 -196 -7 -233 -72 -404 -43 -113 -52 -129 -112 -191 -36
-37 -83 -77 -105 -89 -22 -11 -51 -29 -65 -38 -14 -9 -6 2 17 25 23 22 53 48
66 57 14 9 33 33 42 53 10 20 28 60 41 87 51 108 74 249 74 461 0 168 -13 324
-35 425 -16 74 -68 193 -98 227 -26 28 -10 28 27 -1z m-3127 -179 c4 -7 6 -21
5 -30 -2 -10 1 -18 6 -18 5 0 26 -30 46 -67 21 -38 48 -86 61 -108 13 -22 22
-42 19 -44 -2 -3 -45 -4 -94 -2 -136 4 -194 -29 -231 -132 -8 -24 -29 -50 -57
-70 -24 -18 -78 -59 -120 -92 -187 -145 -295 -205 -369 -205 -78 0 -344 81
-505 153 -67 30 -152 105 -167 148 -12 34 6 59 42 59 12 0 67 11 122 24 55 13
163 36 240 50 264 49 242 41 520 176 193 93 255 118 380 150 85 23 92 23 102
8z m3710 -103 c21 -38 69 -74 106 -80 36 -6 85 10 180 60 l29 15 -7 -32 c-17
-76 -43 -115 -99 -153 -55 -36 -152 -67 -201 -63 l-25 2 0 111 c0 60 -2 135
-5 165 -3 39 -2 46 3 25 5 -16 13 -39 19 -50z m-3517 28 c193 -46 434 -114
545 -153 61 -22 139 -47 175 -55 36 -9 92 -25 125 -36 70 -22 177 -39 256 -39
88 0 117 34 184 218 15 40 28 72 30 70 6 -7 -18 -136 -31 -166 -16 -38 -18
-56 -4 -47 6 4 10 -28 10 -89 l0 -96 -41 -39 c-22 -22 -61 -50 -86 -62 -44
-21 -50 -22 -152 -10 -58 7 -140 24 -181 37 -112 38 -453 122 -545 135 -73 10
-88 16 -172 71 -51 34 -94 67 -97 75 -3 7 -12 13 -19 13 -16 0 -49 46 -101
144 -29 53 -33 67 -19 61 10 -4 65 -18 123 -32z m-1719 -85 c-5 -13 -23 -53
-39 -89 -37 -82 -56 -169 -47 -217 9 -48 71 -170 104 -205 27 -30 129 -101
194 -135 41 -22 122 -43 232 -62 39 -7 106 -21 150 -32 123 -30 226 -47 390
-63 83 -8 174 -22 203 -30 47 -14 53 -19 49 -38 -3 -12 -9 -61 -12 -109 l-7
-88 -31 0 c-31 0 -53 3 -262 41 -110 20 -220 54 -270 85 -11 7 -47 17 -80 24
-33 6 -75 16 -94 22 -40 13 -171 115 -201 159 -12 16 -43 40 -68 54 -26 13
-69 42 -95 64 -115 96 -309 98 -364 3 -12 -21 -37 -57 -56 -80 -20 -23 -37
-47 -39 -54 -4 -10 -14 -10 -47 0 -48 15 -55 27 -96 167 -14 50 -33 105 -41
123 -8 18 -14 41 -14 50 0 10 -20 49 -43 87 l-44 70 61 20 c33 10 144 60 246
111 102 50 208 99 235 108 28 9 57 21 65 26 24 15 30 12 21 -12z m1504 -170
c-33 -16 -69 -38 -80 -48 -11 -9 -28 -20 -38 -23 -17 -7 -17 -6 0 24 32 55 64
74 124 76 l54 2 -60 -31z m133 21 c-26 -14 -23 -32 2 -19 27 15 76 -1 126 -40
32 -26 34 -30 18 -36 -106 -33 -133 -109 -95 -263 12 -46 32 -105 46 -129 l25
-45 -31 -31 c-36 -35 -64 -87 -73 -136 -8 -40 -12 -50 -61 -179 -20 -52 -48
-151 -62 -220 -35 -178 -39 -195 -62 -294 -23 -97 -26 -143 -11 -152 9 -6 61
93 80 155 l8 25 0 -25 c0 -14 -7 -63 -17 -110 -20 -96 -19 -95 -101 -57 -49
23 -146 29 -214 13 l-39 -9 7 54 c4 29 12 59 17 65 18 21 70 742 62 844 -8 96
14 241 56 359 35 103 37 105 86 132 100 56 210 108 230 108 18 0 19 0 3 -10z
m271 -140 c34 -17 65 -38 68 -46 3 -8 40 -41 82 -74 42 -32 97 -75 124 -95 26
-21 47 -43 47 -50 0 -8 12 -17 28 -20 15 -4 48 -17 73 -30 25 -12 79 -32 120
-43 41 -11 96 -28 123 -37 l49 -17 -54 -48 c-30 -27 -59 -49 -65 -49 -6 0 -32
-14 -57 -31 -38 -25 -46 -35 -41 -53 3 -12 1 -32 -3 -44 -8 -22 -10 -21 -63
28 -30 28 -73 63 -95 77 -22 15 -56 40 -76 56 -21 17 -42 25 -52 21 -9 -3 -46
9 -84 28 -56 27 -79 33 -130 32 -53 -1 -63 2 -71 20 -8 19 -6 22 17 21 23 0
26 4 26 35 0 36 -5 39 -51 25 -25 -8 -44 28 -51 102 -8 74 3 113 43 157 39 43
38 63 -2 25 -41 -38 -54 -73 -55 -146 -1 -63 -2 -65 -11 -33 -5 19 -7 53 -4
75 3 22 9 58 12 80 6 38 6 39 -12 25 -13 -11 -16 -11 -10 -2 10 17 64 41 92
42 11 0 49 -14 83 -31z m238 -24 c50 -13 133 -31 185 -40 51 -9 97 -20 103
-24 21 -16 137 -52 211 -66 166 -32 261 -16 332 55 17 16 35 30 40 30 9 0 25
-70 18 -78 -3 -2 -14 2 -26 8 -25 13 -35 8 -27 -14 3 -8 20 -17 37 -21 20 -4
34 -15 41 -32 14 -37 11 -39 -18 -11 -16 14 -38 31 -50 37 -34 17 -38 -5 -4
-25 26 -16 101 -115 101 -135 0 -5 -20 -9 -44 -9 -53 0 -93 -14 -123 -42 -18
-17 -29 -19 -68 -13 -26 3 -65 13 -87 21 -50 18 -78 18 -78 1 0 -12 129 -49
185 -52 25 -2 102 -39 132 -62 12 -10 33 -53 48 -97 23 -67 26 -90 22 -155 -8
-117 -12 -130 -53 -172 -35 -36 -43 -39 -91 -39 -38 0 -57 -5 -70 -19 -21 -21
-75 -41 -111 -41 -20 0 -16 5 24 26 27 14 57 34 66 45 32 37 80 207 80 280 0
67 -19 149 -34 149 -10 0 -11 4 7 -54 20 -66 19 -112 -6 -209 -38 -150 -89
-210 -191 -223 -36 -5 -50 -1 -90 25 -31 19 -53 43 -62 66 -9 20 -26 50 -38
68 l-22 31 24 -17 c13 -9 35 -17 47 -17 20 0 23 5 23 38 0 63 -53 138 -67 95
-3 -7 2 -13 10 -13 16 0 27 -30 27 -75 l-1 -30 -34 37 c-20 21 -35 48 -35 62
0 13 -7 29 -15 36 -9 7 -14 19 -11 26 3 8 0 11 -8 8 -9 -4 -16 7 -20 31 -4 21
-6 38 -4 40 2 1 35 22 73 45 66 41 175 135 175 152 0 4 -11 8 -25 8 -14 0 -52
11 -85 25 -33 14 -66 25 -75 25 -9 0 -44 9 -78 21 -61 21 -100 45 -92 59 2 3
-19 19 -48 33 -85 44 -149 87 -194 128 -24 22 -47 39 -52 39 -5 0 -21 16 -36
36 l-27 36 48 -7 c27 -4 90 -17 141 -30z m-2163 -261 c9 -3 13 -11 9 -17 -4
-6 0 -8 10 -4 23 9 64 -8 104 -43 33 -30 33 -30 9 -30 -35 0 -90 -28 -105 -53
-23 -35 -25 -128 -6 -186 16 -51 16 -53 -1 -66 -50 -35 -124 -119 -124 -140 0
-9 -86 -130 -97 -138 -7 -4 -13 -13 -13 -20 0 -7 -23 -55 -50 -107 -28 -52
-53 -103 -56 -113 -4 -10 -22 -49 -40 -85 -34 -68 -42 -102 -24 -102 5 0 22
19 37 43 39 60 73 101 73 86 0 -7 -12 -27 -26 -46 -14 -18 -24 -38 -22 -44 5
-16 64 82 71 119 4 18 26 74 51 125 63 132 96 206 96 217 0 5 23 35 50 66 28
31 50 61 50 66 0 14 110 58 149 60 36 1 58 -7 94 -36 17 -13 17 -16 2 -45 -9
-19 -34 -41 -63 -55 -66 -34 -261 -228 -296 -294 -8 -15 -28 -40 -46 -57 -36
-34 -90 -110 -90 -128 0 -7 -9 -23 -20 -37 -11 -14 -20 -29 -20 -33 0 -19 -87
-127 -102 -127 -13 0 -9 43 6 63 8 10 20 15 30 11 11 -4 19 2 26 21 14 37 12
55 -3 25 -15 -30 -43 -29 -102 5 -55 31 -93 38 -150 25 -26 -6 -50 -9 -52 -7
-9 10 10 55 37 87 15 18 37 60 49 94 11 34 40 115 64 181 24 66 49 143 57 170
7 28 21 69 32 93 10 23 16 47 13 52 -3 4 9 47 25 93 22 60 37 86 51 90 19 5
27 27 9 27 -19 0 -10 17 38 73 26 31 57 70 70 86 12 16 32 32 45 34 36 7 134
8 151 1z m1886 -29 c0 -18 -5 -25 -18 -25 -28 0 -34 11 -15 32 22 25 33 23 33
-7z m1259 -89 c12 -13 24 -40 28 -60 3 -20 10 -39 15 -42 5 -3 4 -12 -3 -20
-14 -17 -5 -46 13 -39 8 3 21 -13 35 -42 21 -45 89 -137 105 -141 4 -1 26 -22
49 -47 28 -30 55 -48 83 -56 22 -6 57 -20 76 -31 51 -30 222 -77 320 -89 47
-5 104 -12 128 -15 23 -3 42 -9 42 -15 0 -5 -2 -9 -4 -9 -2 0 -54 -13 -115
-29 -62 -17 -149 -33 -194 -36 -45 -4 -161 -21 -257 -38 -168 -29 -189 -31
-520 -35 -384 -4 -458 1 -770 54 -203 34 -324 62 -470 107 l-75 24 3 34 c7 72
51 292 60 298 5 3 20 31 34 61 53 113 152 181 233 159 19 -6 35 -14 35 -20 0
-11 131 -74 178 -86 27 -6 133 -84 185 -134 16 -15 38 -29 49 -31 17 -2 25
-17 39 -65 23 -84 104 -219 152 -254 82 -59 217 -64 293 -10 23 17 55 31 71
31 15 0 46 9 69 19 32 14 44 28 57 62 l17 44 72 0 c94 0 128 10 128 35 0 25
-9 25 -25 3 -10 -13 -31 -18 -87 -21 l-73 -4 -1 94 c-1 163 -40 256 -130 304
-19 10 -34 22 -34 26 0 17 59 37 111 38 46 0 59 -4 78 -24z m-2942 -1 c22 -4
45 -21 67 -48 19 -23 55 -57 80 -76 54 -41 59 -54 14 -39 -66 21 -194 48 -230
48 -21 0 -38 5 -38 11 0 16 20 51 43 77 11 12 16 22 10 22 -15 0 -40 -31 -63
-76 -10 -21 -19 -31 -20 -22 0 27 42 107 59 111 9 3 23 3 31 1 8 -1 30 -5 47
-9z m1556 -49 c-10 -13 -20 -22 -22 -20 -4 4 29 44 36 44 2 0 -4 -11 -14 -24z
m-1542 -96 c66 -12 161 -40 173 -51 5 -5 -4 -21 -20 -38 -58 -61 -75 -83 -69
-90 4 -3 15 5 26 19 85 110 96 116 133 78 12 -13 31 -28 41 -34 17 -9 15 -14
-28 -58 -26 -26 -47 -53 -47 -59 0 -7 24 14 53 46 67 75 84 74 21 0 -39 -48
-42 -53 -13 -28 19 17 41 38 50 48 15 18 18 18 75 2 88 -26 135 -46 128 -56
-9 -15 -121 -69 -142 -69 -22 0 -64 -29 -43 -30 54 -1 254 96 231 112 -3 2
-50 19 -106 37 -99 34 -192 91 -149 91 22 0 124 -37 140 -50 6 -5 35 -18 65
-30 30 -11 60 -28 67 -37 15 -19 119 -63 150 -63 12 0 25 -5 29 -11 3 -6 22
-17 41 -25 20 -9 38 -26 45 -42 14 -36 16 -185 2 -203 -6 -8 -14 -25 -17 -39
-8 -33 -57 -58 -127 -64 -30 -3 -77 -8 -105 -11 -35 -3 -44 -2 -30 4 14 7 5 8
-30 5 -64 -6 -91 8 -132 70 -38 56 -41 71 -12 56 34 -19 49 -5 49 44 0 36 -4
48 -21 56 -27 15 -36 6 -15 -15 17 -17 22 -75 7 -75 -16 0 -53 60 -47 75 3 8
1 17 -5 21 -6 3 -8 12 -5 20 3 8 -1 14 -9 14 -8 0 -15 7 -15 15 0 18 -17 20
-22 3 -2 -7 -28 14 -58 46 -30 33 -50 56 -43 53 6 -4 15 -2 19 5 4 7 4 10 -1
6 -8 -8 -60 16 -88 41 -11 8 -24 16 -30 16 -30 2 -74 19 -92 36 -12 10 -45 22
-75 26 -55 8 -78 29 -38 35 13 2 24 11 26 22 4 16 0 18 -27 13 -17 -4 -31 -3
-31 2 0 5 -3 23 -6 40 -6 31 -6 31 33 31 22 0 65 -5 94 -10z m-71 -80 c0 -5
-7 -10 -15 -10 -8 0 -15 5 -15 10 0 6 7 10 15 10 8 0 15 -4 15 -10z m147 -136
c-3 -3 -12 -4 -19 -1 -8 3 -5 6 6 6 11 1 17 -2 13 -5z m1322 -114 c-11 -110
-26 -192 -28 -152 -1 24 -16 30 -24 10 -9 -23 -7 26 3 72 13 57 53 181 57 176
2 -1 -2 -49 -8 -106z m-636 93 c-7 -2 -21 -2 -30 0 -10 3 -4 5 12 5 17 0 24
-2 18 -5z m182 -20 l75 -6 0 -61 c0 -102 -18 -239 -32 -248 -13 -9 -94 -5
-104 5 -3 3 0 24 6 47 8 31 8 61 -1 118 -13 87 -19 98 -66 117 -19 8 -33 21
-33 31 0 14 7 15 40 10 22 -3 74 -9 115 -13z m2315 -29 c0 -9 -37 15 -51 33
-10 12 -5 11 19 -6 17 -12 32 -24 32 -27z m-3158 19 c14 -13 18 -13 18 -2 1
25 40 -32 40 -58 0 -62 -57 -123 -190 -205 -132 -80 -178 -115 -220 -167 l-45
-55 -3 30 c-5 41 -19 54 -58 54 -38 0 -44 12 -14 33 11 7 31 31 46 53 62 91
240 263 312 302 66 35 89 38 114 15z m-476 -145 c-8 -18 -23 -55 -33 -83 -11
-27 -24 -50 -29 -50 -5 0 -15 -4 -21 -8 -18 -11 -16 8 2 23 8 7 15 18 15 24 0
22 64 126 77 126 1 0 -4 -15 -11 -32z m1714 -227 c-13 -52 -51 -144 -57 -138
-5 6 12 84 39 182 22 76 23 78 26 41 2 -22 -2 -60 -8 -85z m-1835 -31 c-20
-33 -41 -62 -46 -66 -17 -10 3 49 30 90 45 68 46 68 49 51 2 -8 -13 -42 -33
-75z m3722 -64 c-6 -140 -25 -217 -71 -283 -28 -41 -38 -48 -62 -45 -38 4 -72
23 -122 69 -35 31 -48 54 -76 133 -19 53 -50 124 -70 157 -20 34 -36 64 -36
67 0 3 66 6 148 6 81 1 176 7 212 14 36 7 69 10 74 8 5 -3 6 -59 3 -126z
m-3631 8 c-30 -21 -42 -17 -15 5 13 11 26 17 29 14 3 -2 -4 -11 -14 -19z m62
6 c-8 -13 -15 -16 -19 -8 -10 15 -2 28 17 28 12 0 12 -4 2 -20z m-61 -48 c-15
-16 -27 -33 -27 -40 0 -14 -26 -16 -34 -3 -8 12 32 61 58 71 32 12 33 3 3 -28z
m64 -25 c-10 -9 -11 -8 -5 6 3 10 9 15 12 12 3 -3 0 -11 -7 -18z m-348 -41
c50 -22 68 -39 58 -55 -8 -13 -12 -12 -28 5 -22 25 -86 47 -112 39 -12 -3 -21
0 -25 10 -4 12 3 15 35 15 22 0 54 -6 72 -14z m237 -11 c0 -8 -9 -15 -20 -15
-13 0 -18 5 -14 15 4 8 12 15 20 15 8 0 14 -7 14 -15z m1678 -38 c18 -12 30
-28 27 -35 -3 -8 -5 -21 -6 -30 0 -13 -3 -12 -11 5 -6 12 -25 27 -42 33 -17 6
-46 19 -65 28 -31 15 -34 15 -46 -1 -15 -21 -37 -23 -29 -2 4 9 0 16 -7 16 -8
1 0 5 16 9 46 13 126 1 163 -23z m-2002 -2 c35 -35 64 -31 32 4 -11 11 -10 12
2 6 61 -33 102 -84 68 -86 -7 0 -3 -4 10 -10 17 -6 22 -14 17 -28 -3 -11 -1
-22 4 -25 11 -7 4 -107 -10 -144 -18 -48 -74 -116 -200 -245 -137 -142 -192
-220 -235 -336 -29 -78 -62 -121 -50 -63 11 46 -6 39 -32 -13 -12 -25 -27 -45
-33 -45 -6 0 -9 6 -6 13 14 37 28 134 23 161 -5 26 -4 28 5 12 6 -10 9 -41 6
-69 l-4 -51 19 38 c38 73 -2 156 -74 156 -25 0 -29 3 -23 18 4 9 18 51 31 92
14 41 29 84 34 95 5 11 34 79 66 150 31 72 75 156 98 189 80 114 175 203 219
206 4 0 19 -11 33 -25z m307 -24 c-3 -11 -14 -28 -26 -38 -21 -18 -21 -18 -6
7 9 14 19 31 23 38 11 18 15 15 9 -7z m1471 -6 c-4 -8 -8 -15 -10 -15 -2 0 -4
7 -4 15 0 8 4 15 10 15 5 0 7 -7 4 -15z m98 -36 c38 -27 56 -24 28 6 -28 30
-15 33 20 5 14 -11 30 -20 37 -20 13 0 53 -39 53 -52 0 -4 -7 -8 -15 -8 -8 0
-15 -4 -15 -10 0 -5 10 -10 23 -10 29 0 52 -45 68 -134 9 -54 8 -74 -6 -123
-19 -65 -65 -170 -99 -223 -151 -236 -186 -322 -186 -461 l-1 -74 -23 48 c-47
96 -96 127 -164 104 l-42 -15 0 37 c1 87 21 338 35 438 17 116 72 307 113 388
13 27 43 68 66 92 44 46 57 47 108 12z m-1646 -17 c-17 -16 -18 -16 -5 5 7 12
15 20 18 17 3 -2 -3 -12 -13 -22z m-26 14 c0 -2 -8 -10 -17 -17 -16 -13 -17
-12 -4 4 13 16 21 21 21 13z m3740 -373 c0 -10 -6 -13 -16 -9 -9 3 -18 6 -20
6 -2 0 -4 6 -4 14 0 9 7 12 20 9 11 -3 20 -12 20 -20z m42 5 c-7 -7 -12 -8
-12 -2 0 14 12 26 19 19 2 -3 -1 -11 -7 -17z m-4432 -318 c0 -5 -5 -10 -11
-10 -5 0 -7 -6 -3 -12 5 -10 4 -10 -6 -1 -7 6 -9 16 -6 22 9 14 26 14 26 1z
m-50 -65 c0 -16 -6 -25 -15 -25 -18 0 -18 5 -5 31 14 26 20 24 20 -6z m8 -69
c2 -9 -11 -36 -30 -59 -36 -46 -60 -92 -78 -150 -13 -43 -46 -68 -52 -39 -3 9
4 33 13 52 10 19 35 72 55 118 36 79 57 105 79 98 6 -1 11 -10 13 -20z m2112
-166 c0 -5 -2 -10 -4 -10 -3 0 -8 5 -11 10 -3 6 -1 10 4 10 6 0 11 -4 11 -10z
m43 -42 c-2 -4 -10 -5 -18 -2 -12 5 -12 10 -3 27 11 21 11 21 18 2 4 -11 6
-23 3 -27z m-86 -45 c-19 -39 -22 -42 -25 -22 -2 13 1 25 7 27 6 2 11 12 11
21 0 21 10 32 21 25 5 -2 -2 -25 -14 -51z m120 10 c-3 -10 -5 -4 -5 12 0 17 2
24 5 18 2 -7 2 -21 0 -30z m-48 -38 c1 -11 -6 -32 -13 -47 -8 -16 -11 -28 -5
-28 15 0 11 -37 -5 -43 -8 -3 -24 -3 -35 0 -38 10 -22 100 27 156 16 18 17 18
23 0 4 -10 8 -27 8 -38z m101 -32 c0 -12 -4 -25 -10 -28 -6 -4 -10 11 -10 37
0 31 3 39 10 28 5 -8 10 -25 10 -37z m-2528 -58 c-2 -14 -11 -25 -18 -25 -20
0 -17 38 4 43 9 3 18 5 18 6 1 0 -1 -10 -4 -24z m2476 -6 c-21 -14 -26 -10
-21 11 4 16 8 18 20 9 11 -10 11 -14 1 -20z m-2379 -3 c-2 -2 -18 -7 -34 -11
l-30 -7 25 21 c15 12 29 16 34 11 5 -5 8 -12 5 -14z m2324 -53 c3 -5 7 -24 11
-43 5 -28 4 -31 -4 -12 -11 26 -30 29 -30 5 -1 -15 -2 -16 -9 -3 -5 8 -12 25
-15 38 -6 19 -4 22 18 22 14 0 27 -3 29 -7z m-52 -116 c-8 -8 -11 -7 -11 4 0
20 13 34 18 19 3 -7 -1 -17 -7 -23z m87 -37 c0 -32 -1 -33 -8 -10 -4 14 -8 39
-8 55 -1 25 1 27 8 10 5 -11 8 -36 8 -55z m-38 -43 c0 -24 -16 -54 -24 -46 -3
3 -3 22 1 42 6 38 23 41 23 4z m-60 -47 c0 -27 -4 -50 -10 -50 -5 0 -10 23
-10 50 0 28 5 50 10 50 6 0 10 -22 10 -50z m71 -33 c-10 -9 -11 -8 -5 6 3 10
9 15 12 12 3 -3 0 -11 -7 -18z"/>
<path d="M17810 7960 c0 -6 -15 -8 -40 -4 -22 4 -106 -1 -187 -11 -155 -18
-167 -20 -353 -59 -63 -14 -164 -32 -225 -41 -60 -8 -157 -27 -215 -41 -58
-14 -141 -31 -185 -39 -44 -8 -172 -42 -285 -75 -201 -59 -273 -83 -475 -153
-55 -19 -181 -60 -280 -92 -99 -32 -225 -75 -280 -95 -55 -21 -125 -46 -155
-55 -94 -29 -235 -78 -245 -86 -5 -4 -37 -15 -70 -24 -61 -18 -345 -154 -374
-179 -9 -7 -52 -33 -96 -57 -44 -24 -92 -55 -106 -69 -15 -14 -49 -43 -78 -65
-35 -27 -55 -51 -63 -77 l-13 -38 -69 35 c-78 39 -76 39 -76 25 0 -10 117 -90
134 -91 6 0 2 -4 -9 -9 -17 -7 -15 -9 11 -9 17 -1 45 -6 62 -12 34 -12 193
-38 437 -71 275 -37 531 -31 840 22 61 10 137 22 170 25 33 4 130 22 215 40
181 40 285 59 430 80 136 20 305 49 400 70 41 9 100 20 130 26 235 44 771 212
960 301 41 20 92 41 113 48 22 7 76 31 121 55 45 23 92 46 104 49 53 17 233
124 286 170 133 116 183 171 190 211 5 23 3 42 -3 48 -8 8 -11 5 -11 -10 0
-26 -20 -83 -29 -83 -4 0 -12 21 -19 48 -10 37 -26 60 -78 109 -35 33 -76 64
-90 67 -13 4 -47 20 -73 37 -27 16 -71 37 -98 46 -26 9 -50 19 -53 23 -9 12
-270 22 -270 10z m73 -7 c-7 -2 -19 -2 -25 0 -7 3 -2 5 12 5 14 0 19 -2 13 -5z
m241 -128 c71 -8 145 -20 165 -26 45 -15 138 -76 150 -98 34 -62 12 -138 -49
-178 -19 -13 -53 -40 -75 -62 -40 -39 -54 -49 -170 -109 -83 -42 -383 -182
-392 -182 -5 0 -60 -22 -123 -49 -63 -26 -137 -55 -165 -64 -27 -8 -101 -33
-163 -56 -62 -22 -139 -45 -170 -51 -31 -6 -131 -32 -222 -57 -91 -24 -203
-51 -250 -58 -47 -8 -161 -27 -255 -44 -93 -16 -217 -37 -275 -46 -58 -9 -218
-39 -357 -67 -446 -87 -856 -125 -1048 -95 -55 8 -139 18 -187 22 l-88 7 0 39
c0 34 5 43 41 68 66 48 103 57 152 35 36 -16 67 -19 222 -19 186 1 213 4 400
57 39 11 117 30 175 43 133 29 208 49 301 79 41 13 110 29 154 36 44 6 112 20
150 31 39 10 131 30 205 44 74 13 145 27 158 31 37 11 25 -13 -25 -48 -56 -38
-329 -178 -349 -178 -7 0 -30 -11 -50 -25 -20 -14 -42 -25 -48 -25 -7 0 -27
-11 -46 -25 -21 -15 -28 -25 -18 -25 18 0 110 41 130 58 8 6 49 24 92 41 44
17 95 42 115 55 20 14 59 35 86 47 28 12 71 36 96 55 l47 32 7 -44 c3 -25 3
-69 0 -99 -5 -34 -4 -55 2 -55 16 0 23 94 13 157 -6 32 -10 61 -10 65 0 3 18
9 41 13 22 4 49 16 59 27 18 20 20 20 69 2 l51 -18 -28 -30 c-36 -39 -92 -112
-92 -120 0 -3 17 13 38 36 20 24 51 58 68 76 l31 34 82 -26 c84 -27 298 -66
359 -66 68 0 27 16 -85 33 -65 10 -166 30 -226 44 l-107 25 29 33 c16 19 34
42 39 51 11 19 16 20 277 53 94 12 220 30 280 41 138 25 229 36 430 50 206 14
325 29 325 42 0 6 -12 8 -27 4 -16 -3 -86 -10 -158 -16 -133 -10 -368 -35
-485 -50 -36 -5 -135 -18 -220 -30 -85 -11 -199 -27 -252 -35 -53 -8 -104 -15
-112 -15 -10 0 3 25 40 73 64 82 61 80 134 98 30 7 47 15 37 17 -10 2 -32 -2
-48 -8 -33 -14 -52 -5 -29 13 8 7 26 28 39 47 13 19 39 51 58 70 59 61 128
144 155 186 15 23 37 44 50 46 56 13 425 87 448 91 60 10 285 5 404 -8z
m-1314 -55 c0 -5 -4 -10 -9 -10 -6 0 -13 5 -16 10 -3 6 1 10 9 10 9 0 16 -4
16 -10z m-31 -15 c9 -8 31 -27 49 -41 17 -14 32 -30 32 -35 0 -5 14 -22 30
-37 28 -25 31 -33 31 -94 1 -71 -22 -126 -66 -158 -11 -8 -36 -29 -55 -46 -24
-21 -54 -36 -94 -45 -33 -7 -55 -14 -49 -16 6 -2 29 0 51 5 l41 10 -61 -59
c-58 -56 -93 -78 -105 -65 -4 3 -12 1 -19 -5 -10 -8 -15 -4 -19 18 -4 15 -8
34 -10 40 -5 16 18 28 70 38 23 5 33 10 22 12 -9 3 -34 -1 -54 -8 -35 -11 -38
-10 -52 12 -9 13 -28 36 -43 51 l-26 28 36 30 c55 45 167 210 190 280 14 44
57 100 76 100 5 0 16 -7 25 -15z m-94 -15 c-3 -5 -10 -10 -16 -10 -5 0 -9 5
-9 10 0 6 7 10 16 10 8 0 12 -4 9 -10z m535 -17 c0 -20 -77 -115 -167 -208
-29 -29 -53 -58 -53 -63 0 -16 -72 -86 -103 -100 -52 -23 -55 -12 -10 36 56
58 63 77 63 156 0 49 -5 69 -21 90 -12 15 -19 29 -17 31 4 4 75 19 223 49 39
7 73 14 78 15 4 0 7 -2 7 -6z m-575 -85 c-4 -9 -14 -14 -24 -11 -10 3 -38 -5
-62 -17 -24 -13 -57 -26 -74 -31 -28 -8 -29 -7 -11 6 11 8 45 24 75 35 31 11
65 24 76 29 24 10 27 8 20 -11z m-515 -32 c0 -2 -7 -7 -16 -10 -8 -3 -12 -2
-9 4 6 10 25 14 25 6z m465 -43 c-40 -70 -66 -102 -136 -172 -61 -60 -63 -64
-67 -120 -4 -58 -4 -59 -44 -70 -22 -7 -37 -15 -34 -18 3 -3 19 0 36 5 23 9
32 8 35 -1 5 -18 25 -105 25 -111 0 -2 -26 -7 -57 -11 -87 -10 -216 -34 -328
-60 -326 -78 -375 -90 -605 -150 -332 -87 -441 -105 -606 -100 -115 3 -181 16
-144 29 31 11 187 45 250 55 100 16 408 96 383 99 -12 2 -102 -17 -200 -42
-98 -25 -230 -54 -293 -65 -63 -12 -129 -25 -147 -30 -33 -10 -62 7 -49 27 19
31 64 41 561 127 223 38 324 58 399 80 54 16 377 76 398 74 7 0 -16 -8 -52
-17 -36 -8 -58 -17 -49 -19 9 -2 70 10 135 27 96 26 143 32 244 35 69 1 127 4
130 5 16 5 -43 19 -90 20 -43 2 -50 4 -30 10 37 12 1 12 -40 0 -19 -6 -93 -17
-165 -26 -118 -14 -234 -35 -460 -84 -80 -17 -195 -41 -395 -80 -58 -12 -150
-27 -205 -35 -55 -8 -136 -21 -180 -29 -44 -8 -82 -12 -84 -10 -2 2 18 13 45
25 27 11 94 42 149 69 55 26 120 54 145 60 25 7 95 32 155 57 61 25 130 51
155 58 25 7 83 29 130 50 113 49 222 89 355 131 61 19 144 45 185 58 41 14
116 36 165 51 195 57 282 87 335 115 30 16 59 29 63 29 5 1 -3 -20 -18 -46z
m-625 -22 c-37 -20 -241 -83 -247 -77 -5 4 74 33 115 41 18 4 59 17 90 30 68
29 91 32 42 6z m380 -11 c-8 -5 -19 -10 -25 -10 -5 0 -3 5 5 10 8 5 20 10 25
10 6 0 3 -5 -5 -10z m550 -198 c0 -4 -25 -38 -56 -75 -56 -68 -62 -71 -144
-81 l-45 -6 80 74 c49 46 94 78 115 84 46 13 50 13 50 4z m-421 -31 c27 -38
27 -57 -1 -64 -13 -2 -31 -8 -40 -12 -15 -6 -18 -1 -18 33 0 77 23 94 59 43z
m35 -87 c3 -9 6 -29 6 -44 0 -16 5 -32 10 -35 15 -9 12 -19 -10 -43 -26 -28
-66 -29 -80 -2 -6 11 -14 42 -17 68 -5 43 -3 49 18 59 35 17 66 15 73 -3z
m215 -89 l-45 -46 -48 22 c-36 16 -45 24 -37 32 13 13 97 33 146 36 l30 1 -46
-45z m-2139 -335 c0 -5 -7 -10 -16 -10 -8 0 -12 5 -9 10 3 6 10 10 16 10 5 0
9 -4 9 -10z m-440 -95 c0 -8 -6 -15 -14 -15 -17 0 -28 14 -19 24 12 12 33 6
33 -9z"/>
<path d="M18103 7613 c9 -2 25 -2 35 0 9 3 1 5 -18 5 -19 0 -27 -2 -17 -5z"/>
<path d="M18048 7603 c6 -2 18 -2 25 0 6 3 1 5 -13 5 -14 0 -19 -2 -12 -5z"/>
<path d="M17866 7574 c-113 -22 -175 -42 -91 -29 86 14 259 53 235 53 -14 0
-79 -11 -144 -24z"/>
<path d="M17625 7524 c-47 -12 -47 -13 -10 -9 22 3 58 9 80 14 35 8 36 9 10 9
-16 0 -52 -6 -80 -14z"/>
<path d="M17538 7503 c7 -3 16 -2 19 1 4 3 -2 6 -13 5 -11 0 -14 -3 -6 -6z"/>
<path d="M17400 7480 c-91 -26 -219 -61 -255 -70 -19 -5 -23 -8 -10 -9 11 0
61 11 110 25 50 14 124 34 165 45 91 24 101 27 75 27 -11 0 -49 -8 -85 -18z"/>
<path d="M17078 7393 c6 -2 18 -2 25 0 6 3 1 5 -13 5 -14 0 -19 -2 -12 -5z"/>
<path d="M16529 6883 c-13 -16 -12 -17 4 -4 9 7 17 15 17 17 0 8 -8 3 -21 -13z"/>
<path d="M15818 7063 c6 -2 18 -2 25 0 6 3 1 5 -13 5 -14 0 -19 -2 -12 -5z"/>
<path d="M15675 7035 c-249 -66 -346 -94 -305 -89 25 3 79 15 120 26 41 11
124 32 183 48 60 15 111 31 114 34 11 10 -19 5 -112 -19z"/>
<path d="M18135 7943 c113 -16 255 -80 353 -160 51 -41 62 -48 62 -39 0 9
-114 92 -175 128 -64 38 -192 79 -241 77 l-29 -2 30 -4z"/>
<path d="M18667 7679 c-4 -20 -21 -63 -37 -97 -33 -69 -56 -92 -47 -46 4 19
-2 11 -17 -21 -17 -37 -40 -63 -82 -95 -33 -25 -81 -64 -109 -87 -27 -23 -99
-67 -160 -99 -60 -31 -148 -78 -195 -105 -47 -27 -110 -57 -140 -68 -30 -10
-95 -35 -145 -56 -49 -20 -128 -50 -175 -65 -47 -15 -129 -44 -184 -63 -54
-20 -117 -38 -140 -42 -22 -3 -93 -21 -156 -39 -127 -37 -201 -54 -395 -91
-71 -14 -175 -38 -230 -54 -56 -16 -128 -32 -160 -36 -33 -4 -98 -15 -145 -26
-161 -35 -514 -78 -780 -93 -470 -28 -613 -30 -740 -12 -63 8 -164 20 -223 26
-69 6 -134 19 -180 36 -103 37 -111 39 -104 26 17 -26 146 -62 277 -77 74 -8
185 -22 245 -31 123 -17 341 -14 660 11 99 8 245 19 325 25 80 6 174 15 210
20 203 31 331 53 375 65 28 7 82 18 120 25 39 6 109 22 158 36 86 24 206 50
363 79 45 8 128 28 185 44 100 28 159 42 318 77 41 9 111 31 154 50 44 18 105
41 136 50 31 9 83 27 116 41 33 14 72 27 88 29 15 2 45 13 67 24 21 11 44 20
51 20 30 0 258 126 302 167 26 24 63 51 82 59 19 8 58 37 85 64 28 28 54 50
58 50 4 0 36 32 71 71 49 54 69 86 88 140 13 39 23 78 21 87 -2 9 -7 1 -11
-19z m-442 -479 c-10 -11 -24 -20 -30 -20 -7 0 -39 -14 -71 -31 -55 -28 -57
-29 -29 -5 17 14 41 28 55 31 14 3 36 14 50 25 33 26 48 25 25 0z"/>
<path d="M2239 7206 c-2 -3 -63 -12 -134 -21 -154 -19 -291 -54 -393 -101 -74
-34 -158 -106 -234 -202 -57 -72 -24 -47 82 61 105 108 112 113 197 145 91 35
233 75 240 68 2 -2 -17 -11 -44 -20 -107 -36 -279 -172 -333 -262 -30 -50 -35
-67 -35 -121 0 -35 -3 -63 -7 -63 -10 0 -58 72 -58 86 0 6 -8 18 -17 25 -15
13 -16 11 -10 -19 10 -49 100 -161 130 -162 5 0 49 -27 99 -60 51 -33 95 -60
100 -60 4 0 36 -19 70 -43 35 -23 77 -48 93 -54 17 -6 80 -30 140 -52 228 -87
824 -277 925 -296 19 -4 125 -28 235 -55 110 -27 229 -51 265 -55 36 -3 142
-19 235 -35 300 -51 375 -60 635 -75 249 -15 402 -29 665 -60 374 -45 431 -48
780 -49 l350 -1 135 33 c74 18 167 40 205 48 128 27 281 72 375 111 86 35 208
132 194 154 -5 9 -37 -8 -95 -53 l-37 -28 -12 28 c-19 45 -158 149 -286 215
-338 173 -451 216 -864 327 -124 33 -304 82 -400 110 -96 27 -193 52 -215 56
-46 7 -133 29 -290 72 -277 77 -536 142 -605 153 -89 13 -209 42 -271 65 -24
8 -84 20 -134 25 -149 15 -875 108 -1005 129 -30 5 -109 9 -175 10 -66 0 -151
5 -189 10 -43 5 -104 5 -158 -1 -48 -6 -111 -9 -140 -7 l-53 3 55 11 c41 9 47
12 24 13 -17 0 -33 -1 -35 -3z m511 -205 c296 -38 352 -50 380 -82 28 -31 192
-174 296 -259 37 -30 88 -75 113 -100 l45 -45 -29 -5 c-26 -5 -24 -7 19 -12
40 -5 56 -13 98 -54 27 -27 67 -66 89 -88 22 -21 38 -40 36 -42 -2 -2 -57 0
-123 6 -65 5 -168 10 -229 10 -105 1 -150 4 -430 31 -136 12 -795 20 -795 9 0
-16 75 -20 380 -20 173 0 353 -4 400 -9 165 -19 328 -30 560 -41 257 -12 305
-19 325 -47 8 -11 32 -32 55 -48 l41 -29 -63 -28 c-78 -36 -189 -69 -335 -99
-62 -13 -113 -27 -113 -31 0 -14 70 -9 149 11 42 11 114 29 161 40 47 11 117
35 155 54 l70 34 43 -29 c23 -16 50 -37 60 -47 9 -9 46 -44 81 -76 47 -44 58
-51 38 -25 -25 34 -136 138 -178 168 -20 14 -19 15 31 44 l52 29 36 -24 c21
-14 56 -28 78 -32 l41 -6 6 -66 c7 -72 46 -203 60 -203 5 0 7 10 4 23 -22 84
-37 157 -37 184 l0 33 48 -29 c26 -16 70 -37 97 -46 28 -9 64 -23 80 -30 121
-55 166 -73 199 -79 21 -4 94 -30 162 -57 127 -50 172 -62 144 -35 -18 16
-161 73 -280 111 -47 15 -102 36 -122 46 -20 10 -70 30 -110 43 -84 28 -209
94 -216 115 -3 10 0 12 14 7 11 -4 82 -12 159 -17 77 -5 169 -14 205 -19 36
-5 128 -18 205 -29 77 -11 169 -27 205 -35 36 -8 94 -18 130 -21 88 -9 225
-32 340 -56 221 -48 379 -61 584 -49 127 7 142 10 201 40 53 27 70 31 102 25
53 -10 140 -78 149 -117 8 -41 -10 -55 -85 -63 -31 -4 -112 -20 -181 -37 -158
-38 -253 -48 -466 -48 -224 0 -328 8 -884 69 -47 5 -130 12 -185 16 -416 25
-717 53 -870 80 -44 8 -136 21 -205 30 -133 17 -352 57 -435 81 -28 8 -87 21
-130 28 -44 8 -127 29 -185 46 -58 18 -147 42 -198 55 -50 13 -129 37 -175 54
-45 16 -122 42 -172 56 -49 14 -103 32 -120 39 -55 25 -219 85 -263 96 -23 6
-70 28 -103 48 -33 20 -73 44 -87 52 -203 115 -262 172 -262 251 0 32 6 55 20
71 10 12 31 38 46 56 37 46 63 57 199 85 377 79 506 85 875 38z m910 35 c0 -3
-4 -8 -10 -11 -5 -3 -10 -1 -10 4 0 6 5 11 10 11 6 0 10 -2 10 -4z m81 -19
c15 -12 46 -51 70 -87 68 -100 205 -251 297 -325 l83 -68 -22 -23 c-28 -30
-38 -88 -30 -169 6 -51 4 -65 -6 -65 -8 0 -16 7 -19 15 -4 8 -10 15 -16 15 -5
0 -6 -4 -3 -10 14 -23 -25 -7 -76 30 -30 21 -70 48 -90 59 -19 11 -42 27 -49
36 -13 15 -10 16 36 10 27 -4 58 -11 70 -15 11 -5 47 -11 80 -14 55 -5 56 -5
19 5 -22 6 -90 21 -151 34 -92 19 -122 30 -173 64 -111 73 -159 121 -181 179
-27 70 -26 151 0 185 11 14 20 29 20 35 0 5 10 17 21 28 12 10 30 38 41 62 22
48 40 52 79 19z m93 -5 c2 -4 1 -14 -4 -22 -8 -13 -13 -11 -32 8 l-22 22 26 0
c15 0 29 -4 32 -8z m-519 -92 c55 -6 129 -14 165 -18 71 -8 67 -1 54 -83 -6
-35 17 -154 37 -191 9 -17 121 -114 155 -134 13 -8 -2 -7 -44 1 -54 12 -72 21
-122 67 -94 86 -163 145 -197 170 -48 34 -221 192 -222 202 -1 5 16 6 37 2 20
-3 82 -11 137 -16z m627 -40 c24 -7 48 -15 53 -20 6 -4 35 -15 65 -24 30 -9
62 -21 70 -27 13 -9 13 -10 -1 -6 -9 3 -53 15 -98 27 -44 12 -84 26 -87 31 -8
13 -42 11 -46 -2 -2 -6 -9 1 -16 16 -11 23 -10 27 2 22 8 -3 34 -11 58 -17z
m138 -93 c114 -37 166 -50 395 -97 83 -17 168 -37 190 -45 22 -8 99 -26 170
-41 72 -14 159 -34 195 -44 74 -21 385 -121 445 -143 22 -8 58 -17 80 -21 22
-4 117 -31 210 -60 94 -29 204 -63 245 -76 41 -12 84 -27 95 -34 11 -7 46 -23
78 -35 32 -13 56 -26 53 -28 -6 -7 -282 16 -401 32 -55 8 -172 21 -260 29 -88
9 -198 22 -245 30 -47 8 -150 22 -230 31 -80 9 -152 18 -160 20 -8 2 -94 7
-190 10 -134 5 -205 13 -304 33 l-129 27 -21 60 c-27 79 -25 75 -114 142 -78
59 -233 208 -252 243 -9 17 -7 18 18 10 15 -5 74 -24 132 -43z m774 -1 c147
-44 191 -62 125 -50 -69 12 -146 34 -224 63 -117 44 -70 37 99 -13z m-539 -27
c14 -6 9 -7 -15 -3 -19 4 -44 11 -55 15 -14 6 -9 7 15 3 19 -4 44 -11 55 -15z
m-58 -309 l22 -55 -42 -4 -42 -3 45 -12 45 -11 8 -60 c14 -108 -17 -140 -92
-94 -28 17 -32 25 -28 47 3 15 2 49 -2 75 -7 39 -5 50 8 57 14 8 14 9 -2 10
-16 0 -17 5 -12 33 14 63 24 79 47 75 17 -2 28 -17 45 -58z m-467 1 c14 -10
63 -44 110 -76 47 -32 94 -67 105 -77 20 -20 20 -20 0 -14 -12 3 -53 10 -93
15 l-72 9 -90 82 c-49 46 -90 85 -90 87 0 11 108 -11 130 -26z m630 -112 c52
-11 96 -22 98 -23 1 -2 -32 -6 -75 -10 -148 -13 -104 -23 103 -25 249 -1 307
-4 314 -13 3 -4 35 -12 70 -17 36 -6 117 -20 180 -32 203 -36 223 -39 335 -55
119 -16 149 -21 330 -53 170 -30 302 -48 440 -61 146 -14 165 -22 110 -46 -26
-11 -93 -20 -192 -27 -171 -12 -276 -3 -481 40 -64 13 -171 31 -237 38 -66 8
-163 24 -215 35 -206 44 -347 65 -543 80 -188 15 -319 28 -322 32 -3 3 -13
158 -11 158 1 0 44 -9 96 -21z m-331 -85 c18 -16 19 -15 -44 -47 l-49 -25 -53
42 c-28 22 -52 45 -52 49 -1 14 182 -4 198 -19z m1166 -14 c153 -26 343 -47
860 -95 225 -21 237 -23 271 -50 23 -19 26 -26 17 -36 -14 -14 -192 -1 -353
25 -47 8 -121 19 -165 26 -44 6 -114 18 -155 25 -41 8 -113 19 -160 25 -95 13
-593 96 -655 110 -94 22 180 -3 340 -30z m1695 -265 c0 -8 -9 -15 -20 -15 -13
0 -18 5 -14 15 4 8 12 15 20 15 8 0 14 -7 14 -15z"/>
<path d="M1748 6713 c6 -2 18 -2 25 0 6 3 1 5 -13 5 -14 0 -19 -2 -12 -5z"/>
<path d="M1791 6716 c3 -4 89 -9 190 -11 101 -3 198 -7 214 -9 17 -2 129 -16
250 -30 121 -15 249 -31 285 -36 36 -5 79 -9 95 -9 55 2 -48 18 -355 55 -275
34 -696 58 -679 40z"/>
<path d="M2878 6613 c12 -2 32 -2 45 0 12 2 2 4 -23 4 -25 0 -35 -2 -22 -4z"/>
<path d="M2990 6600 c19 -5 89 -18 155 -30 66 -12 164 -30 219 -41 54 -10 112
-18 130 -18 19 1 24 3 11 6 -21 4 -191 36 -290 54 -33 6 -78 14 -100 19 -22 5
-67 11 -100 14 -48 4 -53 4 -25 -4z"/>
<path d="M1301 6758 c21 -38 80 -122 98 -138 9 -8 30 -32 45 -53 16 -21 43
-45 60 -54 17 -9 59 -38 95 -65 36 -28 72 -53 81 -56 8 -3 47 -27 86 -54 40
-27 97 -57 127 -67 67 -23 94 -38 121 -63 39 -38 335 -158 387 -158 8 0 50
-14 94 -31 44 -17 98 -32 120 -35 51 -5 174 -33 405 -94 102 -27 230 -54 285
-60 55 -6 195 -26 310 -45 290 -47 340 -53 495 -65 74 -6 212 -24 305 -40 345
-59 402 -63 944 -68 652 -6 910 9 1113 64 51 14 129 32 173 40 133 26 187 44
258 85 37 22 67 42 67 44 0 6 -46 -12 -115 -46 -33 -16 -98 -38 -145 -49 -47
-11 -142 -33 -212 -50 -440 -104 -1501 -104 -2083 -1 -61 11 -155 23 -210 26
-103 7 -459 54 -600 80 -44 8 -127 21 -185 29 -58 8 -177 33 -265 56 -88 23
-198 50 -245 60 -47 10 -156 39 -243 64 -88 25 -164 46 -170 46 -16 0 -158 58
-173 71 -6 5 -49 23 -95 39 -87 30 -169 61 -275 103 -34 14 -90 44 -125 68
-35 24 -82 51 -104 60 -41 16 -175 105 -175 117 -1 4 -19 27 -42 52 -41 45
-43 41 -6 -12 11 -16 15 -28 9 -28 -12 0 -133 140 -175 202 -32 48 -57 66 -35
26z m957 -630 c40 -17 71 -33 69 -35 -6 -6 -236 82 -249 95 -14 14 80 -17 180
-60z"/>
<path d="M11735 6440 c15 -16 33 -26 38 -23 6 4 -1 16 -17 30 -39 33 -55 28
-21 -7z"/>
<path d="M11507 6145 c-43 -7 -81 -15 -83 -18 -3 -3 2 -12 11 -20 8 -9 15 -20
15 -25 0 -4 12 -19 26 -33 26 -24 75 -104 93 -151 l10 -26 -52 34 c-28 19 -56
34 -61 34 -5 0 -36 17 -70 38 -104 66 -154 84 -211 77 -56 -8 -147 -43 -140
-55 3 -4 -13 -20 -35 -35 -42 -29 -120 -109 -120 -123 0 -4 35 -7 78 -7 66 0
83 -4 117 -26 71 -45 163 -79 215 -79 32 0 88 14 162 41 146 52 138 51 378 59
113 4 219 8 235 9 23 1 36 10 55 39 14 20 39 55 56 78 16 22 36 55 44 74 13
30 12 34 -8 50 -48 39 -272 55 -311 23 -11 -10 -40 -57 -65 -105 l-44 -88 -11
33 c-5 17 -13 47 -16 66 -4 18 -20 52 -36 76 -16 24 -29 50 -29 59 0 13 -11
16 -62 15 -35 -1 -98 -7 -141 -14z m206 -77 c36 -67 52 -110 60 -169 l5 -36
-79 -10 -79 -9 -15 47 c-9 26 -22 53 -30 59 -8 6 -16 24 -20 39 -3 15 -25 48
-48 72 l-42 44 80 11 c137 20 129 22 168 -48z m470 2 l37 -11 -45 -62 c-25
-34 -53 -76 -62 -93 -15 -30 -19 -32 -91 -38 -41 -3 -109 -6 -150 -6 -71 0
-74 1 -59 18 8 9 31 49 49 87 44 93 59 112 88 118 37 8 189 -1 233 -13z m-882
-76 c20 -10 53 -28 75 -39 95 -48 194 -109 187 -115 -20 -18 -225 -80 -263
-80 -31 0 -74 14 -151 50 -60 28 -129 53 -154 57 l-46 6 28 29 c27 28 121 85
178 106 40 15 102 9 146 -14z"/>
<path d="M11991 5796 c-8 -9 -8 -28 -1 -67 13 -69 34 -84 78 -53 32 22 28 37
-8 29 -39 -8 -38 2 3 37 l32 29 -34 -17 c-27 -13 -35 -13 -42 -3 -5 8 -2 20 7
30 7 8 14 19 14 22 0 12 -37 7 -49 -7z"/>
<path d="M11939 5784 c-1 -5 0 -26 1 -48 2 -43 -11 -42 -30 4 -14 34 -30 40
-30 11 0 -56 46 -105 76 -80 19 16 19 93 -1 109 -8 7 -15 9 -16 4z"/>
<path d="M11657 5762 c-24 -26 -21 -38 13 -52 50 -21 56 -36 20 -55 -36 -19
-30 -40 9 -30 36 9 51 24 51 50 0 27 -15 41 -52 50 -31 8 -28 25 3 25 26 0 19
24 -7 28 -11 2 -28 -6 -37 -16z"/>
<path d="M11765 5758 c-7 -31 7 -79 28 -92 13 -8 24 -7 44 4 38 21 43 43 8 30
-39 -15 -58 4 -50 47 5 26 3 33 -9 33 -9 0 -18 -10 -21 -22z"/>
<path d="M11531 5744 c-13 -9 -19 -19 -14 -23 5 -3 17 -27 27 -53 14 -38 22
-48 41 -48 12 0 28 7 35 15 11 13 8 15 -14 15 -33 0 -33 13 -1 34 37 24 31 39
-9 22 -32 -13 -34 -13 -39 6 -3 11 0 21 9 25 8 3 14 9 14 14 0 14 -23 11 -49
-7z"/>
<path d="M11375 5706 c-14 -14 -25 -32 -25 -40 0 -27 103 -86 115 -66 4 6 2
10 -3 10 -6 0 -12 6 -15 14 -5 13 -1 13 28 0 19 -8 44 -14 56 -14 30 0 11 22
-40 45 -30 13 -41 24 -43 44 -4 36 -40 40 -73 7z m43 -26 c-13 -20 -28 -27
-28 -12 0 10 22 32 32 32 5 0 3 -9 -4 -20z"/>
<path d="M9555 3420 c-16 -7 -17 -9 -3 -9 9 -1 20 4 23 9 7 11 7 11 -20 0z"/>
<path d="M9874 4035 c-16 -40 -20 -80 -4 -55 5 8 15 15 22 16 7 0 23 2 36 2
30 3 39 28 17 52 -28 31 -54 25 -71 -15z"/>
<path d="M8168 3645 c-22 -29 -24 -57 -3 -29 8 10 15 14 15 8 0 -16 51 -14 57
2 7 18 -15 44 -36 44 -9 0 -24 -11 -33 -25z"/>
<path d="M8945 3172 c0 -43 -7 -80 -18 -102 -34 -70 -74 -125 -98 -137 -13 -7
-18 -13 -11 -13 7 0 22 4 32 10 22 12 95 142 105 188 10 46 9 102 -1 112 -5 5
-9 -21 -9 -58z"/>
<path d="M14605 4387 c-23 -7 -72 -32 -109 -57 -94 -61 -109 -70 -126 -70 -8
0 -46 -28 -85 -61 -106 -92 -172 -141 -256 -190 -42 -24 -77 -48 -77 -53 0
-17 -80 -55 -148 -71 -37 -8 -87 -24 -112 -35 -24 -11 -58 -20 -74 -20 l-29 0
53 -60 c29 -33 57 -60 63 -60 5 0 36 -18 68 -39 31 -22 63 -41 69 -43 19 -7
-4 -73 -24 -72 -9 1 -14 -4 -12 -11 3 -6 -2 -18 -11 -25 -8 -7 -15 -25 -15
-40 0 -28 -42 -90 -61 -90 -5 0 -9 11 -9 24 0 37 18 76 35 76 17 0 20 16 4 26
-23 14 -62 -42 -67 -95 -4 -50 -4 -51 22 -51 15 0 36 5 47 11 19 10 19 8 -3
-31 -30 -54 -92 -118 -126 -131 -32 -12 -83 -4 -134 22 -30 15 -46 34 -72 88
-63 124 -79 225 -51 317 18 58 17 54 7 54 -31 0 -42 -183 -16 -271 37 -125 85
-191 159 -217 l30 -10 -32 -1 c-40 -1 -83 15 -106 40 -12 13 -31 19 -60 19
-51 0 -87 9 -87 21 0 5 8 9 18 9 11 0 27 9 37 20 21 23 8 27 -21 6 -17 -13
-20 -12 -31 7 l-12 22 -1 -22 c0 -29 -16 -29 -31 -1 -28 52 -37 214 -15 271 8
23 19 60 24 81 6 34 15 43 52 63 25 12 54 28 65 35 11 6 38 13 60 14 22 2 57
10 77 18 21 9 49 16 63 16 16 0 25 6 25 15 0 19 -11 19 -80 0 -68 -18 -75 -18
-62 -2 6 7 16 35 22 62 6 28 19 70 29 95 10 26 21 85 25 138 6 78 4 92 -8 92
-18 0 -23 -19 -30 -120 -3 -41 -9 -88 -15 -105 -5 -16 -15 -49 -21 -73 -6 -24
-24 -57 -39 -74 l-28 -31 -31 23 c-33 25 -119 38 -167 26 -45 -11 -27 -26 33
-26 69 0 132 -16 132 -34 0 -7 -18 -21 -41 -31 -52 -24 -79 -61 -109 -155 -19
-55 -25 -97 -25 -158 l0 -84 -72 4 c-53 2 -76 8 -85 20 -11 14 -15 14 -25 3
-9 -10 -4 -20 28 -49 l40 -36 -7 -87 c-4 -49 -12 -99 -19 -113 -7 -14 -16 -40
-20 -58 -10 -46 -48 -64 -122 -56 -106 11 -227 47 -338 99 -63 29 -105 40
-105 27 0 -14 16 -23 95 -59 139 -62 253 -93 343 -93 72 0 86 3 106 23 13 12
30 27 38 32 8 6 39 27 69 47 31 21 85 45 128 57 72 20 121 51 121 77 0 8 -24
1 -67 -22 -38 -19 -87 -39 -110 -44 -23 -6 -64 -26 -92 -44 l-51 -34 21 39
c16 32 20 62 22 145 l2 104 47 0 c25 0 53 2 61 5 10 4 20 -9 35 -44 21 -52 55
-76 119 -83 16 -2 50 -16 78 -32 59 -35 120 -43 200 -26 52 11 66 20 115 69
33 32 60 71 66 91 5 20 16 35 24 35 19 0 77 -108 86 -158 3 -22 19 -64 35 -94
16 -30 29 -67 29 -82 0 -24 39 -89 40 -66 0 6 -5 16 -11 22 -6 6 -9 17 -7 25
3 7 13 -4 25 -27 12 -22 30 -49 42 -59 21 -19 21 -19 21 9 0 15 -11 48 -24 74
-14 25 -37 78 -52 116 -15 39 -44 97 -66 129 -21 33 -38 63 -38 68 0 4 -14 28
-32 53 -32 45 -32 45 -15 80 9 20 17 42 17 51 0 8 9 18 19 22 20 7 34 17 130
97 30 25 58 45 62 45 18 0 57 -116 63 -192 2 -23 26 -122 54 -218 28 -96 53
-187 57 -203 3 -15 15 -37 26 -48 11 -11 23 -35 26 -54 l5 -33 -50 10 c-34 7
-59 7 -79 0 -26 -10 -25 -10 20 -11 26 -1 47 -4 47 -9 0 -4 -17 -6 -37 -4 -28
3 -48 -3 -75 -22 -43 -28 -67 -15 -27 15 24 18 24 18 -16 4 -52 -18 -63 -18
-68 0 -4 11 -4 10 -3 -2 1 -10 11 -19 24 -21 29 -4 39 -44 18 -76 -23 -35 -30
-98 -16 -140 18 -55 73 -130 185 -251 115 -125 146 -173 169 -265 22 -87 43
-119 100 -158 36 -24 59 -32 93 -32 42 0 45 -2 63 -42 11 -24 20 -56 20 -71 0
-33 48 -87 78 -87 10 0 40 -3 66 -6 41 -6 46 -5 46 12 0 11 -9 25 -20 32 -11
7 -20 19 -20 26 0 8 -15 34 -33 58 -18 24 -39 58 -46 75 -7 18 -25 44 -39 58
-22 22 -31 51 -59 192 -18 91 -39 173 -47 182 -8 9 -22 50 -32 91 -15 67 -46
142 -104 251 -10 19 -46 62 -79 94 -35 34 -57 63 -52 68 15 15 -9 95 -41 136
-10 13 -18 30 -18 38 0 8 -6 29 -14 46 -8 18 -29 88 -47 157 -55 215 -76 293
-97 355 -12 33 -20 60 -19 61 1 0 31 11 67 24 36 13 92 41 124 63 60 40 60 40
108 27 69 -17 160 -107 177 -172 6 -27 15 -48 20 -48 24 0 102 -401 106 -551
2 -42 8 -86 15 -98 6 -12 19 -59 29 -104 13 -63 21 -82 33 -81 30 3 32 -60 4
-122 -35 -76 -49 -158 -37 -220 17 -87 49 -178 82 -228 17 -28 43 -75 58 -105
15 -31 46 -87 68 -126 68 -114 90 -189 92 -305 1 -37 9 -56 43 -103 35 -47 49
-58 78 -63 l37 -6 -33 -62 c-38 -68 -41 -99 -19 -174 20 -67 52 -92 116 -92
l49 0 0 38 c0 20 -7 71 -16 112 -13 62 -13 89 -4 155 6 44 16 94 23 110 15 39
14 125 -2 360 -29 430 -75 623 -182 769 -20 27 -25 42 -18 47 16 9 6 212 -10
217 -6 2 -11 20 -11 40 0 20 -7 82 -16 137 -14 93 -20 172 -43 620 -12 221
-25 312 -60 410 -51 141 -79 193 -114 212 -40 21 -185 27 -242 10z m226 -42
c29 -19 43 -40 69 -102 18 -43 36 -82 40 -88 4 -5 18 -41 30 -80 21 -62 24
-92 26 -275 5 -329 43 -811 69 -864 8 -15 18 -51 21 -79 l7 -50 -34 7 c-114
21 -142 19 -222 -12 -42 -16 -79 -27 -81 -23 -2 3 -7 29 -11 56 -4 28 -14 65
-21 84 -8 18 -14 48 -14 65 1 29 2 28 22 -19 11 -27 28 -72 37 -98 9 -27 21
-47 26 -45 16 5 10 74 -18 228 -35 188 -48 240 -115 450 -58 184 -101 283
-134 310 -20 16 -20 16 0 50 22 39 62 203 62 256 0 69 -50 144 -96 144 -42 0
-33 17 29 53 66 40 78 43 108 27 24 -14 26 5 2 20 -14 7 5 10 72 9 76 -1 96
-4 126 -24z m-350 -105 c20 -6 43 -18 50 -28 13 -15 12 -16 -4 -3 -26 21 -28
12 -10 -54 12 -44 14 -74 8 -110 l-9 -50 -6 71 c-5 58 -12 78 -40 117 -32 44
-50 58 -50 38 0 -5 3 -11 8 -13 4 -1 18 -19 32 -38 28 -41 38 -124 21 -185
-16 -60 -25 -69 -49 -56 -28 15 -52 4 -52 -23 0 -27 18 -46 42 -46 20 0 21 -1
12 -24 -5 -12 -18 -14 -67 -10 -57 5 -67 3 -131 -31 -43 -23 -76 -35 -89 -31
-15 4 -30 -3 -50 -22 -24 -23 -30 -25 -48 -14 -23 15 -39 8 -22 -9 8 -8 -8
-28 -60 -73 -40 -33 -77 -67 -83 -75 -9 -12 -12 -9 -18 13 -4 15 -4 36 -1 46
4 14 -11 27 -73 64 -73 42 -142 97 -142 115 0 7 29 16 155 50 91 25 225 83
225 98 0 7 4 13 9 13 5 0 27 17 50 38 22 20 58 48 80 61 22 13 61 45 88 70 74
71 89 82 130 97 47 16 49 16 94 4z m-53 -322 c18 -18 14 -38 -7 -38 -24 0 -33
13 -25 34 7 19 16 20 32 4z m121 -171 c-2 -2 -17 12 -33 32 l-30 36 34 -32
c19 -18 32 -34 29 -36z m155 -452 c30 -103 33 -130 12 -102 -18 23 -26 22 -27
-5 -2 -49 -17 50 -22 147 -6 106 -4 105 37 -40z m-769 -85 c30 -60 31 -62 3
-58 -17 2 -25 14 -35 53 -7 28 -13 54 -13 58 0 19 22 -8 45 -53z m814 -140
c22 -74 35 -175 19 -147 -23 41 -58 164 -58 201 0 53 13 35 39 -54z m-739 -40
c25 -66 6 -51 -34 25 -32 61 -37 107 -7 60 11 -16 29 -55 41 -85z m165 -150
c-25 -28 1 -27 31 1 34 32 75 18 140 -49 65 -68 91 -109 144 -232 46 -104 88
-258 120 -435 27 -145 30 -179 16 -165 -5 5 -19 10 -29 10 -40 0 -99 24 -114
47 -8 12 -25 60 -37 107 -42 154 -88 221 -231 334 -71 56 -99 90 -119 144 -10
26 -22 50 -27 53 -23 15 -1 115 25 115 9 0 13 6 11 13 -6 16 4 29 45 55 43 27
48 27 25 2z m825 -70 c14 -4 19 -8 11 -9 -7 -1 -11 -7 -7 -16 7 -20 -4 -19
-19 2 -12 15 -17 15 -75 -10 -34 -15 -70 -37 -81 -50 -15 -18 -18 -19 -19 -5
0 9 -2 22 -5 30 -5 12 50 48 95 62 23 7 72 5 100 -4z m80 -55 c0 -8 -2 -15 -4
-15 -2 0 -6 7 -10 15 -3 8 -1 15 4 15 6 0 10 -7 10 -15z m-145 -30 c-43 -35
-7 -33 47 2 29 19 43 24 46 15 2 -6 9 -12 16 -12 24 0 55 -45 106 -153 43 -88
56 -130 75 -235 22 -116 44 -306 61 -521 l7 -83 -26 17 c-35 23 -88 23 -122 1
-15 -10 -39 -44 -55 -78 l-27 -61 -6 84 c-9 123 -50 242 -113 324 -20 27 -43
63 -50 81 -8 18 -34 66 -59 107 -59 97 -80 190 -66 293 14 98 27 124 63 124
15 0 28 5 28 10 0 6 -9 10 -20 10 -20 0 -20 1 -3 24 18 23 99 75 118 76 6 0
-3 -11 -20 -25z m257 -1044 c-16 -15 -17 -15 -20 2 -2 10 -1 26 3 35 6 16 8
15 20 -1 11 -16 11 -21 -3 -36z m68 -11 c0 -10 7 -20 15 -24 15 -6 21 -46 7
-46 -11 0 -52 86 -45 94 10 9 23 -4 23 -24z m-123 -17 c-3 -10 -5 -4 -5 12 0
17 2 24 5 18 2 -7 2 -21 0 -30z m98 -33 c32 -63 34 -115 3 -123 -30 -8 -41 1
-35 31 3 14 1 37 -5 51 -8 23 -3 91 7 91 3 0 16 -22 30 -50z m-138 -47 c-3
-10 -5 -4 -5 12 0 17 2 24 5 18 2 -7 2 -21 0 -30z m58 -61 c-1 -1 -10 0 -19 4
-13 5 -14 9 -4 21 10 13 13 13 19 -4 3 -10 5 -19 4 -21z m81 -58 c-3 -9 -6
-19 -6 -24 0 -4 -7 -7 -16 -6 -38 3 -58 -142 -30 -209 18 -42 12 -46 -8 -7
-27 52 -30 117 -8 175 11 28 23 60 26 70 3 9 15 17 27 17 15 0 19 -4 15 -16z
m14 -100 c0 -8 -4 -12 -10 -9 -5 3 -10 13 -10 21 0 8 5 12 10 9 6 -3 10 -13
10 -21z m-30 -101 c0 -28 -3 -34 -10 -23 -13 20 -13 60 0 60 6 0 10 -17 10
-37z m52 -15 c4 -41 -1 -68 -13 -68 -5 0 -9 23 -9 50 0 56 16 68 22 18z"/>
<path d="M14330 4161 c-16 -30 -12 -41 17 -52 18 -7 30 -6 37 1 7 7 14 3 23
-12 18 -34 17 2 -1 47 -12 27 -21 35 -40 35 -15 0 -30 -8 -36 -19z"/>
<path d="M10360 1220 c-8 -5 -12 -12 -9 -15 4 -3 12 1 19 10 14 17 11 19 -10
5z"/>
</g>
</svg>
