<?xml version="1.0" encoding="UTF-8"?><svg id="Layer_5" xmlns="http://www.w3.org/2000/svg" viewBox="0 0 500 500"><defs><style>.cls-1{stroke:#ec6a5c;}.cls-1,.cls-2{fill:none;stroke-linecap:round;stroke-miterlimit:10;stroke-width:10px;}.cls-2{stroke:#000;}</style></defs><path class="cls-2" d="m199,55.6c-58.68,5.87-165.18,71.6-147.14,207.74"/><path class="cls-2" d="m234.21,49.73c91.55-16.43,231.22,58.68,204.22,227.7"/><path class="cls-2" d="m210.73,50.91c-1.17-16.43-11.74-25.04-11.74-25.04"/><path class="cls-2" d="m221.37,47.61c-.08-15.49,8.14-28.4,17.53-36.61"/><path class="cls-2" d="m221.37,85.8c-3.6,49.62-43.5,101.26-68.15,116.52"/><path class="cls-2" d="m254.16,203.49c-23.47-35.21-34.04-71.6-34.04-109.15"/><path class="cls-2" d="m124.41,197.69c-33.39-.05-48.65,37.49-48.65,58.61,0,21.13,17.61,53.99,55.16,53.99s56.41-32.79,56.38-56.3-13.06-56.23-62.89-56.3Z"/><path class="cls-2" d="m292.61,197.69c-45.47-1.68-59.59,30.52-60.76,56.3s24.65,59.82,63.38,59.82,63.02-25.75,60.26-58.06c-2.75-32.31-29.13-56.82-62.89-58.06Z"/><path class="cls-2" d="m218.36,258.06c-12.91-4.69-31.07,0-31.07,0"/><path class="cls-2" d="m377.45,277.47c37.51-21.17,59.81-8.25,70.37,17.57,10.13,24.75-13.18,44.11-54.41,48.77-3.34.38-6.24,2.44-7.67,5.48-21.63,46-60.49,69.11-108.1,72.51-49.18,3.51-157.28,10.56-207.74-103.29"/><path class="cls-2" d="m319.89,484c-8.22-21.13-11.95-67.42-11.95-67.42"/><path class="cls-2" d="m208.39,478.13c-7.04-19.95-5.56-57.57-5.56-57.57"/><path class="cls-2" d="m134.53,484c4.61-18.78,12.86-49.16-3-89.72"/><path class="cls-2" d="m427.87,460.53c-17.61-34.04-22.58-79.29-8.36-122.39"/><path class="cls-1" d="m314.02,330.25c8.85,1.26,16.43,1.17,22.3,1.17"/><path class="cls-1" d="m98.06,324.38c8.85,1.26,16.43,1.17,22.3,1.17"/><path class="cls-2" d="m209.56,289.17c-14.08,0-19.95,5.87-19.95,15.26s10.56,10.56,21.13,10.56"/><path class="cls-2" d="m180.22,336.11c15.26,11.74,44.72,16.95,65.79,2.02"/><path d="m116.22,245.19c-11.21.66-13.52,22.26,2.92,23.44,16.43,1.17,16.47-24.58-2.92-23.44Z"/><path d="m259.39,244.05c-14.95-.98-15.58,24.44,0,25.7,15.58,1.26,18.46-24.49,0-25.7Z"/></svg>