<?xml version="1.0" encoding="UTF-8"?><svg id="logo" xmlns="http://www.w3.org/2000/svg" viewBox="0 0 627 470"><defs><style>.cls-1{fill:#fdf9d8;}.cls-2{fill:#b3ab33;}.cls-3{fill:#605c27;}</style></defs><rect class="cls-1" x="-49.54" y="-165.46" width="726.34" height="800"/><path class="cls-2" d="m164.28,309.72c-12.05-20.81-17.21-45.17-15.06-58.07,2.15-12.9,9.68-17.15,15.06-22.02,5.38-4.87,31.19-4.87,39.79,5.89,8.6,10.75,21.51,34.41,23.66,49.47,2.15,15.06-2.15,45.17-12.9,49.47-10.75,4.3-38.71-4.3-50.54-24.73Z"/><path class="cls-2" d="m102.05,229.49c-18.72,7.49-45.08-11.27-54.09-29.3-9.02-18.03-20.29-36.06-13.52-63.11,6.76-27.05,40.57-24.79,54.09-20.29,13.52,4.51,29.3,22.54,33.81,38.32,4.51,15.78,13.52,60.86-20.29,74.38Z"/><path class="cls-2" d="m283.19,207.62c10.85-36.88,10.85-65.08,45.56-58.58,34.71,6.51,23.86,52.07,23.86,65.08s-8.68,39.05-10.85,43.39c-2.17,4.34-21.69,21.69-39.05,15.19-17.36-6.51-21.69-23.86-23.86-32.54-2.17-8.68,4.34-32.54,4.34-32.54Z"/><path class="cls-2" d="m442.88,245.41c-18.47.84-25.38,30.82-25.38,41.7s-3.63,52.58,23.57,61.64,34.45,0,39.89-5.44c5.44-5.44,16.63-23.34,12.85-44.3-3.78-20.96-11.04-55.41-50.92-53.6Z"/><path class="cls-2" d="m456.47,197.33c-2.28-14.04,18.33-30.13,29.21-35.56s30.82-12.69,45.32-7.25c14.5,5.44,28.82,30.68,8.97,50.69-19.85,20.01-43.42,14.57-52.48,14.57s-27.6-1.39-31.02-22.45Z"/><path class="cls-2" d="m384.27,73.68c-9.23-27.68-15.4-54.25-10.92-66.82,4.48-12.56,28.08-34.02,47.39-16.86,19.31,17.16,27.89,36.47,34.33,53.64,6.44,17.16,6.44,55.78-10.73,64.36-17.16,8.58-27.89,8.58-36.47,6.44-8.58-2.15-21.45-34.33-23.6-40.76Z"/><path class="cls-2" d="m382.07,412.16c-26.81-8.04-48.88-15.64-43.02-44.97,5.87-29.33,35.2-29.33,44.97-29.33s44.97,1.96,58.66,31.28c13.69,29.33,5.87,39.11,1.96,39.11s-43.02,9.78-62.57,3.91Z"/><path class="cls-2" d="m482.18,382.87c0-13.76,19.59-45.7,52.23-34.82,32.64,10.88,32.64,45.7,32.64,63.11s-10.88,39.17-26.11,45.7c-15.23,6.53-26.11,13.06-43.52,4.35-17.41-8.7-26.11-23.94-23.94-39.17,2.18-15.23,8.7-37,8.7-39.17Z"/><path class="cls-3" d="m126.86,251.37c-10.38-5.19-14.65-1.6-36.03,0-18.91,1.42-34.8,13.05-42.13,17.94-5.93,3.96-23.16,15.97-25.64,18.39-3.67,3.59-8.56,12.35-8.56,15.81s13.75-.24,22.4-5.43c8.65-5.19,29.41-12.11,34.6-13.84,5.19-1.73,27.76-11.48,32.91-14.39,5.15-2.91,7.79-2.98,12.68-7.87,3.32-3.32,9.77-10.61,9.77-10.61Z"/><path class="cls-3" d="m222,183.91s-14.93-38.38-16.99-53.81c-2.13-15.96,6.61-62.09,3.15-72.47,13.84,15.57,23.72,33.39,25.95,57.09,0,0,1.73,43.25-12.11,69.19Z"/><path class="cls-3" d="m431.3,154.51s9.64-19.51,10.88-21.76c6.68-12.1,11.57-14.54,18.13-19.94s12.98-21.46,14.5-27.19c1.32-4.95,9.06-27.19,12.69-27.19s12.69-16.32,7.25,12.69c-5.44,29.01-10.88,38.07-14.5,45.32-3.63,7.25-10.88,29.01-21.76,34.45-10.88,5.44-18.13,5.44-27.19,3.63Z"/><path class="cls-3" d="m426.87,157.29s-8.27,11.72-26.4,4.47c-18.13-7.25-52.58-23.57-59.83-39.89-7.25-16.32-11.82-25.59-9.54-26.39,15.45,12.9,12.98,11.11,24.93,22.73,14.65,12.21,16.76,13.76,21.53,16.87,4.77,3.11,12.66,5.11,24.71,8.55,5.23,1.49,21.54,9.31,24.58,13.66Z"/><path class="cls-3" d="m512.18,277.56s26.58-17.01,32.63-21.76c7.92-6.21,18.13-14.5,34.45-16.32,16.32-1.81,34.85-6.26,34.85-6.26,0,0-12.65,11.96-16.72,17.14-3.52,4.49-13.68,10.73-20.11,13.55-6.75,2.97-22.69,4.54-30.69,6.14-10.23,2.05-34.41,7.5-34.41,7.5Z"/><path class="cls-3" d="m298.1,323.66s5.53-32.77-8.69-48.44c-14.21-15.67-23.33-29.38-35.13-32.48-11.81-3.11-15.93-2.94-13.81,5,2.12,7.94,7.6,9.91,13.24,17.25,5.64,7.34,14.23,12.11,17.98,19.38,3.75,7.27,5.48,22.48,10.85,28.91,5.36,6.44,15.56,10.38,15.56,10.38Z"/><path class="cls-3" d="m476.67,529.92s25.95-20.76,8.65-48.44c-17.3-27.68-24.22-46.71-25.95-62.27-5.19,20.76-2.24,41.86,0,47.66,5.38,13.94,17.66,26.21,19.03,37.11,1.3,10.3,1.73,15.57-1.73,25.95Z"/><path class="cls-3" d="m179.87,380.59c5.19-12.11,15.57-15.57,21.89-19.44,4.95-3.03,35.19-30.73,38.65-39.38s11.34-14.28,16.91-16.66c-9.99,33.95-20.37,54.71-32.48,61.63-12.11,6.92-22.49,13.84-32.87,15.57-10.38,1.73-12.11-1.73-12.11-1.73Z"/><path class="cls-3" d="m390.27,240.99s-20.59,12.35-24.71,20.59c-4.12,8.24-14.41,20.59-20.59,26.77-6.18,6.18-6.18,16.47-6.18,18.53,0,0,6.18,0,12.35-8.24,6.18-8.24,14.41-10.3,18.53-14.41,3.26-3.26,12.35-14.41,14.41-18.53,2.06-4.12,6.18-20.59,6.18-24.71Z"/><path class="cls-3" d="m222,183.91s-15.17-38.35-16.99-53.81c-4.88-41.52,6.61-62.09,3.15-72.47"/><path class="cls-3" d="m402.29,143.63c5.23,1.49,21.54,9.31,24.58,13.66,0,0-4.88,9.77-26.4,4.47"/><path class="cls-3" d="m474.81,85.62c1.32-4.95,10.44-24.36,12.69-27.19,12.65-15.92,12.69-16.32,7.25,12.69"/><path class="cls-3" d="m104.41,269.85c5.15-2.91,5.35-2.98,12.68-7.87"/></svg>