<?xml version="1.0" encoding="UTF-8"?><svg id="logo" xmlns="http://www.w3.org/2000/svg" viewBox="0 0 726.34 800"><defs><style>.cls-1{letter-spacing:.02em;}.cls-2{font-family:Helvetica-Light, Helvetica;font-size:21.48px;font-weight:300;}.cls-2,.cls-3,.cls-4{fill:#605c27;}.cls-5{fill:#fdf9d8;}.cls-6{fill:#b3ab33;}.cls-7{fill:#b2aa33;font-family:Mogena, Mogena;font-size:48.66px;}.cls-4{font-family:Helvetica-Bold, Helvetica;font-size:30.69px;font-weight:700;}.cls-8{letter-spacing:-.01em;}.cls-9{letter-spacing:0em;}</style></defs><rect class="cls-5" x=".13" y="-.46" width="726.34" height="800"/><text class="cls-7" transform="translate(71.07 169.07)"><tspan class="cls-1" x="0" y="0">p</tspan><tspan class="cls-9" x="29.44" y="0">o</tspan><tspan x="55.43" y="0">i</tspan><tspan class="cls-9" x="72.55" y="0">n</tspan><tspan x="105.55" y="0">t </tspan><tspan class="cls-9" x="0" y="37.47">e</tspan><tspan x="24.14" y="37.47">i</tspan><tspan class="cls-8" x="41.27" y="37.47">g</tspan><tspan class="cls-9" x="68.66" y="37.47">h</tspan><tspan x="101.8" y="37.47">t</tspan></text><path class="cls-6" d="m142.93,90.79c-4.45.76-9.35-4.59-10.48-8.97-1.13-4.38-2.75-8.86,0-14.47,2.75-5.61,10.06-3.53,12.81-1.9,2.75,1.62,5.36,6.32,5.61,9.99.25,3.67.1,13.97-7.94,15.35Z"/><path class="cls-6" d="m164.69,109.84c1.85-7.12,1.49-12.44,8.98-11.71,7.49.73,5.76,9.48,5.92,11.94s-1.36,7.49-1.76,8.34-4.36,4.41-8.14,3.43c-3.79-.98-4.93-4.19-5.51-5.8s.51-6.2.51-6.2Z"/><path class="cls-6" d="m82.12,123.09c-3.96-.56-6.48-7.57-7-11.01-.52-3.44-.73-9.52,1.98-13.03,2.71-3.51,10.71-5.3,14.35,1.83,3.64,7.13.14,13.13-.64,15.62-.78,2.48-2.76,7.45-8.7,6.6Z"/><path class="cls-6" d="m103.41,79.03c-.15-5.69.2-11.01,1.75-13.1,1.55-2.09,7.17-4.76,9.81-.46s3.14,8.39,3.37,11.96-1.96,10.78-5.66,11.41c-3.69.63-5.7.02-7.18-.87-1.48-.89-2.06-7.63-2.09-8.95Z"/><path class="cls-6" d="m103.54,107.24c-.67-2.84,1.66-10.35,8.64-9.62,6.99.73,8.67,7.92,9.52,11.52s-.25,8.6-2.95,10.65c-2.7,2.06-4.53,3.91-8.4,2.92-3.87-.99-6.33-3.73-6.64-6.98s-.07-8.05-.18-8.5Z"/><path class="cls-6" d="m78.55,62.79s-7.08,3.54-6.49,10.03c.59,6.49,5.9,15.34,10.62,14.75,4.72-.59,9.01-1.69,9.22-7.04.22-5.35-.37-11.85-3.91-14.21s-5.9-4.13-9.44-3.54Z"/><path class="cls-6" d="m172.22,61.85s-8.42,1.49-9.8,8.39c-1.39,6.9,1.39,17.7,6.46,18.54,5.07.84,9.84,1.02,11.71-4.45,1.87-5.47,3.26-12.38.32-15.91-2.94-3.53-4.84-6.09-8.68-6.57Z"/><path class="cls-6" d="m138.4,97.58s-7.15,3.58-6.55,10.13c.6,6.55,5.96,15.49,10.73,14.9,4.77-.6,9.09-1.7,9.31-7.11.22-5.41-.38-11.96-3.95-14.34s-5.96-4.17-9.53-3.58Z"/><path class="cls-6" d="m213.95,474.72c-12.05-20.81-17.21-45.17-15.06-58.07,2.15-12.9,9.68-17.15,15.06-22.02,5.38-4.87,31.19-4.87,39.79,5.89,8.6,10.75,21.51,34.41,23.66,49.47,2.15,15.06-2.15,45.17-12.9,49.47-10.75,4.3-38.71-4.3-50.54-24.73Z"/><path class="cls-6" d="m151.72,394.49c-18.72,7.49-45.08-11.27-54.09-29.3-9.02-18.03-20.29-36.06-13.52-63.11,6.76-27.05,40.57-24.79,54.09-20.29,13.52,4.51,29.3,22.54,33.81,38.32,4.51,15.78,13.52,60.86-20.29,74.38Z"/><path class="cls-6" d="m332.86,372.62c10.85-36.88,10.85-65.08,45.56-58.58,34.71,6.51,23.86,52.07,23.86,65.08s-8.68,39.05-10.85,43.39c-2.17,4.34-21.69,21.69-39.05,15.19-17.36-6.51-21.69-23.86-23.86-32.54-2.17-8.68,4.34-32.54,4.34-32.54Z"/><path class="cls-6" d="m492.56,410.41c-18.47.84-25.38,30.82-25.38,41.7s-3.63,52.58,23.57,61.64,34.45,0,39.89-5.44c5.44-5.44,16.63-23.34,12.85-44.3-3.78-20.96-11.04-55.41-50.92-53.6Z"/><path class="cls-6" d="m506.15,362.33c-2.28-14.04,18.33-30.13,29.21-35.56s30.82-12.69,45.32-7.25c14.5,5.44,28.82,30.68,8.97,50.69-19.85,20.01-43.42,14.57-52.48,14.57s-27.6-1.39-31.02-22.45Z"/><path class="cls-6" d="m433.94,238.68c-9.23-27.68-15.4-54.25-10.92-66.82,4.48-12.56,28.08-34.02,47.39-16.86,19.31,17.16,27.89,36.47,34.33,53.64,6.44,17.16,6.44,55.78-10.73,64.36-17.16,8.58-27.89,8.58-36.47,6.44-8.58-2.15-21.45-34.33-23.6-40.76Z"/><path class="cls-6" d="m431.74,577.16c-26.81-8.04-48.88-15.64-43.02-44.97,5.87-29.33,35.2-29.33,44.97-29.33s44.97,1.96,58.66,31.28c13.69,29.33,5.87,39.11,1.96,39.11s-43.02,9.78-62.57,3.91Z"/><path class="cls-6" d="m531.85,547.87c0-13.76,19.59-45.7,52.23-34.82,32.64,10.88,32.64,45.7,32.64,63.11s-10.88,39.17-26.11,45.7c-15.23,6.53-26.11,13.06-43.52,4.35-17.41-8.7-26.11-23.94-23.94-39.17,2.18-15.23,8.7-37,8.7-39.17Z"/><path class="cls-3" d="m176.53,416.37c-10.38-5.19-14.65-1.6-36.03,0-18.91,1.42-34.8,13.05-42.13,17.94-5.93,3.96-23.16,15.97-25.64,18.39-3.67,3.59-8.56,12.35-8.56,15.81s13.75-.24,22.4-5.43c8.65-5.19,29.41-12.11,34.6-13.84,5.19-1.73,27.76-11.48,32.91-14.39,5.15-2.91,7.79-2.98,12.68-7.87,3.32-3.32,9.77-10.61,9.77-10.61Z"/><path class="cls-3" d="m271.67,348.91s-14.93-38.38-16.99-53.81c-2.13-15.96,6.61-62.09,3.15-72.47,13.84,15.57,23.72,33.39,25.95,57.09,0,0,1.73,43.25-12.11,69.19Z"/><path class="cls-3" d="m480.97,319.51s9.64-19.51,10.88-21.76c6.68-12.1,11.57-14.54,18.13-19.94s12.98-21.46,14.5-27.19c1.32-4.95,9.06-27.19,12.69-27.19s12.69-16.32,7.25,12.69c-5.44,29.01-10.88,38.07-14.5,45.32-3.63,7.25-10.88,29.01-21.76,34.45-10.88,5.44-18.13,5.44-27.19,3.63Z"/><path class="cls-3" d="m476.55,322.29s-8.27,11.72-26.4,4.47c-18.13-7.25-52.58-23.57-59.83-39.89-7.25-16.32-11.82-25.59-9.54-26.39,15.45,12.9,12.98,11.11,24.93,22.73,14.65,12.21,16.76,13.76,21.53,16.87,4.77,3.11,12.66,5.11,24.71,8.55,5.23,1.49,21.54,9.31,24.58,13.66Z"/><path class="cls-3" d="m561.85,442.56s26.58-17.01,32.63-21.76c7.92-6.21,18.13-14.5,34.45-16.32,16.32-1.81,34.85-6.26,34.85-6.26,0,0-12.65,11.96-16.72,17.14-3.52,4.49-13.68,10.73-20.11,13.55-6.75,2.97-22.69,4.54-30.69,6.14-10.23,2.05-34.41,7.5-34.41,7.5Z"/><path class="cls-3" d="m347.77,488.66s5.53-32.77-8.69-48.44c-14.21-15.67-23.33-29.38-35.13-32.48-11.81-3.11-15.93-2.94-13.81,5,2.12,7.94,7.6,9.91,13.24,17.25,5.64,7.34,14.23,12.11,17.98,19.38,3.75,7.27,5.48,22.48,10.85,28.91,5.36,6.44,15.56,10.38,15.56,10.38Z"/><path class="cls-3" d="m526.34,694.92s25.95-20.76,8.65-48.44c-17.3-27.68-24.22-46.71-25.95-62.27-5.19,20.76-2.24,41.86,0,47.66,5.38,13.94,17.66,26.21,19.03,37.11,1.3,10.3,1.73,15.57-1.73,25.95Z"/><path class="cls-3" d="m229.54,545.59c5.19-12.11,15.57-15.57,21.89-19.44,4.95-3.03,35.19-30.73,38.65-39.38s11.34-14.28,16.91-16.66c-9.99,33.95-20.37,54.71-32.48,61.63-12.11,6.92-22.49,13.84-32.87,15.57-10.38,1.73-12.11-1.73-12.11-1.73Z"/><path class="cls-3" d="m439.95,405.99s-20.59,12.35-24.71,20.59c-4.12,8.24-14.41,20.59-20.59,26.77-6.18,6.18-6.18,16.47-6.18,18.53,0,0,6.18,0,12.35-8.24,6.18-8.24,14.41-10.3,18.53-14.41,3.26-3.26,12.35-14.41,14.41-18.53,2.06-4.12,6.18-20.59,6.18-24.71Z"/><path class="cls-3" d="m271.67,348.91s-15.17-38.35-16.99-53.81c-4.88-41.52,6.61-62.09,3.15-72.47"/><path class="cls-3" d="m451.96,308.63c5.23,1.49,21.54,9.31,24.58,13.66,0,0-4.88,9.77-26.4,4.47"/><path class="cls-3" d="m524.48,250.62c1.32-4.95,10.44-24.36,12.69-27.19,12.65-15.92,12.69-16.32,7.25,12.69"/><path class="cls-3" d="m154.08,434.85c5.15-2.91,5.35-2.98,12.68-7.87"/><text class="cls-4" transform="translate(68.17 627.46)"><tspan x="0" y="0">extra virgin olive oil</tspan></text><text class="cls-2" transform="translate(67.79 724.48)"><tspan x="0" y="0">500mL</tspan></text><text class="cls-2" transform="translate(67.94 653.94)"><tspan x="0" y="0">Product of Martinborough </tspan><tspan x="0" y="22.51">New Zealand</tspan></text></svg>