<?xml version="1.0" encoding="UTF-8"?><svg id="Layer_2" xmlns="http://www.w3.org/2000/svg" viewBox="0 0 500 500"><defs><style>.cls-1{fill:#71bd35;}</style></defs><path class="cls-1" d="m369.21,329.54c33.23-5.04,70.45-12.72,88.87-44.19,17.93-30.64,1.4-65.96-26.98-83.14-15.42-9.33-33.24-13.76-50.88-16.55-19.64-3.11-39.48-5.12-59.3-6.61-40.76-3.05-81.66-3.38-122.51-3.03-40.43.34-81.52-.65-121.59,5.5-14.3,2.19-28.78,6.6-40.09,15.97-11.81,9.78-16.6,25.72-11.45,40.3,5.7,16.13,19.37,27.76,32.99,37.27s29.32,17.12,45.23,22.93c33.05,12.07,68.44,16.84,103.33,19.91,78.6,6.92,158.34,1.27,235.23-16.39,9.57-2.2,19.09-4.59,28.56-7.16,9.93-2.69,5.71-18.13-4.25-15.43-70.3,19.02-143.13,27.66-215.93,25.53-34.18-1-68.71-3.76-102.25-10.66-30.5-6.27-60.67-16.56-85.81-35.41-10.33-7.75-23.8-19.49-23.22-33.72.49-12.06,11.99-19.25,22.21-22.94,14.87-5.36,31.16-6.55,46.81-7.62,18.93-1.29,37.92-1.42,56.88-1.69,37.6-.53,75.23-.94,112.82.34,36.3,1.24,73.54,3.02,109.2,10.32,15.19,3.11,30.94,7.92,43.11,17.94,10.44,8.59,19.14,21.11,19.66,35.02,1.2,32.15-33.48,48.04-59.82,53.73-8.29,1.79-16.68,3.07-25.06,4.34-4.28.65-6.64,6.03-5.59,9.84,1.26,4.57,5.55,6.24,9.84,5.59h0Z"/></svg>