<?xml version="1.0" encoding="UTF-8"?><svg id="Layer_2" xmlns="http://www.w3.org/2000/svg" viewBox="0 0 500 500"><defs><style>.cls-1{fill:#e3baff;}</style></defs><path class="cls-1" d="m149.24,69.32c-2.14,23.18,5.62,45.4,15.43,65.99,4.37,9.19,9.32,18.09,14.07,27.08,2.22,4.2,4.4,8.41,6.47,12.69,1.11,2.29,2.1,4.63,3.21,6.91-2.34-4.82.21.55.95,2.53,1.87,5.04,3.43,10.17,4.62,15.41.57,2.52,1.06,5.05,1.49,7.59.12.72.9,6.04.47,2.78-.38-2.87.24,2.32.29,2.81,1.3,12.1,1.93,24.27,3.37,36.36,3.11,26.21,8.05,52.06,14.6,77.62,6.96,27.12,15.37,53.84,23.79,80.53,4.26,13.5,19.05,23.55,33.33,18.93,13.55-4.39,23.49-18.86,18.93-33.33-14.67-46.51-29.36-93.3-36.23-141.72.63,4.41-.23-1.99-.38-3.34-.35-3.07-.67-6.15-.96-9.23-.56-6.02-.99-12.05-1.51-18.08-1.18-13.5-2.6-27.23-6.18-40.33-5.7-20.9-16.63-39.99-26.67-59.02-2.53-4.79-5.01-9.61-7.31-14.51-.46-.97-.89-1.95-1.35-2.91-2.21-4.7.95,2.74-.18-.36-.84-2.3-1.76-4.56-2.55-6.88-.45-1.33-3.4-15.85-3.99-16.02.31.09.38,5.28.36,2.09,0-1.37-.2-2.76-.24-4.13-.09-3.17.07-6.3.36-9.45,1.31-14.16-13.4-27.71-27.1-27.1-15.8.71-25.7,11.93-27.1,27.1h0Z"/><path class="cls-1" d="m167.7,388.83c16.81,12.06,33.62,24.12,50.43,36.18,8.59,6.16,17.18,12.33,25.78,18.49,9.87,7.08,19.28,14.93,32.12,15.27,22.49.6,39.17-23.17,50.71-39.65,10.79-15.41,18.77-32.95,24.26-50.92,4.14-13.56-4.93-30.15-18.93-33.33s-28.9,4.41-33.33,18.93c-1.1,3.6-2.34,7.13-3.61,10.67-.95,2.63-.77,2.02.19-.21-.74,1.73-1.52,3.43-2.33,5.13-3.07,6.45-6.58,12.68-10.5,18.64-1.03,1.57-2.1,3.12-3.19,4.65-.32.45-3.17,4.34-1.24,1.78,2.17-2.88-1.66,2.01-2.1,2.54-1.21,1.44-2.45,2.85-3.71,4.24-2.27,2.51-4.78,4.79-7.05,7.29-7.25,7.99,27,3.47,19.87-2.09-1.5-1.17-3.28-2.21-4.82-3.31-28.44-20.3-56.78-40.74-85.17-61.1-11.56-8.29-30.67-2.39-37.07,9.72-7.4,14-2.61,28.23,9.72,37.07h0Z"/></svg>