<?xml version="1.0" encoding="UTF-8"?><svg id="Layer_2" xmlns="http://www.w3.org/2000/svg" viewBox="0 0 500 500"><defs><style>.cls-1{fill:#71bd35;}</style></defs><path class="cls-1" d="m32.04,252.84c18.23,34.58,35.73,69.69,54.82,103.81,7.52,13.44,17.3,26.85,31.52,33.72,17.54,8.47,35.58,7.27,54.1,3.4,69.59-14.54,134.57-42.52,199.86-69.82,7.68-3.21,15.37-6.4,23.08-9.55,8.33-3.4,17.57-6.08,25.09-11.1,16.28-10.89,21.51-28.74,14.36-46.72-14.04-35.31-30.84-69.51-46.23-104.23-3.77-8.5-7.47-17.02-11.06-25.59-3.53-8.43-6.61-17.05-13.33-23.58-12.34-12-30.11-11.35-45.79-8.37-36.51,6.93-72.66,17.44-107.84,29.33-39.36,13.31-77.9,29.24-115.19,47.54-28.46,13.97-65.5,36.19-66.12,72.53-.35,20.38,31.32,20.39,31.67,0,.14-8.09,9.12-18.1,15.58-24.3,9.19-8.82,20.66-13.86,31.97-19.47,29.05-14.38,58.83-27.18,89.28-38.3,30.71-11.22,62.01-20.82,93.73-28.74,13.6-3.39,28.36-8.42,42.43-8.92,4.76-.17,7.54-.08,10.06,4.09,4.23,7.02,6.71,15.44,9.94,22.97,12.85,29.93,26.86,59.36,39.97,89.17,3.31,7.53,6.59,15.07,9.73,22.67,1.07,2.59,3.49,6.41,3.32,9.22.08-1.34-1.11,1.93-2.15,2.97-3.98,3.99-11.31,5.62-16.37,7.68-7.72,3.15-15.42,6.34-23.12,9.55-56.78,23.72-113.27,48.45-173.04,63.83-15.46,3.98-33.98,10.91-50.1,8.43-14.59-2.25-22-13.52-28.64-25.57-18.68-33.86-36.15-68.45-54.18-102.66-9.51-18.03-36.85-2.05-27.34,15.98h0Z"/><path class="cls-1" d="m53.25,234.86c56.89,18.14,117.06,8.07,175.29,16.19,15.17,2.11,29.83,7.15,42.62-4.43,11.06-10,20.09-24.31,28.34-36.62,16.95-25.28,30.87-52.41,44.56-79.54,9.16-18.15-18.15-34.2-27.34-15.98-12.75,25.27-25.69,50.52-41.1,74.29-7.17,11.06-14.75,22.12-23.56,31.96l-1.59,1.8c-2.2,2.15-2.27,2.25-.2.32-2.49-.26-4.99-1-7.46-1.42-7.26-1.24-14.58-2.2-21.91-2.96-52.9-5.49-107.83,2.24-159.23-14.15-19.46-6.21-27.79,24.36-8.42,30.53h0Z"/></svg>