<?xml version="1.0" encoding="UTF-8"?><svg id="Layer_1" xmlns="http://www.w3.org/2000/svg" viewBox="0 0 500 500"><defs><style>.cls-1{fill:#6dcbf3;}</style></defs><path class="cls-1" d="m80.09,404.66c18.6,3.63,37.03-.18,53.41-9.49,15.96-9.07,29.01-22.33,40.05-36.82s19.8-30.93,27.01-47.67c7.76-18.01,13.91-36.58,17.87-55.8,4.48-21.7,6.57-43.96,5.9-66.11-.12-3.84-1.7-7.08-4.73-9.42-3.19-2.47-6.56-2.85-10.46-2.15-.37.07-.75.12-1.12.19-1.86.33,3.52-.37,1.61-.22-.84.07-1.68.16-2.52.21-1.83.1-3.67.11-5.51.05-2-.07-4-.21-5.99-.43-.52-.06-1.03-.13-1.55-.18,3.87.39,2.49.35,1.62.22-1.24-.19-2.47-.38-3.7-.61-4.32-.8-8.6-1.88-12.77-3.28-1.04-.35-2.07-.72-3.1-1.11s-4.04-1.81-.15,0c-2.08-.96-4.15-1.9-6.14-3.02-1.6-.9-3.16-1.89-4.65-2.97-.79-.58-2.04-1.88.89.71-.36-.31-.73-.6-1.09-.91-.81-.7-1.59-1.45-2.33-2.23-.51-.54-.97-1.12-1.46-1.68,2.9,3.3.77,1,.14-.05-.43-.72-.73-1.54-1.18-2.24,1.72,2.64.89,2.2.45,1-.17-.45-.32-.91-.46-1.37-.27-.88-.45-1.76-.63-2.66-.39-1.94.22,3.42.21,1.47,0-.42-.05-.84-.06-1.26s.03-.82.03-1.23c.02-1.29.82-1.82-.25,1.58.24-.76.32-1.56.56-2.33.12-.38.3-.75.41-1.13-1,3.58-1.12,2.41-.54,1.4.41-.71.86-1.4,1.28-2.11.97-1.62-2.15,2.47-.85,1.08.2-.21.37-.44.57-.66.7-.79,1.46-1.53,2.25-2.22.36-.31.73-.6,1.09-.91-3.08,2.72-1.33,1.01-.46.41s1.73-1.14,2.63-1.67c1.11-.65,2.25-1.26,3.41-1.82.52-.25,1.04-.5,1.57-.74,2.85-1.3-2.09.8-.11.03,5.76-2.24,11.67-3.92,17.71-5.23s10.8-9,8.38-14.76c-5.37-12.83-8.92-26.18-11.05-39.91.63,4.08.17,1.22.05.21-.09-.78-.17-1.57-.25-2.35-.16-1.63-.28-3.27-.36-4.91-.16-3.02-.19-6.05-.05-9.08.06-1.38.16-2.76.3-4.14.11-1.07.59-3.6-.13.71.12-.72.22-1.44.35-2.16.44-2.46,1.05-4.9,1.9-7.25.38-1.06,1.43-2.88-.43.9.24-.49.45-1,.69-1.49.5-1,1.06-1.97,1.69-2.9.14-.21.3-.41.44-.63.7-1.08-2.03,2.49-1.19,1.53.29-.33.56-.67.85-.99.33-.36.68-.71,1.04-1.05.96-.9,2.75-1.67-.75.49.83-.51,1.63-1.03,2.48-1.51.11-.06.64-.25.66-.31,0,.02-3.14,1.18-1.84.79.54-.16,1.07-.37,1.62-.51.44-.12.88-.21,1.32-.3,2.42-.52-2.98.21-1.2.15.52-.02,1.08,0,1.59-.05,1.24-.11-2.14-.3-2.17-.31.21.12.82.14,1.05.19,1,.21,1.98.49,2.94.83,1.09.38,2.68,1.41-.95-.46.51.26,1.05.47,1.57.72,2.42,1.18,4.71,2.61,6.9,4.18.28.2,1.57.89,1.65,1.22.01.06-2.57-2.05-1.19-.91.2.17.41.33.62.5,1.19.98,2.35,1.99,3.48,3.04,2.36,2.19,4.59,4.52,6.69,6.97.5.59,1,1.18,1.49,1.79.25.3.48.61.73.91,1.43,1.77-1.78-2.42-.45-.57,1.03,1.42,2.05,2.84,3.01,4.31,1.94,2.98,3.62,6.1,5.14,9.31.22.46.76,1.75-.04-.15-.85-2.02-.15-.36.03.12.33.86.65,1.72.94,2.59.51,1.53.95,3.09,1.29,4.66.17.77.28,1.55.44,2.32.3,1.4-.34-3.08-.22-1.65.04.43.09.85.13,1.28.14,1.67.13,3.35.02,5.02h24c.01-2.76.14-5.51.41-8.25.05-.5.11-1,.16-1.49.27-2.71-.48,2.89-.03.21.25-1.48.49-2.96.79-4.44,1.09-5.3,2.73-10.4,4.69-15.44.62-1.59-1.27,2.79-.18.45.32-.68.62-1.37.94-2.05.54-1.13,1.1-2.25,1.69-3.36,1.29-2.43,2.7-4.81,4.21-7.11.64-.97,1.43-1.88,2.01-2.89-1.62,2.84-.97,1.23-.28.42.35-.41.71-.82,1.07-1.22,1.72-1.9,3.67-3.42,5.52-5.16-2.69,2.52-.18.21.77-.4s1.83-1.11,2.78-1.61c.51-.26,1.14-.68,1.7-.82-.05.01-2.96,1.09-1.14.51,1.16-.37,2.29-.76,3.48-1.01,1.36-.28,2.22.26-.87.07.47.03.97-.07,1.44-.08s.96.03,1.43.03c2.25.02-3.1-.71-.92-.12.37.1.75.17,1.11.27,1.29.37,1.76,1.22-.68-.41.4.27.9.44,1.33.69.27.15.53.31.78.48.99.69.7.45-.87-.73.34.53,1.76,1.95,2.29,2.3l-1.08-1.4c.26.35.5.71.74,1.08.24.37.46.74.68,1.12.33.57.64,1.16.93,1.76.16.32,1.06,2.39.21.4s.01.11.13.45c.27.74.52,1.49.76,2.24,1.76,5.46,3.14,11.07,4.47,16.64,1.58,6.59,2.96,13.22,4.15,19.89.59,3.34,1.14,6.68,1.63,10.03.12.84.24,1.68.36,2.51.36,2.51-.33-2.62.08.59.23,1.82.45,3.64.66,5.47.31,2.75.84,5.02,2.58,7.27,1.53,1.98,3.72,3.73,6.23,4.3,5.6,1.27,10.25-1.03,13.55-5.51s5.3-9.32,7.36-14.3c.84-2.02,1.63-4.06,2.44-6.09.18-.45.37-.9.55-1.35.76-1.89-.24.69-.36.85.72-.97,1.14-2.54,1.68-3.63.49-.97,1-1.94,1.56-2.87.29-.49,2.18-3.13.83-1.4s.75-.83,1.14-1.24c.75-.78,1.55-1.49,2.35-2.22,1.7-1.56-1.96,1.35-.65.5.45-.29.87-.6,1.33-.88.71-.44,1.46-.81,2.2-1.21,1.99-1.07-2.35.82-.88.38.48-.14.95-.32,1.44-.45.38-.1.77-.18,1.16-.27,2.1-.48-2.99.03-.86.16.36.02.79.02,1.16,0,2.17-.06-2.62-.58-1.17-.17.47.13.95.26,1.42.38,1.04.27.86.98-1.2-.52.27.2.75.44,1.08.6,1.95.97-1.76-1.63-.73-.62.35.35.72.7,1.08,1.04,1.5,1.37-1.52-2.41-.37-.55.43.7.88,1.37,1.25,2.09.17.33.33.8.54,1.11-1.53-2.21-.81-2.01-.39-.83.68,1.89,1.18,3.85,1.57,5.82.22,1.09.38,2.18.56,3.27.11.71.19,2.29-.09-.78.05.54.14,1.07.2,1.61.31,2.68.54,5.37.67,8.07.26,5.12.21,10.26-.15,15.37-.09,1.35-.21,2.69-.35,4.03-.05.54-.11,1.07-.17,1.61-.06.54-.13,1.07-.19,1.61l.21-1.59c-.58,2.77-.88,5.6-1.46,8.37-1.19,5.68-2.79,11.26-4.73,16.73-1.7,4.78,1.09,11.21,5.51,13.55,1.89,1,3.93,1.54,6.06,1.64,3.34.15,6.02-1.55,8.49-3.51-3.13,2.5-1.21.92-.33.39.57-.35,1.2-.6,1.78-.95-2.76,1.67-2.33.9-1.25.55.32-.1.63-.21.94-.31.72-.21,1.44-.35,2.17-.51,1.65-.37-1.68.25-1.71.22.1.06.81-.07.99-.08.67-.04,1.34-.04,2-.02.54.02,3.49.35.92.01s.32.12.91.27c.67.16,1.33.35,1.98.57.33.11.65.24.97.34,1.66.54-1.47-.53-1.43-.63.07-.15,3.75,2,4.11,2.23.29.19.57.4.86.59,1.49.97-1.28-.89-1.18-.94.16-.07,1.43,1.22,1.57,1.36.5.47.99.96,1.46,1.48.29.32.55.67.84.98.95,1-1.79-2.53-.78-.99.76,1.16,1.36,2.37,2.05,3.56-1.82-3.09-.68-1.72-.28-.46.27.86.45,1.73.65,2.61.42,1.84-.23-1.25-.17-1.38-.07.15.09.97.1,1.21.05.8.05,1.61.02,2.41-.02.4-.06.8-.07,1.2-.06,1.85.15-1.29.22-1.4-.42.74-.39,2.1-.62,2.94-.21.78-.45,1.54-.72,2.3-.13.37-.32.75-.43,1.13.88-2.96.89-2.02.48-1.2-.83,1.64-1.72,3.23-2.77,4.74-.23.33-.51.65-.73.99,1.68-2.63,1.29-1.63.72-.99s-1.09,1.24-1.66,1.83-1.17,1.16-1.79,1.71c-.31.27-.63.53-.94.81-1.73,1.55,2.38-1.67.46-.36-1.37.94-2.75,1.83-4.22,2.59-.37.19-.74.36-1.11.55-1.72.89,1.09-.56,1.17-.47-.06-.07-2.64.92-2.92,1-3.21.93-6.56,1.33-9.83,1.97-9.71,1.91-18.31,6.7-22.01,16.32-2.19,5.68-1.36,11.59-.46,17.43.26,1.7.51,3.41.76,5.12-.59-4.03-.14-1.04-.02-.06.13,1.04.25,2.09.36,3.13.77,7.09,1.19,14.23,1.27,21.36s-.17,14.26-.74,21.36c-.29,3.55-.66,7.1-1.1,10.63-.05.39-.17.86-.16,1.25,0-.07.46-3.26.17-1.32-.12.83-.24,1.66-.36,2.49-.28,1.87-.58,3.73-.91,5.59-2.44,13.96-6.1,27.71-10.88,41.06-1.21,3.37-2.48,6.71-3.83,10.02-.32.78-.64,1.56-.96,2.33-.61,1.48,1.27-2.95.35-.83-.17.39-.33.77-.5,1.16-.71,1.64-1.44,3.27-2.19,4.9-2.98,6.5-6.24,12.88-9.76,19.11s-7.29,12.31-11.32,18.22c-2.01,2.95-4.09,5.86-6.22,8.73-.5.67-1.01,1.35-1.52,2.01-1.68,2.21,1.66-2.12-.05.07-1.16,1.49-2.34,2.97-3.54,4.43-8.97,10.96-18.87,21.15-29.61,30.38-2.7,2.32-5.47,4.56-8.26,6.78-1.49,1.18.86-.66.94-.72-.41.33-.83.64-1.25.95-.67.51-1.34,1.01-2.01,1.51-1.43,1.06-2.87,2.11-4.33,3.13-5.83,4.11-11.85,7.96-18.05,11.49-3.11,1.77-6.26,3.47-9.45,5.09-5.6,2.85-7.68,11.19-4.31,16.42,3.69,5.72,10.42,7.36,16.42,4.31,27.03-13.76,51.4-33.1,71.39-55.88s36.92-50.6,48.43-79.84c11.13-28.28,17.21-58.76,17.61-89.16.1-7.34-.16-14.69-.78-22-.39-4.63-.97-9.24-1.6-13.85-.23-1.67-.47-3.34-.73-5-.05-.33-.07-1.14-.23-1.49.82,1.8.22,2.16.13.93-.03-.44.12-3.5-.13-3.75.53.53-.62,2.88-.03.65.13-.5.74-2.07-.02-.21-.7,1.71-.2.57.07.14.76-1.23-2.23,2.35-.77.96.24-.23.5-.49.73-.73.71-.74,1.35-.32-1.21.91.29-.14,2.04-1.5,2.3-1.31.09.06-3.12,1.15-1.35.58.35-.12.7-.25,1.06-.37.73-.24,1.46-.44,2.2-.62,1.81-.45,3.65-.79,5.49-1.11,3.44-.61,6.85-1.2,10.12-2.49,5.18-2.04,9.5-4.57,13.81-8.08,14.18-11.54,20.39-32.2,11.78-48.85-7.51-14.52-26.12-22.92-41.92-18.69-4.7,1.26-8.46,3.63-12.21,6.62,6.69,3.89,13.37,7.78,20.06,11.68,8-22.45,10.15-47.63,5.51-71.06-2.23-11.26-9.21-22.92-21.32-25.34-13.35-2.66-25.41,4.82-33.1,15.24-3.68,4.99-5.87,11-8.15,16.71-.54,1.36-1.08,2.71-1.63,4.06-.94,2.35.92-2.06.22-.52-.35.77-.68,1.55-1.05,2.31-1.24,2.62-2.68,5.12-4.39,7.45l22.36,6.06c-1.62-14.25-3.91-28.42-7.15-42.4-1.46-6.3-3-12.63-4.95-18.79-2.07-6.54-4.97-13.12-9.98-17.98-10.71-10.39-26.28-9.81-38.53-2.57-10.98,6.48-18.87,17-24.37,28.32-6.65,13.69-10.31,28.55-10.39,43.8-.03,6.28,5.54,12.29,12,12,6.88-.31,11.52-5.28,12-12,1.04-14.67-6.05-29.47-14.72-40.86-8.87-11.67-20.08-22.54-34.17-27.48s-27.67,2.11-34.69,13.87c-6.81,11.42-7.68,26.01-6.71,38.96,1.3,17.42,5.55,34.65,12.29,50.75l8.38-14.76c-11.15,2.42-23.1,5.93-32.34,12.87s-15.73,16.33-14.45,27.93c.63,5.69,2.22,11.36,5.5,16.14s7.47,8.69,12.37,12.12c8.27,5.79,18.4,9.41,28.19,11.61,11.04,2.48,22.47,3.56,33.66,1.54-5.06-3.86-10.13-7.71-15.19-11.57.27,9.13.1,18.27-.55,27.39-.32,4.49-.75,8.97-1.3,13.44-.08.64-.16,1.28-.24,1.91-.2,1.62.35-2.51.12-.89-.16,1.15-.32,2.29-.5,3.44-.35,2.29-.72,4.58-1.12,6.86-3.18,17.99-8.17,35.66-14.88,52.66-.38.96-.76,1.91-1.15,2.87-.19.48-.39.95-.59,1.43-.78,1.91.21-.5.31-.73-.99,2.23-1.94,4.49-2.95,6.71-1.87,4.1-3.84,8.15-5.91,12.14-4.04,7.78-8.4,15.43-13.31,22.69-1.09,1.61-2.21,3.2-3.36,4.77-.54.74-1.1,1.48-1.65,2.22-1.17,1.58.49-.65.61-.78-.46.52-.86,1.09-1.29,1.63-2.61,3.26-5.34,6.41-8.22,9.43s-5.68,5.73-8.72,8.38c-1.46,1.27-2.95,2.5-4.47,3.71s.68-.54.82-.63c-.37.25-.72.54-1.08.81-.9.67-1.82,1.32-2.74,1.96-3.64,2.5-7.45,4.77-11.42,6.71-.98.48-1.98.89-2.96,1.37,3.55-1.72.23-.11-.73.25-2,.75-4.04,1.41-6.11,1.98s-4.13,1.01-6.23,1.36c-.19.03-1.22.13-1.26.19.24-.4,3.38-.39.66-.12-1.06.11-2.13.18-3.19.23-2.04.09-4.09.07-6.13-.07-.54-.04-1.08-.08-1.63-.13-.5-.05-2.53-.31-.36,0s.02,0-.37-.07c-.66-.11-1.31-.23-1.97-.36-6.14-1.2-13.25,1.73-14.76,8.38-1.35,5.94,1.79,13.47,8.38,14.76h0Z"/></svg>