<?xml version="1.0" encoding="UTF-8"?><svg id="Layer_2" xmlns="http://www.w3.org/2000/svg" viewBox="0 0 500 500"><defs><style>.cls-1{fill:#ffb15f;}</style></defs><path class="cls-1" d="m33.52,208.07c7.81,47.51,14.53,95.19,20.12,143.02.74,6.37,4.93,11.88,11.88,11.88s11.55-5.44,11.88-11.88c.95-18.77,3.47-37.32,7.71-55.64,1.15-4.98,2.42-9.94,3.8-14.86.62-2.23,1.16-4.54,1.99-6.71-.33.85-.16.63.48-.69l-.36.37c-2.43,1.45-5.19,1.39-8.27-.17-.14-.51.11-.17.76,1.01.77,1.56,2,3,2.88,4.51,1.49,2.55,3.25,6.07,4.17,8.22,10.53,24.75,12.36,56.01,35.01,74.78,4.93,4.09,11.96,4.83,16.79,0,4.21-4.21,4.96-12.68,0-16.79-8.72-7.23-13.32-16.39-16.83-26.61-4.01-11.68-6.74-23.78-11.15-35.33-4.59-12.02-12.53-32.49-27.99-32.15-18.3.4-21.6,26.61-24.6,39.98-4.44,19.73-7.11,39.89-8.13,60.08h23.75c-5.83-49.93-12.81-99.73-20.96-149.33-1.04-6.33-8.89-9.86-14.61-8.29-6.73,1.85-9.34,8.26-8.29,14.61h0Z"/><path class="cls-1" d="m143.04,306.98c15.15-10.2,29.48-24.08,29.65-43.65.07-8.94-3.13-18.11-9.62-24.41-7.32-7.11-17.09-9.39-26.89-10.5-4.22-.48-8.4-.91-12.51.46-6.34,2.11-9.62,7.77-11.53,13.81-2.8,8.8-2.27,19.01.77,27.67,6.37,18.13,21.48,30.67,38.48,38.6,10.2,4.76,20.85,8.54,31.89,10.83,5.42,1.12,11.71,2.88,17.18,1.35,7.4-2.07,12.26-10.22,9.67-17.65-2.11-6.05-8.13-10.07-14.61-8.29-5.88,1.62-10.42,8.52-8.29,14.61l.35,1.01v-6.31l-.35,1.07,3.05-5.24-.84.79,5.24-3.05c2.58-.8-1.34-.45-2.43-.65-2.37-.44-4.73-.95-7.08-1.52-4.69-1.14-9.32-2.54-13.85-4.18-7.54-2.73-14.94-6.28-21.51-10.91-5.72-4.03-11-9.4-13.73-15.95-1.22-2.93-1.92-6.2-2.01-9.12-.05-1.74.03-2.97.34-4.5.15-.76,1.51-3.09.81-2.51-1.75,1.02-3.49,2.04-5.24,3.05-.94-.24-.64-.27.91-.08l1.5.11c1.45.11,3.26.26,4.48.45,2.06.33,5.23,1.02,7.1,1.91,3.73,1.78,4.82,4.89,4.95,7.77.21,4.61-1.1,8.61-4.42,12.9-3.64,4.7-8.56,8.34-13.44,11.63-5.31,3.58-7.64,10.46-4.26,16.25,3.08,5.27,10.9,7.86,16.25,4.26h0Z"/><path class="cls-1" d="m210.57,174.37c-.6,41.29,3.88,82.6,13.15,122.84,1.44,6.25,8.61,9.94,14.61,8.29,6.41-1.76,9.74-8.34,8.29-14.61-8.81-38.25-12.87-77.28-12.3-116.52.22-15.29-23.53-15.29-23.75,0h0Z"/><path class="cls-1" d="m329.24,209.38c2.19,24.12-6.87,48.3-1.84,72.26,4.82,22.95,28.45,36.74,51.04,36.31,27.95-.54,24.81-37.74,20.72-56.19-4.79-21.55-19.74-43.66-42.18-49.48-14.56-3.78-28.09,1.8-35.78,14.65-7.09,11.85-10.06,26.49-9.75,40.17.35,15.26,24.1,15.31,23.75,0-.19-8.3,1.03-16.61,4.46-24.25,2.29-5.12,4.26-8.99,10.2-7.86,13.64,2.59,22.26,17.42,25.56,29.67,2.12,7.87,2.92,16.14,2.61,24.29-.03.85-.06,1.73-.16,2.58.04-.3.22-1.3-.05.07-.17.84-.36,1.68-.63,2.49-.51,1.52.05.18.05.05.09,2.67-.99-.39.81.06,1.2.3-2.57-.18-2.69-.2-6.29-.85-13.53-2.71-18.45-6.63-4.82-3.85-6.7-9.96-7.11-16.03-1.42-20.74,5.1-41.15,3.21-61.95-.58-6.39-5.04-11.88-11.88-11.88-5.97,0-12.46,5.45-11.88,11.88h0Z"/><path class="cls-1" d="m406.93,160.51c6.1,33.67,9.25,67.75,9.66,101.96.18,15.27,23.93,15.31,23.75,0-.43-36.32-4.03-72.54-10.51-108.28-1.14-6.31-8.82-9.88-14.61-8.29-6.65,1.83-9.44,8.27-8.29,14.61h0Z"/><path class="cls-1" d="m455.23,346.62c15.28,0,15.31-23.75,0-23.75s-15.31,23.75,0,23.75h0Z"/><path class="cls-1" d="m272.16,143.48c-20.05,51.25.82,104.95,2.19,157.29.4,15.25,24.15,15.31,23.75,0-1.3-49.85-22.09-102.29-3.04-150.98,2.34-5.97-2.57-13.03-8.29-14.61-6.73-1.85-12.26,2.3-14.61,8.29h0Z"/></svg>