<?xml version="1.0" encoding="UTF-8"?><svg id="Layer_2" xmlns="http://www.w3.org/2000/svg" viewBox="0 0 500 64"><defs><style>.cls-1{fill:#71bd35;}</style></defs><path class="cls-1" d="m35.75,34.27c17.03.28,33.31-4.99,49.34-10.09,7.74-2.47,15.52-4.84,23.5-6.42,7.15-1.41,14.6-2.05,22.6-1.3-.06,0,1.34.15.67.07s.72.11.67.1c.99.17,1.97.35,2.95.56,1.97.43,3.91.97,5.81,1.62.92.32,1.85.65,2.75,1.04-.87-.37.88.43,1.13.55,1.83.88,3.61,1.86,5.36,2.91,6.46,3.88,12.31,8.66,18.3,13.2,12.87,9.77,27.11,17.47,42.51,22.44,8.13,2.62,16.85,4.39,25.43,4.01,8.65-.38,17.02-2.73,25.33-4.97,15.83-4.25,31.64-8.7,46.77-15.09,3.96-1.67,7.89-3.43,11.73-5.38,3.45-1.75,6.3-3.51,9.25-4.38,0,0,1.3-.28.58-.17-.79.13.77-.02.98-.02.36,0,.72.02,1.08.05-.24-.02-1.05-.3-.31.01.36.15,2.42.77,1.16.24.88.37,1.74.86,2.55,1.35.63.38,1.25.79,1.86,1.21.41.28.81.58,1.22.88.01.01,1,.76.42.31s.4.32.41.33c.3.24.59.47.89.71.95.75,1.9,1.49,2.86,2.23,9.95,7.69,21.54,12.79,34.21,13.39,14.61.69,28.43-4.52,41.79-9.71,7.64-2.97,15.42-5.62,23.4-7.5s14.48-2.77,22.82-2.44c4.2.16,6.44.47,10.5,1.39,3.94.9,8.56-1.2,9.52-5.41.9-3.94-1.18-8.56-5.41-9.52-16.73-3.8-33.93-1.55-50.19,3.38-8.05,2.44-15.74,5.72-23.63,8.62-3.51,1.29-7.07,2.46-10.69,3.43-1.57.42-3.16.81-4.75,1.14-.82.17-1.64.33-2.46.48-.35.06-.69.12-1.04.18-.2.03-2.08.29-1.01.16.85-.1-1,.1-1.3.13-.76.07-1.51.13-2.27.17-1.46.08-2.93.1-4.39.06-1.31-.04-2.62-.21-3.92-.28-1.13-.05,1.39.26.29.04-.29-.06-.58-.09-.88-.14-.77-.13-1.54-.29-2.3-.46-1.24-.28-2.46-.61-3.67-1-.65-.21-1.3-.43-1.95-.66-.33-.12-2.15-.85-1.28-.48.95.4-.98-.45-1.26-.59-.55-.26-1.09-.53-1.63-.81-1.38-.72-2.74-1.49-4.06-2.31-1.2-.74-2.37-1.51-3.53-2.32-.36-.25-1.87-1.35-1.55-1.11.6.45-.39-.3-.41-.32-.4-.31-.79-.63-1.19-.94-3.02-2.39-6.05-4.96-9.54-6.66-3.87-1.89-8.07-3.09-12.41-2.58-4.62.54-8.69,2.36-12.77,4.53-14.03,7.47-28.49,12.44-44.14,16.92-7.83,2.24-15.69,4.45-23.6,6.39-2.04.5-4.09.97-6.16,1.34-2.22.41-2.86.49-5.07.63-1.97.12-3.95.12-5.92.01-2.46-.14-3.32-.24-5.64-.67-4.06-.75-8.05-1.87-11.96-3.18-3.68-1.24-7.39-2.68-10.23-3.97-7.19-3.24-14.08-7.12-20.58-11.59-12.78-8.8-24.03-19.77-39.17-24.55-16.1-5.08-33.6-2.62-49.57,1.67-15.85,4.26-31.2,10.79-47.55,13.05.89-.12-.56.06-.6.07-.44.05-.89.1-1.33.14-1.04.1-2.07.19-3.11.25-2.09.13-4.17.16-6.26.13-4.05-.07-7.92,3.61-7.74,7.74.19,4.25,3.4,7.67,7.74,7.74h0Z"/></svg>