<?xml version="1.0" encoding="utf-8"?>
<!-- Generator: Adobe Illustrator 27.5.0, SVG Export Plug-In . SVG Version: 6.00 Build 0)  -->
<svg version="1.1" xmlns="http://www.w3.org/2000/svg" xmlns:xlink="http://www.w3.org/1999/xlink" x="0px" y="0px"
	 viewBox="0 0 500 500" style="enable-background:new 0 0 500 500;" xml:space="preserve">
<style type="text/css">
	.st0{fill:#E3BAFF;}
	.st1{fill:#6DCBF3;}
	.st2{fill:#FF8571;}
	.st3{fill:#71BD35;}
</style>
<g id="Layer_1">
	<g>
		<g>
			<path class="st1" d="M80.09,404.66c18.6,3.63,37.03-0.18,53.41-9.49c15.96-9.07,29.01-22.33,40.05-36.82
				c11.07-14.52,19.8-30.93,27.01-47.67c7.76-18.01,13.91-36.58,17.87-55.8c4.48-21.7,6.57-43.96,5.9-66.11
				c-0.12-3.84-1.7-7.08-4.73-9.42c-3.19-2.47-6.56-2.85-10.46-2.15c-0.37,0.07-0.75,0.12-1.12,0.19c-1.86,0.33,3.52-0.37,1.61-0.22
				c-0.84,0.07-1.68,0.16-2.52,0.21c-1.83,0.1-3.67,0.11-5.51,0.05c-2-0.07-4-0.21-5.99-0.43c-0.52-0.06-1.03-0.13-1.55-0.18
				c3.87,0.39,2.49,0.35,1.62,0.22c-1.24-0.19-2.47-0.38-3.7-0.61c-4.32-0.8-8.6-1.88-12.77-3.28c-1.04-0.35-2.07-0.72-3.1-1.11
				c-0.97-0.37-4.04-1.81-0.15-0.01c-2.08-0.96-4.15-1.9-6.14-3.02c-1.6-0.9-3.16-1.89-4.65-2.97c-0.79-0.58-2.04-1.88,0.89,0.71
				c-0.36-0.31-0.73-0.6-1.09-0.91c-0.81-0.7-1.59-1.45-2.33-2.23c-0.51-0.54-0.97-1.12-1.46-1.68c2.9,3.3,0.77,1,0.14-0.05
				c-0.43-0.72-0.73-1.54-1.18-2.24c1.72,2.64,0.89,2.2,0.45,1c-0.17-0.45-0.32-0.91-0.46-1.37c-0.27-0.88-0.45-1.76-0.63-2.66
				c-0.39-1.94,0.22,3.42,0.21,1.47c0-0.42-0.05-0.84-0.06-1.26c0-0.41,0.03-0.82,0.03-1.23c0.02-1.29,0.82-1.82-0.25,1.58
				c0.24-0.76,0.32-1.56,0.56-2.33c0.12-0.38,0.3-0.75,0.41-1.13c-1,3.58-1.12,2.41-0.54,1.4c0.41-0.71,0.86-1.4,1.28-2.11
				c0.97-1.62-2.15,2.47-0.85,1.08c0.2-0.21,0.37-0.44,0.57-0.66c0.7-0.79,1.46-1.53,2.25-2.22c0.36-0.31,0.73-0.6,1.09-0.91
				c-3.08,2.72-1.33,1.01-0.46,0.41c0.85-0.59,1.73-1.14,2.63-1.67c1.11-0.65,2.25-1.26,3.41-1.82c0.52-0.25,1.04-0.5,1.57-0.74
				c2.85-1.3-2.09,0.8-0.11,0.03c5.76-2.24,11.67-3.92,17.71-5.23c5.77-1.25,10.8-9,8.38-14.76c-5.37-12.83-8.92-26.18-11.05-39.91
				c0.63,4.08,0.17,1.22,0.05,0.21c-0.09-0.78-0.17-1.57-0.25-2.35c-0.16-1.63-0.28-3.27-0.36-4.91c-0.16-3.02-0.19-6.05-0.05-9.08
				c0.06-1.38,0.16-2.76,0.3-4.14c0.11-1.07,0.59-3.6-0.13,0.71c0.12-0.72,0.22-1.44,0.35-2.16c0.44-2.46,1.05-4.9,1.9-7.25
				c0.38-1.06,1.43-2.88-0.43,0.9c0.24-0.49,0.45-1,0.69-1.49c0.5-1,1.06-1.97,1.69-2.9c0.14-0.21,0.3-0.41,0.44-0.63
				c0.7-1.08-2.03,2.49-1.19,1.53c0.29-0.33,0.56-0.67,0.85-0.99c0.33-0.36,0.68-0.71,1.04-1.05c0.96-0.9,2.75-1.67-0.75,0.49
				c0.83-0.51,1.63-1.03,2.48-1.51c0.11-0.06,0.64-0.25,0.66-0.31c-0.01,0.02-3.14,1.18-1.84,0.79c0.54-0.16,1.07-0.37,1.62-0.51
				c0.44-0.12,0.88-0.21,1.32-0.3c2.42-0.52-2.98,0.21-1.2,0.15c0.52-0.02,1.08-0.01,1.59-0.05c1.24-0.11-2.14-0.3-2.17-0.31
				c0.21,0.12,0.82,0.14,1.05,0.19c1,0.21,1.98,0.49,2.94,0.83c1.09,0.38,2.68,1.41-0.95-0.46c0.51,0.26,1.05,0.47,1.57,0.72
				c2.42,1.18,4.71,2.61,6.9,4.18c0.28,0.2,1.57,0.89,1.65,1.22c0.01,0.06-2.57-2.05-1.19-0.91c0.2,0.17,0.41,0.33,0.62,0.5
				c1.19,0.98,2.35,1.99,3.48,3.04c2.36,2.19,4.59,4.52,6.69,6.97c0.5,0.59,1,1.18,1.49,1.79c0.25,0.3,0.48,0.61,0.73,0.91
				c1.43,1.77-1.78-2.42-0.45-0.57c1.03,1.42,2.05,2.84,3.01,4.31c1.94,2.98,3.62,6.1,5.14,9.31c0.22,0.46,0.76,1.75-0.04-0.15
				c-0.85-2.02-0.15-0.36,0.03,0.12c0.33,0.86,0.65,1.72,0.94,2.59c0.51,1.53,0.95,3.09,1.29,4.66c0.17,0.77,0.28,1.55,0.44,2.32
				c0.3,1.4-0.34-3.08-0.22-1.65c0.04,0.43,0.09,0.85,0.13,1.28c0.14,1.67,0.13,3.35,0.02,5.02c8,0,16,0,24,0
				c0.01-2.76,0.14-5.51,0.41-8.25c0.05-0.5,0.11-1,0.16-1.49c0.27-2.71-0.48,2.89-0.03,0.21c0.25-1.48,0.49-2.96,0.79-4.44
				c1.09-5.3,2.73-10.4,4.69-15.44c0.62-1.59-1.27,2.79-0.18,0.45c0.32-0.68,0.62-1.37,0.94-2.05c0.54-1.13,1.1-2.25,1.69-3.36
				c1.29-2.43,2.7-4.81,4.21-7.11c0.64-0.97,1.43-1.88,2.01-2.89c-1.62,2.84-0.97,1.23-0.28,0.42c0.35-0.41,0.71-0.82,1.07-1.22
				c1.72-1.9,3.67-3.42,5.52-5.16c-2.69,2.52-0.18,0.21,0.77-0.4c0.9-0.58,1.83-1.11,2.78-1.61c0.51-0.26,1.14-0.68,1.7-0.82
				c-0.05,0.01-2.96,1.09-1.14,0.51c1.16-0.37,2.29-0.76,3.48-1.01c1.36-0.28,2.22,0.26-0.87,0.07c0.47,0.03,0.97-0.07,1.44-0.08
				c0.48-0.01,0.96,0.03,1.43,0.03c2.25,0.02-3.1-0.71-0.92-0.12c0.37,0.1,0.75,0.17,1.11,0.27c1.29,0.37,1.76,1.22-0.68-0.41
				c0.4,0.27,0.9,0.44,1.33,0.69c0.27,0.15,0.53,0.31,0.78,0.48c0.99,0.69,0.7,0.45-0.87-0.73c0.34,0.53,1.76,1.95,2.29,2.3
				c-0.36-0.47-0.72-0.94-1.08-1.4c0.26,0.35,0.5,0.71,0.74,1.08c0.24,0.37,0.46,0.74,0.68,1.12c0.33,0.57,0.64,1.16,0.93,1.76
				c0.16,0.32,1.06,2.39,0.21,0.4c-0.85-2,0.01,0.11,0.13,0.45c0.27,0.74,0.52,1.49,0.76,2.24c1.76,5.46,3.14,11.07,4.47,16.64
				c1.58,6.59,2.96,13.22,4.15,19.89c0.59,3.34,1.14,6.68,1.63,10.03c0.12,0.84,0.24,1.68,0.36,2.51c0.36,2.51-0.33-2.62,0.08,0.59
				c0.23,1.82,0.45,3.64,0.66,5.47c0.31,2.75,0.84,5.02,2.58,7.27c1.53,1.98,3.72,3.73,6.23,4.3c5.6,1.27,10.25-1.03,13.55-5.51
				c3.21-4.37,5.3-9.32,7.36-14.3c0.84-2.02,1.63-4.06,2.44-6.09c0.18-0.45,0.37-0.9,0.55-1.35c0.76-1.89-0.24,0.69-0.36,0.85
				c0.72-0.97,1.14-2.54,1.68-3.63c0.49-0.97,1-1.94,1.56-2.87c0.29-0.49,2.18-3.13,0.83-1.4c-1.36,1.74,0.75-0.83,1.14-1.24
				c0.75-0.78,1.55-1.49,2.35-2.22c1.7-1.56-1.96,1.35-0.65,0.5c0.45-0.29,0.87-0.6,1.33-0.88c0.71-0.44,1.46-0.81,2.2-1.21
				c1.99-1.07-2.35,0.82-0.88,0.38c0.48-0.14,0.95-0.32,1.44-0.45c0.38-0.1,0.77-0.18,1.16-0.27c2.1-0.48-2.99,0.03-0.86,0.16
				c0.36,0.02,0.79,0.02,1.16,0.01c2.17-0.06-2.62-0.58-1.17-0.17c0.47,0.13,0.95,0.26,1.42,0.38c1.04,0.27,0.86,0.98-1.2-0.52
				c0.27,0.2,0.75,0.44,1.08,0.6c1.95,0.97-1.76-1.63-0.73-0.62c0.35,0.35,0.72,0.7,1.08,1.04c1.5,1.37-1.52-2.41-0.37-0.55
				c0.43,0.7,0.88,1.37,1.25,2.09c0.17,0.33,0.33,0.8,0.54,1.11c-1.53-2.21-0.81-2.01-0.39-0.83c0.68,1.89,1.18,3.85,1.57,5.82
				c0.22,1.09,0.38,2.18,0.56,3.27c0.11,0.71,0.19,2.29-0.09-0.78c0.05,0.54,0.14,1.07,0.2,1.61c0.31,2.68,0.54,5.37,0.67,8.07
				c0.26,5.12,0.21,10.26-0.15,15.37c-0.09,1.35-0.21,2.69-0.35,4.03c-0.05,0.54-0.11,1.07-0.17,1.61
				c-0.06,0.54-0.13,1.07-0.19,1.61c0.07-0.53,0.14-1.06,0.21-1.59c-0.58,2.77-0.88,5.6-1.46,8.37c-1.19,5.68-2.79,11.26-4.73,16.73
				c-1.7,4.78,1.09,11.21,5.51,13.55c1.89,1,3.93,1.54,6.06,1.64c3.34,0.15,6.02-1.55,8.49-3.51c-3.13,2.5-1.21,0.92-0.33,0.39
				c0.57-0.35,1.2-0.6,1.78-0.95c-2.76,1.67-2.33,0.9-1.25,0.55c0.32-0.1,0.63-0.21,0.94-0.31c0.72-0.21,1.44-0.35,2.17-0.51
				c1.65-0.37-1.68,0.25-1.71,0.22c0.1,0.06,0.81-0.07,0.99-0.08c0.67-0.04,1.34-0.04,2-0.02c0.54,0.02,3.49,0.35,0.92,0.01
				c-2.5-0.33,0.32,0.12,0.91,0.27c0.67,0.16,1.33,0.35,1.98,0.57c0.33,0.11,0.65,0.24,0.97,0.34c1.66,0.54-1.47-0.53-1.43-0.63
				c0.07-0.15,3.75,2,4.11,2.23c0.29,0.19,0.57,0.4,0.86,0.59c1.49,0.97-1.28-0.89-1.18-0.94c0.16-0.07,1.43,1.22,1.57,1.36
				c0.5,0.47,0.99,0.96,1.46,1.48c0.29,0.32,0.55,0.67,0.84,0.98c0.95,1-1.79-2.53-0.78-0.99c0.76,1.16,1.36,2.37,2.05,3.56
				c-1.82-3.09-0.68-1.72-0.28-0.46c0.27,0.86,0.45,1.73,0.65,2.61c0.42,1.84-0.23-1.25-0.17-1.38c-0.07,0.15,0.09,0.97,0.1,1.21
				c0.05,0.8,0.05,1.61,0.02,2.41c-0.02,0.4-0.06,0.8-0.07,1.2c-0.06,1.85,0.15-1.29,0.22-1.4c-0.42,0.74-0.39,2.1-0.62,2.94
				c-0.21,0.78-0.45,1.54-0.72,2.3c-0.13,0.37-0.32,0.75-0.43,1.13c0.88-2.96,0.89-2.02,0.48-1.2c-0.83,1.64-1.72,3.23-2.77,4.74
				c-0.23,0.33-0.51,0.65-0.73,0.99c1.68-2.63,1.29-1.63,0.72-0.99c-0.55,0.62-1.09,1.24-1.66,1.83c-0.58,0.59-1.17,1.16-1.79,1.71
				c-0.31,0.27-0.63,0.53-0.94,0.81c-1.73,1.55,2.38-1.67,0.46-0.36c-1.37,0.94-2.75,1.83-4.22,2.59c-0.37,0.19-0.74,0.36-1.11,0.55
				c-1.72,0.89,1.09-0.56,1.17-0.47c-0.06-0.07-2.64,0.92-2.92,1c-3.21,0.93-6.56,1.33-9.83,1.97c-9.71,1.91-18.31,6.7-22.01,16.32
				c-2.19,5.68-1.36,11.59-0.46,17.43c0.26,1.7,0.51,3.41,0.76,5.12c-0.59-4.03-0.14-1.04-0.02-0.06c0.13,1.04,0.25,2.09,0.36,3.13
				c0.77,7.09,1.19,14.23,1.27,21.36c0.09,7.13-0.17,14.26-0.74,21.36c-0.29,3.55-0.66,7.1-1.1,10.63
				c-0.05,0.39-0.17,0.86-0.16,1.25c0-0.07,0.46-3.26,0.17-1.32c-0.12,0.83-0.24,1.66-0.36,2.49c-0.28,1.87-0.58,3.73-0.91,5.59
				c-2.44,13.96-6.1,27.71-10.88,41.06c-1.21,3.37-2.48,6.71-3.83,10.02c-0.32,0.78-0.64,1.56-0.96,2.33
				c-0.61,1.48,1.27-2.95,0.35-0.83c-0.17,0.39-0.33,0.77-0.5,1.16c-0.71,1.64-1.44,3.27-2.19,4.9c-2.98,6.5-6.24,12.88-9.76,19.11
				c-3.52,6.23-7.29,12.31-11.32,18.22c-2.01,2.95-4.09,5.86-6.22,8.73c-0.5,0.67-1.01,1.35-1.52,2.01
				c-1.68,2.21,1.66-2.12-0.05,0.07c-1.16,1.49-2.34,2.97-3.54,4.43c-8.97,10.96-18.87,21.15-29.61,30.38
				c-2.7,2.32-5.47,4.56-8.26,6.78c-1.49,1.18,0.86-0.66,0.94-0.72c-0.41,0.33-0.83,0.64-1.25,0.95c-0.67,0.51-1.34,1.01-2.01,1.51
				c-1.43,1.06-2.87,2.11-4.33,3.13c-5.83,4.11-11.85,7.96-18.05,11.49c-3.11,1.77-6.26,3.47-9.45,5.09
				c-5.6,2.85-7.68,11.19-4.31,16.42c3.69,5.72,10.42,7.36,16.42,4.3c27.03-13.76,51.4-33.1,71.39-55.88
				c20.73-23.64,36.92-50.6,48.43-79.84c11.13-28.28,17.21-58.76,17.61-89.16c0.1-7.34-0.16-14.69-0.78-22
				c-0.39-4.63-0.97-9.24-1.6-13.85c-0.23-1.67-0.47-3.34-0.73-5c-0.05-0.33-0.07-1.14-0.23-1.49c0.82,1.8,0.22,2.16,0.13,0.93
				c-0.03-0.44,0.12-3.5-0.13-3.75c0.53,0.53-0.62,2.88-0.03,0.65c0.13-0.5,0.74-2.07-0.02-0.21c-0.7,1.71-0.2,0.57,0.07,0.14
				c0.76-1.23-2.23,2.35-0.77,0.96c0.24-0.23,0.5-0.49,0.73-0.73c0.71-0.74,1.35-0.32-1.21,0.91c0.29-0.14,2.04-1.5,2.3-1.31
				c0.09,0.06-3.12,1.15-1.35,0.58c0.35-0.12,0.7-0.25,1.06-0.37c0.73-0.24,1.46-0.44,2.2-0.62c1.81-0.45,3.65-0.79,5.49-1.11
				c3.44-0.61,6.85-1.2,10.12-2.49c5.18-2.04,9.5-4.57,13.81-8.08c14.18-11.54,20.39-32.2,11.78-48.85
				c-7.51-14.52-26.12-22.92-41.92-18.69c-4.7,1.26-8.46,3.63-12.21,6.62c6.69,3.89,13.37,7.78,20.06,11.68
				c8-22.45,10.15-47.63,5.51-71.06c-2.23-11.26-9.21-22.92-21.32-25.34c-13.35-2.66-25.41,4.82-33.1,15.24
				c-3.68,4.99-5.87,11-8.15,16.71c-0.54,1.36-1.08,2.71-1.63,4.06c-0.94,2.35,0.92-2.06,0.22-0.52c-0.35,0.77-0.68,1.55-1.05,2.31
				c-1.24,2.62-2.68,5.12-4.39,7.45c7.45,2.02,14.91,4.04,22.36,6.06c-1.62-14.25-3.91-28.42-7.15-42.4
				c-1.46-6.3-3-12.63-4.95-18.79c-2.07-6.54-4.97-13.12-9.98-17.98c-10.71-10.39-26.28-9.81-38.53-2.57
				c-10.98,6.48-18.87,17-24.37,28.32c-6.65,13.69-10.31,28.55-10.39,43.8c-0.03,6.28,5.54,12.29,12,12c6.88-0.31,11.52-5.28,12-12
				c1.04-14.67-6.05-29.47-14.72-40.86c-8.87-11.67-20.08-22.54-34.17-27.48c-13.37-4.69-27.67,2.11-34.69,13.87
				c-6.81,11.42-7.68,26.01-6.71,38.96c1.3,17.42,5.55,34.65,12.29,50.75c2.79-4.92,5.59-9.84,8.38-14.76
				c-11.15,2.42-23.1,5.93-32.34,12.87c-8.82,6.63-15.73,16.33-14.45,27.93c0.63,5.69,2.22,11.36,5.5,16.14
				c3.39,4.93,7.47,8.69,12.37,12.12c8.27,5.79,18.4,9.41,28.19,11.61c11.04,2.48,22.47,3.56,33.66,1.54
				c-5.06-3.86-10.13-7.71-15.19-11.57c0.27,9.13,0.1,18.27-0.55,27.39c-0.32,4.49-0.75,8.97-1.3,13.44
				c-0.08,0.64-0.16,1.28-0.24,1.91c-0.2,1.62,0.35-2.51,0.12-0.89c-0.16,1.15-0.32,2.29-0.5,3.44c-0.35,2.29-0.72,4.58-1.12,6.86
				c-3.18,17.99-8.17,35.66-14.88,52.66c-0.38,0.96-0.76,1.91-1.15,2.87c-0.19,0.48-0.39,0.95-0.59,1.43
				c-0.78,1.91,0.21-0.5,0.31-0.73c-0.99,2.23-1.94,4.49-2.95,6.71c-1.87,4.1-3.84,8.15-5.91,12.14
				c-4.04,7.78-8.4,15.43-13.31,22.69c-1.09,1.61-2.21,3.2-3.36,4.77c-0.54,0.74-1.1,1.48-1.65,2.22c-1.17,1.58,0.49-0.65,0.61-0.78
				c-0.46,0.52-0.86,1.09-1.29,1.63c-2.61,3.26-5.34,6.41-8.22,9.43c-2.78,2.92-5.68,5.73-8.72,8.38c-1.46,1.27-2.95,2.5-4.47,3.71
				c-1.53,1.22,0.68-0.54,0.82-0.63c-0.37,0.25-0.72,0.54-1.08,0.81c-0.9,0.67-1.82,1.32-2.74,1.96c-3.64,2.5-7.45,4.77-11.42,6.71
				c-0.98,0.48-1.98,0.89-2.96,1.37c3.55-1.72,0.23-0.11-0.73,0.25c-2,0.75-4.04,1.41-6.11,1.98c-2.05,0.56-4.13,1.01-6.23,1.36
				c-0.19,0.03-1.22,0.13-1.26,0.19c0.24-0.4,3.38-0.39,0.66-0.12c-1.06,0.11-2.13,0.18-3.19,0.23c-2.04,0.09-4.09,0.07-6.13-0.07
				c-0.54-0.04-1.08-0.08-1.63-0.13c-0.5-0.05-2.53-0.31-0.36-0.01c2.26,0.31,0.02-0.01-0.37-0.07c-0.66-0.11-1.31-0.23-1.97-0.36
				c-6.14-1.2-13.25,1.73-14.76,8.38C70.36,395.84,73.5,403.37,80.09,404.66L80.09,404.66z"/>
		</g>
	</g>
</g>
<g id="Layer_2">
</g>
</svg>
