<?xml version="1.0" encoding="utf-8"?>
<!-- Generator: Adobe Illustrator 27.5.0, SVG Export Plug-In . SVG Version: 6.00 Build 0)  -->
<svg version="1.1" xmlns="http://www.w3.org/2000/svg" xmlns:xlink="http://www.w3.org/1999/xlink" x="0px" y="0px"
	 viewBox="0 0 100 100" style="enable-background:new 0 0 100 100;" xml:space="preserve">
<style type="text/css">
	.st0{fill:#E3BAFF;}
	.st1{fill:#6DCBF3;}
	.st2{fill:#FF8571;}
	.st3{fill:#71BD35;}
</style>
<g id="Layer_1">
	<g>
		<g>
			<path class="st0" d="M26.24,14.44c-0.46,8.5-0.68,17.01-0.65,25.52c0.01,2.35,2.06,4.61,4.5,4.5c2.43-0.11,4.51-1.98,4.5-4.5
				c-0.03-8.51,0.18-17.02,0.65-25.52c0.13-2.35-2.16-4.6-4.5-4.5C28.19,10.05,26.37,11.92,26.24,14.44L26.24,14.44z"/>
		</g>
	</g>
	<g>
		<g>
			<path class="st0" d="M55.96,25.03c-4.72,6.17-8.65,12.9-11.71,20.04c-0.5,1.16-0.8,2.2-0.45,3.47c0.29,1.04,1.09,2.18,2.07,2.69
				c1.93,1.02,5.17,0.7,6.16-1.61c3.05-7.14,6.99-13.87,11.71-20.04c0.66-0.86,0.73-2.48,0.45-3.47c-0.29-1.04-1.09-2.17-2.07-2.69
				c-1.04-0.55-2.31-0.83-3.47-0.45C57.46,23.35,56.71,24.05,55.96,25.03L55.96,25.03z"/>
		</g>
	</g>
	<g>
		<g>
			<path class="st0" d="M63.16,63.81c6.93-2.59,13.87-5.18,21.03-7.08c2.27-0.6,3.89-3.24,3.14-5.54c-0.76-2.34-3.1-3.79-5.54-3.14
				c-7.16,1.9-14.1,4.48-21.03,7.08c-2.2,0.82-3.94,3.08-3.14,5.54C58.32,62.81,60.8,64.69,63.16,63.81L63.16,63.81z"/>
		</g>
	</g>
</g>
<g id="Layer_2">
</g>
</svg>
