<?xml version="1.0" encoding="UTF-8"?><svg id="Layer_2" xmlns="http://www.w3.org/2000/svg" viewBox="0 0 500 125"><defs><style>.cls-1{fill:#71bd35;}</style></defs><path class="cls-1" d="m38.53,34.93c9.77,30.4,25.05,58.18,45.13,82.97,4.34,5.36,13.98,4.72,18.42,0,16.27-17.3,31.02-36.02,44.11-55.84-6.82.88-13.63,1.76-20.45,2.64,12.76,11.87,25.52,23.74,38.29,35.61,5.56,5.17,12.76,4.56,18.42,0,21.21-17.11,42.43-34.22,63.64-51.32l-12.67,3.35c.32.06,4.01.87,1.05,0,.6.17,1.39.72,1.88,1.11-2.24-1.78.58.64.81.87.69.69,1.35,1.42,1.99,2.16,2.19,2.52,4.34,5.83,7.87,9.85,7.33,8.37,18.45,13.23,29.41,9.15,6.57-2.45,11.98-6.88,17.63-10.92,6.18-4.41,12.36-8.82,18.55-13.23,12.36-8.82,24.73-17.64,37.09-26.46-5.94-1.56-11.88-3.11-17.82-4.67,7.86,10.55,15.72,21.1,23.58,31.64,4.04,5.42,8.07,10.83,12.11,16.25,3.89,5.22,7.54,11.37,13.26,14.8,13.44,8.06,26.05-2.19,37.38-9.07,11.49-6.97,22.98-13.94,34.46-20.9,14.31-8.68,1.24-31.21-13.14-22.49-9.67,5.87-19.35,11.74-29.02,17.6-4.84,2.93-9.67,5.87-14.51,8.8-.43.26-5.34,2.89-5.25,3.25,1.62-.27,2.99.04,4.1.93-.98-1.24-1.31-1.59-1.01-1.03-5.35-8.52-12.83-17.18-19.06-25.56-6.8-9.12-13.59-18.24-20.39-27.37-3.9-5.24-11.58-9.12-17.82-4.67-17.66,12.6-35.32,25.2-52.99,37.8-3.99,2.85-7.93,5.8-11.99,8.54-1.51,1.02-3.08,1.55-4.45,2.42.67-.3,1.36-.29,2.06.02-1.41-.43-1.33-.33.23.29-1.05-.38-2.45-1.79-.83-.34-1.12-1-2.16-2.07-3.15-3.21-.3-.34-3.25-4.01-1.69-2.02-1.31-1.67-2.57-3.38-3.89-5.04-4.38-5.52-9.54-10.43-16.33-12.77s-11.91-.64-17.52,3.83c-3.92,3.13-7.82,6.3-11.72,9.45-16.75,13.51-33.5,27.01-50.24,40.52h18.42c-12.76-11.87-25.52-23.74-38.29-35.61-6.38-5.94-15.74-4.51-20.45,2.64-11.89,18.01-25.25,34.85-40.04,50.57h18.42c-17.12-21.13-30.12-45.6-38.43-71.47-2.15-6.69-9.03-11.01-16.02-9.09-6.58,1.81-11.26,9.3-9.09,16.02h0Z"/><path class="cls-1" d="m438.24,49.21c5.8,10.72,11.6,21.44,17.41,32.16,6.38,11.8,24.38,1.29,17.99-10.52-5.8-10.72-11.6-21.44-17.41-32.16-6.38-11.8-24.38-1.29-17.99,10.52h0Z"/></svg>